<svg width="734" height="703" viewBox="0 0 734 703" fill="none" xmlns="http://www.w3.org/2000/svg">
<g clip-path="url(#clip0_24:283)">
<path d="M24.0061 434.257C23.8923 434.124 23.8115 433.966 23.7703 433.795C8.44689 370.503 11.0232 304.196 31.2114 242.284C51.3995 180.371 88.4044 125.291 138.092 83.1975C187.779 41.1036 248.192 13.6539 312.58 3.91521C376.969 -5.82351 442.797 2.53232 502.71 28.0491C502.846 28.1067 502.968 28.1903 503.071 28.2952C503.174 28.4002 503.256 28.5244 503.311 28.6608C503.366 28.7971 503.393 28.943 503.392 29.0901C503.391 29.2371 503.36 29.3824 503.303 29.5178C503.245 29.6531 503.162 29.7758 503.057 29.8788C502.952 29.9818 502.828 30.0631 502.691 30.1181C502.555 30.1731 502.409 30.2007 502.262 30.1993C502.115 30.198 501.969 30.1677 501.834 30.1101C379.257 -22.012 240.164 -0.769997 138.837 85.5468C38.1282 171.337 -5.12819 304.575 25.9482 433.269C26.0073 433.514 25.9822 433.771 25.8769 434C25.7715 434.229 25.5921 434.416 25.3675 434.53C25.143 434.644 24.8865 434.68 24.6394 434.63C24.3924 434.581 24.1693 434.449 24.0061 434.257V434.257Z" fill="#E6E6E6"/>
<path d="M228.727 674.583C228.563 674.391 228.469 674.15 228.459 673.898C228.45 673.646 228.525 673.399 228.674 673.195C228.823 672.992 229.036 672.844 229.278 672.777C229.521 672.709 229.78 672.726 230.012 672.823C352.129 723.965 490.552 702.441 591.262 616.649C693.543 529.521 736.977 395.588 704.616 267.118C704.58 266.975 704.573 266.827 704.594 266.681C704.615 266.536 704.665 266.396 704.741 266.27C704.816 266.144 704.916 266.033 705.034 265.946C705.152 265.858 705.286 265.794 705.429 265.759C705.572 265.723 705.72 265.715 705.865 265.737C706.011 265.758 706.151 265.808 706.277 265.884C706.403 265.959 706.513 266.059 706.601 266.177C706.689 266.295 706.752 266.429 706.788 266.572C722.493 328.999 720.501 394.567 701.037 455.926C680.885 519.16 643.347 575.448 592.715 618.354C543.276 660.491 483.117 688.084 418.93 698.065C354.742 708.046 289.044 700.023 229.146 674.889C228.984 674.821 228.841 674.716 228.727 674.583V674.583Z" fill="#E6E6E6"/>
<path d="M202.846 694.461C202.75 694.349 202.678 694.22 202.633 694.08C202.587 693.94 202.57 693.792 202.582 693.646C202.593 693.499 202.634 693.356 202.701 693.225C202.768 693.094 202.86 692.978 202.972 692.882L732.016 242.211C732.242 242.018 732.536 241.923 732.832 241.947C733.128 241.97 733.402 242.111 733.595 242.337C733.788 242.563 733.882 242.856 733.859 243.152C733.835 243.448 733.695 243.723 733.469 243.916L204.424 694.587C204.313 694.683 204.183 694.755 204.043 694.801C203.903 694.846 203.756 694.863 203.609 694.851C203.462 694.84 203.319 694.799 203.189 694.732C203.058 694.665 202.941 694.573 202.846 694.461Z" fill="#E6E6E6"/>
<path d="M0.267495 456.654C0.172093 456.542 0.0996929 456.413 0.0544064 456.273C0.00911995 456.133 -0.00816382 455.985 0.00356413 455.839C0.0152921 455.692 0.0557948 455.549 0.122751 455.418C0.189706 455.287 0.281809 455.171 0.393792 455.076L529.438 4.40374C529.664 4.21149 529.957 4.11688 530.253 4.1407C530.549 4.16452 530.823 4.30481 531.016 4.53076C531.208 4.75671 531.303 5.04983 531.28 5.34572C531.256 5.6416 531.116 5.91604 530.89 6.10874L1.84622 456.781C1.73428 456.876 1.60465 456.948 1.46472 456.994C1.32478 457.039 1.1773 457.056 1.03069 457.044C0.884086 457.033 0.741236 456.992 0.610284 456.925C0.479332 456.858 0.362841 456.766 0.267495 456.654V456.654Z" fill="#E6E6E6"/>
<path d="M202.846 694.461C202.75 694.349 202.678 694.22 202.633 694.08C202.587 693.94 202.57 693.792 202.582 693.646C202.593 693.499 202.634 693.356 202.701 693.225C202.768 693.094 202.86 692.978 202.972 692.882L732.016 242.211C732.242 242.018 732.536 241.923 732.832 241.947C733.128 241.97 733.402 242.111 733.595 242.337C733.788 242.563 733.882 242.856 733.859 243.152C733.835 243.448 733.695 243.723 733.469 243.916L204.424 694.587C204.313 694.683 204.183 694.755 204.043 694.801C203.903 694.846 203.756 694.863 203.609 694.851C203.462 694.84 203.319 694.799 203.189 694.732C203.058 694.665 202.941 694.573 202.846 694.461Z" fill="#E6E6E6"/>
<path d="M618.532 185.751H413.776V184.679C413.776 183.844 413.444 183.043 412.853 182.453C412.263 181.863 411.462 181.531 410.627 181.531H324.079C323.244 181.531 322.443 181.863 321.853 182.453C321.263 183.043 320.931 183.844 320.931 184.679V185.751H115.33C111.657 185.751 108.134 187.21 105.537 189.808C102.939 192.405 101.48 195.928 101.48 199.601V479.976C101.48 483.65 102.939 487.173 105.537 489.77C108.134 492.367 111.657 493.827 115.33 493.827H618.532C622.205 493.827 625.728 492.367 628.326 489.77C630.923 487.172 632.382 483.65 632.382 479.976V199.601C632.382 195.928 630.923 192.405 628.326 189.808C625.728 187.21 622.205 185.751 618.532 185.751V185.751Z" fill="#3F3D56"/>
<path d="M126.345 215.228C126.001 215.229 125.672 215.366 125.429 215.609C125.186 215.852 125.049 216.181 125.049 216.525V482.467C125.049 482.81 125.186 483.139 125.429 483.382C125.672 483.625 126.001 483.762 126.345 483.762H607.517C607.861 483.762 608.19 483.626 608.433 483.383C608.676 483.14 608.813 482.81 608.813 482.467V216.525C608.813 216.181 608.676 215.852 608.433 215.608C608.19 215.365 607.861 215.229 607.517 215.228H126.345Z" fill="#2D8FC0"/>
<path d="M366.509 202.632C369.306 202.632 371.573 200.365 371.573 197.568C371.573 194.771 369.306 192.504 366.509 192.504C363.712 192.504 361.445 194.771 361.445 197.568C361.445 200.365 363.712 202.632 366.509 202.632Z" fill="#2D8FC0"/>
<path d="M641.604 474.93H593.415V469.954C593.415 469.68 593.107 469.459 592.727 469.459H576.205C575.825 469.459 575.517 469.68 575.517 469.954V474.93H565.191V469.954C565.191 469.68 564.883 469.459 564.503 469.459H547.981C547.601 469.459 547.292 469.68 547.292 469.954V474.93H536.966V469.954C536.966 469.68 536.658 469.459 536.278 469.459H519.756C519.376 469.459 519.068 469.68 519.068 469.954V474.93H508.742V469.954C508.742 469.68 508.434 469.459 508.053 469.459H491.532C491.152 469.459 490.843 469.68 490.843 469.954V474.93H480.517V469.954C480.517 469.68 480.209 469.459 479.829 469.459H463.307C462.927 469.459 462.619 469.68 462.619 469.954V474.93H452.293V469.954C452.293 469.68 451.985 469.459 451.604 469.459H435.083C434.703 469.459 434.394 469.68 434.394 469.954V474.93H424.068V469.954C424.068 469.68 423.76 469.459 423.38 469.459H293.96C293.58 469.459 293.272 469.68 293.272 469.954V474.93H282.946V469.954C282.946 469.68 282.638 469.459 282.257 469.459H265.736C265.355 469.459 265.047 469.68 265.047 469.954V474.93H254.721V469.954C254.721 469.68 254.413 469.459 254.033 469.459H237.511C237.131 469.459 236.823 469.68 236.823 469.954V474.93H226.497V469.954C226.497 469.68 226.188 469.459 225.808 469.459H209.287C208.906 469.459 208.598 469.68 208.598 469.954V474.93H198.272V469.954C198.272 469.68 197.964 469.459 197.584 469.459H181.062C180.682 469.459 180.374 469.68 180.374 469.954V474.93H170.048V469.954C170.048 469.68 169.739 469.459 169.359 469.459H152.837C152.457 469.459 152.149 469.68 152.149 469.954V474.93H141.823V469.954C141.823 469.68 141.515 469.459 141.135 469.459H124.613C124.233 469.459 123.925 469.68 123.925 469.954V474.93H92.258C83.1333 474.93 75.7363 480.248 75.7363 486.807V492.177C75.7363 498.737 83.1333 504.054 92.258 504.054H641.604C650.728 504.054 658.125 498.737 658.125 492.177V486.807C658.125 480.248 650.728 474.93 641.604 474.93Z" fill="#3F3D56"/>
<path d="M310.91 327.114H168.686C168.389 327.114 168.104 326.996 167.894 326.786C167.684 326.576 167.566 326.291 167.566 325.994C167.566 325.697 167.684 325.413 167.894 325.203C168.104 324.992 168.389 324.875 168.686 324.875H310.91C311.207 324.875 311.491 324.992 311.701 325.203C311.911 325.413 312.029 325.697 312.029 325.994C312.029 326.291 311.911 326.576 311.701 326.786C311.491 326.996 311.207 327.114 310.91 327.114Z" fill="#F2F2F2"/>
<path d="M310.91 351.751H168.686C168.389 351.751 168.104 351.633 167.894 351.423C167.684 351.213 167.566 350.929 167.566 350.632C167.566 350.335 167.684 350.05 167.894 349.84C168.104 349.63 168.389 349.512 168.686 349.512H310.91C311.207 349.512 311.491 349.63 311.701 349.84C311.911 350.05 312.029 350.335 312.029 350.632C312.029 350.929 311.911 351.213 311.701 351.423C311.491 351.633 311.207 351.751 310.91 351.751Z" fill="#F2F2F2"/>
<path d="M310.909 376.389H168.686C168.538 376.389 168.392 376.36 168.256 376.304C168.12 376.248 167.996 376.166 167.892 376.062C167.787 375.958 167.705 375.834 167.648 375.698C167.592 375.562 167.562 375.416 167.562 375.269C167.562 375.121 167.592 374.976 167.648 374.839C167.705 374.703 167.787 374.58 167.892 374.476C167.996 374.372 168.12 374.289 168.256 374.233C168.392 374.177 168.538 374.148 168.686 374.149H310.909C311.057 374.148 311.203 374.177 311.339 374.233C311.475 374.289 311.599 374.372 311.703 374.476C311.808 374.58 311.891 374.703 311.947 374.839C312.004 374.976 312.033 375.121 312.033 375.269C312.033 375.416 312.004 375.562 311.947 375.698C311.891 375.834 311.808 375.958 311.703 376.062C311.599 376.166 311.475 376.248 311.339 376.304C311.203 376.36 311.057 376.389 310.909 376.389Z" fill="#F2F2F2"/>
<path d="M552.242 262.722H376.422C374.566 262.722 373.062 264.226 373.062 266.081V435.182C373.062 437.037 374.566 438.542 376.422 438.542H552.242C554.097 438.542 555.601 437.037 555.601 435.182V266.081C555.601 264.226 554.097 262.722 552.242 262.722Z" fill="white"/>
<path d="M409.614 355.771C410.217 345.122 414.581 335.033 421.93 327.303C429.279 319.573 439.135 314.704 449.74 313.564C460.345 312.424 471.01 315.088 479.834 321.081C488.657 327.073 495.066 336.004 497.917 346.282C498.462 346.263 499.007 346.241 499.557 346.241C501.433 346.259 503.295 346.575 505.072 347.179C527.459 354.53 521.564 387.954 498.001 387.954H440.092C435.996 387.966 431.94 387.151 428.167 385.558C424.394 383.965 420.981 381.627 418.132 378.685C415.284 375.742 413.058 372.254 411.589 368.431C410.12 364.608 409.438 360.528 409.583 356.435C409.592 356.214 409.602 355.993 409.614 355.771Z" fill="#2D8FC0"/>
<path d="M462.397 355.07V336.649H452.478V355.07H444.559L450.998 366.224L457.438 377.377L463.877 366.224L470.316 355.07H462.397Z" fill="white"/>
</g>
<defs>
<clipPath id="clip0_24:283">
<rect width="733.862" height="702.195" fill="white"/>
</clipPath>
</defs>
</svg>
