<svg width="889" height="711" viewBox="0 0 889 711" fill="none" xmlns="http://www.w3.org/2000/svg">
<g clip-path="url(#clip0_23:2)">
<path d="M445.106 604.807C384.939 604.807 326.634 583.945 280.124 545.775C233.614 507.605 201.778 454.49 190.04 395.479C178.302 336.468 187.389 275.212 215.752 222.15C244.114 169.087 289.998 127.5 345.585 104.476C401.173 81.4507 463.024 78.4122 520.6 95.8778C578.176 113.343 627.915 150.233 661.342 200.26C694.769 250.287 709.816 310.357 703.919 370.234C698.021 430.111 671.544 486.091 629 528.636C604.907 552.861 576.248 572.066 544.683 585.141C513.117 598.216 479.272 604.9 445.106 604.807V604.807ZM445.106 86.678C302.809 86.678 187.042 202.446 187.042 344.743C187.042 487.04 302.809 602.807 445.106 602.807C587.403 602.807 703.171 487.04 703.171 344.743C703.171 202.446 587.403 86.678 445.106 86.678V86.678Z" fill="#CCCCCC"/>
<path d="M541.671 643.807V381.807H346.671V643.807H541.671Z" fill="#2F2E41"/>
<path d="M575.171 373.807H313.171V477.807H575.171V373.807Z" fill="#3F3D56"/>
<path d="M575.171 489.807H313.171V593.807H575.171V489.807Z" fill="#3F3D56"/>
<path d="M575.171 605.807H313.171V709.807H575.171V605.807Z" fill="#3F3D56"/>
<path d="M575.171 417.904H313.171V433.904H575.171V417.904Z" fill="#2D8FC0"/>
<path d="M575.171 533.904H313.171V549.904H575.171V533.904Z" fill="#2D8FC0"/>
<path d="M575.171 649.904H313.171V665.904H575.171V649.904Z" fill="#2D8FC0"/>
<path d="M524.171 394.807C527.485 394.807 530.171 392.121 530.171 388.807C530.171 385.494 527.485 382.807 524.171 382.807C520.857 382.807 518.171 385.494 518.171 388.807C518.171 392.121 520.857 394.807 524.171 394.807Z" fill="#2D8FC0"/>
<path d="M545.171 394.807C548.485 394.807 551.171 392.121 551.171 388.807C551.171 385.494 548.485 382.807 545.171 382.807C541.857 382.807 539.171 385.494 539.171 388.807C539.171 392.121 541.857 394.807 545.171 394.807Z" fill="#2D8FC0"/>
<path d="M566.171 394.807C569.485 394.807 572.171 392.121 572.171 388.807C572.171 385.494 569.485 382.807 566.171 382.807C562.857 382.807 560.171 385.494 560.171 388.807C560.171 392.121 562.857 394.807 566.171 394.807Z" fill="#2D8FC0"/>
<path d="M524.171 508.807C527.485 508.807 530.171 506.121 530.171 502.807C530.171 499.494 527.485 496.807 524.171 496.807C520.857 496.807 518.171 499.494 518.171 502.807C518.171 506.121 520.857 508.807 524.171 508.807Z" fill="#2D8FC0"/>
<path d="M545.171 508.807C548.485 508.807 551.171 506.121 551.171 502.807C551.171 499.494 548.485 496.807 545.171 496.807C541.857 496.807 539.171 499.494 539.171 502.807C539.171 506.121 541.857 508.807 545.171 508.807Z" fill="#2D8FC0"/>
<path d="M566.171 508.807C569.485 508.807 572.171 506.121 572.171 502.807C572.171 499.494 569.485 496.807 566.171 496.807C562.857 496.807 560.171 499.494 560.171 502.807C560.171 506.121 562.857 508.807 566.171 508.807Z" fill="#2D8FC0"/>
<path d="M524.171 622.807C527.485 622.807 530.171 620.121 530.171 616.807C530.171 613.494 527.485 610.807 524.171 610.807C520.857 610.807 518.171 613.494 518.171 616.807C518.171 620.121 520.857 622.807 524.171 622.807Z" fill="#2D8FC0"/>
<path d="M545.171 622.807C548.485 622.807 551.171 620.121 551.171 616.807C551.171 613.494 548.485 610.807 545.171 610.807C541.857 610.807 539.171 613.494 539.171 616.807C539.171 620.121 541.857 622.807 545.171 622.807Z" fill="#2D8FC0"/>
<path d="M566.171 622.807C569.485 622.807 572.171 620.121 572.171 616.807C572.171 613.494 569.485 610.807 566.171 610.807C562.857 610.807 560.171 613.494 560.171 616.807C560.171 620.121 562.857 622.807 566.171 622.807Z" fill="#2D8FC0"/>
<path d="M888.171 708.807H0.170898V710.807H888.171V708.807Z" fill="#3F3D56"/>
<path d="M242.049 271.065V457.056C242.049 460.947 240.503 464.679 237.751 467.43C235 470.182 231.268 471.728 227.377 471.729H155.099C151.207 471.729 147.474 470.184 144.721 467.432C141.969 464.681 140.422 460.948 140.42 457.056V271.065C140.422 267.173 141.969 263.44 144.721 260.689C147.474 257.937 151.207 256.392 155.099 256.392H163.867C163.436 257.451 163.272 258.599 163.39 259.736C163.507 260.873 163.901 261.964 164.539 262.913C165.176 263.861 166.037 264.639 167.045 265.177C168.054 265.715 169.179 265.997 170.322 265.998H211.53C212.673 265.997 213.798 265.715 214.807 265.177C215.815 264.639 216.676 263.861 217.313 262.913C217.951 261.964 218.345 260.873 218.462 259.736C218.58 258.599 218.416 257.451 217.985 256.392H227.377C231.268 256.393 235 257.939 237.751 260.691C240.503 263.442 242.049 267.174 242.049 271.065V271.065Z" fill="#E6E6E6"/>
<path d="M237.235 291.91H145.235V419.91H237.235V291.91Z" fill="white"/>
<path d="M208.076 379.927H171.356V382.026H208.076V379.927Z" fill="#E6E6E6"/>
<path d="M228.137 387.632H171.32V389.73H228.137V387.632Z" fill="#2D8FC0"/>
<path d="M215.908 394.89H171.32V396.988H215.908V394.89Z" fill="#E6E6E6"/>
<path d="M197.548 402.149H171.32V404.247H197.548V402.149Z" fill="#E6E6E6"/>
<path d="M210.662 409.407H171.32V411.505H210.662V409.407Z" fill="#E6E6E6"/>
<path d="M158.901 379.324H154.704V383.52H158.901V379.324Z" fill="#E6E6E6"/>
<path d="M158.901 386.582H154.704V390.779H158.901V386.582Z" fill="#2D8FC0"/>
<path d="M158.901 393.841H154.704V398.038H158.901V393.841Z" fill="#E6E6E6"/>
<path d="M158.901 401.1H154.704V405.296H158.901V401.1Z" fill="#E6E6E6"/>
<path d="M158.901 408.358H154.704V412.555H158.901V408.358Z" fill="#E6E6E6"/>
<path d="M209.919 307.91H172.922V344.908H209.919V307.91Z" fill="#E6E6E6"/>
<path d="M567.165 0.139404H321.281V157.614H567.165V0.139404Z" fill="#E6E6E6"/>
<path d="M543.679 44.1953H339.817V121.23H543.679V44.1953Z" fill="white"/>
<path d="M425.887 57.5417H376.96V60.3376H425.887V57.5417Z" fill="#E6E6E6"/>
<path d="M452.617 67.8074H376.911V70.6032H452.617V67.8074Z" fill="#2D8FC0"/>
<path d="M436.322 77.479H376.911V80.2748H436.322V77.479Z" fill="#E6E6E6"/>
<path d="M411.859 87.1506H376.911V89.9465H411.859V87.1506Z" fill="#E6E6E6"/>
<path d="M429.333 96.8223H376.911V99.6181H429.333V96.8223Z" fill="#E6E6E6"/>
<path d="M360.364 56.7378H354.772V62.3294H360.364V56.7378Z" fill="#E6E6E6"/>
<path d="M360.364 66.4094H354.772V72.0011H360.364V66.4094Z" fill="#2D8FC0"/>
<path d="M360.364 76.0811H354.772V81.6727H360.364V76.0811Z" fill="#E6E6E6"/>
<path d="M360.364 85.7527H354.772V91.3443H360.364V85.7527Z" fill="#E6E6E6"/>
<path d="M360.364 95.4243H354.772V101.016H360.364V95.4243Z" fill="#E6E6E6"/>
<path d="M533.675 53.8474H483.616V103.906H533.675V53.8474Z" fill="#E6E6E6"/>
<path d="M567.06 0H321.176V10.446H567.06V0Z" fill="#2D8FC0"/>
<path d="M328.939 7.43737C330.097 7.43737 331.036 6.49858 331.036 5.34051C331.036 4.18245 330.097 3.24365 328.939 3.24365C327.781 3.24365 326.842 4.18245 326.842 5.34051C326.842 6.49858 327.781 7.43737 328.939 7.43737Z" fill="white"/>
<path d="M336.288 7.43737C337.446 7.43737 338.385 6.49858 338.385 5.34051C338.385 4.18245 337.446 3.24365 336.288 3.24365C335.13 3.24365 334.191 4.18245 334.191 5.34051C334.191 6.49858 335.13 7.43737 336.288 7.43737Z" fill="white"/>
<path d="M343.637 7.43737C344.795 7.43737 345.734 6.49858 345.734 5.34051C345.734 4.18245 344.795 3.24365 343.637 3.24365C342.479 3.24365 341.54 4.18245 341.54 5.34051C341.54 6.49858 342.479 7.43737 343.637 7.43737Z" fill="white"/>
<path d="M731.818 294.807H671.818V325.807H731.818V294.807Z" fill="#E6E6E6"/>
<path d="M731.818 405.807H671.818V436.807H731.818V405.807Z" fill="#E6E6E6"/>
<path d="M701.818 415.807C729.433 415.807 751.818 393.422 751.818 365.807C751.818 338.193 729.433 315.807 701.818 315.807C674.204 315.807 651.818 338.193 651.818 365.807C651.818 393.422 674.204 415.807 701.818 415.807Z" fill="#E6E6E6"/>
<path d="M701.818 404.807C723.357 404.807 740.818 387.346 740.818 365.807C740.818 344.268 723.357 326.807 701.818 326.807C680.279 326.807 662.818 344.268 662.818 365.807C662.818 387.346 680.279 404.807 701.818 404.807Z" fill="white"/>
<path d="M719.294 355.122H689.047V356.85H719.294V355.122Z" fill="#E2E2E2"/>
<path d="M735.819 361.468H689.017V363.196H735.819V361.468Z" fill="#2D8FC0"/>
<path d="M725.745 367.447H689.017V369.175H725.745V367.447Z" fill="#E2E2E2"/>
<path d="M710.622 373.426H689.017V375.154H710.622V373.426Z" fill="#E2E2E2"/>
<path d="M721.424 379.405H689.017V381.133H721.424V379.405Z" fill="#E2E2E2"/>
<path d="M678.787 354.625H675.331V358.082H678.787V354.625Z" fill="#E2E2E2"/>
<path d="M678.787 360.604H675.331V364.061H678.787V360.604Z" fill="#2D8FC0"/>
<path d="M678.787 366.583H675.331V370.04H678.787V366.583Z" fill="#E2E2E2"/>
<path d="M678.787 372.562H675.331V376.019H678.787V372.562Z" fill="#E2E2E2"/>
<path d="M678.787 378.541H675.331V381.998H678.787V378.541Z" fill="#E2E2E2"/>
</g>
<defs>
<clipPath id="clip0_23:2">
<rect width="888" height="710.807" fill="white" transform="translate(0.170898)"/>
</clipPath>
</defs>
</svg>
