<svg width="885" height="643" viewBox="0 0 885 643" fill="none" xmlns="http://www.w3.org/2000/svg">
<g clip-path="url(#clip0_35:2)">
<path d="M832.274 4.25588H157.633C157.614 3.12106 157.15 2.03912 156.341 1.24309C155.532 0.447058 154.443 0.000640728 153.308 0H126.737C125.602 0.000483493 124.512 0.446838 123.703 1.2429C122.894 2.03897 122.43 3.12101 122.412 4.25588H115.905C115.886 3.12106 115.422 2.03912 114.613 1.24309C113.804 0.447058 112.714 0.000640728 111.579 0H85.0083C83.8733 0.000640728 82.784 0.447058 81.975 1.24309C81.166 2.03912 80.702 3.12106 80.683 4.25588H57.0071C43.2672 4.27131 30.0945 9.73622 20.3789 19.4517C10.6633 29.1671 5.1982 42.3397 5.18254 56.0795V56.5897C5.10131 56.5851 5.02344 56.5653 4.9405 56.5653H4.3329C3.76389 56.5653 3.20045 56.6774 2.67475 56.8951C2.14906 57.1129 1.67139 57.432 1.26904 57.8344C0.866692 58.2367 0.547532 58.7144 0.32979 59.2401C0.112048 59.7658 -1.60218e-05 60.3292 1.71811e-09 60.8982V111.58C-1.60218e-05 112.149 0.112048 112.712 0.32979 113.238C0.547532 113.764 0.866692 114.241 1.26904 114.644C1.67139 115.046 2.14906 115.365 2.67475 115.583C3.20045 115.801 3.76389 115.913 4.3329 115.913H4.9405C5.02346 115.913 5.10131 115.893 5.18254 115.888V591.176C5.1982 604.916 10.6633 618.089 20.3789 627.804C30.0945 637.52 43.2672 642.985 57.0071 643H832.274C846.014 642.984 859.187 637.519 868.902 627.804C878.617 618.089 884.082 604.916 884.098 591.176V56.0796C884.082 42.3399 878.617 29.1674 868.902 19.4519C859.187 9.73647 846.014 4.27148 832.274 4.25588ZM868.5 591.176C868.489 600.781 864.668 609.988 857.877 616.779C851.086 623.571 841.879 627.391 832.274 627.402H57.0071C47.4027 627.391 38.1949 623.571 31.4035 616.78C24.6121 609.988 20.7919 600.781 20.7809 591.176V56.0796C20.7919 46.4752 24.6121 37.2675 31.4035 30.4763C38.1949 23.6851 47.4027 19.865 57.0071 19.8543H832.274C841.879 19.8653 851.086 23.6854 857.877 30.4765C864.668 37.2677 868.489 46.4754 868.5 56.0795V591.176Z" fill="#CCCCCC"/>
<path d="M832.274 636.067H57.007C45.1052 636.054 33.6948 631.32 25.2789 622.904C16.8631 614.489 12.1292 603.078 12.1157 591.176V56.0796C12.1292 44.1778 16.8631 32.7674 25.2789 24.3516C33.6948 15.9358 45.1052 11.2019 57.007 11.1885H832.274C844.176 11.2018 855.586 15.9357 864.002 24.3515C872.418 32.7673 877.152 44.1777 877.165 56.0795V591.176C877.152 603.078 872.418 614.489 864.002 622.904C855.586 631.32 844.176 636.054 832.274 636.067V636.067Z" fill="#E6E6E6"/>
<path d="M832.511 599.903H56.7696C54.15 599.9 51.6385 598.858 49.7862 597.005C47.9339 595.153 46.8921 592.642 46.8892 590.022V57.2329C46.8921 54.6134 47.934 52.1021 49.7863 50.2498C51.6386 48.3975 54.15 47.3557 56.7696 47.3528H832.511C835.131 47.3556 837.642 48.3975 839.494 50.2497C841.347 52.102 842.389 54.6134 842.392 57.2329V590.022C842.389 592.642 841.347 595.153 839.494 597.005C837.642 598.858 835.131 599.9 832.511 599.903V599.903Z" fill="white"/>
<path d="M29.6736 326.41C31.7221 326.41 33.3828 324.749 33.3828 322.701C33.3828 320.652 31.7221 318.991 29.6736 318.991C27.625 318.991 25.9644 320.652 25.9644 322.701C25.9644 324.749 27.625 326.41 29.6736 326.41Z" fill="white"/>
<path d="M338.533 117.853H173.737C160.809 117.867 148.416 123.009 139.275 132.15C130.134 141.291 124.992 153.685 124.977 166.612V181.508C124.639 181.415 124.284 181.402 123.939 181.469C123.595 181.537 123.272 181.684 122.994 181.898C122.716 182.113 122.492 182.389 122.339 182.704C122.186 183.02 122.109 183.367 122.113 183.718V195.173C122.109 195.524 122.186 195.87 122.339 196.186C122.492 196.502 122.716 196.778 122.994 196.992C123.272 197.207 123.595 197.353 123.939 197.421C124.284 197.489 124.639 197.476 124.977 197.383V214.727C124.639 214.634 124.284 214.621 123.939 214.688C123.595 214.756 123.271 214.903 122.994 215.117C122.716 215.332 122.492 215.607 122.339 215.923C122.186 216.239 122.109 216.586 122.113 216.937V245.574C122.109 245.925 122.186 246.272 122.339 246.587C122.492 246.903 122.716 247.179 122.994 247.394C123.271 247.608 123.595 247.755 123.939 247.822C124.284 247.89 124.639 247.877 124.977 247.784V258.255C124.639 258.162 124.284 258.149 123.939 258.217C123.595 258.284 123.271 258.431 122.994 258.645C122.716 258.86 122.492 259.136 122.339 259.452C122.186 259.767 122.109 260.114 122.113 260.465V289.102C122.109 289.453 122.186 289.8 122.339 290.116C122.492 290.432 122.716 290.708 122.994 290.922C123.271 291.136 123.595 291.283 123.939 291.351C124.284 291.418 124.639 291.405 124.977 291.312V593.723C124.992 606.651 130.134 619.044 139.275 628.185C148.416 637.326 160.809 642.468 173.737 642.483H338.533C351.46 642.468 363.854 637.326 372.995 628.185C382.136 619.044 387.278 606.651 387.292 593.723V166.612C387.278 153.685 382.136 141.291 372.995 132.15C363.854 123.009 351.46 117.867 338.533 117.853V117.853ZM376.983 593.723C376.971 603.918 372.917 613.691 365.708 620.899C358.5 628.107 348.727 632.162 338.533 632.174H173.737C163.543 632.162 153.769 628.107 146.561 620.899C139.353 613.691 135.298 603.918 135.287 593.723V166.612C135.298 156.418 139.353 146.645 146.561 139.437C153.769 132.228 163.543 128.174 173.737 128.162H338.533C348.727 128.174 358.5 132.228 365.708 139.437C372.917 146.645 376.971 156.418 376.983 166.612V593.723Z" fill="#CCCCCC"/>
<path d="M338.533 637.901H173.737C162.024 637.888 150.795 633.229 142.513 624.947C134.231 616.665 129.572 605.436 129.559 593.724V166.612C129.572 154.9 134.231 143.671 142.513 135.389C150.795 127.107 162.024 122.448 173.737 122.435H338.533C350.245 122.448 361.474 127.107 369.756 135.389C378.038 143.671 382.697 154.9 382.71 166.612V593.723C382.697 605.436 378.038 616.665 369.756 624.947C361.474 633.229 350.245 637.888 338.533 637.901V637.901Z" fill="#E6E6E6"/>
<path d="M342.605 631.028H169.664C161.765 631.019 154.191 627.877 148.605 622.291C143.019 616.705 139.877 609.132 139.868 601.232V159.104C139.877 151.204 143.019 143.63 148.605 138.045C154.191 132.459 161.764 129.317 169.664 129.308H192.218C193.523 129.309 194.775 129.828 195.698 130.752C196.621 131.675 197.141 132.927 197.142 134.232C197.147 138.09 198.681 141.787 201.408 144.515C204.136 147.242 207.833 148.776 211.691 148.781H298.287C302.144 148.777 305.842 147.242 308.57 144.515C311.297 141.788 312.831 138.09 312.836 134.232C312.837 132.927 313.357 131.675 314.28 130.752C315.203 129.828 316.455 129.309 317.76 129.308H342.605C350.504 129.317 358.078 132.459 363.664 138.045C369.25 143.63 372.392 151.204 372.401 159.104V601.232C372.392 609.132 369.25 616.705 363.664 622.291C358.078 627.877 350.504 631.019 342.605 631.028V631.028Z" fill="white"/>
<path d="M263.58 139.33H242.961C242.354 139.33 241.771 139.089 241.341 138.659C240.912 138.23 240.67 137.647 240.67 137.039C240.67 136.432 240.912 135.849 241.341 135.42C241.771 134.99 242.354 134.749 242.961 134.749H263.58C264.187 134.75 264.768 134.992 265.197 135.421C265.625 135.851 265.866 136.433 265.866 137.039C265.866 137.646 265.625 138.228 265.197 138.658C264.768 139.087 264.187 139.329 263.58 139.33V139.33Z" fill="white"/>
<path d="M277.899 138.758C278.532 138.758 279.044 138.245 279.044 137.612C279.044 136.98 278.532 136.467 277.899 136.467C277.266 136.467 276.753 136.98 276.753 137.612C276.753 138.245 277.266 138.758 277.899 138.758Z" fill="white"/>
<path d="M279.061 246.993L279.3 252.322C306.544 251.102 338.092 253.476 371.669 259.079V253.675C338.042 248.115 306.422 245.768 279.061 246.993Z" fill="#CCCCCC"/>
<path d="M245.183 351.375C244.972 353.414 244.799 355.466 244.666 357.53C244.385 361.59 244.245 365.682 244.245 369.805C244.266 408.199 256.678 445.561 279.637 476.334C302.595 507.107 334.872 529.649 371.669 540.606V198.972C337.877 209.018 307.823 228.859 285.309 255.987C262.794 283.115 248.83 316.31 245.183 351.375V351.375Z" fill="#2D8FC0"/>
<path d="M156.267 248.094C158.207 248.094 159.779 246.521 159.779 244.581C159.779 242.641 158.207 241.069 156.267 241.069C154.327 241.069 152.754 242.641 152.754 244.581C152.754 246.521 154.327 248.094 156.267 248.094Z" fill="#CCCCCC"/>
<path d="M148.781 388.994C152.613 388.994 155.719 385.888 155.719 382.055C155.719 378.223 152.613 375.117 148.781 375.117C144.948 375.117 141.842 378.223 141.842 382.055C141.842 385.888 144.948 388.994 148.781 388.994Z" fill="#CCCCCC"/>
<path d="M279.449 205.357C282.225 205.357 284.475 203.107 284.475 200.332C284.475 197.556 282.225 195.306 279.449 195.306C276.674 195.306 274.424 197.556 274.424 200.332C274.424 203.107 276.674 205.357 279.449 205.357Z" fill="#CCCCCC"/>
<path d="M165.114 484.066C167.328 484.066 169.123 482.271 169.123 480.057C169.123 477.843 167.328 476.047 165.114 476.047C162.9 476.047 161.104 477.843 161.104 480.057C161.104 482.271 162.9 484.066 165.114 484.066Z" fill="#CCCCCC"/>
<path d="M246.101 540.205C248.499 540.205 250.443 538.261 250.443 535.863C250.443 533.465 248.499 531.521 246.101 531.521C243.703 531.521 241.759 533.465 241.759 535.863C241.759 538.261 243.703 540.205 246.101 540.205Z" fill="#CCCCCC"/>
<path d="M372.326 98.6693H363.757V90.1005H359.16V98.6693H350.587V103.269H359.16V111.838H363.757V103.269H372.326V98.6693Z" fill="#CCCCCC"/>
<path opacity="0.1" d="M310.074 354.833C318.344 354.833 325.047 348.129 325.047 339.86C325.047 331.591 318.344 324.888 310.074 324.888C301.805 324.888 295.102 331.591 295.102 339.86C295.102 348.129 301.805 354.833 310.074 354.833Z" fill="black"/>
<path opacity="0.1" d="M317.561 460.32C325.83 460.32 332.533 453.617 332.533 445.348C332.533 437.079 325.83 430.376 317.561 430.376C309.292 430.376 302.588 437.079 302.588 445.348C302.588 453.617 309.292 460.32 317.561 460.32Z" fill="black"/>
<path d="M251.507 351.481C233.135 339.144 219.45 326.973 210.834 315.306C202.238 303.666 199.174 293.152 201.723 284.053C204.273 274.955 212.357 267.565 225.75 262.089C239.175 256.599 257.191 253.313 279.299 252.323L279.06 246.993C231.721 249.115 202.43 261.765 196.587 282.613C190.744 303.462 209.191 329.492 248.533 355.91C280.616 377.453 323.586 397.348 371.669 413.104V407.49C324.721 391.975 282.829 372.513 251.507 351.481Z" fill="#CCCCCC"/>
<path opacity="0.1" d="M251.505 355.749C249.334 354.289 247.227 352.831 245.184 351.375C244.972 353.414 244.8 355.466 244.667 357.531C245.932 358.414 247.221 359.296 248.534 360.176C280.617 381.72 323.586 401.615 371.669 417.372V411.756C324.723 396.242 282.831 376.781 251.505 355.749Z" fill="black"/>
<path d="M450.194 269.827C429.212 263.946 408.415 259.156 388.236 255.469V260.891C407.948 264.525 428.257 269.218 448.754 274.964C514.012 293.254 573.062 319.91 610.764 348.095L613.959 343.823C575.75 315.259 516.06 288.288 450.194 269.827Z" fill="#CCCCCC"/>
<path d="M606.85 369.805C606.834 342.973 600.762 316.491 589.086 292.332C577.411 268.174 560.433 246.962 539.419 230.278C518.405 213.594 493.896 201.868 467.719 195.975C441.543 190.081 414.373 190.172 388.236 196.24V543.359C427.534 552.506 468.773 548.052 505.211 530.723C541.648 513.395 571.13 484.218 588.835 447.962C589.755 446.087 590.639 444.196 591.487 442.286C601.649 419.475 606.884 394.777 606.851 369.805L606.85 369.805Z" fill="#2D8FC0"/>
<path d="M433.39 159.498C434.517 159.498 435.432 158.584 435.432 157.456C435.432 156.329 434.517 155.414 433.39 155.414C432.262 155.414 431.348 156.329 431.348 157.456C431.348 158.584 432.262 159.498 433.39 159.498Z" fill="#F2F2F2"/>
<path d="M571.544 174.331C574.098 174.331 576.169 172.26 576.169 169.706C576.169 167.152 574.098 165.082 571.544 165.082C568.99 165.082 566.92 167.152 566.92 169.706C566.92 172.26 568.99 174.331 571.544 174.331Z" fill="#CCCCCC"/>
<path d="M735.561 369.147C739.707 369.147 743.069 365.785 743.069 361.639C743.069 357.492 739.707 354.13 735.561 354.13C731.414 354.13 728.052 357.492 728.052 361.639C728.052 365.785 731.414 369.147 735.561 369.147Z" fill="#CCCCCC"/>
<path d="M676.849 244.939C678.628 244.939 680.07 243.497 680.07 241.718C680.07 239.938 678.628 238.496 676.849 238.496C675.07 238.496 673.627 239.938 673.627 241.718C673.627 243.497 675.07 244.939 676.849 244.939Z" fill="#CCCCCC"/>
<path d="M665.574 349.635C667.353 349.635 668.795 348.193 668.795 346.414C668.795 344.635 667.353 343.192 665.574 343.192C663.795 343.192 662.353 344.635 662.353 346.414C662.353 348.193 663.795 349.635 665.574 349.635Z" fill="#CCCCCC"/>
<path d="M577.348 562.31H571.965V556.931H569.08V562.31H563.7V565.197H569.08V570.578H571.965V565.197H577.348V562.31Z" fill="#CCCCCC"/>
<path d="M701.53 534.771H697.509V530.75H695.348V534.771H691.326V536.931H695.348V540.952H697.509V536.931H701.53V534.771Z" fill="#CCCCCC"/>
<path opacity="0.1" d="M431.348 245.262C439.617 245.262 446.32 238.559 446.32 230.289C446.32 222.02 439.617 215.317 431.348 215.317C423.079 215.317 416.375 222.02 416.375 230.289C416.375 238.559 423.079 245.262 431.348 245.262Z" fill="black"/>
<path opacity="0.1" d="M431.348 377.972C439.617 377.972 446.32 371.269 446.32 363C446.32 354.731 439.617 348.027 431.348 348.027C423.079 348.027 416.375 354.731 416.375 363C416.375 371.269 423.079 377.972 431.348 377.972Z" fill="black"/>
<path opacity="0.1" d="M511.655 297.665C519.924 297.665 526.627 290.962 526.627 282.693C526.627 274.424 519.924 267.721 511.655 267.721C503.386 267.721 496.682 274.424 496.682 282.693C496.682 290.962 503.386 297.665 511.655 297.665Z" fill="black"/>
<path opacity="0.1" d="M561.336 399.07C569.605 399.07 576.309 392.366 576.309 384.097C576.309 375.828 569.605 369.125 561.336 369.125C553.067 369.125 546.364 375.828 546.364 384.097C546.364 392.366 553.067 399.07 561.336 399.07Z" fill="black"/>
<path d="M647.591 377.304C640.561 366.516 629.245 355.251 613.959 343.823L610.764 348.096C640.47 370.304 654.308 391.531 649.729 407.868C647.179 416.967 639.095 424.356 625.703 429.833C612.277 435.322 594.26 438.608 572.153 439.599C567.456 439.809 562.636 439.914 557.694 439.914C514.438 439.913 462.281 431.904 408.956 416.958C401.964 414.998 395.057 412.948 388.236 410.808V416.394C394.589 418.368 401.015 420.268 407.516 422.094C461.307 437.171 513.967 445.248 557.72 445.247C562.729 445.247 567.628 445.142 572.392 444.928C619.732 442.806 649.022 430.157 654.866 409.308C657.576 399.638 655.129 388.87 647.591 377.304Z" fill="#CCCCCC"/>
<path opacity="0.1" d="M572.154 443.865C567.458 444.075 562.638 444.18 557.693 444.18C514.44 444.18 462.279 436.173 408.955 421.225C401.963 419.265 395.057 417.215 388.236 415.075V420.662C394.588 422.636 401.014 424.536 407.514 426.362C461.308 441.438 513.965 449.514 557.719 449.514C562.728 449.514 567.631 449.407 572.395 449.194C578.149 448.938 583.629 448.527 588.835 447.962C589.755 446.088 590.639 444.196 591.487 442.286C585.438 443.029 578.993 443.555 572.154 443.865Z" fill="black"/>
<path d="M511.596 239.752C522.377 239.752 531.117 231.012 531.117 220.231C531.117 209.449 522.377 200.709 511.596 200.709C500.814 200.709 492.074 209.449 492.074 220.231C492.074 231.012 500.814 239.752 511.596 239.752Z" fill="white"/>
<path d="M511.655 191.497C504.254 191.497 497.157 194.437 491.924 199.67C486.691 204.903 483.751 212 483.751 219.4C483.751 234.811 511.655 285.415 511.655 285.415C511.655 285.415 539.558 234.811 539.558 219.4C539.558 212 536.618 204.903 531.385 199.67C526.152 194.437 519.055 191.497 511.655 191.497ZM511.655 233.012C509.097 233.012 506.597 232.253 504.471 230.833C502.344 229.412 500.687 227.392 499.708 225.029C498.729 222.667 498.473 220.067 498.972 217.558C499.471 215.05 500.703 212.746 502.511 210.938C504.32 209.129 506.624 207.898 509.132 207.399C511.64 206.9 514.24 207.156 516.603 208.135C518.966 209.113 520.985 210.771 522.406 212.897C523.827 215.024 524.585 217.524 524.585 220.081C524.585 223.51 523.223 226.799 520.798 229.224C518.373 231.649 515.084 233.012 511.655 233.012V233.012Z" fill="#3F3D56"/>
<path d="M431.068 310.519C441.849 310.519 450.59 301.779 450.59 290.997C450.59 280.216 441.849 271.475 431.068 271.475C420.286 271.475 411.546 280.216 411.546 290.997C411.546 301.779 420.286 310.519 431.068 310.519Z" fill="white"/>
<path d="M431.127 262.264C423.727 262.264 416.63 265.204 411.397 270.437C406.164 275.669 403.224 282.767 403.224 290.167C403.224 305.578 431.127 356.182 431.127 356.182C431.127 356.182 459.03 305.578 459.03 290.167C459.03 282.767 456.091 275.669 450.858 270.437C445.625 265.204 438.528 262.264 431.127 262.264V262.264ZM431.127 303.778C428.57 303.778 426.07 303.02 423.943 301.599C421.817 300.178 420.159 298.159 419.181 295.796C418.202 293.433 417.946 290.833 418.445 288.325C418.944 285.817 420.175 283.513 421.984 281.704C423.792 279.896 426.096 278.664 428.605 278.165C431.113 277.666 433.713 277.922 436.076 278.901C438.438 279.88 440.458 281.537 441.879 283.664C443.3 285.79 444.058 288.29 444.058 290.848C444.058 294.277 442.696 297.566 440.271 299.991C437.846 302.416 434.557 303.778 431.127 303.778V303.778Z" fill="#3F3D56"/>
<path d="M431.068 184.847C441.849 184.847 450.59 176.107 450.59 165.325C450.59 154.544 441.849 145.804 431.068 145.804C420.286 145.804 411.546 154.544 411.546 165.325C411.546 176.107 420.286 184.847 431.068 184.847Z" fill="white"/>
<path d="M431.127 136.592C423.727 136.592 416.63 139.532 411.397 144.765C406.164 149.998 403.224 157.095 403.224 164.495C403.224 179.906 431.127 230.51 431.127 230.51C431.127 230.51 459.03 179.906 459.03 164.495C459.03 157.095 456.091 149.998 450.858 144.765C445.625 139.532 438.528 136.592 431.127 136.592ZM431.127 178.107C428.57 178.107 426.07 177.348 423.943 175.927C421.817 174.507 420.159 172.487 419.181 170.124C418.202 167.761 417.946 165.162 418.445 162.653C418.944 160.145 420.175 157.841 421.984 156.032C423.792 154.224 426.096 152.992 428.605 152.494C431.113 151.995 433.713 152.251 436.076 153.229C438.438 154.208 440.458 155.865 441.879 157.992C443.3 160.118 444.058 162.618 444.058 165.176C444.058 166.874 443.723 168.555 443.074 170.124C442.424 171.693 441.471 173.119 440.271 174.319C439.07 175.52 437.644 176.473 436.076 177.122C434.507 177.772 432.825 178.107 431.127 178.107V178.107Z" fill="#CCCCCC"/>
<path d="M561.62 336.141C572.402 336.141 581.142 327.401 581.142 316.62C581.142 305.838 572.402 297.098 561.62 297.098C550.838 297.098 542.098 305.838 542.098 316.62C542.098 327.401 550.838 336.141 561.62 336.141Z" fill="white"/>
<path d="M561.679 287.886C554.279 287.886 547.182 290.826 541.949 296.059C536.716 301.292 533.776 308.389 533.776 315.789C533.776 331.2 561.679 381.804 561.679 381.804C561.679 381.804 589.583 331.2 589.583 315.789C589.583 308.389 586.643 301.292 581.41 296.059C576.177 290.826 569.08 287.886 561.679 287.886V287.886ZM561.679 329.401C559.122 329.401 556.622 328.642 554.495 327.221C552.369 325.801 550.712 323.781 549.733 321.418C548.754 319.056 548.498 316.456 548.997 313.947C549.496 311.439 550.728 309.135 552.536 307.327C554.344 305.518 556.648 304.287 559.157 303.788C561.665 303.289 564.265 303.545 566.628 304.523C568.991 305.502 571.01 307.16 572.431 309.286C573.852 311.412 574.61 313.912 574.61 316.47C574.61 319.899 573.248 323.188 570.823 325.613C568.398 328.038 565.109 329.401 561.679 329.401V329.401Z" fill="#CCCCCC"/>
<path d="M310.277 292.217C321.058 292.217 329.798 283.477 329.798 272.695C329.798 261.914 321.058 253.174 310.277 253.174C299.495 253.174 290.755 261.914 290.755 272.695C290.755 283.477 299.495 292.217 310.277 292.217Z" fill="white"/>
<path d="M310.336 243.962C302.936 243.962 295.839 246.902 290.606 252.135C285.373 257.368 282.433 264.465 282.433 271.865C282.433 287.276 310.336 337.88 310.336 337.88C310.336 337.88 338.239 287.276 338.239 271.865C338.239 264.465 335.3 257.368 330.067 252.135C324.834 246.902 317.737 243.962 310.336 243.962V243.962ZM310.336 285.477C307.779 285.477 305.279 284.718 303.152 283.297C301.026 281.877 299.368 279.857 298.39 277.494C297.411 275.131 297.155 272.532 297.654 270.023C298.153 267.515 299.384 265.211 301.193 263.402C303.001 261.594 305.305 260.362 307.814 259.864C310.322 259.365 312.922 259.621 315.285 260.599C317.647 261.578 319.667 263.235 321.088 265.362C322.509 267.488 323.267 269.988 323.267 272.546C323.267 275.975 321.905 279.264 319.48 281.689C317.055 284.114 313.766 285.477 310.336 285.477V285.477Z" fill="#CCCCCC"/>
<path d="M317.597 398.367C328.379 398.367 337.119 389.627 337.119 378.845C337.119 368.064 328.379 359.323 317.597 359.323C306.816 359.323 298.076 368.064 298.076 378.845C298.076 389.627 306.816 398.367 317.597 398.367Z" fill="white"/>
<path d="M317.657 350.112C310.256 350.112 303.159 353.052 297.926 358.285C292.693 363.518 289.753 370.615 289.753 378.015C289.753 393.426 317.657 444.03 317.657 444.03C317.657 444.03 345.56 393.426 345.56 378.015C345.56 370.615 342.62 363.518 337.387 358.285C332.154 353.052 325.057 350.112 317.657 350.112ZM317.657 391.627C315.099 391.627 312.599 390.868 310.473 389.447C308.346 388.026 306.689 386.007 305.71 383.644C304.731 381.281 304.475 378.681 304.974 376.173C305.473 373.665 306.705 371.361 308.513 369.552C310.321 367.744 312.626 366.512 315.134 366.013C317.642 365.515 320.242 365.771 322.605 366.749C324.968 367.728 326.987 369.385 328.408 371.512C329.829 373.638 330.587 376.138 330.587 378.696C330.587 382.125 329.225 385.414 326.8 387.839C324.375 390.264 321.086 391.627 317.657 391.627V391.627Z" fill="#3F3D56"/>
</g>
<defs>
<clipPath id="clip0_35:2">
<rect width="884.098" height="643" fill="white"/>
</clipPath>
</defs>
</svg>
