<svg width="784" height="751" viewBox="0 0 784 751" fill="none" xmlns="http://www.w3.org/2000/svg">
<path d="M393.148 736C389.635 735.973 386.081 735.948 382.59 735.84L382.699 732.32C386.153 732.426 389.685 732.475 393.149 732.478C396.628 732.478 400.174 732.421 403.691 732.308L403.804 735.826C400.248 735.942 396.664 736 393.148 736ZM361.423 734.512C354.413 733.849 347.334 732.949 340.382 731.84L340.938 728.363C347.815 729.46 354.819 730.351 361.755 731.008L361.423 734.512ZM424.969 734.475L424.634 730.97C431.567 730.306 438.57 729.406 445.447 728.299L446.008 731.776C439.056 732.896 431.977 733.804 424.969 734.475H424.969ZM319.555 727.821C312.691 726.264 305.785 724.462 299.03 722.466L300.028 719.088C306.711 721.064 313.543 722.845 320.334 724.385L319.555 727.821ZM466.83 727.733L466.047 724.3C472.854 722.748 479.684 720.957 486.347 718.978L487.35 722.355C480.614 724.355 473.71 726.165 466.83 727.733H466.83ZM278.89 715.8C272.267 713.366 265.64 710.687 259.194 707.834L260.62 704.614C266.996 707.435 273.551 710.087 280.104 712.494L278.89 715.8ZM507.479 715.662L506.262 712.357C512.774 709.958 519.307 707.307 525.678 704.48L527.107 707.7C520.665 710.558 514.062 713.237 507.479 715.662H507.479ZM240.06 698.616C233.828 695.362 227.603 691.854 221.562 688.191L223.388 685.178C229.366 688.805 235.523 692.273 241.689 695.493L240.06 698.616ZM546.187 698.487L544.557 695.366C550.709 692.148 556.853 688.679 562.814 685.056L564.643 688.065C558.617 691.728 552.408 695.233 546.187 698.487H546.187ZM203.775 676.603C198.003 672.574 192.281 668.3 186.769 663.904L188.965 661.149C194.419 665.5 200.08 669.727 205.791 673.714L203.775 676.603ZM582.401 676.477L580.382 673.592C586.092 669.6 591.746 665.373 597.186 661.027L599.383 663.779C593.885 668.171 588.171 672.443 582.401 676.477V676.477ZM170.61 650.144C165.391 645.407 160.261 640.442 155.363 635.391L157.89 632.938C162.736 637.936 167.813 642.848 172.977 647.537L170.61 650.144ZM615.526 650.022L613.157 647.415C618.308 642.736 623.38 637.821 628.234 632.811L630.762 635.26C625.858 640.325 620.731 645.291 615.526 650.022V650.022ZM141.089 619.7C136.519 614.341 132.065 608.767 127.846 603.133L130.665 601.021C134.839 606.597 139.246 612.112 143.767 617.412L141.089 619.7ZM645.033 619.553L642.354 617.27C646.874 611.964 651.282 606.442 655.455 600.86L658.275 602.968C654.058 608.611 649.603 614.191 645.033 619.553V619.553ZM115.689 585.757C111.837 579.856 108.13 573.763 104.671 567.646L107.736 565.912C111.158 571.964 114.826 577.994 118.638 583.83L115.689 585.757ZM670.436 585.566L667.486 583.643C671.299 577.794 674.967 571.754 678.39 565.689L681.458 567.419C677.998 573.551 674.289 579.657 670.436 585.566V585.566ZM94.8375 548.869C91.7736 542.53 88.879 536.016 86.2346 529.505L89.4963 528.181C92.1131 534.619 94.9768 541.065 98.008 547.335L94.8375 548.869ZM691.294 548.594L688.124 547.064C691.153 540.783 694.018 534.32 696.638 527.851L699.901 529.171C697.253 535.712 694.358 542.247 691.294 548.594V548.594ZM78.8843 509.602C76.6568 502.912 74.6219 496.069 72.8355 489.263L76.2416 488.368C78.0083 495.101 80.0217 501.872 82.225 508.488L78.8843 509.602ZM707.238 509.229L703.895 508.121C706.086 501.512 708.092 494.74 709.855 487.993L713.263 488.884C711.48 495.705 709.452 502.549 707.238 509.229V509.229ZM68.1115 468.581C66.7661 461.671 65.6279 454.625 64.7278 447.638L68.2198 447.187C69.1105 454.1 70.2367 461.071 71.5675 467.907L68.1115 468.581ZM717.962 468.194L714.506 467.527C715.826 460.692 716.945 453.719 717.827 446.8L721.321 447.247C720.429 454.24 719.298 461.287 717.962 468.194V468.194ZM62.692 426.522C62.2407 419.502 62.0077 412.367 62 405.314L65.5213 405.311C65.529 412.289 65.7594 419.349 66.2065 426.295L62.692 426.522ZM723.333 426.128L719.818 425.905C720.257 418.966 720.479 411.906 720.479 404.926L720.477 404.153H723.998L724 404.914C724 411.98 723.775 419.114 723.333 426.128ZM66.1575 384.33L62.643 384.113C63.0797 377.079 63.7478 369.973 64.6289 362.991L68.1227 363.431C67.2501 370.341 66.589 377.372 66.1575 384.33ZM719.77 383.174C719.313 376.212 718.627 369.184 717.731 362.284L721.222 361.83C722.128 368.804 722.822 375.906 723.285 382.944L719.77 383.174ZM71.4205 342.705L67.9628 342.039C69.2911 335.127 70.8644 328.164 72.637 321.345L76.0448 322.231C74.291 328.978 72.7349 335.865 71.4205 342.705ZM714.356 341.569C713.015 334.726 711.433 327.843 709.659 321.111L713.063 320.214C714.858 327.018 716.455 333.974 717.812 340.891L714.356 341.569ZM81.9817 302.098L78.6375 300.994C80.8478 294.301 83.3082 287.588 85.9518 281.04L89.2169 282.359C86.6017 288.837 84.1679 295.477 81.9817 302.098ZM703.655 301C701.444 294.389 698.99 287.767 696.361 281.317L699.621 279.988C702.279 286.507 704.76 293.201 706.994 299.882L703.655 301ZM97.7106 263.132L94.5366 261.605C97.5911 255.254 100.894 248.917 104.353 242.77L107.422 244.499C103.999 250.579 100.732 256.848 97.7106 263.132ZM687.828 262.172C684.795 255.918 681.516 249.672 678.077 243.607L681.141 241.87C684.616 247.999 687.931 254.313 690.995 260.636L687.828 262.172ZM118.305 226.53L115.353 224.609C119.193 218.705 123.278 212.845 127.492 207.193L130.315 209.298C126.146 214.89 122.104 220.688 118.305 226.53ZM667.154 225.701C663.344 219.88 659.291 214.101 655.106 208.524L657.923 206.41C662.152 212.048 666.25 217.889 670.101 223.771L667.154 225.701ZM143.398 192.873L140.716 190.593C145.276 185.226 150.071 179.936 154.966 174.871L157.498 177.318C152.655 182.33 147.911 187.564 143.398 192.873ZM641.984 192.147C637.457 186.853 632.698 181.635 627.842 176.637L630.366 174.183C635.275 179.233 640.084 184.507 644.659 189.858L641.984 192.147ZM172.558 162.694L170.187 160.09C175.397 155.343 180.823 150.707 186.313 146.313L188.514 149.063C183.082 153.411 177.713 157.997 172.558 162.694V162.694ZM612.737 162.055C607.574 157.38 602.191 152.807 596.734 148.465L598.927 145.708C604.442 150.098 609.883 154.719 615.1 159.444L612.737 162.055ZM205.303 136.479L203.283 133.595C209.044 129.556 215.014 125.651 221.026 121.988L222.858 124.996C216.911 128.62 211.004 132.484 205.303 136.479ZM579.894 135.918C574.162 131.927 568.237 128.077 562.283 124.473L564.105 121.46C570.123 125.102 576.113 128.994 581.906 133.027L579.894 135.918ZM241.104 114.664L239.469 111.544C245.694 108.278 252.11 105.171 258.538 102.308L259.971 105.526C253.611 108.357 247.264 111.432 241.104 114.664ZM543.969 114.18C537.786 110.961 531.414 107.901 525.029 105.084L526.451 101.861C532.903 104.708 539.345 107.802 545.596 111.056L543.969 114.18ZM279.378 97.6251L278.156 94.3214C284.758 91.8785 291.528 89.6187 298.278 87.6057L299.284 90.9816C292.606 92.9722 285.909 95.208 279.378 97.6251H279.378ZM505.535 97.2253C498.99 94.8305 492.285 92.6189 485.605 90.6532L486.599 87.2738C493.351 89.261 500.13 91.4968 506.746 93.9182L505.535 97.2253ZM319.577 85.6375L318.791 82.2049C325.642 80.6347 332.646 79.2667 339.609 78.1359L340.173 81.6133C333.284 82.7311 326.355 84.0846 319.577 85.6375ZM465.292 85.3813C458.503 83.8507 451.568 82.5214 444.682 81.4293L445.234 77.9502C452.194 79.0543 459.203 80.3983 466.066 81.9452L465.292 85.3813ZM360.984 78.9176L360.644 75.4127C367.634 74.7343 374.755 74.2708 381.807 74.036L381.924 77.5563C374.946 77.7886 367.901 78.2469 360.984 78.9176V78.9176ZM423.862 78.8084C416.934 78.1609 409.886 77.7275 402.917 77.5203L403.022 74C410.065 74.2098 417.188 74.6475 424.189 75.3018L423.862 78.8084Z" fill="#D0CDE1"/>
<path d="M380.5 166C426.063 166 463 128.84 463 83C463 37.1604 426.063 0 380.5 0C334.937 0 298 37.1604 298 83C298 128.84 334.937 166 380.5 166Z" fill="#2D8FC0"/>
<path d="M701 391C746.84 391 784 354.063 784 308.5C784 262.937 746.84 226 701 226C655.16 226 618 262.937 618 308.5C618 354.063 655.16 391 701 391Z" fill="#2D8FC0"/>
<path d="M601 736C646.84 736 684 699.063 684 653.5C684 607.937 646.84 571 601 571C555.16 571 518 607.937 518 653.5C518 699.063 555.16 736 601 736Z" fill="#2D8FC0"/>
<path d="M202.5 751C248.063 751 285 713.84 285 668C285 622.16 248.063 585 202.5 585C156.937 585 120 622.16 120 668C120 713.84 156.937 751 202.5 751Z" fill="#2D8FC0"/>
<path d="M83 391C128.84 391 166 354.063 166 308.5C166 262.937 128.84 226 83 226C37.1604 226 0 262.937 0 308.5C0 354.063 37.1604 391 83 391Z" fill="#2D8FC0"/>
<path d="M416.17 76.4286H387.136C384.496 76.4286 381.964 75.3901 380.097 73.5415C378.231 71.6929 377.182 69.1857 377.182 66.5715V37.8214C377.182 37.7135 377.16 37.6067 377.119 37.5071C377.077 37.4074 377.016 37.3168 376.939 37.2406C376.862 37.1643 376.77 37.1038 376.67 37.0625C376.569 37.0212 376.461 37 376.352 37H357.273C353.753 37 350.377 38.3847 347.887 40.8494C345.398 43.3142 344 46.6571 344 50.1428V115.857C344 119.343 345.398 122.686 347.887 125.151C350.377 127.615 353.753 129 357.273 129H403.727C407.247 129 410.623 127.615 413.113 125.151C415.602 122.686 417 119.343 417 115.857V77.25C417 77.1421 416.979 77.0353 416.937 76.9356C416.895 76.836 416.834 76.7454 416.757 76.6692C416.68 76.5929 416.588 76.5324 416.488 76.4911C416.387 76.4498 416.279 76.4286 416.17 76.4286ZM397.091 109.286H363.909C363.029 109.286 362.185 108.94 361.563 108.323C360.94 107.707 360.591 106.871 360.591 106C360.591 105.129 360.94 104.293 361.563 103.677C362.185 103.06 363.029 102.714 363.909 102.714H397.091C397.971 102.714 398.815 103.06 399.437 103.677C400.059 104.293 400.409 105.129 400.409 106C400.409 106.871 400.059 107.707 399.437 108.323C398.815 108.94 397.971 109.286 397.091 109.286ZM397.091 92.8571H363.909C363.029 92.8571 362.185 92.511 361.563 91.8948C360.94 91.2786 360.591 90.4429 360.591 89.5714C360.591 88.7 360.94 87.8643 361.563 87.2481C362.185 86.6319 363.029 86.2857 363.909 86.2857H397.091C397.971 86.2857 398.815 86.6319 399.437 87.2481C400.059 87.8643 400.409 88.7 400.409 89.5714C400.409 90.4429 400.059 91.2786 399.437 91.8948C398.815 92.511 397.971 92.8571 397.091 92.8571Z" fill="white"/>
<path d="M413.882 69.2848L384.692 39.122C384.635 39.0637 384.563 39.024 384.485 39.008C384.406 38.9919 384.325 39.0002 384.251 39.0318C384.177 39.0635 384.114 39.1169 384.069 39.1856C384.024 39.2542 384 39.335 384 39.4177V66.6441C384 67.5342 384.342 68.3877 384.951 69.0171C385.56 69.6464 386.386 70 387.248 70H413.596C413.676 69.9997 413.754 69.9749 413.82 69.9287C413.887 69.8826 413.939 69.8172 413.969 69.7408C414 69.6644 414.008 69.5803 413.992 69.4992C413.977 69.418 413.938 69.3434 413.882 69.2848L413.882 69.2848Z" fill="white"/>
<path d="M612.498 637C611.456 637.001 610.448 637.362 609.643 638.023C608.839 638.684 608.289 639.603 608.086 640.624C607.883 641.645 608.041 642.705 608.532 643.623C609.024 644.541 609.818 645.26 610.78 645.658C611.742 646.056 612.812 646.108 613.808 645.806C614.804 645.503 615.665 644.864 616.243 643.998C616.821 643.133 617.081 642.093 616.978 641.057C616.876 640.021 616.417 639.053 615.681 638.317C615.263 637.899 614.766 637.568 614.22 637.342C613.674 637.116 613.089 637 612.498 637Z" fill="white"/>
<path d="M637.577 619.942V619.928C637.437 619.324 637.129 618.77 636.688 618.33C636.246 617.889 635.688 617.579 635.078 617.435C630.155 616.25 622.411 617.513 613.83 620.902C605.578 624.067 598.028 628.783 591.6 634.789C589.844 636.511 588.213 638.353 586.718 640.301C583.417 640.076 580.107 640.601 577.043 641.834C567.506 645.975 564.782 656.571 564.057 660.922C563.952 661.54 563.993 662.174 564.177 662.774C564.361 663.374 564.682 663.924 565.117 664.381C565.552 664.838 566.087 665.19 566.682 665.41C567.277 665.63 567.916 665.711 568.548 665.647H568.569L579.194 664.504C579.207 664.637 579.222 664.759 579.234 664.872C579.37 666.149 579.948 667.341 580.869 668.248L586.054 673.366C586.972 674.277 588.181 674.847 589.475 674.981L589.83 675.019L588.674 685.486V685.508C588.618 686.04 588.669 686.577 588.824 687.09C588.979 687.603 589.235 688.08 589.577 688.495C589.919 688.911 590.34 689.255 590.817 689.51C591.294 689.764 591.818 689.924 592.357 689.979C592.484 689.992 592.612 689.999 592.739 690C592.969 690 593.198 689.982 593.425 689.945C597.86 689.241 608.597 686.586 612.783 677.127C614.023 674.115 614.557 670.865 614.344 667.621C616.327 666.15 618.201 664.541 619.952 662.806C626.036 656.524 630.822 649.135 634.044 641.049C637.461 632.68 638.748 624.984 637.577 619.942ZM619.892 648.439C618.535 649.779 616.806 650.692 614.923 651.062C613.04 651.433 611.088 651.244 609.314 650.52C607.54 649.796 606.023 648.569 604.955 646.995C603.888 645.421 603.317 643.57 603.317 641.676C603.316 639.781 603.884 637.93 604.95 636.354C606.016 634.779 607.531 633.551 609.305 632.825C611.078 632.099 613.03 631.909 614.913 632.277C616.797 632.646 618.527 633.557 619.885 634.896L619.892 634.903C621.712 636.671 622.745 639.079 622.764 641.599C622.784 644.118 621.788 646.542 619.995 648.337L619.892 648.439Z" fill="white"/>
<path d="M585.695 675.277C585.06 675.198 584.418 675.354 583.89 675.715C582.841 676.432 581.788 677.141 580.725 677.831C580.263 678.128 579.715 678.261 579.169 678.21C578.622 678.158 578.109 677.924 577.712 677.545C577.314 677.167 577.056 676.666 576.977 676.123C576.899 675.58 577.005 675.026 577.279 674.55L579.273 671.106C579.558 670.689 579.716 670.199 579.73 669.694C579.743 669.189 579.611 668.691 579.348 668.26C579.085 667.829 578.704 667.482 578.249 667.262C577.795 667.042 577.286 666.958 576.785 667.02C574.572 667.299 572.516 668.307 570.939 669.884C570.338 670.486 568.512 672.313 567.529 679.276C567.249 681.277 567.073 683.29 567.001 685.308C566.992 685.653 567.051 685.996 567.175 686.317C567.299 686.639 567.484 686.933 567.722 687.183C567.959 687.433 568.244 687.634 568.559 687.774C568.874 687.914 569.213 687.99 569.558 687.999C569.581 688 569.603 688 569.626 688H569.692C571.712 687.928 573.728 687.753 575.73 687.475C582.699 686.491 584.527 684.663 585.127 684.063C586.712 682.486 587.717 680.42 587.981 678.2C588.065 677.51 587.872 676.814 587.443 676.266C587.014 675.718 586.386 675.362 585.695 675.277V675.277Z" fill="white"/>
<path d="M174.5 713H168.5C167.307 713 166.162 712.526 165.318 711.682C164.474 710.838 164 709.693 164 708.5V681.5C164 680.307 164.474 679.162 165.318 678.318C166.162 677.474 167.307 677 168.5 677H174.5C175.693 677 176.838 677.474 177.682 678.318C178.526 679.162 179 680.307 179 681.5V708.5C179 709.693 178.526 710.838 177.682 711.682C176.838 712.526 175.693 713 174.5 713V713Z" fill="white"/>
<path d="M216.5 713H210.5C209.307 713 208.162 712.526 207.318 711.682C206.474 710.838 206 709.693 206 708.5V663.5C206 662.306 206.474 661.162 207.318 660.318C208.162 659.474 209.307 659 210.5 659H216.5C217.693 659 218.838 659.474 219.682 660.318C220.526 661.162 221 662.306 221 663.5V708.5C221 709.693 220.526 710.838 219.682 711.682C218.838 712.526 217.693 713 216.5 713V713Z" fill="white"/>
<path d="M237.5 713H231.5C230.307 713 229.162 712.526 228.318 711.682C227.474 710.838 227 709.693 227 708.5V642.5C227 641.307 227.474 640.162 228.318 639.318C229.162 638.474 230.307 638 231.5 638H237.5C238.693 638 239.838 638.474 240.682 639.318C241.526 640.162 242 641.307 242 642.5V708.5C242 709.693 241.526 710.838 240.682 711.682C239.838 712.526 238.693 713 237.5 713V713Z" fill="white"/>
<path d="M195.5 713H189.5C188.307 713 187.162 712.526 186.318 711.682C185.474 710.838 185 709.693 185 708.5V627.5C185 626.307 185.474 625.162 186.318 624.318C187.162 623.474 188.307 623 189.5 623H195.5C196.693 623 197.838 623.474 198.682 624.318C199.526 625.162 200 626.307 200 627.5V708.5C200 709.091 199.884 709.676 199.657 710.222C199.431 710.768 199.1 711.264 198.682 711.682C198.264 712.1 197.768 712.431 197.222 712.657C196.676 712.884 196.091 713 195.5 713V713Z" fill="white"/>
<path d="M705.46 305.857L701.164 301.547C700.18 300.56 698.847 300.004 697.455 300C696.064 299.996 694.727 300.545 693.738 301.527L663.872 329.172C662.776 330.145 662.105 331.512 662.005 332.977C661.973 333.705 662.092 334.431 662.352 335.111C662.613 335.79 663.011 336.409 663.52 336.928L669.937 343.434L669.948 343.446C670.94 344.437 672.281 344.995 673.681 345H673.875C674.6 344.959 675.31 344.775 675.964 344.459C676.618 344.143 677.204 343.7 677.687 343.157L705.442 313.339C706.434 312.353 706.994 311.012 707 309.612C707.006 308.211 706.457 306.866 705.474 305.871L705.46 305.857Z" fill="white"/>
<path d="M740.009 297.342L739.957 297.292L734.289 291.852C733.957 291.531 733.562 291.277 733.129 291.105C732.695 290.933 732.23 290.845 731.761 290.848C731.002 290.849 730.261 291.081 729.646 291.512C729.646 291.443 729.655 291.376 729.66 291.316C729.889 289.911 729.584 288.474 728.8 287.271C727.551 285.639 726.18 284.098 724.698 282.662L724.685 282.649C720.541 278.794 715.671 275.748 710.34 273.677C707.554 272.568 704.571 271.999 701.56 272.001C697.661 271.966 693.873 273.253 690.849 275.638C689.988 276.435 689.203 277.306 688.503 278.24C688.169 278.687 687.993 279.227 688 279.78C688.008 280.332 688.199 280.868 688.546 281.306C688.892 281.745 689.376 282.063 689.924 282.214C690.472 282.365 691.056 282.34 691.588 282.144C692.052 281.976 692.526 281.835 693.008 281.722C694.01 281.516 695.038 281.454 696.06 281.537C698.177 281.752 700.205 282.473 701.963 283.637C702.949 284.442 703.733 285.453 704.256 286.595C704.779 287.737 705.028 288.979 704.984 290.227C704.249 292.256 703.127 294.132 701.675 295.757C701.288 296.252 701.1 296.866 701.144 297.485C701.188 298.104 701.462 298.687 701.915 299.126L707.607 304.645C708.085 305.109 708.729 305.379 709.406 305.397C710.083 305.416 710.742 305.182 711.246 304.744C712.856 303.35 715.307 301.249 716.164 300.734C716.897 300.259 717.726 299.942 718.596 299.804C719.244 299.742 719.896 299.876 720.463 300.186C720.466 300.213 720.463 300.241 720.454 300.267C720.445 300.293 720.431 300.318 720.412 300.338L720.111 300.616L720.061 300.66C719.392 301.307 719.016 302.184 719.014 303.099C719.012 304.015 719.385 304.893 720.052 305.542L720.069 305.559L725.737 310.997C726.069 311.318 726.463 311.572 726.897 311.744C727.331 311.916 727.795 312.003 728.264 312C729.205 312.001 730.11 311.644 730.782 311.006L739.962 302.213C739.994 302.183 740.025 302.15 740.055 302.118C740.671 301.464 741.008 300.607 741 299.721C740.991 298.835 740.637 297.985 740.009 297.342Z" fill="white"/>
<path d="M96.1999 303C95.567 303 94.9484 302.809 94.4221 302.452C93.8959 302.095 93.4858 301.588 93.2436 300.994C93.0014 300.4 92.938 299.746 93.0615 299.116C93.185 298.486 93.4897 297.906 93.9372 297.452L101.274 290L93.9372 282.548C93.3371 281.939 93 281.112 93 280.25C93 279.388 93.3371 278.561 93.9372 277.952C94.5373 277.342 95.3512 277 96.1999 277C97.0486 277 97.8625 277.342 98.4626 277.952L108.063 287.702C108.36 288.004 108.596 288.362 108.756 288.756C108.917 289.151 109 289.573 109 290C109 290.427 108.917 290.849 108.756 291.244C108.596 291.638 108.36 291.996 108.063 292.298L98.4626 302.048C98.1658 302.35 97.8131 302.59 97.4248 302.753C97.0365 302.917 96.6202 303.001 96.1999 303Z" fill="white"/>
<path d="M43.3 313C42.8666 313 42.4375 312.916 42.0371 312.753C41.6368 312.589 41.273 312.35 40.9665 312.048C40.6601 311.746 40.417 311.388 40.2512 310.994C40.0853 310.599 40 310.177 40 309.75V306.5C40.0259 301.338 42.1189 296.394 45.8244 292.743C49.5299 289.092 54.5486 287.028 59.7902 287H102.7C103.575 287 104.415 287.342 105.033 287.952C105.652 288.561 106 289.388 106 290.25C106 291.112 105.652 291.939 105.033 292.548C104.415 293.158 103.575 293.5 102.7 293.5H59.8C56.3038 293.52 52.9569 294.898 50.4856 297.334C48.0143 299.769 46.6181 303.067 46.6 306.51V309.75C46.6 310.177 46.5147 310.599 46.3488 310.994C46.183 311.388 45.9399 311.746 45.6335 312.048C45.327 312.35 44.9633 312.589 44.5629 312.753C44.1625 312.916 43.7334 313 43.3 313V313Z" fill="white"/>
<path d="M69.8001 340C69.3798 340.001 68.9635 339.914 68.5752 339.744C68.1869 339.574 67.8342 339.325 67.5374 339.011L57.9374 328.885C57.6402 328.572 57.4045 328.2 57.2436 327.791C57.0828 327.381 57 326.942 57 326.499C57 326.056 57.0828 325.617 57.2436 325.207C57.4045 324.798 57.6402 324.426 57.9374 324.112L67.5374 313.986C68.1377 313.354 68.9513 313 69.7995 313C70.6476 313 71.461 313.356 72.0607 313.989C72.6605 314.621 72.9975 315.479 72.9979 316.374C72.9983 317.268 72.662 318.126 72.0628 318.76L64.7257 326.499L72.0628 334.238C72.5103 334.71 72.8151 335.312 72.9385 335.966C73.062 336.621 72.9986 337.3 72.7564 337.916C72.5142 338.533 72.1041 339.06 71.5779 339.431C71.0517 339.802 70.433 340 69.8001 340Z" fill="white"/>
<path d="M63.3 330C62.4248 330 61.5854 329.644 60.9665 329.011C60.3477 328.379 60 327.52 60 326.625C60 325.73 60.3477 324.871 60.9665 324.238C61.5854 323.606 62.4248 323.25 63.3 323.25H106.2C109.696 323.229 113.043 321.798 115.514 319.269C117.986 316.74 119.382 313.316 119.4 309.74V306.375C119.4 305.48 119.748 304.621 120.367 303.989C120.985 303.356 121.825 303 122.7 303C123.575 303 124.415 303.356 125.033 303.989C125.652 304.621 126 305.48 126 306.375V309.75C125.974 315.111 123.881 320.245 120.176 324.036C116.47 327.828 111.451 329.971 106.21 330L63.3 330Z" fill="white"/>
</svg>
