<svg width="741" height="609" viewBox="0 0 741 609" fill="none" xmlns="http://www.w3.org/2000/svg">
<path d="M223.084 418C221.088 417.984 219.07 417.971 217.087 417.909L217.149 415.91C219.111 415.971 221.117 415.998 223.084 416C225.061 416 227.074 415.968 229.072 415.903L229.136 417.901C227.117 417.967 225.081 418 223.084 418ZM205.065 417.155C201.084 416.778 197.063 416.268 193.114 415.638L193.43 413.663C197.336 414.286 201.314 414.792 205.253 415.165L205.065 417.155ZM241.157 417.134L240.967 415.144C244.905 414.767 248.882 414.256 252.789 413.627L253.107 415.602C249.158 416.237 245.138 416.753 241.157 417.134H241.157ZM181.285 413.355C177.386 412.472 173.464 411.448 169.627 410.314L170.194 408.396C173.99 409.518 177.87 410.53 181.727 411.404L181.285 413.355ZM264.933 413.306L264.489 411.356C268.355 410.475 272.234 409.458 276.019 408.334L276.588 410.252C272.762 411.388 268.841 412.415 264.933 413.306H264.933ZM158.188 406.529C154.426 405.147 150.663 403.626 147.002 402.006L147.811 400.178C151.433 401.779 155.156 403.285 158.877 404.652L158.188 406.529ZM288.021 406.451L287.33 404.574C291.028 403.212 294.739 401.707 298.357 400.101L299.169 401.93C295.51 403.553 291.76 405.074 288.021 406.451H288.021ZM136.134 396.771C132.594 394.924 129.059 392.932 125.627 390.852L126.665 389.141C130.06 391.2 133.557 393.17 137.059 394.998L136.134 396.771ZM310.006 396.698L309.081 394.926C312.575 393.099 316.064 391.129 319.45 389.071L320.489 390.78C317.066 392.86 313.54 394.851 310.006 396.698H310.006ZM115.525 384.271C112.246 381.983 108.997 379.557 105.866 377.061L107.113 375.496C110.21 377.967 113.426 380.367 116.669 382.631L115.525 384.271ZM330.575 384.2L329.428 382.561C332.671 380.295 335.882 377.894 338.972 375.427L340.22 376.989C337.097 379.483 333.852 381.909 330.575 384.2V384.2ZM96.6875 369.247C93.7236 366.557 90.8096 363.737 88.0278 360.869L89.4634 359.477C92.2158 362.314 95.0991 365.104 98.0322 367.767L96.6875 369.247ZM349.389 369.178L348.043 367.697C350.969 365.04 353.85 362.249 356.607 359.404L358.042 360.795C355.257 363.671 352.345 366.491 349.389 369.178V369.178ZM79.9204 351.959C77.3252 348.916 74.7949 345.751 72.3989 342.552L74 341.352C76.3706 344.518 78.874 347.65 81.4419 350.66L79.9204 351.959ZM366.148 351.876L364.626 350.579C367.194 347.566 369.698 344.431 372.068 341.261L373.669 342.458C371.274 345.662 368.744 348.831 366.148 351.876V351.876ZM65.4941 332.685C63.3061 329.334 61.2007 325.874 59.2358 322.4L60.9771 321.416C62.9204 324.852 65.0039 328.276 67.1689 331.591L65.4941 332.685ZM380.577 332.576L378.901 331.484C381.067 328.163 383.15 324.733 385.094 321.289L386.836 322.271C384.872 325.754 382.765 329.221 380.577 332.576V332.576ZM53.6509 311.738C51.9106 308.139 50.2666 304.439 48.7646 300.742L50.6172 299.99C52.1035 303.646 53.73 307.307 55.4517 310.867L53.6509 311.738ZM392.423 311.582L390.623 310.713C392.343 307.146 393.97 303.477 395.459 299.803L397.312 300.553C395.808 304.267 394.164 307.977 392.423 311.582V311.582ZM44.5898 289.44C43.3247 285.642 42.1689 281.756 41.1543 277.891L43.0889 277.383C44.0923 281.206 45.2359 285.051 46.4873 288.808L44.5898 289.44ZM401.479 289.228L399.581 288.6C400.825 284.847 401.964 281.001 402.965 277.17L404.901 277.676C403.888 281.549 402.737 285.435 401.479 289.228V289.228ZM38.4712 266.146C37.707 262.223 37.0605 258.222 36.5493 254.254L38.5327 253.998C39.0386 257.924 39.6782 261.882 40.4341 265.764L38.4712 266.146ZM407.57 265.927L405.607 265.548C406.357 261.667 406.993 257.707 407.494 253.778L409.478 254.032C408.971 258.003 408.329 262.005 407.57 265.927V265.927ZM35.3931 242.264C35.1367 238.277 35.0044 234.226 35 230.221L37 230.219C37.0044 234.182 37.1353 238.19 37.3892 242.135L35.3931 242.264ZM410.621 242.04L408.625 241.913C408.874 237.973 409 233.964 409 230L408.999 229.561H410.999L411 229.993C411 234.006 410.872 238.057 410.621 242.04ZM37.3613 218.305L35.3652 218.182C35.6132 214.188 35.9927 210.152 36.4932 206.188L38.4775 206.438C37.9819 210.361 37.6064 214.353 37.3613 218.305ZM408.597 217.648C408.337 213.695 407.948 209.704 407.439 205.786L409.421 205.528C409.936 209.488 410.331 213.521 410.593 217.518L408.597 217.648ZM40.3506 194.668L38.3867 194.29C39.1411 190.365 40.0348 186.411 41.0415 182.539L42.9771 183.042C41.981 186.873 41.0972 190.784 40.3506 194.668ZM405.522 194.023C404.76 190.137 403.862 186.229 402.854 182.406L404.788 181.896C405.807 185.76 406.714 189.71 407.485 193.638L405.522 194.023ZM46.3491 171.609L44.4497 170.982C45.7051 167.182 47.1025 163.37 48.604 159.652L50.4585 160.401C48.9731 164.079 47.5908 167.85 46.3491 171.609ZM399.444 170.986C398.188 167.232 396.794 163.472 395.301 159.809L397.153 159.054C398.663 162.756 400.072 166.557 401.34 170.351L399.444 170.986ZM55.2827 149.483L53.48 148.616C55.2148 145.009 57.0908 141.411 59.0552 137.92L60.7983 138.902C58.8545 142.354 56.999 145.914 55.2827 149.483ZM390.455 148.937C388.732 145.386 386.87 141.839 384.917 138.395L386.657 137.409C388.63 140.89 390.513 144.475 392.253 148.065L390.455 148.937ZM66.98 128.698L65.3032 127.607C67.4844 124.255 69.8042 120.927 72.1978 117.718L73.8013 118.913C71.4331 122.089 69.1377 125.381 66.98 128.698ZM378.712 128.227C376.548 124.922 374.247 121.641 371.87 118.474L373.469 117.273C375.872 120.475 378.199 123.791 380.386 127.132L378.712 128.227ZM81.2319 109.586L79.7085 108.291C82.2988 105.244 85.022 102.24 87.8022 99.3637L89.2407 100.753C86.4898 103.6 83.7954 106.572 81.2319 109.586ZM364.417 109.174C361.845 106.168 359.142 103.205 356.384 100.367L357.818 98.9731C360.606 101.841 363.337 104.836 365.936 107.874L364.417 109.174ZM97.7939 92.4492L96.4473 90.9707C99.4067 88.2749 102.489 85.6425 105.607 83.1474L106.857 84.7089C103.771 87.1777 100.722 89.7822 97.7939 92.4492V92.4492ZM347.805 92.0864C344.873 89.4316 341.815 86.8349 338.715 84.3691L339.961 82.8037C343.093 85.2963 346.184 87.9204 349.147 90.604L347.805 92.0864ZM116.393 77.5629L115.245 75.9252C118.518 73.6318 121.908 71.4145 125.323 69.3344L126.363 71.0424C122.985 73.1005 119.63 75.2944 116.393 77.5629ZM329.151 77.2446C325.895 74.9785 322.53 72.7919 319.148 70.7456L320.183 69.0346C323.601 71.1025 327.003 73.3125 330.294 75.603L329.151 77.2446ZM136.727 65.1752L135.798 63.4038C139.334 61.5493 142.978 59.7846 146.629 58.1591L147.442 59.9863C143.83 61.5942 140.225 63.3403 136.727 65.1752ZM308.747 64.9008C305.234 63.0727 301.615 61.3349 297.989 59.7353L298.796 57.9052C302.461 59.5219 306.12 61.2788 309.67 63.1264L308.747 64.9008ZM158.465 55.5L157.771 53.6239C161.521 52.2367 165.366 50.9535 169.2 49.8105L169.771 51.7275C165.979 52.8578 162.175 54.1274 158.465 55.5H158.465ZM286.917 55.2729C283.2 53.913 279.391 52.6572 275.597 51.541L276.162 49.622C279.997 50.7504 283.847 52.02 287.604 53.395L286.917 55.2729ZM181.297 48.6928L180.851 46.7436C184.742 45.852 188.72 45.0751 192.675 44.4331L192.995 46.4077C189.083 47.0424 185.147 47.811 181.297 48.6928ZM264.06 48.5473C260.204 47.6782 256.265 46.9233 252.354 46.3032L252.667 44.3276C256.621 44.9545 260.602 45.7177 264.499 46.5961L264.06 48.5473ZM204.815 44.8769L204.622 42.8867C208.593 42.5014 212.637 42.2382 216.643 42.1049L216.709 44.1039C212.746 44.2358 208.744 44.496 204.815 44.8769V44.8769ZM240.528 44.8149C236.594 44.4472 232.591 44.2011 228.632 44.0835L228.692 42.0845C232.692 42.2036 236.738 42.4521 240.714 42.8237L240.528 44.8149Z" fill="#D0CDE1"/>
<path d="M216 94C241.957 94 263 72.9574 263 47C263 21.0426 241.957 0 216 0C190.043 0 169 21.0426 169 47C169 72.9574 190.043 94 216 94Z" fill="#2D8FC0"/>
<path d="M398 222C423.957 222 445 200.957 445 175C445 149.043 423.957 128 398 128C372.043 128 351 149.043 351 175C351 200.957 372.043 222 398 222Z" fill="#2D8FC0"/>
<path d="M341 418C366.957 418 388 396.957 388 371C388 345.043 366.957 324 341 324C315.043 324 294 345.043 294 371C294 396.957 315.043 418 341 418Z" fill="#2D8FC0"/>
<path d="M115 426C140.957 426 162 404.957 162 379C162 353.043 140.957 332 115 332C89.0426 332 68 353.043 68 379C68 404.957 89.0426 426 115 426Z" fill="#2D8FC0"/>
<path d="M47 222C72.9574 222 94 200.957 94 175C94 149.043 72.9574 128 47 128C21.0426 128 0 149.043 0 175C0 200.957 21.0426 222 47 222Z" fill="#2D8FC0"/>
<path d="M236.141 43.253H219.747C218.256 43.253 216.827 42.6608 215.773 41.6067C214.719 40.5526 214.126 39.123 214.126 37.6322V21.2384C214.126 21.1769 214.114 21.116 214.091 21.0592C214.067 21.0023 214.033 20.9507 213.989 20.9072C213.946 20.8637 213.894 20.8292 213.837 20.8057C213.78 20.7821 213.72 20.77 213.658 20.77H202.885C200.897 20.77 198.991 21.5596 197.586 22.965C196.18 24.3705 195.391 26.2767 195.391 28.2643V65.7359C195.391 67.7235 196.18 69.6297 197.586 71.0352C198.991 72.4406 200.897 73.2302 202.885 73.2302H229.115C231.103 73.2302 233.009 72.4406 234.414 71.0352C235.82 69.6297 236.609 67.7235 236.609 65.7359V43.7214C236.609 43.6598 236.597 43.5989 236.574 43.5421C236.55 43.4853 236.516 43.4336 236.472 43.3902C236.429 43.3467 236.377 43.3122 236.32 43.2886C236.263 43.2651 236.203 43.253 236.141 43.253ZM225.368 61.9888H206.632C206.135 61.9888 205.659 61.7914 205.307 61.44C204.956 61.0886 204.759 60.6121 204.759 60.1152C204.759 59.6183 204.956 59.1417 205.307 58.7904C205.659 58.439 206.135 58.2416 206.632 58.2416H225.368C225.865 58.2416 226.341 58.439 226.693 58.7904C227.044 59.1417 227.241 59.6183 227.241 60.1152C227.241 60.6121 227.044 61.0886 226.693 61.44C226.341 61.7914 225.865 61.9888 225.368 61.9888ZM225.368 52.6208H206.632C206.135 52.6208 205.659 52.4235 205.307 52.0721C204.956 51.7207 204.759 51.2442 204.759 50.7473C204.759 50.2504 204.956 49.7738 205.307 49.4225C205.659 49.0711 206.135 48.8737 206.632 48.8737H225.368C225.865 48.8737 226.341 49.0711 226.693 49.4225C227.044 49.7738 227.241 50.2504 227.241 50.7473C227.241 51.2442 227.044 51.7207 226.693 52.0721C226.341 52.4235 225.865 52.6208 225.368 52.6208Z" fill="white"/>
<path d="M235.112 39.1063L218.272 22.2663C218.24 22.2338 218.198 22.2116 218.153 22.2027C218.107 22.1937 218.06 22.1984 218.018 22.216C217.975 22.2337 217.939 22.2635 217.913 22.3019C217.887 22.3402 217.873 22.3853 217.873 22.4315V37.632C217.873 38.1289 218.07 38.6055 218.422 38.9569C218.773 39.3082 219.25 39.5056 219.747 39.5056H234.947C234.993 39.5054 235.038 39.4916 235.077 39.4658C235.115 39.4401 235.145 39.4036 235.163 39.3609C235.18 39.3182 235.185 39.2713 235.176 39.226C235.167 39.1807 235.145 39.1391 235.112 39.1063L235.112 39.1063Z" fill="white"/>
<path d="M347.798 361.741C347.222 361.742 346.663 361.942 346.218 362.307C345.773 362.673 345.468 363.182 345.356 363.747C345.244 364.313 345.331 364.899 345.603 365.407C345.875 365.915 346.315 366.313 346.847 366.534C347.38 366.754 347.972 366.783 348.524 366.615C349.075 366.448 349.551 366.094 349.871 365.615C350.191 365.136 350.335 364.56 350.278 363.987C350.221 363.413 349.968 362.877 349.56 362.47C349.329 362.239 349.054 362.055 348.752 361.93C348.449 361.805 348.125 361.741 347.798 361.741Z" fill="white"/>
<path d="M361.665 351.781V351.773C361.586 351.427 361.412 351.11 361.163 350.857C360.913 350.605 360.598 350.427 360.253 350.345C357.472 349.666 353.097 350.389 348.249 352.331C343.587 354.143 339.321 356.844 335.69 360.284C334.698 361.27 333.776 362.325 332.932 363.441C331.067 363.312 329.197 363.612 327.466 364.319C322.077 366.69 320.538 372.759 320.129 375.251C320.069 375.605 320.093 375.968 320.197 376.311C320.3 376.655 320.482 376.97 320.728 377.232C320.973 377.494 321.276 377.695 321.612 377.821C321.948 377.947 322.309 377.994 322.666 377.957H322.678L328.681 377.302C328.688 377.379 328.697 377.449 328.703 377.513C328.78 378.244 329.107 378.927 329.627 379.447L332.557 382.378C333.075 382.899 333.758 383.226 334.489 383.303L334.69 383.324L334.037 389.319V389.331C334.005 389.636 334.034 389.944 334.122 390.238C334.209 390.531 334.354 390.805 334.547 391.043C334.74 391.28 334.978 391.478 335.248 391.624C335.517 391.769 335.813 391.861 336.117 391.892C336.189 391.9 336.261 391.904 336.333 391.904C336.463 391.904 336.593 391.894 336.721 391.873C339.226 391.469 345.292 389.949 347.657 384.532C348.358 382.807 348.66 380.945 348.539 379.087C349.66 378.245 350.719 377.323 351.708 376.33C355.145 372.732 357.849 368.5 359.669 363.869C361.6 359.076 362.327 354.668 361.665 351.781ZM351.674 368.101C350.907 368.869 349.93 369.392 348.867 369.604C347.803 369.816 346.7 369.708 345.697 369.293C344.695 368.879 343.838 368.176 343.235 367.275C342.632 366.373 342.31 365.313 342.309 364.228C342.309 363.143 342.63 362.083 343.232 361.18C343.834 360.278 344.69 359.575 345.692 359.159C346.694 358.743 347.797 358.634 348.861 358.845C349.925 359.056 350.902 359.578 351.67 360.345L351.674 360.349C352.702 361.361 353.286 362.741 353.297 364.184C353.307 365.627 352.745 367.015 351.732 368.043L351.674 368.101Z" fill="white"/>
<path d="M332.221 383.173C331.86 383.128 331.494 383.217 331.194 383.422C330.598 383.83 329.999 384.233 329.394 384.626C329.131 384.795 328.82 384.871 328.509 384.841C328.198 384.812 327.906 384.679 327.68 384.463C327.454 384.248 327.307 383.963 327.262 383.654C327.218 383.345 327.278 383.03 327.434 382.76L328.568 380.8C328.73 380.563 328.82 380.284 328.828 379.997C328.836 379.709 328.76 379.426 328.611 379.181C328.462 378.936 328.245 378.738 327.986 378.613C327.727 378.488 327.438 378.44 327.153 378.475C325.895 378.634 324.725 379.207 323.828 380.105C323.487 380.447 322.448 381.487 321.889 385.448C321.73 386.586 321.629 387.732 321.588 388.88C321.583 389.076 321.617 389.271 321.687 389.454C321.758 389.637 321.863 389.804 321.998 389.946C322.134 390.089 322.295 390.203 322.474 390.282C322.654 390.362 322.847 390.406 323.043 390.411C323.056 390.411 323.069 390.411 323.082 390.411H323.119C324.268 390.37 325.414 390.271 326.553 390.113C330.517 389.553 331.556 388.513 331.898 388.171C332.799 387.274 333.371 386.099 333.521 384.836C333.569 384.443 333.459 384.047 333.215 383.735C332.971 383.424 332.614 383.221 332.221 383.173V383.173Z" fill="white"/>
<path d="M98.8245 404.54H95.4192C94.7419 404.54 94.0922 404.271 93.6133 403.792C93.1343 403.313 92.8652 402.663 92.8652 401.986V386.662C92.8652 385.985 93.1343 385.335 93.6133 384.856C94.0922 384.377 94.7419 384.108 95.4192 384.108H98.8245C99.5019 384.108 100.152 384.377 100.63 384.856C101.109 385.335 101.379 385.985 101.379 386.662V401.986C101.379 402.663 101.109 403.313 100.63 403.792C100.152 404.271 99.5019 404.54 98.8245 404.54V404.54Z" fill="white"/>
<path d="M122.661 404.54H119.256C118.579 404.54 117.929 404.271 117.45 403.792C116.971 403.313 116.702 402.663 116.702 401.986V376.446C116.702 375.769 116.971 375.119 117.45 374.64C117.929 374.161 118.579 373.892 119.256 373.892H122.661C123.339 373.892 123.988 374.161 124.467 374.64C124.946 375.119 125.215 375.769 125.215 376.446V401.986C125.215 402.663 124.946 403.313 124.467 403.792C123.988 404.271 123.339 404.54 122.661 404.54V404.54Z" fill="white"/>
<path d="M134.58 404.54H131.175C130.498 404.54 129.848 404.271 129.369 403.792C128.89 403.313 128.621 402.663 128.621 401.986V364.527C128.621 363.85 128.89 363.2 129.369 362.721C129.848 362.242 130.498 361.973 131.175 361.973H134.58C135.258 361.973 135.907 362.242 136.386 362.721C136.865 363.2 137.134 363.85 137.134 364.527V401.986C137.134 402.663 136.865 403.313 136.386 403.792C135.907 404.271 135.258 404.54 134.58 404.54V404.54Z" fill="white"/>
<path d="M110.743 404.54H107.338C106.661 404.54 106.011 404.271 105.532 403.792C105.053 403.313 104.784 402.663 104.784 401.986V356.014C104.784 355.337 105.053 354.687 105.532 354.208C106.011 353.729 106.661 353.46 107.338 353.46H110.743C111.421 353.46 112.07 353.729 112.549 354.208C113.028 354.687 113.297 355.337 113.297 356.014V401.986C113.297 402.321 113.231 402.653 113.103 402.963C112.975 403.273 112.787 403.555 112.549 403.792C112.312 404.029 112.031 404.217 111.721 404.346C111.411 404.474 111.079 404.54 110.743 404.54V404.54Z" fill="white"/>
<path d="M400.252 173.769L397.819 171.335C397.262 170.778 396.506 170.464 395.718 170.462C394.93 170.46 394.173 170.77 393.613 171.324L376.698 186.934C376.077 187.484 375.697 188.256 375.641 189.083C375.623 189.494 375.69 189.904 375.837 190.288C375.985 190.672 376.21 191.021 376.499 191.314L380.133 194.988L380.139 194.994C380.701 195.554 381.461 195.87 382.254 195.872H382.364C382.774 195.849 383.176 195.745 383.547 195.567C383.917 195.388 384.249 195.138 384.522 194.831L400.242 177.994C400.803 177.437 401.121 176.68 401.124 175.889C401.128 175.098 400.817 174.339 400.26 173.777L400.252 173.769Z" fill="white"/>
<path d="M419.805 168.85L419.776 168.821L416.582 165.661C416.395 165.474 416.173 165.327 415.929 165.227C415.685 165.126 415.423 165.076 415.159 165.077C414.731 165.078 414.314 165.213 413.967 165.463C413.967 165.423 413.973 165.384 413.975 165.349C414.104 164.533 413.932 163.698 413.491 162.999C412.787 162.051 412.015 161.156 411.18 160.321L411.172 160.314C408.838 158.074 406.095 156.305 403.092 155.102C401.523 154.457 399.842 154.127 398.146 154.128C395.95 154.108 393.816 154.855 392.113 156.241C391.628 156.704 391.186 157.21 390.791 157.752C390.603 158.012 390.504 158.326 390.508 158.647C390.512 158.968 390.62 159.279 390.815 159.534C391.01 159.789 391.283 159.974 391.592 160.061C391.9 160.149 392.229 160.135 392.529 160.02C392.79 159.923 393.057 159.841 393.329 159.775C393.893 159.656 394.473 159.62 395.048 159.668C396.24 159.793 397.383 160.212 398.373 160.888C398.929 161.356 399.37 161.943 399.665 162.606C399.96 163.27 400.1 163.991 400.075 164.717C399.661 165.895 399.029 166.985 398.211 167.93C397.993 168.217 397.887 168.573 397.912 168.933C397.937 169.293 398.091 169.632 398.346 169.886L401.553 173.093C401.822 173.363 402.185 173.519 402.566 173.53C402.947 173.541 403.318 173.405 403.603 173.15C404.509 172.341 405.89 171.12 406.373 170.821C406.785 170.545 407.253 170.361 407.743 170.28C408.108 170.245 408.475 170.322 408.795 170.502C408.796 170.518 408.794 170.534 408.789 170.55C408.784 170.565 408.776 170.579 408.766 170.591L408.596 170.752L408.568 170.778C408.191 171.153 407.979 171.663 407.978 172.195C407.977 172.727 408.187 173.237 408.563 173.614L408.573 173.624L411.765 176.783C411.952 176.97 412.174 177.117 412.419 177.217C412.663 177.317 412.925 177.368 413.189 177.366C413.719 177.367 414.228 177.159 414.607 176.788L419.778 171.68C419.796 171.662 419.814 171.644 419.831 171.625C420.178 171.245 420.368 170.747 420.363 170.232C420.358 169.718 420.159 169.224 419.805 168.85Z" fill="white"/>
<path d="M54.4622 172.202C54.0932 172.202 53.7326 172.092 53.4258 171.887C53.119 171.682 52.8799 171.391 52.7387 171.05C52.5975 170.709 52.5606 170.334 52.6325 169.972C52.7045 169.61 52.8822 169.278 53.1431 169.017L57.4206 164.739L53.1431 160.462C52.7932 160.112 52.5967 159.637 52.5967 159.142C52.5967 158.648 52.7932 158.173 53.1431 157.823C53.4929 157.473 53.9674 157.277 54.4622 157.277C54.957 157.277 55.4315 157.473 55.7814 157.823L61.3781 163.42C61.5514 163.593 61.6888 163.799 61.7826 164.025C61.8764 164.252 61.9246 164.494 61.9246 164.739C61.9246 164.984 61.8764 165.227 61.7826 165.453C61.6888 165.679 61.5514 165.885 61.3781 166.058L55.7814 171.655C55.6083 171.829 55.4027 171.966 55.1763 172.06C54.9499 172.154 54.7073 172.202 54.4622 172.202Z" fill="white"/>
<path d="M24.6127 177.798C24.3677 177.798 24.1251 177.75 23.8987 177.656C23.6724 177.562 23.4667 177.425 23.2935 177.252C23.1202 177.079 22.9828 176.873 22.8891 176.647C22.7953 176.42 22.7471 176.178 22.7471 175.933V174.067C22.7617 171.104 23.945 168.266 26.0398 166.17C28.1346 164.074 30.9718 162.89 33.9351 162.874H58.1933C58.6881 162.874 59.1626 163.07 59.5125 163.42C59.8624 163.77 60.0589 164.244 60.0589 164.739C60.0589 165.234 59.8624 165.708 59.5125 166.058C59.1626 166.408 58.6881 166.605 58.1933 166.605H33.9406C31.9641 166.616 30.072 167.407 28.6749 168.805C27.2778 170.203 26.4885 172.096 26.4783 174.073V175.933C26.4783 176.178 26.43 176.42 26.3363 176.647C26.2425 176.873 26.1051 177.079 25.9319 177.252C25.7586 177.425 25.553 177.562 25.3266 177.656C25.1003 177.75 24.8577 177.798 24.6127 177.798V177.798Z" fill="white"/>
<path d="M39.5376 192.723C39.2926 192.723 39.0499 192.675 38.8235 192.581C38.5971 192.488 38.3915 192.35 38.2184 192.177L32.6217 186.58C32.4484 186.407 32.311 186.201 32.2172 185.975C32.1235 185.748 32.0752 185.506 32.0752 185.261C32.0752 185.016 32.1235 184.773 32.2172 184.547C32.311 184.32 32.4484 184.115 32.6217 183.942L38.2184 178.345C38.5684 177.995 39.0428 177.799 39.5372 177.8C40.0317 177.8 40.5059 177.996 40.8555 178.346C41.2052 178.696 41.4017 179.17 41.4019 179.664C41.4021 180.159 41.206 180.633 40.8567 180.983L36.5792 185.261L40.8567 189.538C41.1176 189.799 41.2953 190.132 41.3673 190.493C41.4393 190.855 41.4023 191.23 41.2611 191.571C41.1199 191.912 40.8808 192.204 40.574 192.409C40.2673 192.614 39.9066 192.723 39.5376 192.723Z" fill="white"/>
<path d="M35.806 187.126C35.3112 187.126 34.8367 186.93 34.4868 186.58C34.137 186.23 33.9404 185.756 33.9404 185.261C33.9404 184.766 34.137 184.291 34.4868 183.942C34.8367 183.592 35.3112 183.395 35.806 183.395H60.0587C62.0351 183.383 63.9273 182.593 65.3243 181.195C66.7214 179.796 67.5107 177.904 67.521 175.927V174.067C67.521 173.572 67.7175 173.098 68.0674 172.748C68.4173 172.398 68.8918 172.202 69.3866 172.202C69.8814 172.202 70.3559 172.398 70.7058 172.748C71.0556 173.098 71.2522 173.572 71.2522 174.067V175.933C71.2376 178.896 70.0543 181.734 67.9595 183.83C65.8646 185.926 63.0274 187.11 60.0642 187.126L35.806 187.126Z" fill="white"/>
</svg>
