<svg width="1178" height="874" viewBox="0 0 1178 874" fill="none" xmlns="http://www.w3.org/2000/svg">
<g clip-path="url(#clip0_23:250)">
<path d="M1084.62 212.452C951.079 26.6217 668.977 -48.7591 391.539 32.4278C244.865 75.3488 103.445 161.348 33.3607 327.869C-91.9227 625.544 171.126 720.614 343.131 750.914C426.303 765.565 504.637 790.176 576.22 823.684C705.003 883.969 932.958 937.387 1104.85 686.275C1229.44 504.269 1173.57 336.233 1084.62 212.452Z" fill="#F2F2F2"/>
<path d="M310.387 249.217C310.014 246.264 309.258 243.372 308.14 240.613C307.997 240.091 307.747 239.605 307.406 239.185C307.065 238.765 306.641 238.421 306.16 238.174C305.516 238.007 304.842 237.999 304.195 238.152L294.108 239.696C293.263 239.734 292.455 240.048 291.806 240.59C290.492 241.972 291.786 244.196 291.746 246.103C291.7 248.246 289.796 249.986 287.731 250.562C285.623 250.988 283.448 250.961 281.351 250.482L267.246 248.291C271.4 246.964 275.098 244.497 277.917 241.17C279.773 238.971 280.76 234.866 278.078 233.824C277.281 233.606 276.45 233.539 275.628 233.628C269.237 233.677 264.208 228.342 258.226 226.094C254.397 224.749 250.24 224.649 246.351 225.808C242.462 226.968 239.039 229.328 236.571 232.55L244.085 232.912C244.792 232.873 245.493 233.06 246.086 233.446C247.733 234.799 245.686 237.398 245.918 239.516C246.219 242.269 249.874 242.856 252.629 243.135C255.384 243.413 258.879 245.651 257.554 248.083C243.707 252.852 229.617 238.759 215.075 240.494C211.394 240.933 207.919 242.379 204.325 243.288C182.375 248.842 159.682 234.024 137.258 237.162C132.273 238.012 127.373 239.304 122.617 241.023C119.565 242.025 116.382 243.108 114.164 245.432C111.947 247.756 111.103 251.731 113.204 254.161C107.413 254.638 101.585 254.084 95.9879 252.524C97.5014 253.366 98.7604 254.599 99.6329 256.094C100.505 257.59 100.959 259.293 100.947 261.025C91.9059 262.499 83.1045 265.183 74.7793 269.003C76.3331 271.587 78.148 274.005 80.1953 276.218L68.75 283.571C72.6168 284.545 74.616 289.818 72.3673 293.111C76.3767 291.328 78.8616 286.713 83.149 285.778C85.9578 285.165 88.8158 286.314 91.4804 287.393C94.145 288.473 97.0737 289.519 99.8321 288.709C102.591 287.899 104.625 284.322 102.872 282.044C114.663 278.604 126.847 276.7 139.125 276.38C140.072 276.261 141.033 276.443 141.871 276.901C143.469 278.01 143.048 280.405 142.962 282.348C142.876 284.291 144.391 286.845 146.128 285.969C144.084 287.741 145.831 291.077 147.791 292.94C149.752 294.804 152.115 297.375 150.915 299.798C150.601 300.431 150.07 300.937 149.769 301.575C148.879 303.46 150.292 305.656 151.958 306.907C153.624 308.159 155.665 309.033 156.822 310.766C157.979 312.498 157.454 315.531 155.384 315.773L149.502 308.305C147.492 310.388 146.114 312.999 145.528 315.835C151.766 320.934 152.704 331.313 147.482 337.448C144.813 340.583 141.018 342.488 137.706 344.934C134.394 347.379 131.329 350.862 131.337 354.979C131.352 362.092 130.77 368.7 133.436 375.295C138.351 387.455 144.026 399.295 150.426 410.743C152.107 413.749 154.279 417.044 157.684 417.561C153.381 407.085 149.507 396.446 146.063 385.644C148.306 385.653 150.899 385.831 152.214 387.648C153.303 389.153 153.069 391.2 153.407 393.026C153.838 394.796 154.555 396.483 155.532 398.021L176.081 434.625C177.785 437.66 179.739 440.917 182.995 442.146C185.076 442.932 187.485 442.784 189.4 443.915C190.902 444.801 191.914 446.375 193.445 447.21C197.774 449.572 203.793 445.043 207.839 447.862C208.995 448.669 209.731 449.949 210.797 450.872C214.533 454.108 220.662 451.943 224.976 454.357C227.755 455.913 229.196 459.024 230.679 461.843C234.393 468.905 240.402 475.824 248.361 476.386C250.861 476.563 253.415 476.089 255.859 476.645C258.303 477.201 260.709 479.334 260.316 481.809C259.644 486.053 261.741 490.7 261.178 494.96C260.152 502.72 249.146 506.13 248.2 513.899C247.993 515.601 248.317 517.357 247.912 519.022C247.416 521.063 245.883 522.724 245.338 524.753C244.306 528.597 247.06 532.423 250.086 535.009C253.112 537.595 256.721 539.825 258.375 543.446C260.123 547.272 259.264 551.734 259.833 555.903C261.074 565.003 268.935 571.75 277.024 576.099C279.488 577.425 282.135 578.708 283.73 581.007C285.812 584.008 285.605 587.964 286.3 591.55C288.003 600.331 295.395 607.567 295.605 616.51C295.754 622.866 292.221 628.632 290.11 634.629C288.132 640.375 287.416 646.481 288.011 652.529C288.607 658.577 290.5 664.425 293.561 669.675C295.14 672.341 297.028 674.855 298.145 677.745C300.138 682.902 299.492 688.765 301.329 693.98C303.759 700.875 310.435 706.569 309.796 713.852C312.827 720.146 319.52 723.238 326.25 725.112L338.311 728.469C340.621 729.112 343.034 729.76 345.386 729.294C347.737 728.829 349.982 726.876 349.921 724.48C344.006 723.146 337.902 721.727 333.026 718.123C328.15 714.519 324.81 708.1 326.66 702.326C327.518 699.649 329.343 696.557 327.608 694.344C326.614 693.078 324.798 692.747 323.677 691.591C321.929 689.788 322.53 686.76 323.786 684.586C325.043 682.412 326.859 680.47 327.366 678.01C327.622 676.635 327.451 675.214 326.876 673.938C326.301 672.662 325.35 671.592 324.15 670.873C326.386 670.028 328.42 668.723 330.12 667.042C331.69 665.249 332.415 662.485 331.18 660.447C334.848 660.912 339.177 661.14 341.585 658.334C343.508 656.094 343.375 652.745 342.616 649.892C341.856 647.039 340.572 644.268 340.532 641.316C348.993 641.717 357.471 641.43 365.885 640.457C364.669 636.359 361.904 632.896 358.177 630.803C361.988 630.158 365.459 625.596 366.663 621.924C367.867 618.251 367.56 614.251 366.816 610.459C366.53 609.482 366.491 608.45 366.702 607.455C367.131 606.088 368.474 605.253 369.717 604.539L388.632 593.677C389.76 593.111 390.783 592.356 391.656 591.444C393.638 589.116 393.344 585.602 392.33 582.719C391.315 579.835 389.69 577.123 389.299 574.091C388.13 565.024 397.836 558.518 401.112 549.982C402.398 546.632 402.66 542.991 402.909 539.412C403.176 535.568 403.196 531.103 400.244 528.625C397.414 526.251 392.993 526.78 390.033 524.571C387.318 522.546 386.382 518.613 383.416 516.977C380.723 515.492 377.347 516.437 374.351 515.738C369.078 514.508 365.759 508.43 360.373 507.867C357.334 507.549 353.895 509.035 351.404 507.265C349.21 505.706 349.122 502.572 348.704 499.912C347.972 495.779 345.991 491.969 343.027 488.996C340.064 486.023 336.261 484.029 332.129 483.284C328.996 482.781 325.586 482.972 322.92 481.25C320.221 479.507 318.984 476.243 316.864 473.828C313.447 469.937 308.065 468.554 303.024 467.369L282.519 462.548C278.879 461.693 274.186 461.239 272.233 464.428C271.655 465.642 271.245 466.929 271.016 468.254C270.284 470.651 268.811 472.754 266.809 474.262C264.807 475.769 262.378 476.602 259.872 476.642C258.154 473.711 255.369 471.557 252.1 470.629C250.021 470.05 247.796 469.985 245.812 469.133C244.732 468.605 243.771 467.863 242.988 466.952C242.205 466.041 241.616 464.979 241.257 463.832C240.898 462.685 240.777 461.477 240.902 460.281C241.026 459.086 241.393 457.929 241.98 456.88C243.162 454.775 243.619 452.34 243.279 449.949C242.94 447.559 241.823 445.347 240.101 443.655C236.614 440.524 231.57 439.768 226.894 440.081C225.669 437.409 227.717 434.394 229.923 432.452C232.13 430.51 234.809 428.601 235.29 425.701C236.046 421.14 230.225 417.675 225.806 419.035C221.387 420.396 218.567 424.688 216.702 428.919C215.633 431.347 214.723 433.903 213.036 435.95C211.348 437.997 208.631 439.463 206.061 438.806C202.422 437.876 201.017 433.553 200.211 429.884C199.131 424.962 198.044 419.972 198.27 414.938C198.497 409.905 200.194 404.736 203.906 401.328C209.954 395.775 219.234 396.319 227.397 397.205C225.468 395.032 225.945 391.37 228.009 389.325C229.098 388.357 230.407 387.669 231.822 387.322C233.237 386.974 234.716 386.977 236.129 387.33C238.589 387.842 240.805 389.167 242.421 391.091C244.74 393.919 245.4 397.738 247.153 400.949C248.907 404.159 252.85 406.897 256.077 405.175C258.864 403.687 259.307 399.822 258.613 396.74C257.919 393.657 256.446 390.66 256.697 387.51C257.176 381.501 263.406 377.883 268.903 375.408C274.401 372.933 280.695 369.605 281.566 363.639C281.596 362.471 281.816 361.316 282.219 360.219C282.828 359.25 283.675 358.453 284.68 357.904C300.724 347.301 317.035 336.569 335.372 330.775C336.326 330.474 336.438 330.809 337.41 330.573C338.771 329.786 337.87 327.611 336.565 326.734C335.26 325.858 333.516 325.186 333.185 323.649C332.942 322.52 333.608 321.411 333.78 320.269C334.205 317.462 330.847 314.87 328.239 315.992C326.766 314.042 329.681 311.775 332.038 311.126C339.115 309.178 346.379 307.992 353.708 307.586C354.554 307.452 355.42 307.599 356.174 308.005C357.405 308.858 357.248 310.814 356.375 312.031C355.503 313.248 354.146 314.012 353.059 315.042C351.871 316.199 351.024 317.66 350.61 319.266C350.196 320.871 350.231 322.56 350.711 324.147C354.537 326.093 358.696 328.096 362.934 327.411C367.171 326.725 370.932 321.964 368.941 318.162C367.086 314.621 361.514 313.822 360.556 309.941C359.435 305.397 365.867 301.356 364.418 296.906C363.783 294.956 361.84 293.809 360.35 292.402C358.589 290.676 357.392 288.459 356.914 286.04C356.437 283.622 356.702 281.115 357.675 278.85C355.247 279.277 352.752 279.116 350.399 278.38C348.046 277.643 345.904 276.354 344.153 274.619C340.918 271.354 338.338 266.205 333.745 266.351C329.53 266.485 325.899 271.402 321.958 269.902C320.989 269.533 319.966 268.782 319.027 269.222C318.719 269.422 318.461 269.689 318.271 270.004C318.082 270.318 317.966 270.671 317.934 271.037C316.932 275.825 318.655 281.281 316.045 285.419C313.205 289.922 306.636 290.546 303.194 294.606C301.325 296.81 300.601 299.78 298.883 302.104C297.165 304.428 293.519 305.905 291.457 303.88C292.47 301.797 292.747 299.432 292.242 297.172C291.737 294.911 290.48 292.889 288.677 291.435C286.763 290.186 284.7 289.183 282.536 288.448C280.118 287.424 277.817 286.142 275.675 284.624C274.602 283.977 273.73 283.044 273.156 281.929C272.703 280.534 272.764 279.022 273.328 277.667C274.374 274.67 276.218 272.016 278.662 269.99C281.106 267.964 284.057 266.645 287.196 266.174C289.94 265.8 293.135 265.932 294.952 263.84C295.913 262.734 296.417 261.061 297.812 260.611C298.705 260.432 299.631 260.546 300.453 260.937L310.699 264.543C311.842 265.059 313.1 265.267 314.348 265.146C314.967 265.063 315.532 264.749 315.929 264.266C316.326 263.784 316.525 263.169 316.488 262.546C316.161 260.845 313.543 260.028 313.781 258.312C313.914 257.756 314.213 257.253 314.638 256.871C318.336 252.935 322.858 249.866 327.88 247.883C332.902 245.899 338.301 245.051 343.69 245.398C344.983 247.522 342.938 250.037 341.236 251.85C339.534 253.663 338.167 256.903 340.225 258.298C341.068 258.729 342.006 258.94 342.953 258.913C345.475 259.254 347.926 259.998 350.213 261.115C353.754 262.656 357.226 264.341 360.631 266.172C360.33 263.927 360.043 261.563 360.894 259.464C361.745 257.365 364.163 255.719 366.275 256.536C368.31 257.324 369.354 260.019 371.523 260.266C374.416 260.595 375.557 256.322 374.349 253.673C373.14 251.024 370.748 248.806 370.548 245.901C370.414 243.942 371.159 241.511 369.594 240.325C369.037 239.968 368.405 239.747 367.747 239.677L328.664 232.485C326.343 232.058 322.989 232.385 322.886 234.743C322.829 236.059 324.005 237.361 323.484 238.571C322.928 239.862 321.103 239.744 319.773 240.201C317.71 240.91 316.675 243.359 316.873 245.532C317.236 247.69 318.072 249.742 319.321 251.539C316.779 250.476 312.929 250.281 310.387 249.217Z" fill="#3F3D56"/>
<path d="M279.203 216.04C276.738 215.224 274.082 215.186 271.595 215.931C269.108 216.676 266.911 218.168 265.3 220.204C264.657 221.051 264.116 222.219 264.655 223.136C265.427 224.452 267.395 223.932 268.846 223.462C270.979 222.7 273.3 222.644 275.467 223.304C276.83 223.772 278.049 224.598 279.417 225.049C280.083 225.327 280.813 225.419 281.527 225.315C282.242 225.21 282.914 224.913 283.473 224.456C284.412 223.498 284.471 222.009 284.473 220.667C284.538 220.218 284.502 219.761 284.367 219.327C284.233 218.894 284.004 218.496 283.696 218.163C283.148 217.846 282.533 217.664 281.901 217.632C280.485 217.37 279.205 216.622 278.281 215.517" fill="#3F3D56"/>
<path d="M293.295 212.116C292.743 212.086 292.193 212.199 291.698 212.443C291.202 212.687 290.778 213.054 290.465 213.509C290.153 213.965 289.963 214.493 289.913 215.043C289.864 215.593 289.957 216.147 290.183 216.651C291.877 217.113 293.647 217.228 295.386 216.99C296.254 216.855 297.062 216.467 297.709 215.873C298.357 215.28 298.814 214.508 299.023 213.656C296.975 214.028 294.862 213.625 293.095 212.524" fill="#3F3D56"/>
<path d="M340.578 205.563C335.968 206.543 331.49 208.065 327.236 210.095C329.241 210.866 330.946 212.261 332.099 214.073C333.251 215.886 333.791 218.021 333.639 220.164C333.459 220.987 333.48 221.84 333.7 222.653C334.19 223.841 335.609 224.287 336.858 224.592C339.101 225.274 341.442 225.573 343.785 225.476C344.956 225.415 346.094 225.062 347.095 224.45C348.097 223.839 348.929 222.987 349.519 221.972C349.858 221.009 350.256 220.068 350.711 219.154C353.703 214.597 362.592 220.107 365.805 215.702C366.936 214.151 366.833 211.815 368.308 210.586C369.071 210.05 369.956 209.713 370.882 209.604C377.342 208.32 383.868 207.391 390.43 206.82C393.539 206.549 397.592 205.433 397.618 202.312C385.907 200.012 373.764 201.645 363.077 206.958C359.226 208.887 354.134 212.944 350.425 210.387C349.036 209.43 349.105 206.852 347.193 205.775C345.239 204.675 342.653 205.122 340.578 205.563Z" fill="#3F3D56"/>
<path d="M378.877 212.725L384.375 213.782C383.363 213.737 382.353 213.908 381.412 214.285C380.472 214.661 379.623 215.234 378.921 215.964C378.219 216.695 377.682 217.567 377.344 218.521C377.006 219.476 376.875 220.492 376.961 221.502C382.109 223.221 387.722 221.548 393.145 221.776C398.568 222.005 404.877 225.879 403.952 231.227C403.672 232.844 402.738 234.46 403.223 236.028C403.564 237.127 404.533 237.906 405.08 238.918C406.22 241.027 405.309 243.694 403.869 245.611C402.43 247.528 400.496 249.057 399.233 251.094C396.091 256.161 397.876 262.711 399.747 268.371C400.289 270.51 401.288 272.506 402.676 274.22C405.449 277.168 409.968 277.425 414.015 277.484C416.96 277.527 420.334 277.381 422.197 275.099C424.629 272.12 422.928 267.471 424.529 263.974C425.983 260.799 429.688 259.436 433.045 258.47C439.194 256.7 445.46 255.195 451.274 252.521C458.492 249.201 465.239 244.026 473.173 243.599C475.399 243.479 477.68 243.742 479.824 243.132C481.968 242.522 484.005 240.668 483.842 238.445C483.704 236.545 482.097 235.15 480.841 233.718C479.585 232.286 478.599 230.084 479.753 228.569L500.55 224.685C499.075 220.667 497.927 215.376 501.314 212.761C502.537 211.818 504.173 211.441 505.214 210.3C506.987 208.356 506.095 205.007 504.048 203.354C502.001 201.7 499.232 201.317 496.61 201.099C487.491 200.341 478.32 200.842 469.183 201.343C451.324 202.322 433.464 203.301 415.604 204.28C412.008 204.477 407.857 204.176 404.56 205.402C401.768 206.441 399.783 208.347 396.591 209.016C390.697 210.253 384.211 209.416 378.877 212.725Z" fill="#3F3D56"/>
<path d="M477.362 256.178C476.802 256.09 476.229 256.22 475.762 256.541C475.453 256.881 475.269 257.317 475.241 257.775C474.886 259.799 475.309 261.882 476.424 263.607C476.993 264.454 477.777 265.133 478.697 265.573C479.616 266.014 480.636 266.201 481.652 266.114C484.128 265.798 485.952 263.687 488.228 262.656C491.735 261.069 506.63 258.596 496.327 253.029C492.776 251.11 490.481 252.804 487.682 254.067C484.498 255.696 480.93 256.426 477.362 256.178V256.178Z" fill="#3F3D56"/>
<path d="M567.611 209.583C566.408 210.074 565.402 210.95 564.749 212.074C564.448 212.645 564.378 213.309 564.554 213.93C564.729 214.551 565.137 215.08 565.692 215.409C566.141 215.572 566.617 215.648 567.095 215.632L571.987 215.778C574.066 215.84 576.662 216.283 577.22 218.286C577.635 219.773 576.707 221.684 577.827 222.746C578.307 223.119 578.885 223.344 579.491 223.395C581.102 223.809 582.785 223.864 584.42 223.555C587.98 222.6 586.109 220.427 587.23 218.493C588.946 215.533 588.649 217.325 591.671 215.628C593.903 214.376 596.788 212.103 594.925 208.91C591.685 203.358 572.392 207.197 567.611 209.583Z" fill="#3F3D56"/>
<path d="M664.17 206.791L661.329 207.17C654.924 208.025 648.481 208.888 642.312 210.811C644.982 211.867 647.784 212.555 650.64 212.855C652.213 212.932 653.774 213.154 655.306 213.518C658.031 214.33 660.777 216.424 663.41 215.351C665.042 214.686 665.575 212.986 666.927 212.085C667.861 211.463 671.402 210.457 671.798 209.829C674.999 204.754 666.63 206.463 664.17 206.791Z" fill="#3F3D56"/>
<path d="M676.645 219.702C672.85 221.824 669.33 224.402 666.162 227.379C664.827 228.634 663.464 230.194 663.585 232.022C663.746 234.452 666.333 235.861 668.575 236.81L677.657 240.655C678.758 239.102 677.75 236.959 676.611 235.433C675.473 233.907 674.12 232.141 674.623 230.305C675.197 228.21 677.752 227.496 679.894 227.135C683.385 226.547 692.802 226.594 691.67 220.968C690.337 214.339 680.149 217.743 676.645 219.702Z" fill="#3F3D56"/>
<path d="M674.819 594.829C673.954 597.332 673.872 600.28 675.367 602.466C677.045 604.918 680.404 605.832 683.309 605.21C686.203 604.44 688.782 602.782 690.683 600.469C692.422 598.531 693.852 596.338 694.924 593.965C696.42 590.268 697.475 586.407 698.068 582.463L700.887 567.659C701.517 564.35 701.493 554.207 695.412 557.512C693.751 558.414 689.904 565.543 688.163 567.564C685.025 571.208 684.61 574.743 682.958 579.156C680.889 584.685 676.731 589.292 674.819 594.829Z" fill="#3F3D56"/>
<path d="M996.001 670.586C994.011 669.81 992.08 668.891 990.222 667.836C988.36 672.956 987.37 678.353 987.293 683.801L1000.91 676.096C1002.96 674.937 1005.28 673.326 1005.23 670.973C1005.25 670.683 1005.19 670.392 1005.06 670.133C1004.93 669.874 1004.73 669.655 1004.48 669.5C1004.18 669.378 1003.85 669.34 1003.53 669.388C1001.51 669.556 999.667 670.549 997.763 671.24C995.858 671.931 993.631 672.296 991.884 671.271" fill="#3F3D56"/>
<path d="M1067.83 675.161C1066.33 675.568 1064.87 676.091 1063.46 676.728C1060.34 678.318 1058.21 681.337 1055.4 683.431C1052.71 685.435 1049.47 686.535 1046.29 687.605C1045.35 688.432 1045.78 690.097 1046.8 690.823C1047.89 691.444 1049.14 691.726 1050.4 691.631C1053.7 691.704 1057.18 691.736 1060.07 690.141C1061.7 689.083 1063.23 687.872 1064.63 686.524C1068.01 683.702 1072.07 681.839 1076.1 680.04C1077.56 679.487 1078.91 678.678 1080.09 677.65C1082.62 675.16 1082.8 671.319 1079.15 670.472C1076.21 669.787 1070.63 674.254 1067.83 675.161Z" fill="#3F3D56"/>
<path d="M1099.56 654.43C1099.73 652.717 1099.5 650.989 1098.9 649.377C1098.3 647.765 1097.33 646.31 1096.09 645.124C1096.05 648.551 1095.95 652.203 1094.02 655.037C1092.65 657.057 1090.49 658.421 1088.99 660.345C1087.48 662.269 1086.81 665.318 1088.58 667.006C1089.71 667.864 1091.08 668.338 1092.5 668.356C1096.01 668.77 1100.08 669 1102.54 666.462C1103.89 665.076 1104.54 663.024 1106.18 662.005C1106.8 661.749 1107.34 661.358 1107.78 660.862C1108.46 659.786 1107.38 658.366 1106.17 657.978C1104.96 657.59 1103.62 657.773 1102.41 657.404C1101.19 657.036 1100.07 655.667 1100.7 654.558" fill="#3F3D56"/>
<path d="M1043.16 528.759C1041.32 529.208 1039.41 529.32 1037.52 529.092C1034.39 528.517 1031.96 526.159 1029.43 524.226C1023.43 519.655 1016.13 517.105 1008.59 516.942C1001.73 516.813 994.8 518.672 988.06 517.375C988.5 519.824 990.596 521.661 992.832 522.753C995.068 523.845 997.536 524.394 999.783 525.464C1003.38 527.194 1006.24 530.163 1007.82 533.828C1008.55 535.517 1009 537.355 1010.1 538.83C1012.34 541.845 1016.59 542.507 1020.33 542.26C1025.22 541.939 1030.32 540.533 1034.87 542.354C1038.35 543.747 1040.84 546.791 1043.74 549.158C1046.65 551.525 1050.74 553.281 1054.07 551.574C1050.61 550.452 1047.59 548.253 1045.47 545.297C1043.34 542.342 1042.22 538.784 1042.26 535.144C1045.53 535.444 1054.95 535.328 1054.44 529.771C1054.01 525.062 1045.97 528.251 1043.16 528.759Z" fill="#3F3D56"/>
<path d="M1000.37 567.076C1000.96 563.892 1004.13 561.079 1003.14 557.997C1002.46 555.865 999.986 554.812 997.748 554.76C995.51 554.707 993.311 555.374 991.073 555.437C989.616 555.359 988.156 555.38 986.702 555.499C982.26 556.229 979.522 560.885 975.335 562.541C972.789 563.548 969.929 563.355 967.282 564.051C961.272 565.631 957.469 571.31 953.268 575.889C946.48 583.254 937.637 588.411 927.884 590.692C924.467 591.484 920.794 591.99 918.078 594.209C914.481 597.148 913.595 602.186 912.795 606.762C910.584 619.398 907.205 631.801 902.702 643.813L916.973 645.635C919.686 645.981 922.497 646.32 925.111 645.516C927.011 644.8 928.81 643.841 930.465 642.665C936.82 638.719 943.934 636.151 951.344 635.128C955.081 634.615 958.999 634.521 962.506 635.91C966.013 637.299 969.022 640.449 969.315 644.21C970.832 643.738 972.448 643.687 973.992 644.062C975.535 644.438 976.947 645.225 978.078 646.341C980.312 648.618 981.776 651.539 982.261 654.692C982.637 656.644 983.013 658.983 984.825 659.802C986.303 660.471 987.998 659.751 989.615 659.622C995.101 659.183 999.654 665.58 1005.05 664.478C1010.83 663.297 1012.25 654.635 1017.89 652.9C1021.13 651.904 1025.68 653.115 1027.23 650.101C1028.6 647.444 1025.87 644.378 1026.15 641.403C1026.5 637.74 1030.82 636.185 1034.15 634.622C1045.63 629.234 1051.08 613.777 1045.52 602.378C1042.22 595.624 1035.73 590.307 1034.53 582.887C1033.61 577.178 1035.86 570.521 1032.22 566.028C1030.37 563.742 1027.24 562.48 1026.14 559.752C1025.44 558.035 1025.72 556.087 1025.35 554.274C1024.97 552.46 1023.39 550.563 1021.6 551.033C1016.4 552.398 1014.74 568.458 1011.96 572.36C1007.73 578.292 999.042 574.384 1000.37 567.076Z" fill="#3F3D56"/>
<path d="M904.281 534.827C902.504 534.329 900.564 533.838 898.862 534.55C897.159 535.262 896.165 537.762 897.532 539.002C908.22 538.585 918.974 538.172 929.572 539.623C941.782 541.296 953.866 545.438 966.129 544.22C959.124 542.153 952.003 540.501 944.803 539.271L932.797 536.978C929.577 536.303 926.322 535.8 923.048 535.471C916.199 534.906 911.015 536.716 904.281 534.827Z" fill="#3F3D56"/>
<path d="M914.981 497.601C914.094 497.527 912.995 497.463 912.536 498.226C912.097 498.955 912.599 499.918 912.364 500.736C912.041 501.852 910.579 502.138 909.427 501.986C908.275 501.834 907.028 501.47 906.008 502.025C905.49 502.379 905.101 502.891 904.899 503.484C904.697 504.078 904.693 504.721 904.887 505.317C905.304 506.5 905.979 507.577 906.863 508.467C908.373 510.37 910.093 512.095 911.991 513.611C915.665 516.322 920.641 517.629 922.955 521.565C923.282 522.328 923.783 523.004 924.42 523.536C925.53 524.24 926.979 523.705 928.175 523.158L932.367 521.243C933.122 520.971 933.796 520.512 934.326 519.91C935.284 518.61 934.696 516.763 933.892 515.363C933.088 513.963 932.059 512.514 932.232 510.909C932.539 508.047 936.219 506.953 937.732 504.504C939.257 502.036 938.264 498.856 938.44 495.96C938.645 492.574 940.773 488.168 937.35 485.638C934.44 483.487 931.658 485.474 929.569 487.849C925.164 492.855 923.08 498.278 914.981 497.601Z" fill="#3F3D56"/>
<path d="M940.426 446.999C941.857 449.739 944.841 451.374 946.401 454.043C948.093 456.935 947.9 460.673 949.736 463.476C951.618 466.353 955.407 467.88 956.463 471.152C957.616 474.724 955 479.065 957.085 482.186C957.474 482.696 957.965 483.12 958.526 483.431C959.087 483.741 959.707 483.932 960.345 483.991C960.984 484.049 961.628 483.975 962.237 483.772C962.845 483.568 963.405 483.241 963.88 482.81C964.759 481.853 965.229 480.591 965.191 479.292C965.152 477.993 964.608 476.76 963.674 475.857C962.44 474.731 960.667 474.245 959.636 472.93C959.1 472.172 958.742 471.301 958.591 470.384C958.029 467.739 958.119 464.997 958.853 462.395C959.129 461.734 959.199 461.006 959.054 460.305C958.59 458.956 956.764 458.861 955.482 458.235C952.571 456.814 952.641 452.705 953.15 449.506C952.811 451.636 945.224 448.013 944.43 446.807C942.851 444.41 943.71 439.787 943.398 437.138C939.99 438.78 938.676 443.648 940.426 446.999Z" fill="#3F3D56"/>
<path d="M863.989 489.16C862.589 487.593 860.48 485.953 858.602 486.898C857.17 487.619 856.776 489.601 857.337 491.103C858.021 492.563 859.074 493.818 860.392 494.745C864.305 497.972 868.518 500.885 871.931 504.636C878.039 511.348 881.275 520.406 887.918 526.59C889.254 528.024 891.022 528.98 892.952 529.314C894.888 529.494 897.061 528.255 897.284 526.324C897.467 524.734 896.358 523.31 895.274 522.131C892.694 519.325 889.869 516.741 887.432 513.808C886.307 512.681 885.6 511.205 885.428 509.622C885.416 508.042 886.856 506.39 888.386 506.781C886.525 506.305 885.145 503.205 882.414 502.622C880.131 502.135 879.579 503.548 876.863 502.383C871.682 500.161 867.617 493.222 863.989 489.16Z" fill="#3F3D56"/>
<path d="M985.722 336.514C984.236 336.072 982.775 335.55 981.345 334.95C977.498 333.796 972.409 336.623 972.922 340.606C973.262 343.253 975.725 345.037 977.086 347.333C979.103 350.737 978.565 355.055 977.505 358.868C977.245 360.048 976.75 361.164 976.05 362.15C975.071 363.19 973.9 364.032 972.603 364.629C967.408 367.542 962.827 371.434 959.113 376.09C958.709 376.52 958.428 377.05 958.298 377.625C958.115 378.97 959.467 379.95 960.231 381.072C961.929 383.563 960.702 386.916 960.869 389.927C960.844 390.352 960.927 390.778 961.112 391.162C961.296 391.546 961.576 391.877 961.924 392.123C962.948 392.643 964.16 391.76 964.715 390.755C966.555 387.421 965.169 382.068 968.622 380.46C969.275 380.156 970.067 380.028 970.503 379.454C971.194 378.544 970.527 377.196 970.877 376.108C971.403 374.475 973.637 374.401 975.352 374.474C978.305 374.597 981.258 374.204 984.076 373.312C985.182 373.049 986.186 372.468 986.964 371.64C987.996 370.352 987.905 368.52 987.699 366.882C986.665 358.717 984.079 350.825 980.079 343.633C983.112 344.02 986.412 344.356 989.029 342.775C990.495 341.89 992.253 339.243 991.526 337.441C990.376 334.592 988.3 336.99 985.722 336.514Z" fill="#3F3D56"/>
<path d="M596.873 381.42C597.236 383.367 597.593 385.417 596.955 387.292C596.317 389.167 594.31 390.733 592.414 390.159C590.943 389.713 590.094 388.234 589.049 387.106C583.241 380.836 570.137 384.466 566.549 376.709C565.085 373.543 566.08 369.75 565.081 366.408C564.451 364.476 563.197 362.809 561.517 361.667C559.836 360.525 557.824 359.974 555.796 360.1C553.946 360.367 552.146 360.905 550.453 361.695C539.108 366.238 527.199 369.217 515.052 370.549C512.743 370.69 510.459 371.106 508.249 371.787C503.262 373.595 499.854 378.22 497.428 382.938C495.003 387.657 493.212 392.765 489.961 396.958C486.543 401.363 481.755 404.449 477.288 407.786C475.567 408.895 474.134 410.397 473.107 412.168C472.139 414.156 472.193 416.468 472.268 418.678L473.181 445.522C473.299 448.975 473.446 452.551 474.991 455.641C476.921 459.499 480.733 462.026 483.378 465.435C486.077 468.938 487.483 473.265 487.358 477.685C487.301 479.462 487.125 481.564 488.509 482.68C489.351 483.226 490.336 483.51 491.339 483.494L527.651 486.466C534.038 486.989 541.117 487.849 545.287 492.715C547.255 495.012 548.837 498.315 551.851 498.561C553.144 498.667 554.402 498.136 555.696 498.034C558.959 497.775 561.825 500.252 563.634 502.98C566.373 507.137 567.615 512.103 567.159 517.06C566.862 520.172 565.898 523.197 565.69 526.316C564.898 538.184 574.959 548.495 575.154 560.387C575.268 567.383 571.948 573.919 568.71 580.121C573.935 588.037 569.657 598.578 571.737 607.832C573.711 616.611 581.031 623.484 582.855 632.296C583.69 636.33 583.738 641.295 587.296 643.372C588.857 644.133 590.587 644.48 592.32 644.379C602.777 644.502 613.113 642.149 622.485 637.511C626.884 635.328 631.443 632.07 632.211 627.22C632.83 623.309 630.847 618.934 632.865 615.527C635.244 611.512 641.339 611.83 644.839 608.743C650.518 603.735 646.09 594.183 648.391 586.97C650.459 580.486 657.578 577.041 661.107 571.221C662.496 568.718 663.492 566.017 664.062 563.212C665.679 556.508 666.685 549.672 667.068 542.786C667.163 538.602 667.471 534.427 667.993 530.275C671.797 506.637 695.166 490.809 702.753 468.101C703.477 465.932 703.818 463.043 701.888 461.816C700.744 461.27 699.447 461.135 698.214 461.432L681.475 463.542C679.396 463.804 677.193 464.049 675.283 463.186C673.374 462.322 672.005 459.907 673.018 458.072C675.861 452.922 670.013 446.415 667.415 441.137C660.418 426.927 652.085 413.414 642.53 400.781C641.919 400.131 641.536 399.299 641.439 398.412L646.19 398.57C644.586 392.816 641.94 386.519 636.349 384.414C633.199 383.228 629.711 383.638 626.349 383.821C616.722 384.347 606.401 382.894 596.873 381.42Z" fill="#3F3D56"/>
<path d="M626.357 251.744C628.876 254.42 631.699 257.256 635.344 257.722C641.782 258.546 646.411 251.889 649.358 246.106C649.467 247.58 650.147 248.954 651.254 249.934C652.36 250.915 653.805 251.425 655.281 251.357C656.871 251.09 658.387 250.497 659.736 249.615C672.492 242.645 686.779 238.951 701.315 238.867C701.176 237.766 701.449 236.652 702.082 235.74C702.715 234.829 703.664 234.184 704.744 233.931C707.7 233.345 710.362 235.9 711.788 238.554C713.213 241.208 714.102 244.285 716.367 246.272C718.633 248.258 723.018 248.172 723.913 245.295C724.772 242.533 721.894 240.177 719.503 238.549C717.113 236.92 714.593 233.906 716.203 231.503C728.416 228.8 740.705 226.086 753.203 225.549C755.33 225.623 757.45 225.257 759.431 224.476C761.337 223.54 762.852 221.417 762.339 219.357C759.612 219.998 756.755 219.813 754.134 218.824C751.513 217.835 749.245 216.088 747.621 213.806C764.962 212.375 783.406 211.155 798.774 219.315C800.618 223.274 791.219 226.567 793.734 230.138C794.536 231.277 796.143 231.411 797.536 231.437C808.215 231.635 818.956 231.829 829.515 230.217C833.374 229.628 837.271 228.796 841.145 229.274C847.598 230.069 853.117 234.375 859.465 235.779C862.049 236.35 864.946 236.369 867.124 234.867C869.303 233.364 870.239 229.942 868.454 227.988C874.431 222.13 884.351 223.582 892.237 226.386C900.122 229.191 907.592 233.714 915.938 234.339C921.923 234.787 927.99 233.178 933.904 234.201C937.62 234.844 941.079 236.497 944.711 237.513C951.58 239.434 958.847 239.028 965.979 239.121C984.177 239.366 1002.18 242.942 1019.09 249.673C1021.28 250.389 1023.3 251.58 1024.99 253.161C1026.56 254.846 1027.36 257.464 1026.31 259.513L1008.83 256.96C1010.48 260.2 1014.74 260.753 1018.2 261.871C1021.66 262.989 1025.24 266.808 1023.16 269.79C1019.42 268.597 1016.02 272.344 1014.13 275.791C1012.23 279.239 1009.93 283.367 1006 283.577C1002.48 283.765 998.23 280.771 995.938 283.444C999.105 287.44 1001.82 291.775 1004.02 296.371C1006.29 301.089 1007.9 307.034 1004.84 311.279C1004.36 312.037 1003.63 312.603 1002.77 312.881C1000.27 313.514 998.65 310.456 996.858 308.602C994.598 306.266 991.182 305.605 988.123 304.509C985.063 303.414 981.841 301.259 981.601 298.018C981.452 296.002 982.517 294.127 983.301 292.264C984.619 289.123 985.195 285.72 984.985 282.32C984.814 279.585 984.047 276.74 982.082 274.829C980.118 272.918 976.726 272.311 974.618 274.062C973.634 274.878 972.845 276.185 971.567 276.234C969.309 276.32 967.576 272.384 965.759 273.727C965.972 275.159 965.676 276.62 964.921 277.855C959.5 282.57 951.173 280.575 944.184 282.241C940.861 283.192 937.68 284.581 934.724 286.372C933.618 286.845 932.677 287.635 932.02 288.642C931.147 290.337 932.109 292.508 933.647 293.635C935.277 294.635 937.109 295.261 939.011 295.466C947.531 297.08 956.174 299.578 962.901 305.05C969.627 310.522 974.038 319.568 971.909 327.973L955.108 311.92C955.746 318.66 956.109 325.419 956.195 332.197C956.303 333.52 956.121 334.852 955.662 336.097C954.464 338.743 951.218 339.633 948.373 340.217C947.582 340.367 946.832 340.683 946.171 341.144C945.511 341.605 944.956 342.201 944.542 342.892C944.128 343.582 943.865 344.353 943.77 345.153C943.675 345.953 943.75 346.763 943.991 347.532C945.001 350.826 947.521 353.395 949.829 355.954C952.136 358.513 954.407 361.422 954.709 364.854C955.011 368.287 952.421 372.156 948.984 371.917C946.378 371.736 944.445 369.403 943.333 367.04C942.221 364.676 941.56 362.042 939.89 360.034C934.835 353.954 923.481 356.559 918.953 350.078C917.798 351.387 916.998 352.97 916.627 354.675C916.256 356.381 916.328 358.153 916.835 359.824C918.941 358.505 921.826 359.73 923.408 361.646C924.991 363.563 925.738 366.019 926.981 368.172C928.658 371.076 931.328 373.651 931.562 376.997C931.5 378.262 931.521 379.529 931.626 380.792C932.042 382.819 933.755 384.275 934.943 385.969C937.707 389.912 937.571 395.328 935.789 399.802C934.007 404.275 930.806 408.013 927.636 411.637C922.098 417.967 916.447 424.26 909.882 429.517C908.009 431.017 906.01 432.492 904.843 434.589C903.676 436.686 903.616 439.63 905.409 441.225C904.126 441.289 901.826 441.92 900.543 441.984C900.092 436.838 899.994 431.667 900.249 426.507C895.187 424.076 889.736 430.586 890.389 436.164C891.042 441.742 895.077 446.218 897.949 451.044C900.049 454.573 901.611 458.688 900.909 462.734C900.208 466.781 896.596 470.514 892.505 470.157C885.997 469.589 883.275 460.247 876.831 459.178C876.262 459.044 875.666 459.103 875.135 459.346C874.178 459.871 874.012 461.151 873.958 462.241C873.694 467.59 873.466 473.152 875.554 478.084C878.609 485.298 886.501 491.358 884.845 499.016C875.927 494.871 871.291 484.87 869.186 475.264C867.08 465.658 866.729 455.573 862.956 446.492C860.09 450.164 854.067 447.128 851.449 443.275C848.967 439.622 847.439 435.397 845.031 431.695C842.622 427.993 838.933 424.678 834.522 424.474C829.896 424.261 825.885 427.435 822.357 430.434C819.456 432.9 816.477 435.463 814.782 438.872C812.314 443.833 812.96 449.682 812.841 455.221C812.712 461.21 811.443 467.528 807.362 471.912C803.28 476.296 795.746 477.823 791.244 473.872C788.894 471.809 787.756 468.727 786.742 465.769C781.856 451.509 777.787 436.982 774.554 422.258C773.798 425.619 770.847 429.95 768.028 427.97C767.395 427.438 766.883 426.778 766.524 426.033C761.266 417.121 751.528 411.775 741.689 408.57C731.85 405.365 721.499 403.87 711.769 400.347C706.316 398.373 701.109 395.778 696.248 392.616C695.009 394.436 694.285 396.558 694.154 398.757C694.022 400.955 694.488 403.148 695.502 405.103C697.66 408.924 702.544 411.135 706.725 409.8C708.885 409.109 710.71 407.61 712.853 406.869C714.997 406.128 717.874 406.492 718.812 408.557C719.709 410.534 718.353 412.925 719.026 414.989C720.05 418.133 724.792 418.375 726.449 421.236C727.683 423.365 726.668 426.191 724.907 427.909C723.145 429.626 720.795 430.568 718.645 431.764C711.669 435.643 706.708 442.265 700.611 447.417C694.515 452.57 685.913 456.331 678.647 453.026C680.379 444.256 669.932 437.817 668.01 429.087C667.377 426.213 667.705 423.161 666.802 420.361C665.495 416.306 661.898 413.518 658.947 410.446C655.367 406.679 652.579 402.233 650.746 397.371C648.913 392.508 648.072 387.328 648.274 382.136C648.433 378.527 649.096 374.86 648.274 371.344C647.452 367.827 644.54 364.423 640.932 364.582C632.691 364.946 622.309 365.559 617.985 358.534C616.442 356.027 615.771 352.354 618.002 350.433C619.576 349.078 621.899 349.206 623.966 349.409L642.534 351.236C646.877 351.663 651.572 352.016 655.298 349.745C659.025 347.475 660.64 341.448 657.189 338.777C654.668 336.825 650.15 336.931 649.417 333.828C648.807 331.244 651.667 328.311 650.122 326.152C649.015 324.603 646.524 325.033 645.015 326.193C643.506 327.354 642.411 329.052 640.722 329.931C637.759 331.473 634.219 330.006 631.031 329.008C627.843 328.011 623.57 327.926 622.023 330.887C620.294 334.198 623.557 338.537 621.841 341.855C619.572 346.242 611.888 343.744 608.702 347.518C605.046 351.847 611.19 358.304 609.957 363.835C608.383 364.615 606.633 364.973 604.879 364.874C603.125 364.776 601.427 364.224 599.95 363.273C598.497 362.285 597.339 360.922 596.599 359.328C595.86 357.734 595.566 355.97 595.749 354.223C596.054 351.734 597.352 349.194 596.482 346.843C595.78 344.942 593.871 343.81 592.097 342.829L574.052 332.858C572.377 335.966 574.495 339.819 577.144 342.153C579.793 344.487 583.11 346.245 584.85 349.317C585.951 351.446 586.198 353.914 585.54 356.218C584.883 358.522 583.37 360.488 581.312 361.715C581.054 361.893 580.76 362.013 580.452 362.067C580.143 362.121 579.826 362.107 579.523 362.027C579.235 361.858 578.984 361.633 578.785 361.365C578.586 361.097 578.442 360.791 578.363 360.467C575.179 352.32 570.399 344.287 562.757 340.031C555.115 335.775 544.134 336.65 539.123 343.819C537.933 345.522 537.134 347.463 536.097 349.264C530.588 358.829 518.777 363.358 507.743 363.063C506.664 363.122 505.59 362.87 504.65 362.336C502.867 361.104 502.947 358.491 503.22 356.341L504.378 347.216C504.611 345.384 504.948 343.359 506.398 342.215C508.442 340.603 511.391 341.62 513.994 341.583C515.966 341.49 517.863 340.794 519.426 339.588C520.989 338.381 522.143 336.724 522.732 334.839C523.258 332.936 523.255 330.926 522.722 329.025C522.19 327.123 521.149 325.403 519.712 324.05C518.519 322.929 516.917 321.522 517.547 320.011C517.799 319.593 518.139 319.235 518.543 318.963C518.948 318.69 519.407 318.51 519.889 318.434C524.565 317.076 529.506 316.72 534.104 315.118C538.702 313.516 543.161 310.238 544.25 305.492C544.584 304.037 544.736 302.275 546.042 301.554C546.698 301.278 547.402 301.134 548.113 301.131C550.606 300.777 552.876 299.502 554.476 297.557C556.076 295.613 556.89 293.14 556.758 290.625C558.961 289.086 562.049 290.218 564.18 291.856C566.312 293.494 568.194 295.658 570.788 296.364C575.623 297.679 580.294 293.399 585.304 293.379C587.411 293.371 589.592 294.116 591.574 293.402C593.583 292.677 594.783 290.677 596.325 289.2C597.868 287.722 600.573 286.821 601.997 288.412L600.785 279.43C603.227 280.047 605.773 280.135 608.251 279.687C610.73 279.238 613.084 278.265 615.155 276.832L599.483 271.537C598.938 271.401 598.434 271.132 598.018 270.753C596.879 269.527 598.01 267.615 598.937 266.22C601.153 262.884 601.525 257.388 597.88 255.727C595.393 254.593 592.537 255.954 590.149 257.285L578.71 263.663C578.347 265.837 581.006 267.07 582.653 268.534C583.65 269.42 584.356 270.587 584.677 271.882C584.999 273.176 584.921 274.537 584.455 275.787C583.989 277.037 583.155 278.116 582.064 278.883C580.973 279.65 579.676 280.07 578.342 280.086C579.095 281.065 579.619 282.201 579.873 283.41C580.128 284.619 580.107 285.87 579.813 287.07L572.117 287.624C571.253 287.797 570.356 287.622 569.621 287.136C568.798 286.405 568.909 285.124 568.719 284.04C568.258 281.423 565.696 279.589 563.081 279.119C560.465 278.648 557.79 279.251 555.2 279.846C554.101 280.242 552.893 280.214 551.813 279.768C551.194 279.366 550.723 278.772 550.473 278.077C549.338 275.324 550.399 272.088 552.222 269.734C554.046 267.38 556.542 265.659 558.784 263.7C564.145 258.996 568.083 252.886 570.155 246.062C574.392 244.287 578.778 241.875 583.015 240.1C589.547 236.793 596.872 235.373 604.166 236.002L618.514 236.276C622.762 236.357 627.125 236.461 631.053 238.08C634.981 239.7 638.433 243.203 638.704 247.443C638.786 247.923 638.744 248.416 638.583 248.875C638.422 249.335 638.147 249.746 637.784 250.07C637.229 250.373 636.601 250.514 635.97 250.479C632.008 250.618 630.319 251.605 626.357 251.744Z" fill="#3F3D56"/>
<path d="M511.994 296.712C512.554 296.182 512.958 295.507 513.16 294.762C513.362 294.017 513.355 293.231 513.139 292.49C511.775 291.963 510.291 291.828 508.854 292.099C507.417 292.371 506.085 293.038 505.007 294.025C504.157 294.885 503.424 295.853 502.828 296.905C500.943 299.981 499.275 303.655 500.368 307.094C500.457 307.469 500.62 307.822 500.848 308.133C501.075 308.444 501.362 308.707 501.693 308.906C502.182 309.102 502.71 309.185 503.237 309.147C505.314 309.145 507.389 309.017 509.45 308.765C510.716 308.61 512.187 308.253 512.676 307.075C513.319 305.526 511.763 303.774 512.216 302.16C512.515 301.438 512.967 300.79 513.542 300.261C513.827 299.995 514.046 299.666 514.182 299.3C514.318 298.934 514.367 298.542 514.324 298.154C514.141 297.397 512.981 296.967 512.564 297.625" fill="#3F3D56"/>
<path d="M522.764 282.749C520.919 282.325 519.017 282.206 517.133 282.395C516.716 282.383 516.304 282.477 515.933 282.668C515.574 282.932 515.314 283.309 515.194 283.739C514.796 285.015 514.894 286.395 515.468 287.603C516.042 288.811 517.05 289.759 518.291 290.257C518.967 290.413 519.615 290.673 520.211 291.029C521.804 292.264 520.789 294.79 521.09 296.783C521.429 299.021 523.595 300.899 523.198 303.128C522.885 304.883 521.01 306.273 521.312 308.031C521.628 309.871 523.964 310.424 525.825 310.572C526.904 310.761 528.015 310.633 529.023 310.205C530.034 309.514 530.753 308.473 531.041 307.283C531.803 305.015 532.123 302.621 531.984 300.231C531.976 299.145 531.703 298.076 531.189 297.119C530.628 296.36 530.007 295.649 529.331 294.991C525.764 290.842 529.52 284.653 522.764 282.749Z" fill="#3F3D56"/>
<path opacity="0.8" d="M991.826 607.784C991.826 607.784 718.624 450.962 601.007 480.675C601.007 480.675 351.742 507.5 322.854 566.515C322.854 566.515 243.617 318.901 214.729 310.647" stroke="#2D8FC0" stroke-width="2" stroke-miterlimit="10"/>
<path opacity="0.8" d="M322.854 566.515C368.662 444.359 781.353 308.996 781.353 308.996C722.751 323.853 601.007 480.675 601.007 480.675C601.007 480.675 343.488 293.314 214.729 310.647C214.729 310.647 781.766 329.218 991.826 607.784" stroke="#2D8FC0" stroke-width="2" stroke-miterlimit="10"/>
<path d="M214.729 322.615C221.339 322.615 226.697 317.257 226.697 310.647C226.697 304.037 221.339 298.679 214.729 298.679C208.119 298.679 202.761 304.037 202.761 310.647C202.761 317.257 208.119 322.615 214.729 322.615Z" fill="#2D8FC0"/>
<path d="M322.854 578.483C329.464 578.483 334.822 573.125 334.822 566.515C334.822 559.905 329.464 554.547 322.854 554.547C316.244 554.547 310.886 559.905 310.886 566.515C310.886 573.125 316.244 578.483 322.854 578.483Z" fill="#2D8FC0"/>
<path d="M781.354 320.964C787.964 320.964 793.322 315.606 793.322 308.996C793.322 302.386 787.964 297.028 781.354 297.028C774.744 297.028 769.386 302.386 769.386 308.996C769.386 315.606 774.744 320.964 781.354 320.964Z" fill="#2D8FC0"/>
<path d="M991.825 619.752C998.435 619.752 1003.79 614.394 1003.79 607.784C1003.79 601.174 998.435 595.816 991.825 595.816C985.216 595.816 979.857 601.174 979.857 607.784C979.857 614.394 985.216 619.752 991.825 619.752Z" fill="#2D8FC0"/>
<path d="M601.007 492.643C607.617 492.643 612.975 487.285 612.975 480.675C612.975 474.066 607.617 468.707 601.007 468.707C594.397 468.707 589.039 474.066 589.039 480.675C589.039 487.285 594.397 492.643 601.007 492.643Z" fill="#2D8FC0"/>
</g>
<defs>
<clipPath id="clip0_23:250">
<rect width="1176.61" height="873.979" fill="white" transform="translate(0.655273)"/>
</clipPath>
</defs>
</svg>
