<svg width="1131" height="813" viewBox="0 0 1131 813" fill="none" xmlns="http://www.w3.org/2000/svg">
<g clip-path="url(#clip0_24:497)">
<path opacity="0.3" d="M770.13 51.2671H689.328V81.3587H770.13V51.2671Z" fill="#2D8FC0"/>
<path opacity="0.3" d="M904.427 0H823.626V30.0916H904.427V0Z" fill="#2D8FC0"/>
<path opacity="0.3" d="M910 93.061H829.198V123.153H910V93.061Z" fill="#2D8FC0"/>
<path opacity="0.3" d="M651.435 127.611H570.634V157.702H651.435V127.611Z" fill="#2D8FC0"/>
<path opacity="0.3" d="M625.802 251.321H545V281.412H625.802V251.321Z" fill="#2D8FC0"/>
<path opacity="0.3" d="M747.84 248.534H667.038V278.626H747.84V248.534Z" fill="#2D8FC0"/>
<path d="M823.626 14.856L770.13 65.616L829.198 108.107" stroke="#3F3D56" stroke-miterlimit="10"/>
<path d="M689.328 65.6162L611.034 127.61" stroke="#3F3D56" stroke-miterlimit="10"/>
<path d="M585.401 251.297L611.034 157.702L707.439 248.534" stroke="#3F3D56" stroke-miterlimit="10"/>
<path opacity="0.3" d="M225.13 82.2671H144.328V112.359H225.13V82.2671Z" fill="#2D8FC0"/>
<path opacity="0.3" d="M359.428 31H278.626V61.0916H359.428V31Z" fill="#2D8FC0"/>
<path opacity="0.3" d="M365 124.061H284.198V154.153H365V124.061Z" fill="#2D8FC0"/>
<path opacity="0.3" d="M106.435 158.611H25.6338V188.702H106.435V158.611Z" fill="#2D8FC0"/>
<path opacity="0.3" d="M80.8015 282.321H0V312.412H80.8015V282.321Z" fill="#2D8FC0"/>
<path opacity="0.3" d="M202.84 279.534H122.038V309.626H202.84V279.534Z" fill="#2D8FC0"/>
<path d="M278.626 45.856L225.13 96.616L284.198 139.107" stroke="#3F3D56" stroke-miterlimit="10"/>
<path d="M144.328 96.6162L66.0342 158.61" stroke="#3F3D56" stroke-miterlimit="10"/>
<path d="M40.4009 282.297L66.0339 188.702L162.439 279.534" stroke="#3F3D56" stroke-miterlimit="10"/>
<path d="M365 139.107H456.634" stroke="#3F3D56" stroke-miterlimit="10"/>
<path d="M510.5 123.706H415.5V153.706H510.5V123.706Z" fill="#2D8FC0"/>
<path d="M510.623 138.706H570.633" stroke="#3F3D56" stroke-miterlimit="10"/>
<path d="M415.045 138.706L359.428 45.8564" stroke="#3F3D56" stroke-miterlimit="10"/>
<path d="M691 812.206C934.005 812.206 1131 768.33 1131 714.206C1131 660.082 934.005 616.206 691 616.206C447.995 616.206 251 660.082 251 714.206C251 768.33 447.995 812.206 691 812.206Z" fill="#F2F2F2"/>
<path d="M894.984 391.611L852.078 606.582H842.79L841.768 604.994L838.809 600.39L875.964 399.572L881.604 397.21L894.984 391.611Z" fill="#47465A"/>
<path opacity="0.1" d="M881.604 397.21L841.768 604.994L838.809 600.39L875.964 399.572L881.604 397.21Z" fill="black"/>
<path d="M959.564 684.432L948.533 687.988L945.852 688.855L942.313 680.893L881.604 403.96L887.916 402.545L901.177 399.572L959.564 684.432Z" fill="#47465A"/>
<path opacity="0.1" d="M948.533 687.988L945.852 688.855L942.313 680.893L881.604 403.96L887.916 402.545L948.533 687.988Z" fill="black"/>
<path d="M433.636 391.611L423.905 670.277L412.753 672.754L411.962 672.931L408.865 667.181L415.058 394.264L421.016 393.415L433.636 391.611Z" fill="#47465A"/>
<path opacity="0.1" d="M421.016 393.415L412.753 672.754L411.962 672.931L408.865 667.181L415.058 394.264L421.016 393.415Z" fill="black"/>
<path d="M491.581 768.917L480.045 770.907L478.753 771.128L475.215 763.609L419.039 399.572L420.658 399.081L429.213 396.476L491.581 768.917Z" fill="#47465A"/>
<path opacity="0.1" d="M480.045 770.907L478.753 771.128L475.215 763.609L419.039 399.572L420.658 399.081L480.045 770.907Z" fill="black"/>
<path d="M735.746 369.052L778.697 423.934C780.169 425.815 782.1 427.286 784.305 428.205C786.509 429.124 788.913 429.461 791.286 429.183L967.604 408.534C970.994 408.137 974.12 406.508 976.389 403.958C978.658 401.408 979.911 398.114 979.911 394.7V354.013L735.746 369.052Z" fill="#7A799C"/>
<path d="M880.388 377.898H892.331V395.135C892.331 396.312 891.863 397.441 891.031 398.273C890.199 399.105 889.07 399.573 887.893 399.573H884.825C883.648 399.573 882.52 399.105 881.687 398.273C880.855 397.441 880.388 396.312 880.388 395.135V377.898Z" fill="#47465A"/>
<path d="M419.039 403.996L461.99 458.878C463.462 460.759 465.393 462.23 467.598 463.149C469.802 464.068 472.206 464.405 474.579 464.127L650.897 443.477C654.287 443.08 657.413 441.452 659.682 438.902C661.951 436.352 663.204 433.057 663.204 429.644V388.957L419.039 403.996Z" fill="#7A799C"/>
<path d="M563.68 412.842H575.623V430.079C575.623 431.256 575.156 432.384 574.323 433.217C573.491 434.049 572.362 434.516 571.185 434.516H568.118C566.941 434.516 565.812 434.049 564.98 433.217C564.148 432.384 563.68 431.256 563.68 430.079V412.842H563.68Z" fill="#47465A"/>
<path d="M468.385 431.791L992.844 370.701C994.492 370.509 996.034 369.791 997.241 368.653C998.448 367.516 999.257 366.019 999.546 364.386C999.836 362.752 999.591 361.069 998.848 359.586C998.105 358.103 996.903 356.899 995.422 356.152L901.605 308.97C883.127 299.677 862.379 295.855 841.803 297.953L375.861 345.463C374.195 345.637 372.611 346.277 371.292 347.309C369.973 348.342 368.971 349.725 368.402 351.3C367.832 352.875 367.718 354.579 368.071 356.216C368.425 357.854 369.233 359.358 370.402 360.558L424.661 416.226C430.276 421.987 437.137 426.386 444.716 429.084C452.296 431.782 460.392 432.708 468.385 431.791V431.791Z" fill="#47465A"/>
<path d="M1050.54 362.422L1044.93 359.321C1044.93 359.321 1038.88 363.779 1033.94 382.56C1029.01 401.342 1043.16 382.764 1043.16 382.764L1049.36 369.936L1050.54 362.422Z" fill="#47465A"/>
<path d="M990.527 534.483C990.527 534.483 984.777 561.465 982.123 568.984C980.823 572.664 974.542 576.031 967.58 578.605C961.406 580.905 955.016 582.572 948.506 583.581C940.987 584.466 844.559 569.427 797.672 559.253C766.086 552.401 762.003 544.541 762.702 540.144C762.927 538.836 763.554 537.629 764.498 536.694C764.498 536.694 810.942 505.289 827.308 490.25C843.674 475.211 875.964 487.154 911.351 493.346C946.737 499.539 990.527 534.483 990.527 534.483Z" fill="#47465A"/>
<path d="M1044.93 359.321C1044.93 359.321 1066.61 373.475 993.624 402.669C993.624 402.669 953.955 425.035 959.118 517.172C959.363 521.315 960.625 525.334 962.792 528.874C970.322 541.259 986.458 572.611 959.564 576.504V583.581C959.564 583.581 1008.22 559.253 1013.53 538.464C1018.84 517.674 1036.53 402.226 1045.38 391.611C1054.22 380.995 1059.97 364.186 1044.93 359.321Z" fill="#47465A"/>
<path opacity="0.1" d="M967.58 578.605C961.406 580.904 955.016 582.572 948.506 583.581C940.987 584.466 844.559 569.426 797.672 559.253C766.086 552.401 762.003 544.541 762.702 540.144C783.465 547.244 850.884 569.776 875.08 571.638C903.831 573.85 958.759 579.998 962.922 575.818C964.523 574.208 966.164 575.907 967.58 578.605Z" fill="black"/>
<path d="M714.957 762.724L756.978 570.753C756.978 570.753 764.497 550.406 781.748 551.291L797.672 559.253C797.672 559.253 771.132 553.06 765.382 573.407C759.632 593.755 722.918 762.724 722.918 762.724H714.957Z" fill="#47465A"/>
<path d="M815.808 675.143L832.616 557.926H840.136L822.885 675.143H815.808Z" fill="#47465A"/>
<path d="M976.815 789.706L960.891 606.582C960.891 606.582 960.891 591.101 968.853 583.581C976.815 576.062 1002.52 554.611 1002.52 554.611C1002.52 554.611 1009.1 553.06 1014.41 568.1C1019.72 583.139 1056.43 733.53 1056.43 733.53L1049.36 736.627L1003.8 563.234L972.392 592.87C972.392 592.87 966.199 603.928 969.295 614.102C972.392 624.275 983.892 789.706 983.892 789.706H976.815Z" fill="#47465A"/>
<path d="M927.717 579.158L967.526 590.658L976.373 582.254L953.372 579.158H927.717Z" fill="#47465A"/>
<path d="M573.813 256.304L580.268 353.128L721.37 339.416L715.755 244.766C715.68 243.499 715.352 242.259 714.791 241.12C714.229 239.981 713.445 238.966 712.485 238.135C711.525 237.303 710.409 236.672 709.202 236.279C707.994 235.885 706.72 235.738 705.455 235.844L582.513 246.185C580.026 246.394 577.72 247.572 576.093 249.465C574.465 251.357 573.647 253.814 573.813 256.304Z" fill="#7A799C"/>
<path d="M768.7 367.282L628.039 382.627L622.731 383.206L581.595 356.667V350.916L721.37 338.328L768.7 367.282Z" fill="#7A799C"/>
<path opacity="0.1" d="M628.039 382.627L622.731 383.206L581.595 356.667V351.518L628.039 382.627Z" fill="black"/>
<path d="M583.364 255.373L588.23 341.627L712.082 330.127L707.658 246.084L583.364 255.373Z" fill="#9493B6"/>
<path opacity="0.1" d="M657.233 365.513L672.272 375.687L717.832 371.263L702.35 361.532L657.233 365.513Z" fill="black"/>
<path d="M595.749 353.128L614.769 367.282L736.41 355.782L714.736 341.627L595.749 353.128Z" fill="#9493B6"/>
<path d="M901.398 222.42H811.605V312.213H901.398V222.42Z" fill="#FF6584"/>
<path opacity="0.1" d="M901.398 222.42H811.605V312.213H901.398V222.42Z" fill="black"/>
<path d="M842.529 263.974C842.529 263.974 855.196 298.28 842.529 304.613C829.862 310.947 887.918 304.613 887.918 304.613L904.28 291.419C904.28 291.419 867.335 280.863 872.613 256.585C877.89 232.307 842.529 263.974 842.529 263.974Z" fill="#FBBEBE"/>
<path opacity="0.1" d="M842.529 263.974C842.529 263.974 855.196 298.28 842.529 304.613C829.862 310.947 887.918 304.613 887.918 304.613L904.28 291.419C904.28 291.419 867.335 280.863 872.613 256.585C877.89 232.307 842.529 263.974 842.529 263.974Z" fill="black"/>
<path d="M738.556 608.089C738.556 608.089 786.056 675.117 778.139 693.59C770.223 712.062 774.445 723.674 758.611 730.007C742.778 736.34 738.556 747.952 752.278 747.424C766 746.896 783.945 743.202 786.584 738.452C789.223 733.701 795.556 711.007 804.529 707.84C813.501 704.673 830.39 692.534 818.251 677.756C806.112 662.978 775.526 608.546 777.888 603.04C780.251 597.533 738.556 608.089 738.556 608.089Z" fill="#FBBEBE"/>
<path d="M837.779 475.615C837.779 475.615 739.611 481.948 714.277 505.699C688.944 529.449 736.444 618.117 741.722 619.172C747 620.228 788.167 616.005 786.584 604.394C785.001 592.783 757.028 545.282 757.028 545.282C757.028 545.282 793.445 532.088 813.501 528.921C833.557 525.754 855.724 510.977 855.724 510.977L837.779 475.615Z" fill="#9493B6"/>
<path d="M792.917 460.837C792.917 460.837 794.501 519.421 809.279 521.532C824.057 523.643 809.279 476.671 809.279 476.671L808.751 458.726L792.917 460.837Z" fill="#FBBEBE"/>
<path d="M837.779 307.252C837.779 307.252 810.334 299.335 805.057 320.447C799.779 341.558 798.195 414.392 798.195 414.392L788.695 472.448C788.695 472.448 806.112 467.17 809.807 469.809L831.974 441.837L837.779 307.252Z" fill="#2D8FC0"/>
<path opacity="0.1" d="M837.779 307.252C837.779 307.252 810.334 299.335 805.057 320.447C799.779 341.558 798.195 414.392 798.195 414.392L788.695 472.448C788.695 472.448 806.112 467.17 809.807 469.809L831.974 441.837L837.779 307.252Z" fill="black"/>
<path d="M875.279 619.329C875.279 619.329 893.724 655.589 904.807 655.062C915.891 654.534 926.447 647.673 931.724 669.312C937.002 690.951 930.669 685.145 937.002 697.812C943.336 710.479 944.391 732.646 932.252 737.924C920.113 743.202 909.03 743.729 908.502 737.924C907.974 732.118 919.058 732.118 906.391 711.534C893.724 690.951 866.807 653.478 855.724 649.784C844.64 646.089 875.279 619.329 875.279 619.329Z" fill="#FBBEBE"/>
<path d="M923.28 453.976C923.28 453.976 961.28 517.31 936.474 535.782C911.669 554.255 837.779 589.616 837.779 589.616C837.779 589.616 877.363 616.533 879.474 625.506C881.585 634.478 860.474 658.756 853.085 659.284C845.696 659.812 824.057 635.006 800.834 628.672C777.612 622.339 763.361 576.95 788.695 560.06C814.029 543.171 837.779 515.199 837.779 515.199L830.394 474.565L923.28 453.976Z" fill="#9493B6"/>
<path d="M890.34 242.767C890.34 265.212 867.348 283.766 844.904 283.766C834.126 283.766 823.789 279.484 816.168 271.863C808.546 264.241 804.265 253.905 804.265 243.126C804.265 232.348 808.546 222.011 816.168 214.39C823.789 206.769 834.126 202.487 844.904 202.487C867.348 202.487 890.34 220.323 890.34 242.767Z" fill="#FBBEBE"/>
<path d="M855.196 301.446C855.196 301.446 891.613 285.613 891.613 283.502C891.613 281.391 912.724 288.252 917.474 292.474C922.224 296.696 924.863 296.169 928.03 304.613C931.196 313.058 912.196 391.697 912.196 391.697C912.196 391.697 922.752 452.393 928.558 458.198C934.363 464.004 881.585 472.448 881.585 472.448C881.585 472.448 846.751 478.782 840.945 481.421C835.14 484.06 824.584 487.754 826.695 481.421C828.806 475.087 837.779 470.337 822.473 462.42C822.473 462.42 827.751 436.559 822.473 424.948C817.195 413.337 792.917 371.114 812.445 340.502C831.973 309.891 840.945 298.807 840.945 298.807C840.945 298.807 847.807 304.613 855.196 301.446Z" fill="#2D8FC0"/>
<path d="M866.807 445.531C866.807 445.531 825.64 463.79 813.237 465.48C800.834 467.171 763.362 476.671 783.945 485.115C804.529 493.56 835.668 480.893 835.668 480.893L879.474 462.421L866.807 445.531Z" fill="#FBBEBE"/>
<path opacity="0.1" d="M911.129 299.827C911.129 299.827 926.331 292.474 930.553 318.336C934.775 344.197 949.553 426.003 930.553 438.142C911.553 450.281 867.747 469.809 867.747 469.809C867.747 469.809 841.886 452.393 854.025 446.059C866.164 439.726 895.192 421.781 899.414 415.448C903.636 409.114 907.902 338.421 900.513 326.809C893.124 315.198 911.129 299.827 911.129 299.827Z" fill="black"/>
<path d="M910.085 293.53C910.085 293.53 931.197 292.474 935.419 318.336C939.641 344.197 954.419 426.003 935.419 438.142C916.419 450.281 872.613 469.809 872.613 469.809C872.613 469.809 846.751 452.393 858.89 446.059C871.029 439.726 900.057 421.781 904.28 415.448C908.502 409.114 901.113 343.141 893.724 331.53C886.335 319.919 910.085 293.53 910.085 293.53Z" fill="#2D8FC0"/>
<path d="M834.894 174.715C828.414 175.597 821.465 177.967 818.204 183.635C816.609 186.409 816.093 189.663 814.864 192.617C811.473 200.77 803.236 205.638 797.29 212.165C789.54 220.672 785.692 233.491 790.262 244.052C792.032 248.141 794.906 251.645 797.086 255.531C803.167 266.375 803.491 279.397 803.664 291.828L804.004 316.269C804.056 320.001 804.098 323.808 802.974 327.368C801.85 330.927 799.341 334.26 795.782 335.384C799.709 336.746 803.978 336.756 807.911 335.412C811.844 334.069 815.216 331.45 817.49 327.972C817.976 331.05 817.699 334.2 816.684 337.147C815.669 340.093 813.946 342.745 811.667 344.871C821.343 342.592 829.458 335.555 834.57 327.029C839.682 318.503 842.052 308.587 843.114 298.703C843.676 293.475 843.874 288.07 842.223 283.078C841.059 279.563 839.03 276.411 837.104 273.248C832.139 265.094 827.667 256.422 826.067 247.01C824.467 237.599 826.074 227.272 832.185 219.938C834.531 217.104 837.486 214.836 840.83 213.302C844.174 211.769 847.821 211.01 851.5 211.082C855.178 211.224 858.757 212.307 861.896 214.229C865.036 216.151 867.629 218.846 869.428 222.057C870.84 224.715 872.849 228.316 875.71 227.383C876.24 227.158 876.757 226.904 877.259 226.622C880.45 225.17 884.074 228.035 885.481 231.245C889.918 241.372 881.743 252.427 880.898 263.45C880.112 273.705 885.829 283.377 892.663 291.062C904.468 304.283 919.887 313.757 937.016 318.312C934.508 317.68 932.26 316.284 930.582 314.315C937.546 314.594 944.518 314.01 951.339 312.575C943.912 306.979 936.434 301.335 930.234 294.405C924.034 287.474 919.124 279.089 917.787 269.886C915.992 257.537 920.592 244.163 915.333 232.846C910.525 222.499 898.601 216.717 894.246 206.172C889.823 195.46 886.956 186.154 875.244 181.491C862.462 176.402 848.704 172.835 834.894 174.715Z" fill="#FF6584"/>
</g>
<defs>
<clipPath id="clip0_24:497">
<rect width="1131" height="812.206" fill="white"/>
</clipPath>
</defs>
</svg>
