<svg width="364" height="94" viewBox="0 0 364 94" fill="none" xmlns="http://www.w3.org/2000/svg">
<path d="M40.8538 79.63H41.1498V80H32.8248V79.63H33.1578C33.6758 79.63 34.0582 79.4697 34.3048 79.149C34.5762 78.8037 34.7118 78.483 34.7118 78.187C34.7118 77.891 34.6625 77.595 34.5638 77.299L32.1958 71.009H22.2058L19.7268 77.336C19.6281 77.632 19.5788 77.928 19.5788 78.224C19.5788 78.4953 19.7021 78.8037 19.9488 79.149C20.2201 79.4697 20.6148 79.63 21.1328 79.63H21.4658V80H14.0288V79.63H14.3618C14.9785 79.63 15.5828 79.4327 16.1748 79.038C16.7668 78.6433 17.2478 78.0637 17.6178 77.299L25.9798 57.393C26.8925 55.395 27.3488 54.1247 27.3488 53.582H27.6818L37.5978 77.299C37.9432 78.0637 38.4118 78.6433 39.0038 79.038C39.5958 79.4327 40.2125 79.63 40.8538 79.63ZM22.6498 69.899H31.7518L27.3118 58.022L22.6498 69.899ZM54.8309 80.518C50.9335 80.4933 47.7515 79.2477 45.2849 76.781C42.8429 74.3143 41.6219 71.0707 41.6219 67.05C41.6219 63.0047 42.8429 59.7487 45.2849 57.282C47.7515 54.8153 51.0075 53.582 55.0529 53.582C58.3582 53.582 61.2812 54.4207 63.8219 56.098L64.5619 61.315H64.2289C63.6862 59.1937 62.5885 57.5657 60.9359 56.431C59.2832 55.2717 57.3222 54.692 55.0529 54.692C51.8215 54.692 49.2315 55.8143 47.2829 58.059C45.3589 60.3037 44.3969 63.276 44.3969 66.976C44.3969 70.676 45.3465 73.6607 47.2459 75.93C49.1699 78.1747 51.6982 79.334 54.8309 79.408C57.5935 79.408 59.8999 78.6557 61.7499 77.151C63.7479 75.523 64.9565 72.8713 65.3759 69.196H65.6719L65.2279 75.005C62.9832 78.6803 59.5175 80.518 54.8309 80.518ZM70.0662 79.63C70.6582 79.63 71.1515 79.445 71.5462 79.075C71.9655 78.6803 72.1875 78.2117 72.2122 77.669V60.168C72.1875 59.6253 71.9532 59.1567 71.5092 58.762C71.0899 58.3673 70.5842 58.17 69.9922 58.17H69.5482V57.8H77.2072V58.17H76.7632C76.1712 58.17 75.6532 58.3673 75.2092 58.762C74.7899 59.1567 74.5802 59.6253 74.5802 60.168V78.853H80.3522C81.4869 78.853 82.4489 78.6557 83.2382 78.261C84.0275 77.8663 84.6195 77.3977 85.0142 76.855C85.4335 76.3123 85.8405 75.597 86.2352 74.709H86.6052L84.5702 80H69.5482V79.63H70.0662ZM95.2354 58.762C97.1348 57.7753 99.2191 57.282 101.488 57.282C103.782 57.282 105.879 57.7753 107.778 58.762C109.678 59.724 111.182 61.093 112.292 62.869C113.427 64.645 113.994 66.6553 113.994 68.9C113.994 71.1447 113.427 73.155 112.292 74.931C111.182 76.707 109.678 78.0883 107.778 79.075C105.879 80.037 103.93 80.518 101.932 80.518C99.9344 80.518 98.1708 80.2343 96.6414 79.667C95.1121 79.0997 93.7801 78.3103 92.6454 77.299C91.5354 76.2877 90.6474 75.0543 89.9814 73.599C89.3401 72.1437 89.0194 70.4417 89.0194 68.493C89.0194 66.5197 89.5744 64.645 90.6844 62.869C91.8191 61.093 93.3361 59.724 95.2354 58.762ZM94.5324 76.485C96.4071 78.4337 98.7258 79.408 101.488 79.408C104.251 79.408 106.57 78.4337 108.444 76.485C110.319 74.5117 111.256 71.9833 111.256 68.9C111.256 65.8167 110.319 63.3007 108.444 61.352C106.57 59.3787 104.251 58.392 101.488 58.392C98.7258 58.392 96.4071 59.3787 94.5324 61.352C92.6824 63.3007 91.7574 65.8167 91.7574 68.9C91.7574 71.9833 92.6824 74.5117 94.5324 76.485ZM140.066 58.17H139.511C138.845 58.17 138.34 58.429 137.994 58.947C137.846 59.169 137.76 59.428 137.735 59.724V72.193C137.735 74.7583 136.909 76.7933 135.256 78.298C133.628 79.778 131.384 80.518 128.522 80.518C125.661 80.518 123.404 79.778 121.751 78.298C120.099 76.818 119.272 74.7953 119.272 72.23V59.761C119.272 59.317 119.1 58.947 118.754 58.651C118.409 58.3303 117.99 58.17 117.496 58.17H116.941V57.8H123.971V58.17H123.416C122.923 58.17 122.504 58.3303 122.158 58.651C121.813 58.947 121.64 59.317 121.64 59.761V71.786C121.64 74.1787 122.245 76.0657 123.453 77.447C124.687 78.8283 126.413 79.519 128.633 79.519C130.878 79.519 132.666 78.8653 133.998 77.558C135.355 76.2507 136.033 74.4623 136.033 72.193V59.761C136.009 59.2923 135.824 58.91 135.478 58.614C135.158 58.318 134.751 58.17 134.257 58.17H133.702V57.8H140.066V58.17ZM167.639 68.9C167.639 72.3287 166.566 75.042 164.42 77.04C162.298 79.0133 159.412 80 155.762 80H143.404V79.63H143.885C144.477 79.63 144.97 79.4327 145.365 79.038C145.759 78.6433 145.969 78.1747 145.994 77.632V60.168C145.969 59.576 145.747 59.095 145.328 58.725C144.933 58.355 144.44 58.17 143.848 58.17H143.404V57.8H155.762C158.179 57.8 160.276 58.244 162.052 59.132C163.852 60.02 165.234 61.3027 166.196 62.98C167.158 64.6573 167.639 66.6307 167.639 68.9ZM148.399 58.91V78.89H155.762C158.598 78.89 160.843 78.002 162.496 76.226C164.148 74.4253 164.975 71.9833 164.975 68.9C164.975 65.8167 164.148 63.387 162.496 61.611C160.843 59.8103 158.598 58.91 155.762 58.91H148.399ZM195.244 54.47H194.911C194.072 54.47 193.307 54.803 192.617 55.469C192.222 55.8143 191.914 56.246 191.692 56.764L182.775 76.707C181.862 78.705 181.406 79.9753 181.406 80.518H181.073L170.676 56.801C170.33 56.0117 169.849 55.432 169.233 55.062C168.641 54.6673 168.036 54.47 167.42 54.47H167.124V54.1H175.449V54.47H175.116C174.376 54.47 173.882 54.8153 173.636 55.506C173.586 55.654 173.562 55.8267 173.562 56.024C173.562 56.2213 173.623 56.468 173.747 56.764L181.48 76.152L189.546 56.764C189.644 56.468 189.694 56.1843 189.694 55.913C189.694 55.617 189.558 55.3087 189.287 54.988C189.04 54.6427 188.658 54.47 188.14 54.47H187.807V54.1H195.244V54.47ZM196.278 79.63C196.944 79.63 197.524 79.4327 198.017 79.038C198.51 78.6433 198.757 78.1747 198.757 77.632V60.168C198.757 59.6253 198.51 59.1567 198.017 58.762C197.524 58.3673 196.932 58.17 196.241 58.17H195.76V57.8H204.122V58.17H203.641C202.975 58.17 202.395 58.355 201.902 58.725C201.433 59.095 201.174 59.5513 201.125 60.094V77.669C201.15 78.2117 201.409 78.6803 201.902 79.075C202.395 79.445 202.975 79.63 203.641 79.63H204.122L204.159 80H195.76V79.63H196.278ZM215.109 58.947H213.148V77.632C213.172 78.3967 213.518 78.9763 214.184 79.371C214.504 79.5437 214.862 79.63 215.257 79.63H215.738L215.775 80H208.19V79.63H208.708C209.275 79.63 209.756 79.445 210.151 79.075C210.57 78.6803 210.78 78.2117 210.78 77.669V60.094C210.78 59.5513 210.57 59.095 210.151 58.725C209.756 58.355 209.275 58.17 208.708 58.17H208.19V57.8H217.477C219.795 57.8 221.621 58.3303 222.953 59.391C224.309 60.4517 224.988 61.8453 224.988 63.572C224.988 65.2987 224.445 66.7417 223.36 67.901C222.274 69.0603 220.893 69.7263 219.216 69.899C220.005 70.2443 220.955 71.2063 222.065 72.785C222.04 72.785 222.459 73.3277 223.323 74.413C224.211 75.4983 224.914 76.3493 225.432 76.966C225.974 77.558 226.418 78.0143 226.764 78.335C227.676 79.1983 228.725 79.63 229.909 79.63V80H228.762C226.813 80 225.284 79.6177 224.174 78.853C223.335 78.2857 222.57 77.5827 221.88 76.744C221.732 76.5467 221.103 75.6833 219.993 74.154C218.907 72.6 218.328 71.7737 218.254 71.675C216.922 70.0223 215.676 69.196 214.517 69.196V68.826C217.403 68.826 219.142 68.678 219.734 68.382C220.548 67.9627 221.103 67.5187 221.399 67.05C222.015 66.0633 222.324 64.978 222.324 63.794C222.324 62.2893 221.88 61.13 220.992 60.316C220.104 59.502 218.907 59.058 217.403 58.984C216.737 58.9593 215.972 58.947 215.109 58.947ZM240.327 58.873V77.669C240.351 78.4337 240.721 79.001 241.437 79.371C241.757 79.5437 242.115 79.63 242.51 79.63H242.917V80H235.295V79.63H235.739C236.331 79.63 236.836 79.4327 237.256 79.038C237.675 78.6433 237.897 78.1747 237.922 77.632V58.873H231.225C230.657 58.873 230.201 59.058 229.856 59.428C229.535 59.798 229.375 60.242 229.375 60.76V61.352H228.968V57.171C229.461 57.3683 230.152 57.5163 231.04 57.615C231.952 57.7137 232.631 57.763 233.075 57.763H245.137C246.913 57.763 248.294 57.5657 249.281 57.171V61.352H248.874V60.76C248.874 60.242 248.701 59.798 248.356 59.428C248.01 59.058 247.566 58.873 247.024 58.873H240.327ZM274.408 58.17H273.853C273.187 58.17 272.682 58.429 272.336 58.947C272.188 59.169 272.102 59.428 272.077 59.724V72.193C272.077 74.7583 271.251 76.7933 269.598 78.298C267.97 79.778 265.726 80.518 262.864 80.518C260.003 80.518 257.746 79.778 256.093 78.298C254.441 76.818 253.614 74.7953 253.614 72.23V59.761C253.614 59.317 253.442 58.947 253.096 58.651C252.751 58.3303 252.332 58.17 251.838 58.17H251.283V57.8H258.313V58.17H257.758C257.265 58.17 256.846 58.3303 256.5 58.651C256.155 58.947 255.982 59.317 255.982 59.761V71.786C255.982 74.1787 256.587 76.0657 257.795 77.447C259.029 78.8283 260.755 79.519 262.975 79.519C265.22 79.519 267.008 78.8653 268.34 77.558C269.697 76.2507 270.375 74.4623 270.375 72.193V59.761C270.351 59.2923 270.166 58.91 269.82 58.614C269.5 58.318 269.093 58.17 268.599 58.17H268.044V57.8H274.408V58.17ZM283.307 58.762C285.206 57.7753 287.29 57.282 289.56 57.282C291.854 57.282 293.95 57.7753 295.85 58.762C297.749 59.724 299.254 61.093 300.364 62.869C301.498 64.645 302.066 66.6553 302.066 68.9C302.066 71.1447 301.498 73.155 300.364 74.931C299.254 76.707 297.749 78.0883 295.85 79.075C293.95 80.037 292.002 80.518 290.004 80.518C288.006 80.518 286.242 80.2343 284.713 79.667C283.183 79.0997 281.851 78.3103 280.717 77.299C279.607 76.2877 278.719 75.0543 278.053 73.599C277.411 72.1437 277.091 70.4417 277.091 68.493C277.091 66.5197 277.646 64.645 278.756 62.869C279.89 61.093 281.407 59.724 283.307 58.762ZM282.604 76.485C284.478 78.4337 286.797 79.408 289.56 79.408C292.322 79.408 294.641 78.4337 296.516 76.485C298.39 74.5117 299.328 71.9833 299.328 68.9C299.328 65.8167 298.39 63.3007 296.516 61.352C294.641 59.3787 292.322 58.392 289.56 58.392C286.797 58.392 284.478 59.3787 282.604 61.352C280.754 63.3007 279.829 65.8167 279.829 68.9C279.829 71.9833 280.754 74.5117 282.604 76.485ZM306.04 78.779C305.966 78.483 305.929 77.8787 305.929 76.966C305.929 76.0533 306.089 75.1283 306.41 74.191H306.854C306.829 74.413 306.817 74.635 306.817 74.857C306.817 76.189 307.249 77.2867 308.112 78.15C309 78.9887 310.221 79.408 311.775 79.408C313.403 79.408 314.673 79.038 315.586 78.298C316.499 77.5333 316.955 76.559 316.955 75.375C316.955 74.1663 316.511 73.1673 315.623 72.378L308.223 66.68C307.039 65.6687 306.447 64.312 306.447 62.61C306.447 61.648 306.706 60.76 307.224 59.946C307.767 59.132 308.507 58.4907 309.444 58.022C310.406 57.5287 311.528 57.282 312.811 57.282C314.094 57.282 315.228 57.393 316.215 57.615H317.436L317.51 61.648H317.103C317.103 60.612 316.745 59.8103 316.03 59.243C315.315 58.6757 314.291 58.392 312.959 58.392C311.627 58.392 310.529 58.7373 309.666 59.428C308.803 60.094 308.371 60.9697 308.371 62.055C308.371 63.1157 308.852 64.0407 309.814 64.83L317.288 70.602C318.423 71.5393 318.99 72.8467 318.99 74.524C318.99 76.2013 318.349 77.6197 317.066 78.779C315.808 79.9383 314.266 80.518 312.441 80.518C311.232 80.518 310.024 80.37 308.815 80.074C307.606 79.778 306.681 79.3463 306.04 78.779ZM329.051 58.762C330.95 57.7753 333.035 57.282 335.304 57.282C337.598 57.282 339.695 57.7753 341.594 58.762C343.493 59.724 344.998 61.093 346.108 62.869C347.243 64.645 347.81 66.6553 347.81 68.9C347.81 71.1447 347.243 73.155 346.108 74.931C344.998 76.707 343.493 78.0883 341.594 79.075C339.695 80.037 337.746 80.518 335.748 80.518C333.75 80.518 331.986 80.2343 330.457 79.667C328.928 79.0997 327.596 78.3103 326.461 77.299C325.351 76.2877 324.463 75.0543 323.797 73.599C323.156 72.1437 322.835 70.4417 322.835 68.493C322.835 66.5197 323.39 64.645 324.5 62.869C325.635 61.093 327.152 59.724 329.051 58.762ZM328.348 76.485C330.223 78.4337 332.541 79.408 335.304 79.408C338.067 79.408 340.385 78.4337 342.26 76.485C344.135 74.5117 345.072 71.9833 345.072 68.9C345.072 65.8167 344.135 63.3007 342.26 61.352C340.385 59.3787 338.067 58.392 335.304 58.392C332.541 58.392 330.223 59.3787 328.348 61.352C326.498 63.3007 325.573 65.8167 325.573 68.9C325.573 71.9833 326.498 74.5117 328.348 76.485Z" fill="white"/>
<line x1="67" y1="33.5" x2="147" y2="33.5" stroke="#2D8FC0"/>
<line x1="208" y1="33.5" x2="288" y2="33.5" stroke="#2D8FC0"/>
<path d="M186.023 18.5643C183.905 18.5643 181.928 19.1771 180.264 20.2341C178.816 15.9835 174.783 12.9243 170.033 12.9243C164.13 12.9243 159.333 17.651 159.232 23.5196C156.692 25.0892 155 27.8951 155 31.0957C155 36.0133 158.994 39.9999 163.92 39.9999C166.378 39.9999 168.603 39.0065 170.216 37.4015C171.465 38.541 173.127 39.2363 174.951 39.2363C176.619 39.2363 178.153 38.6553 179.357 37.6831C181.188 39.1326 183.504 39.9987 186.022 39.9987C191.952 39.9987 196.759 35.199 196.759 29.2809C196.761 23.3628 191.953 18.5643 186.023 18.5643Z" fill="#2D8FC0"/>
<path d="M193.867 3.94939C192.985 3.62807 192.091 3.18325 191.226 2.61374L193.084 0C193.945 0.56831 194.182 1.94232 193.867 3.94939ZM180.293 19C182.019 18.1463 183.934 17.6991 185.895 17.6991C186.729 17.6991 187.552 17.7795 188.352 17.9353C188.856 16.9714 189.331 16.0326 189.774 15.1237C191.81 10.9418 193.174 7.37124 193.724 4.72392C192.737 4.3978 191.727 3.91342 190.756 3.27437L187.965 7.20338C189.11 7.95633 189.402 9.46103 188.62 10.5641C187.837 11.6659 186.274 11.9477 185.129 11.1947L180 18.4113C180.103 18.6031 180.201 18.801 180.293 19ZM190.765 18.6643C190.94 17.0972 190.735 15.951 190.101 15.3396C189.678 16.2064 189.227 17.102 188.747 18.0192C189.439 18.1775 190.115 18.3933 190.765 18.6643Z" fill="#2D8FC0"/>
<path d="M193 0.277597L191.225 2.79387C190.397 2.2456 189.674 1.62923 189.071 0.979383C190.822 0.00634734 192.175 -0.269519 193 0.277597ZM180.489 18L185.394 11.0526C184.298 10.3277 184.019 8.87909 184.766 7.81718C185.516 6.75642 187.01 6.48517 188.106 7.21004L190.776 3.42755C189.846 2.81234 189.049 2.10824 188.404 1.37067C186.143 2.77078 183.311 5.19472 180.144 8.41277C178.721 9.85905 177.23 11.4658 175.693 13.2133C177.722 14.2983 179.406 15.9535 180.489 18ZM175.352 13.039C176.899 11.2799 178.399 9.66168 179.83 8.20616C178.306 7.55863 175.483 9.00029 172 11.9586C173.181 12.156 174.308 12.5231 175.352 13.039Z" fill="#2D8FC0"/>
<path d="M158.341 32.3226C158.341 31.0845 158.653 29.8655 159.24 28.7976C159.813 27.7607 160.635 26.8798 161.618 26.25L162.453 25.7155L162.469 24.7012C162.508 22.3214 163.436 20.0917 165.079 18.4202C166.724 16.7464 168.9 15.8262 171.208 15.8262C172.553 15.8262 173.842 16.144 175 16.7214C173.542 15.6286 171.758 15 169.866 15C167.558 15 165.383 15.9214 163.737 17.594C162.095 19.2655 161.168 21.4952 161.128 23.875L161.112 24.8893L160.276 25.4238C159.293 26.0536 158.471 26.9345 157.9 27.9726C157.312 29.0393 157 30.2583 157 31.4964C157 34.3869 158.674 36.881 161.069 38C159.414 36.6952 158.341 34.6369 158.341 32.3226Z" fill="#DDE8EC"/>
</svg>
