<svg width="292" height="92" viewBox="0 0 292 92" fill="none" xmlns="http://www.w3.org/2000/svg">
<g clip-path="url(#clip0)">
<path d="M38.7 41.57H39.388V42H30.057V41.613H30.702C31.1893 41.613 31.605 41.4267 31.949 41.054C32.293 40.6527 32.4363 40.2227 32.379 39.764L30.444 18.135L21.414 38.216C20.6113 39.9647 20.124 41.4267 19.952 42.602H19.522L8.514 18.737L6.665 39.764C6.60767 40.2227 6.751 40.6527 7.095 41.054C7.439 41.4267 7.84033 41.613 8.299 41.613H8.987V42H0.645V41.57H1.333C2.13567 41.57 2.82367 41.3263 3.397 40.839C3.999 40.3517 4.35733 39.6923 4.472 38.861L7.697 11.298H8.127L20.124 37.227L31.863 11.298H32.25L35.561 38.861C35.7043 40.0077 36.2777 40.8103 37.281 41.269C37.711 41.4697 38.184 41.57 38.7 41.57ZM64.4386 41.63H64.7346V42H57.1496V41.63H57.4456C57.9142 41.63 58.2719 41.4697 58.5186 41.149C58.7652 40.8283 58.8886 40.5323 58.8886 40.261C58.8886 39.965 58.8392 39.6813 58.7406 39.41L56.7056 34.489H47.3446L45.3096 39.299C45.1862 39.6197 45.1246 39.928 45.1246 40.224C45.1246 40.4953 45.2479 40.8037 45.4946 41.149C45.7412 41.4697 46.1112 41.63 46.6046 41.63H46.9006V42H39.8336V41.63H40.1296C40.6476 41.63 41.1656 41.4573 41.6836 41.112C42.2262 40.742 42.6702 40.1993 43.0156 39.484C48.4176 27.94 51.2296 21.8967 51.4516 21.354C51.8709 20.318 52.0929 19.6273 52.1176 19.282H52.4506L61.5896 39.484C62.3049 40.9147 63.2546 41.63 64.4386 41.63ZM47.8256 33.379H56.2616L52.1176 23.241L47.8256 33.379ZM66.6987 40.779C66.6247 40.483 66.5877 39.8787 66.5877 38.966C66.5877 38.0533 66.7481 37.1283 67.0687 36.191H67.5127C67.4881 36.413 67.4757 36.635 67.4757 36.857C67.4757 38.189 67.9074 39.2867 68.7707 40.15C69.6587 40.9887 70.8797 41.408 72.4337 41.408C74.0617 41.408 75.3321 41.038 76.2447 40.298C77.1574 39.5333 77.6137 38.559 77.6137 37.375C77.6137 36.1663 77.1697 35.1673 76.2817 34.378L68.8817 28.68C67.6977 27.6687 67.1057 26.312 67.1057 24.61C67.1057 23.648 67.3647 22.76 67.8827 21.946C68.4254 21.132 69.1654 20.4907 70.1027 20.022C71.0647 19.5287 72.1871 19.282 73.4697 19.282C74.7524 19.282 75.8871 19.393 76.8737 19.615H78.0947L78.1687 23.648H77.7617C77.7617 22.612 77.4041 21.8103 76.6887 21.243C75.9734 20.6757 74.9497 20.392 73.6177 20.392C72.2857 20.392 71.1881 20.7373 70.3247 21.428C69.4614 22.094 69.0297 22.9697 69.0297 24.055C69.0297 25.1157 69.5107 26.0407 70.4727 26.83L77.9467 32.602C79.0814 33.5393 79.6487 34.8467 79.6487 36.524C79.6487 38.2013 79.0074 39.6197 77.7247 40.779C76.4667 41.9383 74.9251 42.518 73.0997 42.518C71.8911 42.518 70.6824 42.37 69.4737 42.074C68.2651 41.778 67.3401 41.3463 66.6987 40.779ZM93.5576 20.873V39.669C93.5822 40.4337 93.9522 41.001 94.6676 41.371C94.9882 41.5437 95.3459 41.63 95.7406 41.63H96.1476V42H88.5256V41.63H88.9696C89.5616 41.63 90.0672 41.4327 90.4866 41.038C90.9059 40.6433 91.1279 40.1747 91.1526 39.632V20.873H84.4556C83.8882 20.873 83.4319 21.058 83.0866 21.428C82.7659 21.798 82.6056 22.242 82.6056 22.76V23.352H82.1986V19.171C82.6919 19.3683 83.3826 19.5163 84.2706 19.615C85.1832 19.7137 85.8616 19.763 86.3056 19.763H98.3676C100.144 19.763 101.525 19.5657 102.512 19.171V23.352H102.105V22.76C102.105 22.242 101.932 21.798 101.587 21.428C101.241 21.058 100.797 20.873 100.255 20.873H93.5576ZM105.587 41.63C106.179 41.63 106.673 41.445 107.067 41.075C107.487 40.6803 107.709 40.2117 107.733 39.669V22.094C107.733 21.5513 107.524 21.095 107.104 20.725C106.685 20.355 106.179 20.17 105.587 20.17H105.069V19.8H115.873C116.885 19.8 117.773 19.726 118.537 19.578C119.302 19.43 119.795 19.3067 120.017 19.208V23.426L119.61 23.389V22.834C119.61 22.316 119.438 21.872 119.092 21.502C118.747 21.132 118.303 20.947 117.76 20.947H110.064V30.345H116.391C116.885 30.345 117.255 30.197 117.501 29.901C117.773 29.605 117.908 29.235 117.908 28.791V28.31H118.315V33.49H117.908V33.009C117.908 32.3183 117.649 31.8497 117.131 31.603C116.934 31.529 116.724 31.4797 116.502 31.455H110.064V40.853H115.873C117.008 40.853 117.958 40.6557 118.722 40.261C119.512 39.8663 120.104 39.3977 120.498 38.855C120.918 38.3123 121.337 37.597 121.756 36.709H122.126L120.091 42H105.069V41.63H105.587ZM131.825 20.947H129.864V39.632C129.889 40.3967 130.234 40.9763 130.9 41.371C131.221 41.5437 131.578 41.63 131.973 41.63H132.454L132.491 42H124.906V41.63H125.424C125.991 41.63 126.472 41.445 126.867 41.075C127.286 40.6803 127.496 40.2117 127.496 39.669V22.094C127.496 21.5513 127.286 21.095 126.867 20.725C126.472 20.355 125.991 20.17 125.424 20.17H124.906V19.8H134.193C136.512 19.8 138.337 20.3303 139.669 21.391C141.026 22.4517 141.704 23.8453 141.704 25.572C141.704 27.2987 141.161 28.7417 140.076 29.901C138.991 31.0603 137.609 31.7263 135.932 31.899C136.721 32.2443 137.671 33.2063 138.781 34.785C138.756 34.785 139.176 35.3277 140.039 36.413C140.927 37.4983 141.63 38.3493 142.148 38.966C142.691 39.558 143.135 40.0143 143.48 40.335C144.393 41.1983 145.441 41.63 146.625 41.63V42H145.478C143.529 42 142 41.6177 140.89 40.853C140.051 40.2857 139.287 39.5827 138.596 38.744C138.448 38.5467 137.819 37.6833 136.709 36.154C135.624 34.6 135.044 33.7737 134.97 33.675C133.638 32.0223 132.392 31.196 131.233 31.196V30.826C134.119 30.826 135.858 30.678 136.45 30.382C137.264 29.9627 137.819 29.5187 138.115 29.05C138.732 28.0633 139.04 26.978 139.04 25.794C139.04 24.2893 138.596 23.13 137.708 22.316C136.82 21.502 135.624 21.058 134.119 20.984C133.453 20.9593 132.688 20.947 131.825 20.947Z" fill="white"/>
<path d="M153.623 40.237C153.537 39.8357 153.494 39.0617 153.494 37.915C153.494 36.7683 153.709 35.55 154.139 34.26H154.526C154.497 34.5753 154.483 34.8907 154.483 35.206C154.483 36.9547 155.013 38.4167 156.074 39.592C157.135 40.7387 158.539 41.312 160.288 41.312C162.094 41.312 163.57 40.7673 164.717 39.678C165.892 38.5887 166.48 37.227 166.48 35.593C166.48 33.9303 165.921 32.583 164.803 31.551L156.547 23.897C154.999 22.4637 154.225 20.7293 154.225 18.694C154.225 16.6587 154.899 14.9243 156.246 13.491C157.622 12.029 159.471 11.298 161.793 11.298C162.882 11.298 164.115 11.4413 165.491 11.728H167.168V17.017H166.781C166.781 15.6697 166.308 14.5947 165.362 13.792C164.445 12.9893 163.255 12.588 161.793 12.588C160.331 12.588 159.098 13.0753 158.095 14.05C157.12 15.0247 156.633 16.243 156.633 17.705C156.633 19.167 157.206 20.4283 158.353 21.489L166.824 29.315C168.257 30.6337 168.974 32.4397 168.974 34.733C168.974 37.0263 168.243 38.9183 166.781 40.409C165.319 41.871 163.37 42.602 160.933 42.602C159.672 42.602 158.324 42.4013 156.891 42C155.486 41.6273 154.397 41.0397 153.623 40.237ZM173.961 41.63C174.553 41.63 175.047 41.445 175.441 41.075C175.861 40.6803 176.083 40.2117 176.107 39.669V22.094C176.107 21.5513 175.898 21.095 175.478 20.725C175.059 20.355 174.553 20.17 173.961 20.17H173.443V19.8H184.247C185.259 19.8 186.147 19.726 186.911 19.578C187.676 19.43 188.169 19.3067 188.391 19.208V23.426L187.984 23.389V22.834C187.984 22.316 187.812 21.872 187.466 21.502C187.121 21.132 186.677 20.947 186.134 20.947H178.438V30.345H184.765C185.259 30.345 185.629 30.197 185.875 29.901C186.147 29.605 186.282 29.235 186.282 28.791V28.31H186.689V33.49H186.282V33.009C186.282 32.3183 186.023 31.8497 185.505 31.603C185.308 31.529 185.098 31.4797 184.876 31.455H178.438V40.853H184.247C185.382 40.853 186.332 40.6557 187.096 40.261C187.886 39.8663 188.478 39.3977 188.872 38.855C189.292 38.3123 189.711 37.597 190.13 36.709H190.5L188.465 42H173.443V41.63H173.961ZM216.026 41.63H216.322V42H208.737V41.63H209.033C209.502 41.63 209.86 41.4697 210.106 41.149C210.353 40.8283 210.476 40.5323 210.476 40.261C210.476 39.965 210.427 39.6813 210.328 39.41L208.293 34.489H198.932L196.897 39.299C196.774 39.6197 196.712 39.928 196.712 40.224C196.712 40.4953 196.836 40.8037 197.082 41.149C197.329 41.4697 197.699 41.63 198.192 41.63H198.488V42H191.421V41.63H191.717C192.235 41.63 192.753 41.4573 193.271 41.112C193.814 40.742 194.258 40.1993 194.603 39.484C200.005 27.94 202.817 21.8967 203.039 21.354C203.459 20.318 203.681 19.6273 203.705 19.282H204.038L213.177 39.484C213.893 40.9147 214.842 41.63 216.026 41.63ZM199.413 33.379H207.849L203.705 23.241L199.413 33.379ZM225.095 20.947H223.134V39.632C223.158 40.3967 223.504 40.9763 224.17 41.371C224.49 41.5437 224.848 41.63 225.243 41.63H225.724L225.761 42H218.176V41.63H218.694C219.261 41.63 219.742 41.445 220.137 41.075C220.556 40.6803 220.766 40.2117 220.766 39.669V22.094C220.766 21.5513 220.556 21.095 220.137 20.725C219.742 20.355 219.261 20.17 218.694 20.17H218.176V19.8H227.463C229.781 19.8 231.607 20.3303 232.939 21.391C234.295 22.4517 234.974 23.8453 234.974 25.572C234.974 27.2987 234.431 28.7417 233.346 29.901C232.26 31.0603 230.879 31.7263 229.202 31.899C229.991 32.2443 230.941 33.2063 232.051 34.785C232.026 34.785 232.445 35.3277 233.309 36.413C234.197 37.4983 234.9 38.3493 235.418 38.966C235.96 39.558 236.404 40.0143 236.75 40.335C237.662 41.1983 238.711 41.63 239.895 41.63V42H238.748C236.799 42 235.27 41.6177 234.16 40.853C233.321 40.2857 232.556 39.5827 231.866 38.744C231.718 38.5467 231.089 37.6833 229.979 36.154C228.893 34.6 228.314 33.7737 228.24 33.675C226.908 32.0223 225.662 31.196 224.503 31.196V30.826C227.389 30.826 229.128 30.678 229.72 30.382C230.534 29.9627 231.089 29.5187 231.385 29.05C232.001 28.0633 232.31 26.978 232.31 25.794C232.31 24.2893 231.866 23.13 230.978 22.316C230.09 21.502 228.893 21.058 227.389 20.984C226.723 20.9593 225.958 20.947 225.095 20.947ZM252.097 42.518C248.323 42.4933 245.338 41.445 243.143 39.373C240.972 37.301 239.887 34.4767 239.887 30.9C239.887 27.2987 240.972 24.462 243.143 22.39C245.338 20.318 248.323 19.282 252.097 19.282C253.626 19.282 255.168 19.4793 256.722 19.874C258.276 20.2687 259.62 20.8113 260.755 21.502L261.569 26.756H261.236C260.175 22.5133 257.117 20.392 252.06 20.392C249.125 20.392 246.806 21.3293 245.104 23.204C243.402 25.0787 242.551 27.644 242.551 30.9C242.551 33.0213 242.933 34.8713 243.698 36.45C244.463 38.004 245.573 39.2127 247.028 40.076C248.483 40.9393 250.173 41.371 252.097 41.371C254.021 41.371 255.698 41.0873 257.129 40.52C258.584 39.928 259.781 38.966 260.718 37.634C261.68 36.302 262.223 34.6493 262.346 32.676H262.679L262.272 37.745C261.31 39.225 259.916 40.3967 258.091 41.26C256.266 42.0987 254.268 42.518 252.097 42.518ZM282.625 41.63C283.192 41.63 283.686 41.445 284.105 41.075C284.524 40.6803 284.746 40.2117 284.771 39.669V31.603H271.118V39.669C271.143 40.2117 271.365 40.6803 271.784 41.075C272.203 41.445 272.697 41.63 273.264 41.63H273.708V42H266.16V41.63H266.604C267.196 41.63 267.689 41.4327 268.084 41.038C268.503 40.6433 268.725 40.1747 268.75 39.632V22.168C268.725 21.6253 268.503 21.1567 268.084 20.762C267.665 20.3673 267.171 20.17 266.604 20.17H266.16V19.8H273.708V20.17H273.264C272.697 20.17 272.203 20.3673 271.784 20.762C271.365 21.132 271.143 21.5883 271.118 22.131V30.493H284.771V22.168C284.771 21.6253 284.611 21.206 284.29 20.91C283.772 20.4167 283.217 20.17 282.625 20.17H282.181V19.8H289.729V20.17H289.285C288.718 20.17 288.224 20.355 287.805 20.725C287.386 21.095 287.164 21.5513 287.139 22.094V39.669C287.164 40.2117 287.324 40.6187 287.62 40.89C288.163 41.3833 288.718 41.63 289.285 41.63H289.729V42H282.181V41.63H282.625Z" fill="white"/>
<line x1="41.005" y1="13.5" x2="144" y2="14.5198" stroke="#B9971D"/>
<line y1="48.5" x2="290" y2="48.5" stroke="#B9971D"/>
<line y1="72.5" x2="290" y2="72.5" stroke="#B9971D"/>
<line x1="172" y1="14.5" x2="290" y2="14.5" stroke="#B9971D"/>
<path d="M276.322 78.928C277.51 77.74 278.95 77.146 280.642 77.146C282.334 77.146 283.774 77.74 284.962 78.928C286.15 80.116 286.744 81.556 286.744 83.248C286.744 84.94 286.15 86.38 284.962 87.568C283.774 88.756 282.334 89.35 280.642 89.35C278.95 89.35 277.51 88.756 276.322 87.568C275.134 86.38 274.54 84.94 274.54 83.248C274.54 81.556 275.134 80.116 276.322 78.928ZM277.078 86.812C278.05 87.784 279.22 88.27 280.588 88.27C281.992 88.27 283.18 87.784 284.152 86.812C285.16 85.804 285.664 84.616 285.664 83.248C285.664 81.88 285.16 80.71 284.152 79.738C283.18 78.73 281.992 78.226 280.588 78.226C279.22 78.226 278.05 78.73 277.078 79.738C276.106 80.71 275.62 81.88 275.62 83.248C275.62 84.616 276.106 85.804 277.078 86.812ZM280.804 79.792C281.488 79.792 282.028 79.954 282.424 80.278C282.856 80.602 283.072 81.016 283.072 81.52C283.072 81.988 282.928 82.402 282.64 82.762C282.352 83.086 281.974 83.284 281.506 83.356C281.794 83.392 282.1 83.68 282.424 84.22C282.784 84.76 283.072 85.192 283.288 85.516C283.54 85.84 283.828 86.056 284.152 86.164V86.272H283.504C282.784 86.272 282.28 86.128 281.992 85.84C281.704 85.552 281.506 85.336 281.398 85.192C281.29 85.048 281.146 84.814 280.966 84.49C280.498 83.59 280.192 83.14 280.048 83.14V83.032H280.588C281.308 82.888 281.65 82.402 281.614 81.574C281.614 80.746 281.182 80.332 280.318 80.332L279.67 80.278V85.57C279.67 85.966 279.85 86.164 280.21 86.164H280.372V86.272H277.672V86.164H277.78C278.14 86.164 278.338 85.984 278.374 85.624V80.494C278.338 80.098 278.14 79.9 277.78 79.9H277.672V79.792H279.67H280.804Z" fill="white"/>
<path d="M1.996 79.6H5.812C6.724 79.6 7.528 79.776 8.224 80.128C8.928 80.472 9.472 80.96 9.856 81.592C10.248 82.224 10.444 82.96 10.444 83.8C10.444 84.64 10.248 85.376 9.856 86.008C9.472 86.64 8.928 87.132 8.224 87.484C7.528 87.828 6.724 88 5.812 88H1.996V79.6ZM5.716 86.404C6.556 86.404 7.224 86.172 7.72 85.708C8.224 85.236 8.476 84.6 8.476 83.8C8.476 83 8.224 82.368 7.72 81.904C7.224 81.432 6.556 81.196 5.716 81.196H3.94V86.404H5.716ZM23.6341 86.44V88H17.1301V79.6H23.4781V81.16H19.0621V82.984H22.9621V84.496H19.0621V86.44H23.6341ZM30.4008 79.6H32.3448V86.416H36.5568V88H30.4008V79.6ZM42.863 79.6H44.807V88H42.863V79.6ZM60.0497 79.6L56.4137 88H54.4937L50.8697 79.6H52.9697L55.5257 85.6L58.1177 79.6H60.0497ZM72.475 86.44V88H65.971V79.6H72.319V81.16H67.903V82.984H71.803V84.496H67.903V86.44H72.475ZM84.5938 88L82.9738 85.66H82.8778H81.1858V88H79.2418V79.6H82.8778C83.6218 79.6 84.2658 79.724 84.8098 79.972C85.3618 80.22 85.7858 80.572 86.0818 81.028C86.3778 81.484 86.5258 82.024 86.5258 82.648C86.5258 83.272 86.3738 83.812 86.0698 84.268C85.7738 84.716 85.3498 85.06 84.7978 85.3L86.6818 88H84.5938ZM84.5578 82.648C84.5578 82.176 84.4058 81.816 84.1018 81.568C83.7978 81.312 83.3538 81.184 82.7698 81.184H81.1858V84.112H82.7698C83.3538 84.112 83.7978 83.984 84.1018 83.728C84.4058 83.472 84.5578 83.112 84.5578 82.648ZM93.286 79.6H95.23V88H93.286V79.6ZM110.147 79.6V88H108.551L104.363 82.9V88H102.443V79.6H104.051L108.227 84.7V79.6H110.147ZM123.031 83.668H124.807V87.076C124.351 87.42 123.823 87.684 123.223 87.868C122.623 88.052 122.019 88.144 121.411 88.144C120.539 88.144 119.755 87.96 119.059 87.592C118.363 87.216 117.815 86.7 117.415 86.044C117.023 85.38 116.827 84.632 116.827 83.8C116.827 82.968 117.023 82.224 117.415 81.568C117.815 80.904 118.367 80.388 119.071 80.02C119.775 79.644 120.567 79.456 121.447 79.456C122.183 79.456 122.851 79.58 123.451 79.828C124.051 80.076 124.555 80.436 124.963 80.908L123.715 82.06C123.115 81.428 122.391 81.112 121.543 81.112C121.007 81.112 120.531 81.224 120.115 81.448C119.699 81.672 119.375 81.988 119.143 82.396C118.911 82.804 118.795 83.272 118.795 83.8C118.795 84.32 118.911 84.784 119.143 85.192C119.375 85.6 119.695 85.92 120.103 86.152C120.519 86.376 120.991 86.488 121.519 86.488C122.079 86.488 122.583 86.368 123.031 86.128V83.668ZM140.451 79.6H142.395V86.416H146.607V88H140.451V79.6ZM159.417 86.44V88H152.913V79.6H159.261V81.16H154.845V82.984H158.745V84.496H154.845V86.44H159.417ZM171.716 86.2H167.816L167.072 88H165.08L168.824 79.6H170.744L174.5 88H172.46L171.716 86.2ZM171.104 84.724L169.772 81.508L168.44 84.724H171.104ZM180.592 79.6H184.408C185.32 79.6 186.124 79.776 186.82 80.128C187.524 80.472 188.068 80.96 188.452 81.592C188.844 82.224 189.04 82.96 189.04 83.8C189.04 84.64 188.844 85.376 188.452 86.008C188.068 86.64 187.524 87.132 186.82 87.484C186.124 87.828 185.32 88 184.408 88H180.592V79.6ZM184.312 86.404C185.152 86.404 185.82 86.172 186.316 85.708C186.82 85.236 187.072 84.6 187.072 83.8C187.072 83 186.82 82.368 186.316 81.904C185.82 81.432 185.152 81.196 184.312 81.196H182.536V86.404H184.312ZM202.23 86.44V88H195.726V79.6H202.074V81.16H197.658V82.984H201.558V84.496H197.658V86.44H202.23ZM214.348 88L212.728 85.66H212.632H210.94V88H208.996V79.6H212.632C213.376 79.6 214.02 79.724 214.564 79.972C215.116 80.22 215.54 80.572 215.836 81.028C216.132 81.484 216.28 82.024 216.28 82.648C216.28 83.272 216.128 83.812 215.824 84.268C215.528 84.716 215.104 85.06 214.552 85.3L216.436 88H214.348ZM214.312 82.648C214.312 82.176 214.16 81.816 213.856 81.568C213.552 81.312 213.108 81.184 212.524 81.184H210.94V84.112H212.524C213.108 84.112 213.552 83.984 213.856 83.728C214.16 83.472 214.312 83.112 214.312 82.648ZM225.801 88.144C225.137 88.144 224.493 88.056 223.869 87.88C223.253 87.696 222.757 87.46 222.381 87.172L223.041 85.708C223.401 85.972 223.829 86.184 224.325 86.344C224.821 86.504 225.317 86.584 225.813 86.584C226.365 86.584 226.773 86.504 227.037 86.344C227.301 86.176 227.433 85.956 227.433 85.684C227.433 85.484 227.353 85.32 227.193 85.192C227.041 85.056 226.841 84.948 226.593 84.868C226.353 84.788 226.025 84.7 225.609 84.604C224.969 84.452 224.445 84.3 224.037 84.148C223.629 83.996 223.277 83.752 222.981 83.416C222.693 83.08 222.549 82.632 222.549 82.072C222.549 81.584 222.681 81.144 222.945 80.752C223.209 80.352 223.605 80.036 224.133 79.804C224.669 79.572 225.321 79.456 226.089 79.456C226.625 79.456 227.149 79.52 227.661 79.648C228.173 79.776 228.621 79.96 229.005 80.2L228.405 81.676C227.629 81.236 226.853 81.016 226.077 81.016C225.533 81.016 225.129 81.104 224.865 81.28C224.609 81.456 224.481 81.688 224.481 81.976C224.481 82.264 224.629 82.48 224.925 82.624C225.229 82.76 225.689 82.896 226.305 83.032C226.945 83.184 227.469 83.336 227.877 83.488C228.285 83.64 228.633 83.88 228.921 84.208C229.217 84.536 229.365 84.98 229.365 85.54C229.365 86.02 229.229 86.46 228.957 86.86C228.693 87.252 228.293 87.564 227.757 87.796C227.221 88.028 226.569 88.144 225.801 88.144ZM243.617 79.6V88H241.673V84.556H237.857V88H235.913V79.6H237.857V82.912H241.673V79.6H243.617ZM250.824 79.6H252.768V88H250.824V79.6ZM263.618 79.6C264.362 79.6 265.006 79.724 265.55 79.972C266.102 80.22 266.526 80.572 266.822 81.028C267.118 81.484 267.266 82.024 267.266 82.648C267.266 83.264 267.118 83.804 266.822 84.268C266.526 84.724 266.102 85.076 265.55 85.324C265.006 85.564 264.362 85.684 263.618 85.684H261.926V88H259.982V79.6H263.618ZM263.51 84.1C264.094 84.1 264.538 83.976 264.842 83.728C265.146 83.472 265.298 83.112 265.298 82.648C265.298 82.176 265.146 81.816 264.842 81.568C264.538 81.312 264.094 81.184 263.51 81.184H261.926V84.1H263.51Z" fill="white"/>
<path d="M8.91299 66.192C7.77166 66.192 6.73699 65.9467 5.80899 65.456C4.89166 64.9547 4.16632 64.2667 3.63299 63.392C3.11032 62.5067 2.84899 61.5093 2.84899 60.4C2.84899 59.2907 3.11032 58.2987 3.63299 57.424C4.16632 56.5387 4.89166 55.8507 5.80899 55.36C6.73699 54.8587 7.77699 54.608 8.92899 54.608C9.89966 54.608 10.7743 54.7787 11.553 55.12C12.3423 55.4613 13.0037 55.952 13.537 56.592L11.873 58.128C11.1157 57.2533 10.177 56.816 9.05699 56.816C8.36366 56.816 7.74499 56.9707 7.20099 57.28C6.65699 57.5787 6.23032 58 5.92099 58.544C5.62232 59.088 5.47299 59.7067 5.47299 60.4C5.47299 61.0933 5.62232 61.712 5.92099 62.256C6.23032 62.8 6.65699 63.2267 7.20099 63.536C7.74499 63.8347 8.36366 63.984 9.05699 63.984C10.177 63.984 11.1157 63.5413 11.873 62.656L13.537 64.192C13.0037 64.8427 12.3423 65.3387 11.553 65.68C10.7637 66.0213 9.88366 66.192 8.91299 66.192ZM39.677 66.192C38.5143 66.192 37.4637 65.9413 36.525 65.44C35.597 64.9387 34.8663 64.2507 34.333 63.376C33.8103 62.4907 33.549 61.4987 33.549 60.4C33.549 59.3013 33.8103 58.3147 34.333 57.44C34.8663 56.5547 35.597 55.8613 36.525 55.36C37.4637 54.8587 38.5143 54.608 39.677 54.608C40.8397 54.608 41.885 54.8587 42.813 55.36C43.741 55.8613 44.4717 56.5547 45.005 57.44C45.5383 58.3147 45.805 59.3013 45.805 60.4C45.805 61.4987 45.5383 62.4907 45.005 63.376C44.4717 64.2507 43.741 64.9387 42.813 65.44C41.885 65.9413 40.8397 66.192 39.677 66.192ZM39.677 63.984C40.3383 63.984 40.9357 63.8347 41.469 63.536C42.0023 63.2267 42.4183 62.8 42.717 62.256C43.0263 61.712 43.181 61.0933 43.181 60.4C43.181 59.7067 43.0263 59.088 42.717 58.544C42.4183 58 42.0023 57.5787 41.469 57.28C40.9357 56.9707 40.3383 56.816 39.677 56.816C39.0157 56.816 38.4183 56.9707 37.885 57.28C37.3517 57.5787 36.9303 58 36.621 58.544C36.3223 59.088 36.173 59.7067 36.173 60.4C36.173 61.0933 36.3223 61.712 36.621 62.256C36.9303 62.8 37.3517 63.2267 37.885 63.536C38.4183 63.8347 39.0157 63.984 39.677 63.984ZM77.225 54.8V66H75.097L69.513 59.2V66H66.953V54.8H69.097L74.665 61.6V54.8H77.225ZM102.755 66.192C101.87 66.192 101.011 66.0747 100.179 65.84C99.3575 65.5947 98.6962 65.28 98.1949 64.896L99.0749 62.944C99.5549 63.296 100.126 63.5787 100.787 63.792C101.448 64.0053 102.11 64.112 102.771 64.112C103.507 64.112 104.051 64.0053 104.403 63.792C104.755 63.568 104.931 63.2747 104.931 62.912C104.931 62.6453 104.824 62.4267 104.611 62.256C104.408 62.0747 104.142 61.9307 103.811 61.824C103.491 61.7173 103.054 61.6 102.499 61.472C101.646 61.2693 100.947 61.0667 100.403 60.864C99.8589 60.6613 99.3895 60.336 98.9949 59.888C98.6109 59.44 98.4189 58.8427 98.4189 58.096C98.4189 57.4453 98.5949 56.8587 98.9469 56.336C99.2989 55.8027 99.8269 55.3813 100.531 55.072C101.246 54.7627 102.115 54.608 103.139 54.608C103.854 54.608 104.552 54.6933 105.235 54.864C105.918 55.0347 106.515 55.28 107.027 55.6L106.227 57.568C105.192 56.9813 104.158 56.688 103.123 56.688C102.398 56.688 101.859 56.8053 101.507 57.04C101.166 57.2747 100.995 57.584 100.995 57.968C100.995 58.352 101.192 58.64 101.587 58.832C101.992 59.0133 102.606 59.1947 103.427 59.376C104.28 59.5787 104.979 59.7813 105.523 59.984C106.067 60.1867 106.531 60.5067 106.915 60.944C107.31 61.3813 107.507 61.9733 107.507 62.72C107.507 63.36 107.326 63.9467 106.963 64.48C106.611 65.0027 106.078 65.4187 105.363 65.728C104.648 66.0373 103.779 66.192 102.755 66.192ZM133.454 66.192C131.854 66.192 130.606 65.7493 129.71 64.864C128.825 63.9787 128.382 62.7147 128.382 61.072V54.8H130.974V60.976C130.974 62.9813 131.806 63.984 133.47 63.984C134.281 63.984 134.899 63.744 135.326 63.264C135.753 62.7733 135.966 62.0107 135.966 60.976V54.8H138.526V61.072C138.526 62.7147 138.078 63.9787 137.182 64.864C136.297 65.7493 135.054 66.192 133.454 66.192ZM160.287 54.8H162.879V63.888H168.495V66H160.287V54.8ZM190.417 56.912H186.833V54.8H196.593V56.912H193.009V66H190.417V56.912ZM217.187 54.8H219.779V66H217.187V54.8ZM251.909 54.8V66H249.781L244.197 59.2V66H241.637V54.8H243.781L249.349 61.6V54.8H251.909ZM281.327 60.224H283.695V64.768C283.087 65.2267 282.383 65.5787 281.583 65.824C280.783 66.0693 279.978 66.192 279.167 66.192C278.005 66.192 276.959 65.9467 276.031 65.456C275.103 64.9547 274.373 64.2667 273.839 63.392C273.317 62.5067 273.055 61.5093 273.055 60.4C273.055 59.2907 273.317 58.2987 273.839 57.424C274.373 56.5387 275.109 55.8507 276.047 55.36C276.986 54.8587 278.042 54.608 279.215 54.608C280.197 54.608 281.087 54.7733 281.887 55.104C282.687 55.4347 283.359 55.9147 283.903 56.544L282.239 58.08C281.439 57.2373 280.474 56.816 279.343 56.816C278.629 56.816 277.994 56.9653 277.439 57.264C276.885 57.5627 276.453 57.984 276.143 58.528C275.834 59.072 275.679 59.696 275.679 60.4C275.679 61.0933 275.834 61.712 276.143 62.256C276.453 62.8 276.879 63.2267 277.423 63.536C277.978 63.8347 278.607 63.984 279.311 63.984C280.058 63.984 280.73 63.824 281.327 63.504V60.224Z" fill="white"/>
</g>
<defs>
<clipPath id="clip0">
<rect width="292" height="92" fill="white"/>
</clipPath>
</defs>
</svg>
