<svg width="860" height="518" viewBox="0 0 860 518" fill="none" xmlns="http://www.w3.org/2000/svg">
<path fill-rule="evenodd" clip-rule="evenodd" d="M0 518L99.6892 345.333H498.446L598.135 518L0 518Z" fill="#F9C133" fill-opacity="0.89"/>
<path fill-rule="evenodd" clip-rule="evenodd" d="M99.9106 345.334L199.6 172.667H398.978L498.667 345.334H99.9106Z" fill="#E8C927" fill-opacity="0.69"/>
<path fill-rule="evenodd" clip-rule="evenodd" d="M399.671 172.667H200.293L299.982 0L399.671 172.667Z" fill="#F2DF2D" fill-opacity="0.53"/>
<path d="M436.63 97.28C434.18 97.28 431.963 96.7433 429.98 95.67C428.02 94.5733 426.48 93.08 425.36 91.19C424.24 89.2767 423.68 87.13 423.68 84.75C423.68 82.37 424.24 80.235 425.36 78.345C426.48 76.4317 428.032 74.9383 430.015 73.865C431.998 72.7683 434.215 72.22 436.665 72.22C438.578 72.22 440.328 72.5467 441.915 73.2C443.502 73.83 444.855 74.775 445.975 76.035L443.7 78.24C441.857 76.3033 439.558 75.335 436.805 75.335C434.985 75.335 433.34 75.7433 431.87 76.56C430.4 77.3767 429.245 78.5083 428.405 79.955C427.588 81.3783 427.18 82.9767 427.18 84.75C427.18 86.5233 427.588 88.1333 428.405 89.58C429.245 91.0033 430.4 92.1233 431.87 92.94C433.34 93.7567 434.985 94.165 436.805 94.165C439.535 94.165 441.833 93.185 443.7 91.225L445.975 93.43C444.855 94.69 443.49 95.6467 441.88 96.3C440.293 96.9533 438.543 97.28 436.63 97.28ZM449.185 85.94H458.6V88.845H449.185V85.94ZM470.823 97.28C468.979 97.28 467.194 97 465.468 96.44C463.764 95.8567 462.423 95.11 461.443 94.2L462.738 91.47C463.671 92.31 464.861 92.9983 466.308 93.535C467.778 94.0483 469.283 94.305 470.823 94.305C472.853 94.305 474.369 93.9667 475.373 93.29C476.376 92.59 476.878 91.6683 476.878 90.525C476.878 89.685 476.598 89.0083 476.038 88.495C475.501 87.9583 474.824 87.55 474.008 87.27C473.214 86.99 472.083 86.675 470.613 86.325C468.769 85.8817 467.276 85.4383 466.133 84.995C465.013 84.5517 464.044 83.875 463.228 82.965C462.434 82.0317 462.038 80.7833 462.038 79.22C462.038 77.9133 462.376 76.735 463.053 75.685C463.753 74.635 464.803 73.795 466.203 73.165C467.603 72.535 469.341 72.22 471.418 72.22C472.864 72.22 474.288 72.4067 475.688 72.78C477.088 73.1533 478.289 73.69 479.293 74.39L478.138 77.19C477.111 76.5367 476.014 76.0467 474.848 75.72C473.681 75.37 472.538 75.195 471.418 75.195C469.434 75.195 467.941 75.5567 466.938 76.28C465.958 77.0033 465.468 77.9367 465.468 79.08C465.468 79.92 465.748 80.6083 466.308 81.145C466.868 81.6583 467.556 82.0667 468.373 82.37C469.213 82.65 470.344 82.9533 471.768 83.28C473.611 83.7233 475.093 84.1667 476.213 84.61C477.333 85.0533 478.289 85.73 479.083 86.64C479.899 87.55 480.308 88.775 480.308 90.315C480.308 91.5983 479.958 92.7767 479.258 93.85C478.558 94.9 477.496 95.74 476.073 96.37C474.649 96.9767 472.899 97.28 470.823 97.28ZM502.221 78.45V97H499.036V94.2C498.359 95.1567 497.461 95.9033 496.341 96.44C495.244 96.9533 494.043 97.21 492.736 97.21C490.263 97.21 488.314 96.5333 486.891 95.18C485.468 93.8033 484.756 91.785 484.756 89.125V78.45H488.116V88.74C488.116 90.5367 488.548 91.9017 489.411 92.835C490.274 93.745 491.511 94.2 493.121 94.2C494.894 94.2 496.294 93.6633 497.321 92.59C498.348 91.5167 498.861 90 498.861 88.04V78.45H502.221ZM508.618 78.45H511.978V97H508.618V78.45ZM510.298 74.88C509.644 74.88 509.096 74.67 508.653 74.25C508.233 73.83 508.023 73.3167 508.023 72.71C508.023 72.1033 508.233 71.59 508.653 71.17C509.096 70.7267 509.644 70.505 510.298 70.505C510.951 70.505 511.488 70.715 511.908 71.135C512.351 71.5317 512.573 72.0333 512.573 72.64C512.573 73.27 512.351 73.8067 511.908 74.25C511.488 74.67 510.951 74.88 510.298 74.88ZM528.823 95.915C528.333 96.335 527.726 96.6617 527.003 96.895C526.28 97.105 525.533 97.21 524.763 97.21C522.896 97.21 521.45 96.7083 520.423 95.705C519.396 94.7017 518.883 93.2667 518.883 91.4V81.215H515.733V78.45H518.883V74.39H522.243V78.45H527.563V81.215H522.243V91.26C522.243 92.2633 522.488 93.0333 522.978 93.57C523.491 94.1067 524.215 94.375 525.148 94.375C526.175 94.375 527.05 94.0833 527.773 93.5L528.823 95.915ZM549.035 87.83C549.035 88.0867 549.012 88.425 548.965 88.845H533.915C534.125 90.4783 534.837 91.7967 536.05 92.8C537.287 93.78 538.815 94.27 540.635 94.27C542.852 94.27 544.637 93.5233 545.99 92.03L547.845 94.2C547.005 95.18 545.955 95.9267 544.695 96.44C543.458 96.9533 542.07 97.21 540.53 97.21C538.57 97.21 536.832 96.8133 535.315 96.02C533.798 95.2033 532.62 94.0717 531.78 92.625C530.963 91.1783 530.555 89.545 530.555 87.725C530.555 85.9283 530.952 84.3067 531.745 82.86C532.562 81.4133 533.67 80.2933 535.07 79.5C536.493 78.6833 538.092 78.275 539.865 78.275C541.638 78.275 543.213 78.6833 544.59 79.5C545.99 80.2933 547.075 81.4133 547.845 82.86C548.638 84.3067 549.035 85.9633 549.035 87.83ZM539.865 81.11C538.255 81.11 536.902 81.6 535.805 82.58C534.732 83.56 534.102 84.8433 533.915 86.43H545.815C545.628 84.8667 544.987 83.595 543.89 82.615C542.817 81.6117 541.475 81.11 539.865 81.11Z" fill="black"/>
<path d="M530.815 250.28C528.972 250.28 527.187 250 525.46 249.44C523.757 248.857 522.415 248.11 521.435 247.2L522.73 244.47C523.663 245.31 524.853 245.998 526.3 246.535C527.77 247.048 529.275 247.305 530.815 247.305C532.845 247.305 534.362 246.967 535.365 246.29C536.368 245.59 536.87 244.668 536.87 243.525C536.87 242.685 536.59 242.008 536.03 241.495C535.493 240.958 534.817 240.55 534 240.27C533.207 239.99 532.075 239.675 530.605 239.325C528.762 238.882 527.268 238.438 526.125 237.995C525.005 237.552 524.037 236.875 523.22 235.965C522.427 235.032 522.03 233.783 522.03 232.22C522.03 230.913 522.368 229.735 523.045 228.685C523.745 227.635 524.795 226.795 526.195 226.165C527.595 225.535 529.333 225.22 531.41 225.22C532.857 225.22 534.28 225.407 535.68 225.78C537.08 226.153 538.282 226.69 539.285 227.39L538.13 230.19C537.103 229.537 536.007 229.047 534.84 228.72C533.673 228.37 532.53 228.195 531.41 228.195C529.427 228.195 527.933 228.557 526.93 229.28C525.95 230.003 525.46 230.937 525.46 232.08C525.46 232.92 525.74 233.608 526.3 234.145C526.86 234.658 527.548 235.067 528.365 235.37C529.205 235.65 530.337 235.953 531.76 236.28C533.603 236.723 535.085 237.167 536.205 237.61C537.325 238.053 538.282 238.73 539.075 239.64C539.892 240.55 540.3 241.775 540.3 243.315C540.3 244.598 539.95 245.777 539.25 246.85C538.55 247.9 537.488 248.74 536.065 249.37C534.642 249.977 532.892 250.28 530.815 250.28ZM561.688 240.83C561.688 241.087 561.665 241.425 561.618 241.845H546.568C546.778 243.478 547.49 244.797 548.703 245.8C549.94 246.78 551.468 247.27 553.288 247.27C555.505 247.27 557.29 246.523 558.643 245.03L560.498 247.2C559.658 248.18 558.608 248.927 557.348 249.44C556.112 249.953 554.723 250.21 553.183 250.21C551.223 250.21 549.485 249.813 547.968 249.02C546.452 248.203 545.273 247.072 544.433 245.625C543.617 244.178 543.208 242.545 543.208 240.725C543.208 238.928 543.605 237.307 544.398 235.86C545.215 234.413 546.323 233.293 547.723 232.5C549.147 231.683 550.745 231.275 552.518 231.275C554.292 231.275 555.867 231.683 557.243 232.5C558.643 233.293 559.728 234.413 560.498 235.86C561.292 237.307 561.688 238.963 561.688 240.83ZM552.518 234.11C550.908 234.11 549.555 234.6 548.458 235.58C547.385 236.56 546.755 237.843 546.568 239.43H558.468C558.282 237.867 557.64 236.595 556.543 235.615C555.47 234.612 554.128 234.11 552.518 234.11ZM576.259 231.275C578.616 231.275 580.482 231.963 581.859 233.34C583.259 234.693 583.959 236.688 583.959 239.325V250H580.599V239.71C580.599 237.913 580.167 236.56 579.304 235.65C578.441 234.74 577.204 234.285 575.594 234.285C573.774 234.285 572.339 234.822 571.289 235.895C570.239 236.945 569.714 238.462 569.714 240.445V250H566.354V231.45H569.574V234.25C570.251 233.293 571.161 232.558 572.304 232.045C573.471 231.532 574.789 231.275 576.259 231.275ZM590.177 231.45H593.537V250H590.177V231.45ZM591.857 227.88C591.204 227.88 590.656 227.67 590.212 227.25C589.792 226.83 589.582 226.317 589.582 225.71C589.582 225.103 589.792 224.59 590.212 224.17C590.656 223.727 591.204 223.505 591.857 223.505C592.511 223.505 593.047 223.715 593.467 224.135C593.911 224.532 594.132 225.033 594.132 225.64C594.132 226.27 593.911 226.807 593.467 227.25C593.047 227.67 592.511 227.88 591.857 227.88ZM607.898 250.21C606.054 250.21 604.398 249.802 602.928 248.985C601.458 248.168 600.303 247.048 599.463 245.625C598.646 244.178 598.238 242.545 598.238 240.725C598.238 238.905 598.646 237.283 599.463 235.86C600.303 234.413 601.458 233.293 602.928 232.5C604.398 231.683 606.054 231.275 607.898 231.275C609.741 231.275 611.386 231.683 612.833 232.5C614.303 233.293 615.446 234.413 616.263 235.86C617.103 237.283 617.523 238.905 617.523 240.725C617.523 242.545 617.103 244.178 616.263 245.625C615.446 247.048 614.303 248.168 612.833 248.985C611.386 249.802 609.741 250.21 607.898 250.21ZM607.898 247.27C609.088 247.27 610.149 247.002 611.083 246.465C612.039 245.905 612.786 245.135 613.323 244.155C613.859 243.152 614.128 242.008 614.128 240.725C614.128 239.442 613.859 238.31 613.323 237.33C612.786 236.327 612.039 235.557 611.083 235.02C610.149 234.483 609.088 234.215 607.898 234.215C606.708 234.215 605.634 234.483 604.678 235.02C603.744 235.557 602.998 236.327 602.438 237.33C601.901 238.31 601.633 239.442 601.633 240.725C601.633 242.008 601.901 243.152 602.438 244.155C602.998 245.135 603.744 245.905 604.678 246.465C605.634 247.002 606.708 247.27 607.898 247.27ZM625.389 234.565C625.973 233.492 626.836 232.675 627.979 232.115C629.123 231.555 630.511 231.275 632.144 231.275V234.53C631.958 234.507 631.701 234.495 631.374 234.495C629.554 234.495 628.119 235.043 627.069 236.14C626.043 237.213 625.529 238.753 625.529 240.76V250H622.169V231.45H625.389V234.565ZM546.39 293L546.355 275.15L537.5 290.025H535.89L527.035 275.255V293H523.675V268.5H526.545L536.765 285.72L546.845 268.5H549.715L549.75 293H546.39ZM563.368 274.275C565.934 274.275 567.894 274.905 569.248 276.165C570.624 277.425 571.313 279.303 571.313 281.8V293H568.128V290.55C567.568 291.413 566.763 292.078 565.713 292.545C564.686 292.988 563.461 293.21 562.038 293.21C559.961 293.21 558.293 292.708 557.033 291.705C555.796 290.702 555.178 289.383 555.178 287.75C555.178 286.117 555.773 284.81 556.963 283.83C558.153 282.827 560.043 282.325 562.633 282.325H567.953V281.66C567.953 280.213 567.533 279.105 566.693 278.335C565.853 277.565 564.616 277.18 562.983 277.18C561.886 277.18 560.813 277.367 559.763 277.74C558.713 278.09 557.826 278.568 557.103 279.175L555.703 276.655C556.659 275.885 557.803 275.302 559.133 274.905C560.463 274.485 561.874 274.275 563.368 274.275ZM562.598 290.62C563.881 290.62 564.989 290.34 565.923 289.78C566.856 289.197 567.533 288.38 567.953 287.33V284.74H562.773C559.926 284.74 558.503 285.697 558.503 287.61C558.503 288.543 558.864 289.278 559.588 289.815C560.311 290.352 561.314 290.62 562.598 290.62ZM587.436 274.275C589.792 274.275 591.659 274.963 593.036 276.34C594.436 277.693 595.136 279.688 595.136 282.325V293H591.776V282.71C591.776 280.913 591.344 279.56 590.481 278.65C589.617 277.74 588.381 277.285 586.771 277.285C584.951 277.285 583.516 277.822 582.466 278.895C581.416 279.945 580.891 281.462 580.891 283.445V293H577.531V274.45H580.751V277.25C581.427 276.293 582.337 275.558 583.481 275.045C584.647 274.532 585.966 274.275 587.436 274.275ZM608.109 274.275C610.676 274.275 612.636 274.905 613.989 276.165C615.366 277.425 616.054 279.303 616.054 281.8V293H612.869V290.55C612.309 291.413 611.504 292.078 610.454 292.545C609.427 292.988 608.202 293.21 606.779 293.21C604.702 293.21 603.034 292.708 601.774 291.705C600.537 290.702 599.919 289.383 599.919 287.75C599.919 286.117 600.514 284.81 601.704 283.83C602.894 282.827 604.784 282.325 607.374 282.325H612.694V281.66C612.694 280.213 612.274 279.105 611.434 278.335C610.594 277.565 609.357 277.18 607.724 277.18C606.627 277.18 605.554 277.367 604.504 277.74C603.454 278.09 602.567 278.568 601.844 279.175L600.444 276.655C601.401 275.885 602.544 275.302 603.874 274.905C605.204 274.485 606.616 274.275 608.109 274.275ZM607.339 290.62C608.622 290.62 609.731 290.34 610.664 289.78C611.597 289.197 612.274 288.38 612.694 287.33V284.74H607.514C604.667 284.74 603.244 285.697 603.244 287.61C603.244 288.543 603.606 289.278 604.329 289.815C605.052 290.352 606.056 290.62 607.339 290.62ZM640.119 274.45V290.48C640.119 293.723 639.314 296.115 637.704 297.655C636.094 299.218 633.691 300 630.494 300C628.744 300 627.076 299.755 625.489 299.265C623.903 298.798 622.619 298.122 621.639 297.235L623.249 294.645C624.113 295.392 625.174 295.975 626.434 296.395C627.718 296.838 629.036 297.06 630.389 297.06C632.559 297.06 634.158 296.547 635.184 295.52C636.234 294.493 636.759 292.93 636.759 290.83V289.36C635.966 290.317 634.986 291.04 633.819 291.53C632.676 291.997 631.428 292.23 630.074 292.23C628.301 292.23 626.691 291.857 625.244 291.11C623.821 290.34 622.701 289.278 621.884 287.925C621.068 286.548 620.659 284.985 620.659 283.235C620.659 281.485 621.068 279.933 621.884 278.58C622.701 277.203 623.821 276.142 625.244 275.395C626.691 274.648 628.301 274.275 630.074 274.275C631.474 274.275 632.769 274.532 633.959 275.045C635.173 275.558 636.164 276.317 636.934 277.32V274.45H640.119ZM630.459 289.29C631.673 289.29 632.758 289.033 633.714 288.52C634.694 288.007 635.453 287.295 635.989 286.385C636.549 285.452 636.829 284.402 636.829 283.235C636.829 281.438 636.234 279.992 635.044 278.895C633.854 277.775 632.326 277.215 630.459 277.215C628.569 277.215 627.029 277.775 625.839 278.895C624.649 279.992 624.054 281.438 624.054 283.235C624.054 284.402 624.323 285.452 624.859 286.385C625.419 287.295 626.178 288.007 627.134 288.52C628.114 289.033 629.223 289.29 630.459 289.29ZM663.304 283.83C663.304 284.087 663.281 284.425 663.234 284.845H648.184C648.394 286.478 649.106 287.797 650.319 288.8C651.556 289.78 653.084 290.27 654.904 290.27C657.121 290.27 658.906 289.523 660.259 288.03L662.114 290.2C661.274 291.18 660.224 291.927 658.964 292.44C657.728 292.953 656.339 293.21 654.799 293.21C652.839 293.21 651.101 292.813 649.584 292.02C648.068 291.203 646.889 290.072 646.049 288.625C645.233 287.178 644.824 285.545 644.824 283.725C644.824 281.928 645.221 280.307 646.014 278.86C646.831 277.413 647.939 276.293 649.339 275.5C650.763 274.683 652.361 274.275 654.134 274.275C655.908 274.275 657.483 274.683 658.859 275.5C660.259 276.293 661.344 277.413 662.114 278.86C662.908 280.307 663.304 281.963 663.304 283.83ZM654.134 277.11C652.524 277.11 651.171 277.6 650.074 278.58C649.001 279.56 648.371 280.843 648.184 282.43H660.084C659.898 280.867 659.256 279.595 658.159 278.615C657.086 277.612 655.744 277.11 654.134 277.11ZM691.175 274.275C693.508 274.275 695.352 274.952 696.705 276.305C698.082 277.658 698.77 279.665 698.77 282.325V293H695.41V282.71C695.41 280.913 694.99 279.56 694.15 278.65C693.333 277.74 692.155 277.285 690.615 277.285C688.912 277.285 687.558 277.822 686.555 278.895C685.552 279.945 685.05 281.462 685.05 283.445V293H681.69V282.71C681.69 280.913 681.27 279.56 680.43 278.65C679.613 277.74 678.435 277.285 676.895 277.285C675.192 277.285 673.838 277.822 672.835 278.895C671.832 279.945 671.33 281.462 671.33 283.445V293H667.97V274.45H671.19V277.215C671.867 276.258 672.753 275.535 673.85 275.045C674.947 274.532 676.195 274.275 677.595 274.275C679.042 274.275 680.325 274.567 681.445 275.15C682.565 275.733 683.428 276.585 684.035 277.705C684.735 276.632 685.703 275.792 686.94 275.185C688.2 274.578 689.612 274.275 691.175 274.275ZM721.82 283.83C721.82 284.087 721.797 284.425 721.75 284.845H706.7C706.91 286.478 707.622 287.797 708.835 288.8C710.072 289.78 711.6 290.27 713.42 290.27C715.637 290.27 717.422 289.523 718.775 288.03L720.63 290.2C719.79 291.18 718.74 291.927 717.48 292.44C716.243 292.953 714.855 293.21 713.315 293.21C711.355 293.21 709.617 292.813 708.1 292.02C706.583 291.203 705.405 290.072 704.565 288.625C703.748 287.178 703.34 285.545 703.34 283.725C703.34 281.928 703.737 280.307 704.53 278.86C705.347 277.413 706.455 276.293 707.855 275.5C709.278 274.683 710.877 274.275 712.65 274.275C714.423 274.275 715.998 274.683 717.375 275.5C718.775 276.293 719.86 277.413 720.63 278.86C721.423 280.307 721.82 281.963 721.82 283.83ZM712.65 277.11C711.04 277.11 709.687 277.6 708.59 278.58C707.517 279.56 706.887 280.843 706.7 282.43H718.6C718.413 280.867 717.772 279.595 716.675 278.615C715.602 277.612 714.26 277.11 712.65 277.11ZM736.391 274.275C738.747 274.275 740.614 274.963 741.991 276.34C743.391 277.693 744.091 279.688 744.091 282.325V293H740.731V282.71C740.731 280.913 740.299 279.56 739.436 278.65C738.572 277.74 737.336 277.285 735.726 277.285C733.906 277.285 732.471 277.822 731.421 278.895C730.371 279.945 729.846 281.462 729.846 283.445V293H726.486V274.45H729.706V277.25C730.382 276.293 731.292 275.558 732.436 275.045C733.602 274.532 734.921 274.275 736.391 274.275ZM760.739 291.915C760.249 292.335 759.642 292.662 758.919 292.895C758.196 293.105 757.449 293.21 756.679 293.21C754.812 293.21 753.366 292.708 752.339 291.705C751.312 290.702 750.799 289.267 750.799 287.4V277.215H747.649V274.45H750.799V270.39H754.159V274.45H759.479V277.215H754.159V287.26C754.159 288.263 754.404 289.033 754.894 289.57C755.407 290.107 756.131 290.375 757.064 290.375C758.091 290.375 758.966 290.083 759.689 289.5L760.739 291.915Z" fill="black"/>
<path d="M641.39 423L641.355 405.15L632.5 420.025H630.89L622.035 405.255V423H618.675V398.5H621.545L631.765 415.72L641.845 398.5H644.715L644.75 423H641.39ZM651.613 404.45H654.973V423H651.613V404.45ZM653.293 400.88C652.639 400.88 652.091 400.67 651.648 400.25C651.228 399.83 651.018 399.317 651.018 398.71C651.018 398.103 651.228 397.59 651.648 397.17C652.091 396.727 652.639 396.505 653.293 396.505C653.946 396.505 654.483 396.715 654.903 397.135C655.346 397.532 655.568 398.033 655.568 398.64C655.568 399.27 655.346 399.807 654.903 400.25C654.483 400.67 653.946 400.88 653.293 400.88ZM678.888 397.03V423H675.668V420.06C674.921 421.087 673.976 421.868 672.833 422.405C671.69 422.942 670.43 423.21 669.053 423.21C667.256 423.21 665.646 422.813 664.223 422.02C662.8 421.227 661.68 420.118 660.863 418.695C660.07 417.248 659.673 415.592 659.673 413.725C659.673 411.858 660.07 410.213 660.863 408.79C661.68 407.367 662.8 406.258 664.223 405.465C665.646 404.672 667.256 404.275 669.053 404.275C670.383 404.275 671.608 404.532 672.728 405.045C673.848 405.535 674.781 406.27 675.528 407.25V397.03H678.888ZM669.333 420.27C670.5 420.27 671.561 420.002 672.518 419.465C673.475 418.905 674.221 418.135 674.758 417.155C675.295 416.152 675.563 415.008 675.563 413.725C675.563 412.442 675.295 411.31 674.758 410.33C674.221 409.327 673.475 408.557 672.518 408.02C671.561 407.483 670.5 407.215 669.333 407.215C668.143 407.215 667.07 407.483 666.113 408.02C665.18 408.557 664.433 409.327 663.873 410.33C663.336 411.31 663.068 412.442 663.068 413.725C663.068 415.008 663.336 416.152 663.873 417.155C664.433 418.135 665.18 418.905 666.113 419.465C667.07 420.002 668.143 420.27 669.333 420.27ZM702.746 397.03V423H699.526V420.06C698.779 421.087 697.834 421.868 696.691 422.405C695.547 422.942 694.287 423.21 692.911 423.21C691.114 423.21 689.504 422.813 688.081 422.02C686.657 421.227 685.537 420.118 684.721 418.695C683.927 417.248 683.531 415.592 683.531 413.725C683.531 411.858 683.927 410.213 684.721 408.79C685.537 407.367 686.657 406.258 688.081 405.465C689.504 404.672 691.114 404.275 692.911 404.275C694.241 404.275 695.466 404.532 696.586 405.045C697.706 405.535 698.639 406.27 699.386 407.25V397.03H702.746ZM693.191 420.27C694.357 420.27 695.419 420.002 696.376 419.465C697.332 418.905 698.079 418.135 698.616 417.155C699.152 416.152 699.421 415.008 699.421 413.725C699.421 412.442 699.152 411.31 698.616 410.33C698.079 409.327 697.332 408.557 696.376 408.02C695.419 407.483 694.357 407.215 693.191 407.215C692.001 407.215 690.927 407.483 689.971 408.02C689.037 408.557 688.291 409.327 687.731 410.33C687.194 411.31 686.926 412.442 686.926 413.725C686.926 415.008 687.194 416.152 687.731 417.155C688.291 418.135 689.037 418.905 689.971 419.465C690.927 420.002 692.001 420.27 693.191 420.27ZM709.103 397.03H712.463V423H709.103V397.03ZM735.643 413.83C735.643 414.087 735.62 414.425 735.573 414.845H720.523C720.733 416.478 721.445 417.797 722.658 418.8C723.895 419.78 725.423 420.27 727.243 420.27C729.46 420.27 731.245 419.523 732.598 418.03L734.453 420.2C733.613 421.18 732.563 421.927 731.303 422.44C730.067 422.953 728.678 423.21 727.138 423.21C725.178 423.21 723.44 422.813 721.923 422.02C720.407 421.203 719.228 420.072 718.388 418.625C717.572 417.178 717.163 415.545 717.163 413.725C717.163 411.928 717.56 410.307 718.353 408.86C719.17 407.413 720.278 406.293 721.678 405.5C723.102 404.683 724.7 404.275 726.473 404.275C728.247 404.275 729.822 404.683 731.198 405.5C732.598 406.293 733.683 407.413 734.453 408.86C735.247 410.307 735.643 411.963 735.643 413.83ZM726.473 407.11C724.863 407.11 723.51 407.6 722.413 408.58C721.34 409.56 720.71 410.843 720.523 412.43H732.423C732.237 410.867 731.595 409.595 730.498 408.615C729.425 407.612 728.083 407.11 726.473 407.11ZM641.39 466L641.355 448.15L632.5 463.025H630.89L622.035 448.255V466H618.675V441.5H621.545L631.765 458.72L641.845 441.5H644.715L644.75 466H641.39ZM658.368 447.275C660.934 447.275 662.894 447.905 664.248 449.165C665.624 450.425 666.313 452.303 666.313 454.8V466H663.128V463.55C662.568 464.413 661.763 465.078 660.713 465.545C659.686 465.988 658.461 466.21 657.038 466.21C654.961 466.21 653.293 465.708 652.033 464.705C650.796 463.702 650.178 462.383 650.178 460.75C650.178 459.117 650.773 457.81 651.963 456.83C653.153 455.827 655.043 455.325 657.633 455.325H662.953V454.66C662.953 453.213 662.533 452.105 661.693 451.335C660.853 450.565 659.616 450.18 657.983 450.18C656.886 450.18 655.813 450.367 654.763 450.74C653.713 451.09 652.826 451.568 652.103 452.175L650.703 449.655C651.659 448.885 652.803 448.302 654.133 447.905C655.463 447.485 656.874 447.275 658.368 447.275ZM657.598 463.62C658.881 463.62 659.989 463.34 660.923 462.78C661.856 462.197 662.533 461.38 662.953 460.33V457.74H657.773C654.926 457.74 653.503 458.697 653.503 460.61C653.503 461.543 653.864 462.278 654.588 462.815C655.311 463.352 656.314 463.62 657.598 463.62ZM682.436 447.275C684.792 447.275 686.659 447.963 688.036 449.34C689.436 450.693 690.136 452.688 690.136 455.325V466H686.776V455.71C686.776 453.913 686.344 452.56 685.481 451.65C684.617 450.74 683.381 450.285 681.771 450.285C679.951 450.285 678.516 450.822 677.466 451.895C676.416 452.945 675.891 454.462 675.891 456.445V466H672.531V447.45H675.751V450.25C676.427 449.293 677.337 448.558 678.481 448.045C679.647 447.532 680.966 447.275 682.436 447.275ZM703.109 447.275C705.676 447.275 707.636 447.905 708.989 449.165C710.366 450.425 711.054 452.303 711.054 454.8V466H707.869V463.55C707.309 464.413 706.504 465.078 705.454 465.545C704.427 465.988 703.202 466.21 701.779 466.21C699.702 466.21 698.034 465.708 696.774 464.705C695.537 463.702 694.919 462.383 694.919 460.75C694.919 459.117 695.514 457.81 696.704 456.83C697.894 455.827 699.784 455.325 702.374 455.325H707.694V454.66C707.694 453.213 707.274 452.105 706.434 451.335C705.594 450.565 704.357 450.18 702.724 450.18C701.627 450.18 700.554 450.367 699.504 450.74C698.454 451.09 697.567 451.568 696.844 452.175L695.444 449.655C696.401 448.885 697.544 448.302 698.874 447.905C700.204 447.485 701.616 447.275 703.109 447.275ZM702.339 463.62C703.622 463.62 704.731 463.34 705.664 462.78C706.597 462.197 707.274 461.38 707.694 460.33V457.74H702.514C699.667 457.74 698.244 458.697 698.244 460.61C698.244 461.543 698.606 462.278 699.329 462.815C700.052 463.352 701.056 463.62 702.339 463.62ZM735.119 447.45V463.48C735.119 466.723 734.314 469.115 732.704 470.655C731.094 472.218 728.691 473 725.494 473C723.744 473 722.076 472.755 720.489 472.265C718.903 471.798 717.619 471.122 716.639 470.235L718.249 467.645C719.113 468.392 720.174 468.975 721.434 469.395C722.718 469.838 724.036 470.06 725.389 470.06C727.559 470.06 729.158 469.547 730.184 468.52C731.234 467.493 731.759 465.93 731.759 463.83V462.36C730.966 463.317 729.986 464.04 728.819 464.53C727.676 464.997 726.428 465.23 725.074 465.23C723.301 465.23 721.691 464.857 720.244 464.11C718.821 463.34 717.701 462.278 716.884 460.925C716.068 459.548 715.659 457.985 715.659 456.235C715.659 454.485 716.068 452.933 716.884 451.58C717.701 450.203 718.821 449.142 720.244 448.395C721.691 447.648 723.301 447.275 725.074 447.275C726.474 447.275 727.769 447.532 728.959 448.045C730.173 448.558 731.164 449.317 731.934 450.32V447.45H735.119ZM725.459 462.29C726.673 462.29 727.758 462.033 728.714 461.52C729.694 461.007 730.453 460.295 730.989 459.385C731.549 458.452 731.829 457.402 731.829 456.235C731.829 454.438 731.234 452.992 730.044 451.895C728.854 450.775 727.326 450.215 725.459 450.215C723.569 450.215 722.029 450.775 720.839 451.895C719.649 452.992 719.054 454.438 719.054 456.235C719.054 457.402 719.323 458.452 719.859 459.385C720.419 460.295 721.178 461.007 722.134 461.52C723.114 462.033 724.223 462.29 725.459 462.29ZM758.304 456.83C758.304 457.087 758.281 457.425 758.234 457.845H743.184C743.394 459.478 744.106 460.797 745.319 461.8C746.556 462.78 748.084 463.27 749.904 463.27C752.121 463.27 753.906 462.523 755.259 461.03L757.114 463.2C756.274 464.18 755.224 464.927 753.964 465.44C752.728 465.953 751.339 466.21 749.799 466.21C747.839 466.21 746.101 465.813 744.584 465.02C743.068 464.203 741.889 463.072 741.049 461.625C740.233 460.178 739.824 458.545 739.824 456.725C739.824 454.928 740.221 453.307 741.014 451.86C741.831 450.413 742.939 449.293 744.339 448.5C745.763 447.683 747.361 447.275 749.134 447.275C750.908 447.275 752.483 447.683 753.859 448.5C755.259 449.293 756.344 450.413 757.114 451.86C757.908 453.307 758.304 454.963 758.304 456.83ZM749.134 450.11C747.524 450.11 746.171 450.6 745.074 451.58C744.001 452.56 743.371 453.843 743.184 455.43H755.084C754.898 453.867 754.256 452.595 753.159 451.615C752.086 450.612 750.744 450.11 749.134 450.11ZM786.175 447.275C788.508 447.275 790.352 447.952 791.705 449.305C793.082 450.658 793.77 452.665 793.77 455.325V466H790.41V455.71C790.41 453.913 789.99 452.56 789.15 451.65C788.333 450.74 787.155 450.285 785.615 450.285C783.912 450.285 782.558 450.822 781.555 451.895C780.552 452.945 780.05 454.462 780.05 456.445V466H776.69V455.71C776.69 453.913 776.27 452.56 775.43 451.65C774.613 450.74 773.435 450.285 771.895 450.285C770.192 450.285 768.838 450.822 767.835 451.895C766.832 452.945 766.33 454.462 766.33 456.445V466H762.97V447.45H766.19V450.215C766.867 449.258 767.753 448.535 768.85 448.045C769.947 447.532 771.195 447.275 772.595 447.275C774.042 447.275 775.325 447.567 776.445 448.15C777.565 448.733 778.428 449.585 779.035 450.705C779.735 449.632 780.703 448.792 781.94 448.185C783.2 447.578 784.612 447.275 786.175 447.275ZM816.82 456.83C816.82 457.087 816.797 457.425 816.75 457.845H801.7C801.91 459.478 802.622 460.797 803.835 461.8C805.072 462.78 806.6 463.27 808.42 463.27C810.637 463.27 812.422 462.523 813.775 461.03L815.63 463.2C814.79 464.18 813.74 464.927 812.48 465.44C811.243 465.953 809.855 466.21 808.315 466.21C806.355 466.21 804.617 465.813 803.1 465.02C801.583 464.203 800.405 463.072 799.565 461.625C798.748 460.178 798.34 458.545 798.34 456.725C798.34 454.928 798.737 453.307 799.53 451.86C800.347 450.413 801.455 449.293 802.855 448.5C804.278 447.683 805.877 447.275 807.65 447.275C809.423 447.275 810.998 447.683 812.375 448.5C813.775 449.293 814.86 450.413 815.63 451.86C816.423 453.307 816.82 454.963 816.82 456.83ZM807.65 450.11C806.04 450.11 804.687 450.6 803.59 451.58C802.517 452.56 801.887 453.843 801.7 455.43H813.6C813.413 453.867 812.772 452.595 811.675 451.615C810.602 450.612 809.26 450.11 807.65 450.11ZM831.391 447.275C833.747 447.275 835.614 447.963 836.991 449.34C838.391 450.693 839.091 452.688 839.091 455.325V466H835.731V455.71C835.731 453.913 835.299 452.56 834.436 451.65C833.572 450.74 832.336 450.285 830.726 450.285C828.906 450.285 827.471 450.822 826.421 451.895C825.371 452.945 824.846 454.462 824.846 456.445V466H821.486V447.45H824.706V450.25C825.382 449.293 826.292 448.558 827.436 448.045C828.602 447.532 829.921 447.275 831.391 447.275ZM855.739 464.915C855.249 465.335 854.642 465.662 853.919 465.895C853.196 466.105 852.449 466.21 851.679 466.21C849.812 466.21 848.366 465.708 847.339 464.705C846.312 463.702 845.799 462.267 845.799 460.4V450.215H842.649V447.45H845.799V443.39H849.159V447.45H854.479V450.215H849.159V460.26C849.159 461.263 849.404 462.033 849.894 462.57C850.407 463.107 851.131 463.375 852.064 463.375C853.091 463.375 853.966 463.083 854.689 462.5L855.739 464.915Z" fill="black"/>
<line x1="350" y1="85.5" x2="410" y2="85.5" stroke="black"/>
<line x1="447" y1="258.5" x2="507" y2="258.5" stroke="black"/>
<line x1="548" y1="431.5" x2="608" y2="431.5" stroke="black"/>
</svg>
