<svg width="962" height="518" viewBox="0 0 962 518" fill="none" xmlns="http://www.w3.org/2000/svg">
<path fill-rule="evenodd" clip-rule="evenodd" d="M0 518L99.6891 345.333H498.446L598.135 518L0 518Z" fill="#F9C133" fill-opacity="0.89"/>
<path fill-rule="evenodd" clip-rule="evenodd" d="M99.9106 345.334L199.6 172.667H398.978L498.667 345.334H99.9106Z" fill="#E8C927" fill-opacity="0.69"/>
<path fill-rule="evenodd" clip-rule="evenodd" d="M399.671 172.667H200.293L299.982 0L399.671 172.667Z" fill="#F2DF2D" fill-opacity="0.53"/>
<path d="M398.45 94.2C396.7 94.2 395.117 93.8167 393.7 93.05C392.3 92.2667 391.2 91.2 390.4 89.85C389.6 88.4833 389.2 86.95 389.2 85.25C389.2 83.55 389.6 82.025 390.4 80.675C391.2 79.3083 392.308 78.2417 393.725 77.475C395.142 76.6917 396.725 76.3 398.475 76.3C399.842 76.3 401.092 76.5333 402.225 77C403.358 77.45 404.325 78.125 405.125 79.025L403.5 80.6C402.183 79.2167 400.542 78.525 398.575 78.525C397.275 78.525 396.1 78.8167 395.05 79.4C394 79.9833 393.175 80.7917 392.575 81.825C391.992 82.8417 391.7 83.9833 391.7 85.25C391.7 86.5167 391.992 87.6667 392.575 88.7C393.175 89.7167 394 90.5167 395.05 91.1C396.1 91.6833 397.275 91.975 398.575 91.975C400.525 91.975 402.167 91.275 403.5 89.875L405.125 91.45C404.325 92.35 403.35 93.0333 402.2 93.5C401.067 93.9667 399.817 94.2 398.45 94.2ZM407.418 86.1H414.143V88.175H407.418V86.1ZM422.873 94.2C421.557 94.2 420.282 94 419.048 93.6C417.832 93.1833 416.873 92.65 416.173 92L417.098 90.05C417.765 90.65 418.615 91.1417 419.648 91.525C420.698 91.8917 421.773 92.075 422.873 92.075C424.323 92.075 425.407 91.8333 426.123 91.35C426.84 90.85 427.198 90.1917 427.198 89.375C427.198 88.775 426.998 88.2917 426.598 87.925C426.215 87.5417 425.732 87.25 425.148 87.05C424.582 86.85 423.773 86.625 422.723 86.375C421.407 86.0583 420.34 85.7417 419.523 85.425C418.723 85.1083 418.032 84.625 417.448 83.975C416.882 83.3083 416.598 82.4167 416.598 81.3C416.598 80.3667 416.84 79.525 417.323 78.775C417.823 78.025 418.573 77.425 419.573 76.975C420.573 76.525 421.815 76.3 423.298 76.3C424.332 76.3 425.348 76.4333 426.348 76.7C427.348 76.9667 428.207 77.35 428.923 77.85L428.098 79.85C427.365 79.3833 426.582 79.0333 425.748 78.8C424.915 78.55 424.098 78.425 423.298 78.425C421.882 78.425 420.815 78.6833 420.098 79.2C419.398 79.7167 419.048 80.3833 419.048 81.2C419.048 81.8 419.248 82.2917 419.648 82.675C420.048 83.0417 420.54 83.3333 421.123 83.55C421.723 83.75 422.532 83.9667 423.548 84.2C424.865 84.5167 425.923 84.8333 426.723 85.15C427.523 85.4667 428.207 85.95 428.773 86.6C429.357 87.25 429.648 88.125 429.648 89.225C429.648 90.1417 429.398 90.9833 428.898 91.75C428.398 92.5 427.64 93.1 426.623 93.55C425.607 93.9833 424.357 94.2 422.873 94.2ZM445.301 80.75V94H443.026V92C442.542 92.6833 441.901 93.2167 441.101 93.6C440.317 93.9667 439.459 94.15 438.526 94.15C436.759 94.15 435.367 93.6667 434.351 92.7C433.334 91.7167 432.826 90.275 432.826 88.375V80.75H435.226V88.1C435.226 89.3833 435.534 90.3583 436.151 91.025C436.767 91.675 437.651 92 438.801 92C440.067 92 441.067 91.6167 441.801 90.85C442.534 90.0833 442.901 89 442.901 87.6V80.75H445.301ZM449.87 80.75H452.27V94H449.87V80.75ZM451.07 78.2C450.603 78.2 450.211 78.05 449.895 77.75C449.595 77.45 449.445 77.0833 449.445 76.65C449.445 76.2167 449.595 75.85 449.895 75.55C450.211 75.2333 450.603 75.075 451.07 75.075C451.536 75.075 451.92 75.225 452.22 75.525C452.536 75.8083 452.695 76.1667 452.695 76.6C452.695 77.05 452.536 77.4333 452.22 77.75C451.92 78.05 451.536 78.2 451.07 78.2ZM464.302 93.225C463.952 93.525 463.519 93.7583 463.002 93.925C462.485 94.075 461.952 94.15 461.402 94.15C460.069 94.15 459.035 93.7917 458.302 93.075C457.569 92.3583 457.202 91.3333 457.202 90V82.725H454.952V80.75H457.202V77.85H459.602V80.75H463.402V82.725H459.602V89.9C459.602 90.6167 459.777 91.1667 460.127 91.55C460.494 91.9333 461.01 92.125 461.677 92.125C462.41 92.125 463.035 91.9167 463.552 91.5L464.302 93.225ZM478.739 87.45C478.739 87.6333 478.723 87.875 478.689 88.175H467.939C468.089 89.3417 468.598 90.2833 469.464 91C470.348 91.7 471.439 92.05 472.739 92.05C474.323 92.05 475.598 91.5167 476.564 90.45L477.889 92C477.289 92.7 476.539 93.2333 475.639 93.6C474.756 93.9667 473.764 94.15 472.664 94.15C471.264 94.15 470.023 93.8667 468.939 93.3C467.856 92.7167 467.014 91.9083 466.414 90.875C465.831 89.8417 465.539 88.675 465.539 87.375C465.539 86.0917 465.823 84.9333 466.389 83.9C466.973 82.8667 467.764 82.0667 468.764 81.5C469.781 80.9167 470.923 80.625 472.189 80.625C473.456 80.625 474.581 80.9167 475.564 81.5C476.564 82.0667 477.339 82.8667 477.889 83.9C478.456 84.9333 478.739 86.1167 478.739 87.45ZM472.189 82.65C471.039 82.65 470.073 83 469.289 83.7C468.523 84.4 468.073 85.3167 467.939 86.45H476.439C476.306 85.3333 475.848 84.425 475.064 83.725C474.298 83.0083 473.339 82.65 472.189 82.65Z" fill="black"/>
<path d="M492.725 266.2C491.408 266.2 490.133 266 488.9 265.6C487.683 265.183 486.725 264.65 486.025 264L486.95 262.05C487.617 262.65 488.467 263.142 489.5 263.525C490.55 263.892 491.625 264.075 492.725 264.075C494.175 264.075 495.258 263.833 495.975 263.35C496.692 262.85 497.05 262.192 497.05 261.375C497.05 260.775 496.85 260.292 496.45 259.925C496.067 259.542 495.583 259.25 495 259.05C494.433 258.85 493.625 258.625 492.575 258.375C491.258 258.058 490.192 257.742 489.375 257.425C488.575 257.108 487.883 256.625 487.3 255.975C486.733 255.308 486.45 254.417 486.45 253.3C486.45 252.367 486.692 251.525 487.175 250.775C487.675 250.025 488.425 249.425 489.425 248.975C490.425 248.525 491.667 248.3 493.15 248.3C494.183 248.3 495.2 248.433 496.2 248.7C497.2 248.967 498.058 249.35 498.775 249.85L497.95 251.85C497.217 251.383 496.433 251.033 495.6 250.8C494.767 250.55 493.95 250.425 493.15 250.425C491.733 250.425 490.667 250.683 489.95 251.2C489.25 251.717 488.9 252.383 488.9 253.2C488.9 253.8 489.1 254.292 489.5 254.675C489.9 255.042 490.392 255.333 490.975 255.55C491.575 255.75 492.383 255.967 493.4 256.2C494.717 256.517 495.775 256.833 496.575 257.15C497.375 257.467 498.058 257.95 498.625 258.6C499.208 259.25 499.5 260.125 499.5 261.225C499.5 262.142 499.25 262.983 498.75 263.75C498.25 264.5 497.492 265.1 496.475 265.55C495.458 265.983 494.208 266.2 492.725 266.2ZM514.777 259.45C514.777 259.633 514.761 259.875 514.727 260.175H503.977C504.127 261.342 504.636 262.283 505.502 263C506.386 263.7 507.477 264.05 508.777 264.05C510.361 264.05 511.636 263.517 512.602 262.45L513.927 264C513.327 264.7 512.577 265.233 511.677 265.6C510.794 265.967 509.802 266.15 508.702 266.15C507.302 266.15 506.061 265.867 504.977 265.3C503.894 264.717 503.052 263.908 502.452 262.875C501.869 261.842 501.577 260.675 501.577 259.375C501.577 258.092 501.861 256.933 502.427 255.9C503.011 254.867 503.802 254.067 504.802 253.5C505.819 252.917 506.961 252.625 508.227 252.625C509.494 252.625 510.619 252.917 511.602 253.5C512.602 254.067 513.377 254.867 513.927 255.9C514.494 256.933 514.777 258.117 514.777 259.45ZM508.227 254.65C507.077 254.65 506.111 255 505.327 255.7C504.561 256.4 504.111 257.317 503.977 258.45H512.477C512.344 257.333 511.886 256.425 511.102 255.725C510.336 255.008 509.377 254.65 508.227 254.65ZM525.185 252.625C526.868 252.625 528.202 253.117 529.185 254.1C530.185 255.067 530.685 256.492 530.685 258.375V266H528.285V258.65C528.285 257.367 527.977 256.4 527.36 255.75C526.743 255.1 525.86 254.775 524.71 254.775C523.41 254.775 522.385 255.158 521.635 255.925C520.885 256.675 520.51 257.758 520.51 259.175V266H518.11V252.75H520.41V254.75C520.893 254.067 521.543 253.542 522.36 253.175C523.193 252.808 524.135 252.625 525.185 252.625ZM535.127 252.75H537.527V266H535.127V252.75ZM536.327 250.2C535.86 250.2 535.468 250.05 535.152 249.75C534.852 249.45 534.702 249.083 534.702 248.65C534.702 248.217 534.852 247.85 535.152 247.55C535.468 247.233 535.86 247.075 536.327 247.075C536.793 247.075 537.177 247.225 537.477 247.525C537.793 247.808 537.952 248.167 537.952 248.6C537.952 249.05 537.793 249.433 537.477 249.75C537.177 250.05 536.793 250.2 536.327 250.2ZM547.784 266.15C546.467 266.15 545.284 265.858 544.234 265.275C543.184 264.692 542.359 263.892 541.759 262.875C541.176 261.842 540.884 260.675 540.884 259.375C540.884 258.075 541.176 256.917 541.759 255.9C542.359 254.867 543.184 254.067 544.234 253.5C545.284 252.917 546.467 252.625 547.784 252.625C549.101 252.625 550.276 252.917 551.309 253.5C552.359 254.067 553.176 254.867 553.759 255.9C554.359 256.917 554.659 258.075 554.659 259.375C554.659 260.675 554.359 261.842 553.759 262.875C553.176 263.892 552.359 264.692 551.309 265.275C550.276 265.858 549.101 266.15 547.784 266.15ZM547.784 264.05C548.634 264.05 549.392 263.858 550.059 263.475C550.742 263.075 551.276 262.525 551.659 261.825C552.042 261.108 552.234 260.292 552.234 259.375C552.234 258.458 552.042 257.65 551.659 256.95C551.276 256.233 550.742 255.683 550.059 255.3C549.392 254.917 548.634 254.725 547.784 254.725C546.934 254.725 546.167 254.917 545.484 255.3C544.817 255.683 544.284 256.233 543.884 256.95C543.501 257.65 543.309 258.458 543.309 259.375C543.309 260.292 543.501 261.108 543.884 261.825C544.284 262.525 544.817 263.075 545.484 263.475C546.167 263.858 546.934 264.05 547.784 264.05ZM560.278 254.975C560.695 254.208 561.311 253.625 562.128 253.225C562.945 252.825 563.936 252.625 565.103 252.625V254.95C564.97 254.933 564.786 254.925 564.553 254.925C563.253 254.925 562.228 255.317 561.478 256.1C560.745 256.867 560.378 257.967 560.378 259.4V266H557.978V252.75H560.278V254.975ZM591.521 266L591.496 253.25L585.171 263.875H584.021L577.696 253.325V266H575.296V248.5H577.346L584.646 260.8L591.846 248.5H593.896L593.921 266H591.521ZM603.648 252.625C605.481 252.625 606.881 253.075 607.848 253.975C608.831 254.875 609.323 256.217 609.323 258V266H607.048V264.25C606.648 264.867 606.073 265.342 605.323 265.675C604.59 265.992 603.715 266.15 602.698 266.15C601.215 266.15 600.023 265.792 599.123 265.075C598.24 264.358 597.798 263.417 597.798 262.25C597.798 261.083 598.223 260.15 599.073 259.45C599.923 258.733 601.273 258.375 603.123 258.375H606.923V257.9C606.923 256.867 606.623 256.075 606.023 255.525C605.423 254.975 604.54 254.7 603.373 254.7C602.59 254.7 601.823 254.833 601.073 255.1C600.323 255.35 599.69 255.692 599.173 256.125L598.173 254.325C598.856 253.775 599.673 253.358 600.623 253.075C601.573 252.775 602.581 252.625 603.648 252.625ZM603.098 264.3C604.015 264.3 604.806 264.1 605.473 263.7C606.14 263.283 606.623 262.7 606.923 261.95V260.1H603.223C601.19 260.1 600.173 260.783 600.173 262.15C600.173 262.817 600.431 263.342 600.948 263.725C601.465 264.108 602.181 264.3 603.098 264.3ZM620.839 252.625C622.523 252.625 623.856 253.117 624.839 254.1C625.839 255.067 626.339 256.492 626.339 258.375V266H623.939V258.65C623.939 257.367 623.631 256.4 623.014 255.75C622.398 255.1 621.514 254.775 620.364 254.775C619.064 254.775 618.039 255.158 617.289 255.925C616.539 256.675 616.164 257.758 616.164 259.175V266H613.764V252.75H616.064V254.75C616.548 254.067 617.198 253.542 618.014 253.175C618.848 252.808 619.789 252.625 620.839 252.625ZM635.606 252.625C637.439 252.625 638.839 253.075 639.806 253.975C640.789 254.875 641.281 256.217 641.281 258V266H639.006V264.25C638.606 264.867 638.031 265.342 637.281 265.675C636.548 265.992 635.673 266.15 634.656 266.15C633.173 266.15 631.981 265.792 631.081 265.075C630.198 264.358 629.756 263.417 629.756 262.25C629.756 261.083 630.181 260.15 631.031 259.45C631.881 258.733 633.231 258.375 635.081 258.375H638.881V257.9C638.881 256.867 638.581 256.075 637.981 255.525C637.381 254.975 636.498 254.7 635.331 254.7C634.548 254.7 633.781 254.833 633.031 255.1C632.281 255.35 631.648 255.692 631.131 256.125L630.131 254.325C630.814 253.775 631.631 253.358 632.581 253.075C633.531 252.775 634.539 252.625 635.606 252.625ZM635.056 264.3C635.973 264.3 636.764 264.1 637.431 263.7C638.098 263.283 638.581 262.7 638.881 261.95V260.1H635.181C633.148 260.1 632.131 260.783 632.131 262.15C632.131 262.817 632.389 263.342 632.906 263.725C633.423 264.108 634.139 264.3 635.056 264.3ZM658.471 252.75V264.2C658.471 266.517 657.896 268.225 656.746 269.325C655.596 270.442 653.879 271 651.596 271C650.346 271 649.154 270.825 648.021 270.475C646.887 270.142 645.971 269.658 645.271 269.025L646.421 267.175C647.037 267.708 647.796 268.125 648.696 268.425C649.612 268.742 650.554 268.9 651.521 268.9C653.071 268.9 654.212 268.533 654.946 267.8C655.696 267.067 656.071 265.95 656.071 264.45V263.4C655.504 264.083 654.804 264.6 653.971 264.95C653.154 265.283 652.262 265.45 651.296 265.45C650.029 265.45 648.879 265.183 647.846 264.65C646.829 264.1 646.029 263.342 645.446 262.375C644.862 261.392 644.571 260.275 644.571 259.025C644.571 257.775 644.862 256.667 645.446 255.7C646.029 254.717 646.829 253.958 647.846 253.425C648.879 252.892 650.029 252.625 651.296 252.625C652.296 252.625 653.221 252.808 654.071 253.175C654.937 253.542 655.646 254.083 656.196 254.8V252.75H658.471ZM651.571 263.35C652.437 263.35 653.212 263.167 653.896 262.8C654.596 262.433 655.137 261.925 655.521 261.275C655.921 260.608 656.121 259.858 656.121 259.025C656.121 257.742 655.696 256.708 654.846 255.925C653.996 255.125 652.904 254.725 651.571 254.725C650.221 254.725 649.121 255.125 648.271 255.925C647.421 256.708 646.996 257.742 646.996 259.025C646.996 259.858 647.187 260.608 647.571 261.275C647.971 261.925 648.512 262.433 649.196 262.8C649.896 263.167 650.687 263.35 651.571 263.35ZM675.031 259.45C675.031 259.633 675.015 259.875 674.981 260.175H664.231C664.381 261.342 664.89 262.283 665.756 263C666.64 263.7 667.731 264.05 669.031 264.05C670.615 264.05 671.89 263.517 672.856 262.45L674.181 264C673.581 264.7 672.831 265.233 671.931 265.6C671.048 265.967 670.056 266.15 668.956 266.15C667.556 266.15 666.315 265.867 665.231 265.3C664.148 264.717 663.306 263.908 662.706 262.875C662.123 261.842 661.831 260.675 661.831 259.375C661.831 258.092 662.115 256.933 662.681 255.9C663.265 254.867 664.056 254.067 665.056 253.5C666.073 252.917 667.215 252.625 668.481 252.625C669.748 252.625 670.873 252.917 671.856 253.5C672.856 254.067 673.631 254.867 674.181 255.9C674.748 256.933 675.031 258.117 675.031 259.45ZM668.481 254.65C667.331 254.65 666.365 255 665.581 255.7C664.815 256.4 664.365 257.317 664.231 258.45H672.731C672.598 257.333 672.14 256.425 671.356 255.725C670.59 255.008 669.631 254.65 668.481 254.65ZM694.939 252.625C696.606 252.625 697.922 253.108 698.889 254.075C699.872 255.042 700.364 256.475 700.364 258.375V266H697.964V258.65C697.964 257.367 697.664 256.4 697.064 255.75C696.481 255.1 695.639 254.775 694.539 254.775C693.322 254.775 692.356 255.158 691.639 255.925C690.922 256.675 690.564 257.758 690.564 259.175V266H688.164V258.65C688.164 257.367 687.864 256.4 687.264 255.75C686.681 255.1 685.839 254.775 684.739 254.775C683.522 254.775 682.556 255.158 681.839 255.925C681.122 256.675 680.764 257.758 680.764 259.175V266H678.364V252.75H680.664V254.725C681.147 254.042 681.781 253.525 682.564 253.175C683.347 252.808 684.239 252.625 685.239 252.625C686.272 252.625 687.189 252.833 687.989 253.25C688.789 253.667 689.406 254.275 689.839 255.075C690.339 254.308 691.031 253.708 691.914 253.275C692.814 252.842 693.822 252.625 694.939 252.625ZM716.828 259.45C716.828 259.633 716.811 259.875 716.778 260.175H706.028C706.178 261.342 706.686 262.283 707.553 263C708.436 263.7 709.528 264.05 710.828 264.05C712.411 264.05 713.686 263.517 714.653 262.45L715.978 264C715.378 264.7 714.628 265.233 713.728 265.6C712.845 265.967 711.853 266.15 710.753 266.15C709.353 266.15 708.111 265.867 707.028 265.3C705.945 264.717 705.103 263.908 704.503 262.875C703.92 261.842 703.628 260.675 703.628 259.375C703.628 258.092 703.911 256.933 704.478 255.9C705.061 254.867 705.853 254.067 706.853 253.5C707.87 252.917 709.011 252.625 710.278 252.625C711.545 252.625 712.67 252.917 713.653 253.5C714.653 254.067 715.428 254.867 715.978 255.9C716.545 256.933 716.828 258.117 716.828 259.45ZM710.278 254.65C709.128 254.65 708.161 255 707.378 255.7C706.611 256.4 706.161 257.317 706.028 258.45H714.528C714.395 257.333 713.936 256.425 713.153 255.725C712.386 255.008 711.428 254.65 710.278 254.65ZM727.236 252.625C728.919 252.625 730.252 253.117 731.236 254.1C732.236 255.067 732.736 256.492 732.736 258.375V266H730.336V258.65C730.336 257.367 730.027 256.4 729.411 255.75C728.794 255.1 727.911 254.775 726.761 254.775C725.461 254.775 724.436 255.158 723.686 255.925C722.936 256.675 722.561 257.758 722.561 259.175V266H720.161V252.75H722.461V254.75C722.944 254.067 723.594 253.542 724.411 253.175C725.244 252.808 726.186 252.625 727.236 252.625ZM744.627 265.225C744.277 265.525 743.844 265.758 743.327 265.925C742.811 266.075 742.277 266.15 741.727 266.15C740.394 266.15 739.361 265.792 738.627 265.075C737.894 264.358 737.527 263.333 737.527 262V254.725H735.277V252.75H737.527V249.85H739.927V252.75H743.727V254.725H739.927V261.9C739.927 262.617 740.102 263.167 740.452 263.55C740.819 263.933 741.336 264.125 742.002 264.125C742.736 264.125 743.361 263.917 743.877 263.5L744.627 265.225Z" fill="black"/>
<path d="M605.85 440L605.825 427.25L599.5 437.875H598.35L592.025 427.325V440H589.625V422.5H591.675L598.975 434.8L606.175 422.5H608.225L608.25 440H605.85ZM613.152 426.75H615.552V440H613.152V426.75ZM614.352 424.2C613.885 424.2 613.494 424.05 613.177 423.75C612.877 423.45 612.727 423.083 612.727 422.65C612.727 422.217 612.877 421.85 613.177 421.55C613.494 421.233 613.885 421.075 614.352 421.075C614.819 421.075 615.202 421.225 615.502 421.525C615.819 421.808 615.977 422.167 615.977 422.6C615.977 423.05 615.819 423.433 615.502 423.75C615.202 424.05 614.819 424.2 614.352 424.2ZM632.634 421.45V440H630.334V437.9C629.801 438.633 629.126 439.192 628.309 439.575C627.493 439.958 626.593 440.15 625.609 440.15C624.326 440.15 623.176 439.867 622.159 439.3C621.143 438.733 620.343 437.942 619.759 436.925C619.193 435.892 618.909 434.708 618.909 433.375C618.909 432.042 619.193 430.867 619.759 429.85C620.343 428.833 621.143 428.042 622.159 427.475C623.176 426.908 624.326 426.625 625.609 426.625C626.559 426.625 627.434 426.808 628.234 427.175C629.034 427.525 629.701 428.05 630.234 428.75V421.45H632.634ZM625.809 438.05C626.643 438.05 627.401 437.858 628.084 437.475C628.768 437.075 629.301 436.525 629.684 435.825C630.068 435.108 630.259 434.292 630.259 433.375C630.259 432.458 630.068 431.65 629.684 430.95C629.301 430.233 628.768 429.683 628.084 429.3C627.401 428.917 626.643 428.725 625.809 428.725C624.959 428.725 624.193 428.917 623.509 429.3C622.843 429.683 622.309 430.233 621.909 430.95C621.526 431.65 621.334 432.458 621.334 433.375C621.334 434.292 621.526 435.108 621.909 435.825C622.309 436.525 622.843 437.075 623.509 437.475C624.193 437.858 624.959 438.05 625.809 438.05ZM649.675 421.45V440H647.375V437.9C646.842 438.633 646.167 439.192 645.35 439.575C644.534 439.958 643.634 440.15 642.65 440.15C641.367 440.15 640.217 439.867 639.2 439.3C638.184 438.733 637.384 437.942 636.8 436.925C636.234 435.892 635.95 434.708 635.95 433.375C635.95 432.042 636.234 430.867 636.8 429.85C637.384 428.833 638.184 428.042 639.2 427.475C640.217 426.908 641.367 426.625 642.65 426.625C643.6 426.625 644.475 426.808 645.275 427.175C646.075 427.525 646.742 428.05 647.275 428.75V421.45H649.675ZM642.85 438.05C643.684 438.05 644.442 437.858 645.125 437.475C645.809 437.075 646.342 436.525 646.725 435.825C647.109 435.108 647.3 434.292 647.3 433.375C647.3 432.458 647.109 431.65 646.725 430.95C646.342 430.233 645.809 429.683 645.125 429.3C644.442 428.917 643.684 428.725 642.85 428.725C642 428.725 641.234 428.917 640.55 429.3C639.884 429.683 639.35 430.233 638.95 430.95C638.567 431.65 638.375 432.458 638.375 433.375C638.375 434.292 638.567 435.108 638.95 435.825C639.35 436.525 639.884 437.075 640.55 437.475C641.234 437.858 642 438.05 642.85 438.05ZM654.216 421.45H656.616V440H654.216V421.45ZM673.174 433.45C673.174 433.633 673.157 433.875 673.124 434.175H662.374C662.524 435.342 663.032 436.283 663.899 437C664.782 437.7 665.874 438.05 667.174 438.05C668.757 438.05 670.032 437.517 670.999 436.45L672.324 438C671.724 438.7 670.974 439.233 670.074 439.6C669.19 439.967 668.199 440.15 667.099 440.15C665.699 440.15 664.457 439.867 663.374 439.3C662.29 438.717 661.449 437.908 660.849 436.875C660.265 435.842 659.974 434.675 659.974 433.375C659.974 432.092 660.257 430.933 660.824 429.9C661.407 428.867 662.199 428.067 663.199 427.5C664.215 426.917 665.357 426.625 666.624 426.625C667.89 426.625 669.015 426.917 669.999 427.5C670.999 428.067 671.774 428.867 672.324 429.9C672.89 430.933 673.174 432.117 673.174 433.45ZM666.624 428.65C665.474 428.65 664.507 429 663.724 429.7C662.957 430.4 662.507 431.317 662.374 432.45H670.874C670.74 431.333 670.282 430.425 669.499 429.725C668.732 429.008 667.774 428.65 666.624 428.65ZM699.795 440L699.77 427.25L693.445 437.875H692.295L685.97 427.325V440H683.57V422.5H685.62L692.92 434.8L700.12 422.5H702.17L702.195 440H699.795ZM711.922 426.625C713.756 426.625 715.156 427.075 716.122 427.975C717.106 428.875 717.597 430.217 717.597 432V440H715.322V438.25C714.922 438.867 714.347 439.342 713.597 439.675C712.864 439.992 711.989 440.15 710.972 440.15C709.489 440.15 708.297 439.792 707.397 439.075C706.514 438.358 706.072 437.417 706.072 436.25C706.072 435.083 706.497 434.15 707.347 433.45C708.197 432.733 709.547 432.375 711.397 432.375H715.197V431.9C715.197 430.867 714.897 430.075 714.297 429.525C713.697 428.975 712.814 428.7 711.647 428.7C710.864 428.7 710.097 428.833 709.347 429.1C708.597 429.35 707.964 429.692 707.447 430.125L706.447 428.325C707.131 427.775 707.947 427.358 708.897 427.075C709.847 426.775 710.856 426.625 711.922 426.625ZM711.372 438.3C712.289 438.3 713.081 438.1 713.747 437.7C714.414 437.283 714.897 436.7 715.197 435.95V434.1H711.497C709.464 434.1 708.447 434.783 708.447 436.15C708.447 436.817 708.706 437.342 709.222 437.725C709.739 438.108 710.456 438.3 711.372 438.3ZM729.114 426.625C730.797 426.625 732.13 427.117 733.114 428.1C734.114 429.067 734.614 430.492 734.614 432.375V440H732.214V432.65C732.214 431.367 731.905 430.4 731.289 429.75C730.672 429.1 729.789 428.775 728.639 428.775C727.339 428.775 726.314 429.158 725.564 429.925C724.814 430.675 724.439 431.758 724.439 433.175V440H722.039V426.75H724.339V428.75C724.822 428.067 725.472 427.542 726.289 427.175C727.122 426.808 728.064 426.625 729.114 426.625ZM743.88 426.625C745.714 426.625 747.114 427.075 748.08 427.975C749.064 428.875 749.555 430.217 749.555 432V440H747.28V438.25C746.88 438.867 746.305 439.342 745.555 439.675C744.822 439.992 743.947 440.15 742.93 440.15C741.447 440.15 740.255 439.792 739.355 439.075C738.472 438.358 738.03 437.417 738.03 436.25C738.03 435.083 738.455 434.15 739.305 433.45C740.155 432.733 741.505 432.375 743.355 432.375H747.155V431.9C747.155 430.867 746.855 430.075 746.255 429.525C745.655 428.975 744.772 428.7 743.605 428.7C742.822 428.7 742.055 428.833 741.305 429.1C740.555 429.35 739.922 429.692 739.405 430.125L738.405 428.325C739.089 427.775 739.905 427.358 740.855 427.075C741.805 426.775 742.814 426.625 743.88 426.625ZM743.33 438.3C744.247 438.3 745.039 438.1 745.705 437.7C746.372 437.283 746.855 436.7 747.155 435.95V434.1H743.455C741.422 434.1 740.405 434.783 740.405 436.15C740.405 436.817 740.664 437.342 741.18 437.725C741.697 438.108 742.414 438.3 743.33 438.3ZM766.745 426.75V438.2C766.745 440.517 766.17 442.225 765.02 443.325C763.87 444.442 762.153 445 759.87 445C758.62 445 757.428 444.825 756.295 444.475C755.162 444.142 754.245 443.658 753.545 443.025L754.695 441.175C755.312 441.708 756.07 442.125 756.97 442.425C757.887 442.742 758.828 442.9 759.795 442.9C761.345 442.9 762.487 442.533 763.22 441.8C763.97 441.067 764.345 439.95 764.345 438.45V437.4C763.778 438.083 763.078 438.6 762.245 438.95C761.428 439.283 760.537 439.45 759.57 439.45C758.303 439.45 757.153 439.183 756.12 438.65C755.103 438.1 754.303 437.342 753.72 436.375C753.137 435.392 752.845 434.275 752.845 433.025C752.845 431.775 753.137 430.667 753.72 429.7C754.303 428.717 755.103 427.958 756.12 427.425C757.153 426.892 758.303 426.625 759.57 426.625C760.57 426.625 761.495 426.808 762.345 427.175C763.212 427.542 763.92 428.083 764.47 428.8V426.75H766.745ZM759.845 437.35C760.712 437.35 761.487 437.167 762.17 436.8C762.87 436.433 763.412 435.925 763.795 435.275C764.195 434.608 764.395 433.858 764.395 433.025C764.395 431.742 763.97 430.708 763.12 429.925C762.27 429.125 761.178 428.725 759.845 428.725C758.495 428.725 757.395 429.125 756.545 429.925C755.695 430.708 755.27 431.742 755.27 433.025C755.27 433.858 755.462 434.608 755.845 435.275C756.245 435.925 756.787 436.433 757.47 436.8C758.17 437.167 758.962 437.35 759.845 437.35ZM783.306 433.45C783.306 433.633 783.289 433.875 783.256 434.175H772.506C772.656 435.342 773.164 436.283 774.031 437C774.914 437.7 776.006 438.05 777.306 438.05C778.889 438.05 780.164 437.517 781.131 436.45L782.456 438C781.856 438.7 781.106 439.233 780.206 439.6C779.322 439.967 778.331 440.15 777.231 440.15C775.831 440.15 774.589 439.867 773.506 439.3C772.422 438.717 771.581 437.908 770.981 436.875C770.397 435.842 770.106 434.675 770.106 433.375C770.106 432.092 770.389 430.933 770.956 429.9C771.539 428.867 772.331 428.067 773.331 427.5C774.347 426.917 775.489 426.625 776.756 426.625C778.022 426.625 779.147 426.917 780.131 427.5C781.131 428.067 781.906 428.867 782.456 429.9C783.022 430.933 783.306 432.117 783.306 433.45ZM776.756 428.65C775.606 428.65 774.639 429 773.856 429.7C773.089 430.4 772.639 431.317 772.506 432.45H781.006C780.872 431.333 780.414 430.425 779.631 429.725C778.864 429.008 777.906 428.65 776.756 428.65ZM803.213 426.625C804.88 426.625 806.197 427.108 807.163 428.075C808.147 429.042 808.638 430.475 808.638 432.375V440H806.238V432.65C806.238 431.367 805.938 430.4 805.338 429.75C804.755 429.1 803.913 428.775 802.813 428.775C801.597 428.775 800.63 429.158 799.913 429.925C799.197 430.675 798.838 431.758 798.838 433.175V440H796.438V432.65C796.438 431.367 796.138 430.4 795.538 429.75C794.955 429.1 794.113 428.775 793.013 428.775C791.797 428.775 790.83 429.158 790.113 429.925C789.397 430.675 789.038 431.758 789.038 433.175V440H786.638V426.75H788.938V428.725C789.422 428.042 790.055 427.525 790.838 427.175C791.622 426.808 792.513 426.625 793.513 426.625C794.547 426.625 795.463 426.833 796.263 427.25C797.063 427.667 797.68 428.275 798.113 429.075C798.613 428.308 799.305 427.708 800.188 427.275C801.088 426.842 802.097 426.625 803.213 426.625ZM825.103 433.45C825.103 433.633 825.086 433.875 825.053 434.175H814.303C814.453 435.342 814.961 436.283 815.828 437C816.711 437.7 817.803 438.05 819.103 438.05C820.686 438.05 821.961 437.517 822.928 436.45L824.253 438C823.653 438.7 822.903 439.233 822.003 439.6C821.119 439.967 820.128 440.15 819.028 440.15C817.628 440.15 816.386 439.867 815.303 439.3C814.219 438.717 813.378 437.908 812.778 436.875C812.194 435.842 811.903 434.675 811.903 433.375C811.903 432.092 812.186 430.933 812.753 429.9C813.336 428.867 814.128 428.067 815.128 427.5C816.144 426.917 817.286 426.625 818.553 426.625C819.819 426.625 820.944 426.917 821.928 427.5C822.928 428.067 823.703 428.867 824.253 429.9C824.819 430.933 825.103 432.117 825.103 433.45ZM818.553 428.65C817.403 428.65 816.436 429 815.653 429.7C814.886 430.4 814.436 431.317 814.303 432.45H822.803C822.669 431.333 822.211 430.425 821.428 429.725C820.661 429.008 819.703 428.65 818.553 428.65ZM835.51 426.625C837.193 426.625 838.527 427.117 839.51 428.1C840.51 429.067 841.01 430.492 841.01 432.375V440H838.61V432.65C838.61 431.367 838.302 430.4 837.685 429.75C837.068 429.1 836.185 428.775 835.035 428.775C833.735 428.775 832.71 429.158 831.96 429.925C831.21 430.675 830.835 431.758 830.835 433.175V440H828.435V426.75H830.735V428.75C831.218 428.067 831.868 427.542 832.685 427.175C833.518 426.808 834.46 426.625 835.51 426.625ZM852.902 439.225C852.552 439.525 852.118 439.758 851.602 439.925C851.085 440.075 850.552 440.15 850.002 440.15C848.668 440.15 847.635 439.792 846.902 439.075C846.168 438.358 845.802 437.333 845.802 436V428.725H843.552V426.75H845.802V423.85H848.202V426.75H852.002V428.725H848.202V435.9C848.202 436.617 848.377 437.167 848.727 437.55C849.093 437.933 849.61 438.125 850.277 438.125C851.01 438.125 851.635 437.917 852.152 437.5L852.902 439.225Z" fill="black"/>
<line x1="349" y1="85.5" x2="379" y2="85.5" stroke="black"/>
<line x1="448" y1="258.5" x2="478" y2="258.5" stroke="black"/>
<line x1="548" y1="431.5" x2="578" y2="431.5" stroke="black"/>
</svg>
