<?xml version="1.0" encoding="UTF-8" standalone="no"?>
<!-- Created with Inkscape (http://www.inkscape.org/) -->

<svg
   xmlns:dc="http://purl.org/dc/elements/1.1/"
   xmlns:cc="http://creativecommons.org/ns#"
   xmlns:rdf="http://www.w3.org/1999/02/22-rdf-syntax-ns#"
   xmlns:svg="http://www.w3.org/2000/svg"
   xmlns="http://www.w3.org/2000/svg"
   xmlns:sodipodi="http://sodipodi.sourceforge.net/DTD/sodipodi-0.dtd"
   xmlns:inkscape="http://www.inkscape.org/namespaces/inkscape"
   id="svg2"
   version="1.1"
   inkscape:version="0.48.4 r9939"
   width="250.16"
   height="58.900002"
   xml:space="preserve"
   sodipodi:docname="annual-report-2012-2013.pdf"><metadata
     id="metadata8"><rdf:RDF><cc:Work
         rdf:about=""><dc:format>image/svg+xml</dc:format><dc:type
           rdf:resource="http://purl.org/dc/dcmitype/StillImage" /><dc:title></dc:title></cc:Work></rdf:RDF></metadata><defs
     id="defs6"><clipPath
       clipPathUnits="userSpaceOnUse"
       id="clipPath16"><path
         d="m 0.060059,842.04 1545.000041,0 0,-842.04 -1545.000041,0 0,842.04 z"
         id="path18"
         inkscape:connector-curvature="0" /></clipPath><clipPath
       clipPathUnits="userSpaceOnUse"
       id="clipPath26"><path
         d="m 985.969,825.73 204.702,0 0,-171.157 -204.702,0 0,171.157 z"
         id="path28"
         inkscape:connector-curvature="0" /></clipPath><clipPath
       clipPathUnits="userSpaceOnUse"
       id="clipPath38"><path
         d="m 781.499,825.73 204.844,0 0,-171.157 -204.844,0 0,171.157 z"
         id="path40"
         inkscape:connector-curvature="0" /></clipPath><clipPath
       clipPathUnits="userSpaceOnUse"
       id="clipPath50"><path
         d="m 611.438,825.73 170.433,0 0,-205.515 -170.433,0 0,205.515 z"
         id="path52"
         inkscape:connector-curvature="0" /></clipPath><clipPath
       clipPathUnits="userSpaceOnUse"
       id="clipPath62"><path
         d="m 985.969,654.947 204.702,0 0,-171.793 -204.702,0 0,171.793 z"
         id="path64"
         inkscape:connector-curvature="0" /></clipPath><clipPath
       clipPathUnits="userSpaceOnUse"
       id="clipPath74"><path
         d="m 781.499,654.947 204.844,0 0,-171.793 -204.844,0 0,171.793 z"
         id="path76"
         inkscape:connector-curvature="0" /></clipPath><clipPath
       clipPathUnits="userSpaceOnUse"
       id="clipPath86"><path
         d="m 611.438,620.588 170.433,0 0,-205.964 -170.433,0 0,205.964 z"
         id="path88"
         inkscape:connector-curvature="0" /></clipPath><clipPath
       clipPathUnits="userSpaceOnUse"
       id="clipPath98"><path
         d="m 985.969,483.527 204.702,0 0,-171.606 -204.702,0 0,171.606 z"
         id="path100"
         inkscape:connector-curvature="0" /></clipPath><clipPath
       clipPathUnits="userSpaceOnUse"
       id="clipPath110"><path
         d="m 781.499,483.527 204.844,0 0,-171.606 -204.844,0 0,171.606 z"
         id="path112"
         inkscape:connector-curvature="0" /></clipPath><clipPath
       clipPathUnits="userSpaceOnUse"
       id="clipPath122"><path
         d="m 611.438,414.996 170.433,0 0,-205.964 -170.433,0 0,205.964 z"
         id="path124"
         inkscape:connector-curvature="0" /></clipPath><clipPath
       clipPathUnits="userSpaceOnUse"
       id="clipPath134"><path
         d="m 951.984,312.294 238.687,0 0,-137.044 -238.687,0 0,137.044 z"
         id="path136"
         inkscape:connector-curvature="0" /></clipPath><clipPath
       clipPathUnits="userSpaceOnUse"
       id="clipPath146"><path
         d="m 781.499,312.294 170.859,0 0,-137.044 -170.859,0 0,137.044 z"
         id="path148"
         inkscape:connector-curvature="0" /></clipPath><clipPath
       clipPathUnits="userSpaceOnUse"
       id="clipPath158"><path
         d="m 611.438,209.406 170.433,0 0,-34.156 -170.433,0 0,34.156 z"
         id="path160"
         inkscape:connector-curvature="0" /></clipPath><clipPath
       clipPathUnits="userSpaceOnUse"
       id="clipPath170"><path
         d="m 1326.941,825.73 204.84,0 0,-171.157 -204.84,0 0,171.157 z"
         id="path172"
         inkscape:connector-curvature="0" /></clipPath><clipPath
       clipPathUnits="userSpaceOnUse"
       id="clipPath182"><path
         d="m 1190.671,825.73 136.64,0 0,-239.687 -136.64,0 0,239.687 z"
         id="path184"
         inkscape:connector-curvature="0" /></clipPath><clipPath
       clipPathUnits="userSpaceOnUse"
       id="clipPath194"><path
         d="m 1326.941,654.947 204.84,0 0,-171.793 -204.84,0 0,171.793 z"
         id="path196"
         inkscape:connector-curvature="0" /></clipPath><clipPath
       clipPathUnits="userSpaceOnUse"
       id="clipPath206"><path
         d="m 1190.671,586.416 136.64,0 0,-240.322 -136.64,0 0,240.322 z"
         id="path208"
         inkscape:connector-curvature="0" /></clipPath><clipPath
       clipPathUnits="userSpaceOnUse"
       id="clipPath218"><path
         d="m 1326.941,483.527 204.84,0 0,-171.606 -204.84,0 0,171.606 z"
         id="path220"
         inkscape:connector-curvature="0" /></clipPath><clipPath
       clipPathUnits="userSpaceOnUse"
       id="clipPath230"><path
         d="m 1190.671,346.466 136.64,0 0,-171.216 -136.64,0 0,171.216 z"
         id="path232"
         inkscape:connector-curvature="0" /></clipPath><clipPath
       clipPathUnits="userSpaceOnUse"
       id="clipPath242"><path
         d="m 1326.941,312.294 204.84,0 0,-137.044 -204.84,0 0,137.044 z"
         id="path244"
         inkscape:connector-curvature="0" /></clipPath><clipPath
       clipPathUnits="userSpaceOnUse"
       id="clipPath254"><path
         d="m 0.060059,842.04 1545.000041,0 0,-842.04 -1545.000041,0 0,842.04 z"
         id="path256"
         inkscape:connector-curvature="0" /></clipPath><clipPath
       clipPathUnits="userSpaceOnUse"
       id="clipPath1944"><path
         d="m 0.060059,842.04 1545.000041,0 0,-842.04 -1545.000041,0 0,842.04 z"
         id="path1946"
         inkscape:connector-curvature="0" /></clipPath></defs><sodipodi:namedview
     pagecolor="#ffffff"
     bordercolor="#666666"
     borderopacity="1"
     objecttolerance="10"
     gridtolerance="10"
     guidetolerance="10"
     inkscape:pageopacity="0"
     inkscape:pageshadow="2"
     inkscape:window-width="1366"
     inkscape:window-height="706"
     id="namedview4"
     showgrid="false"
     inkscape:zoom="0.9739905"
     inkscape:cx="-159.80554"
     inkscape:cy="-79.172169"
     inkscape:window-x="-8"
     inkscape:window-y="-8"
     inkscape:window-maximized="1"
     inkscape:current-layer="g10" /><g
     id="g10"
     inkscape:groupmode="layer"
     inkscape:label="annual-report-2012-2013"
     transform="matrix(1.25,0,0,-1.25,-744.095,58.899992)"><g
       id="g268"
       transform="translate(723.38829,27.60594)"><path
         d="m 0,0 c 1.184,1.437 2.554,2.941 4.302,4.62 1.747,1.7 3.305,3.005 4.827,4.127 1.652,1.259 3.781,1.301 5.426,0.021 1.508,-1.143 3.062,-2.448 4.808,-4.148 1.748,-1.669 3.129,-3.177 4.296,-4.611 1.39,-1.698 1.376,-3.507 0,-5.205 -1.177,-1.453 -2.555,-2.953 -4.296,-4.64 -1.761,-1.68 -3.3,-2.977 -4.808,-4.116 -1.676,-1.246 -3.766,-1.246 -5.426,0 -1.522,1.139 -3.068,2.452 -4.807,4.116 -1.768,1.687 -3.126,3.187 -4.304,4.64 C -1.275,-3.612 -1.34,-1.583 0,0"
         style="fill:#1e4384;fill-opacity:1;fill-rule:nonzero;stroke:none"
         id="path270"
         inkscape:connector-curvature="0" /></g><g
       id="g272"
       transform="translate(722.16129,24.66194)"><path
         d="m 0,0 c 0.168,-0.81 0.542,-1.492 1.168,-2.252 1.189,-1.459 2.612,-2.953 4.381,-4.64 1.739,-1.664 3.285,-2.977 4.806,-4.116 0.687,-0.521 1.499,-0.835 2.276,-0.914 -1.608,0.393 -3.957,2.859 -2.703,7.319 1.176,4.227 3.091,7.332 4.065,9.23 l 0.01,0.062 c 1.947,3.658 -0.797,4.898 -2.961,3.059 1.533,2.107 5.039,5.542 6.248,6.787 1.196,1.276 0.349,2.566 -2.063,1.908 C 10.269,14.94 4.113,10.295 1.227,4.807 0.277,2.98 -0.146,1.386 0,0"
         style="fill:#eb2227;fill-opacity:1;fill-rule:nonzero;stroke:none"
         id="path274"
         inkscape:connector-curvature="0" /></g><g
       id="g276"
       transform="translate(650.63029,14.67394)"><path
         d="m 0,0 c -1.465,0 -2.832,0.237 -4.111,0.705 -1.266,0.478 -2.381,1.166 -3.33,2.065 -0.922,0.885 -1.655,1.966 -2.197,3.263 -0.524,1.308 -0.797,2.731 -0.797,4.29 0,1.548 0.273,2.977 0.797,4.29 0.55,1.32 1.314,2.462 2.284,3.429 0.955,0.946 2.104,1.677 3.45,2.193 1.332,0.523 2.775,0.783 4.299,0.783 1.098,0 2.109,-0.136 3.021,-0.406 0.906,-0.258 1.68,-0.563 2.309,-0.893 l 0.873,0.767 1.217,0 0.132,-7.284 -1.24,0 c -0.711,2.219 -1.547,3.854 -2.531,4.896 -0.986,1.04 -2.186,1.564 -3.602,1.564 -1.762,0 -3.101,-0.782 -4.021,-2.341 -0.917,-1.541 -1.379,-3.719 -1.379,-6.518 0,-1.586 0.16,-2.934 0.467,-4.064 0.316,-1.12 0.73,-2.016 1.238,-2.703 0.545,-0.71 1.183,-1.237 1.925,-1.574 0.741,-0.333 1.559,-0.491 2.46,-0.491 1.313,0 2.477,0.351 3.504,1.067 1.033,0.715 1.964,1.789 2.808,3.231 L 8.783,5.539 C 8.382,4.714 7.926,3.973 7.406,3.321 6.891,2.672 6.295,2.114 5.621,1.647 4.884,1.128 4.063,0.729 3.166,0.438 2.273,0.147 1.216,0 0,0"
         style="fill:#231f20;fill-opacity:1;fill-rule:nonzero;stroke:none"
         id="path278"
         inkscape:connector-curvature="0" /></g><g
       id="g280"
       transform="translate(677.71229,15.20894)"><path
         d="m 0,0 -8.461,0 0,1.025 c 0.18,0.02 0.405,0.041 0.658,0.074 0.25,0.024 0.441,0.072 0.561,0.139 0.201,0.106 0.328,0.251 0.408,0.45 0.084,0.197 0.127,0.487 0.127,0.872 l 0,6.575 c 0,0.968 -0.179,1.692 -0.545,2.172 -0.363,0.473 -0.867,0.712 -1.537,0.712 -0.377,0 -0.722,-0.052 -1.055,-0.168 -0.31,-0.113 -0.628,-0.274 -0.937,-0.49 -0.273,-0.186 -0.492,-0.379 -0.662,-0.578 -0.161,-0.197 -0.299,-0.369 -0.414,-0.515 l 0,-7.554 c 0,-0.345 0.046,-0.621 0.132,-0.829 0.089,-0.197 0.241,-0.36 0.472,-0.491 0.144,-0.084 0.327,-0.158 0.554,-0.227 0.235,-0.061 0.457,-0.112 0.672,-0.142 l 0,-1.025 -8.549,0 0,1.025 c 0.244,0.02 0.482,0.041 0.703,0.074 0.238,0.024 0.442,0.072 0.627,0.139 0.291,0.112 0.493,0.27 0.601,0.479 0.11,0.214 0.165,0.5 0.165,0.843 l 0,15.67 c 0,0.311 -0.071,0.624 -0.209,0.962 -0.135,0.339 -0.34,0.591 -0.59,0.759 -0.186,0.124 -0.46,0.215 -0.815,0.281 -0.357,0.076 -0.676,0.122 -0.96,0.145 l 0,1.023 6.988,0.367 0.209,-0.225 0,-9.675 0.056,0 c 0.358,0.32 0.678,0.605 0.961,0.857 0.293,0.263 0.643,0.526 1.052,0.788 0.349,0.229 0.798,0.414 1.35,0.572 0.567,0.164 1.171,0.245 1.815,0.245 1.522,0 2.658,-0.436 3.416,-1.31 0.769,-0.867 1.154,-2.02 1.156,-3.443 l 0,-6.891 C -2.051,2.342 -2,2.063 -1.9,1.86 -1.792,1.649 -1.604,1.485 -1.322,1.36 -1.154,1.29 -0.969,1.226 -0.758,1.167 -0.554,1.112 -0.301,1.064 0,1.025"
         style="fill:#231f20;fill-opacity:1;fill-rule:nonzero;stroke:none"
         id="path282"
         inkscape:connector-curvature="0" /></g><g
       id="g284"
       transform="translate(691.66129,27.49694)"><path
         d="m 0,0 c 0.699,-0.649 1.224,-1.417 1.593,-2.318 0.36,-0.903 0.549,-1.881 0.549,-2.925 0,-1.043 -0.189,-2.028 -0.549,-2.951 -0.358,-0.924 -0.887,-1.71 -1.574,-2.368 -0.745,-0.701 -1.627,-1.24 -2.661,-1.612 -1.021,-0.377 -2.191,-0.564 -3.515,-0.564 -1.142,0 -2.193,0.168 -3.164,0.489 -0.955,0.331 -1.803,0.828 -2.542,1.478 -0.714,0.628 -1.277,1.403 -1.688,2.325 -0.41,0.926 -0.618,1.961 -0.618,3.105 0,1.123 0.176,2.12 0.531,2.995 0.367,0.88 0.914,1.663 1.631,2.346 0.695,0.658 1.547,1.163 2.563,1.521 1.022,0.365 2.154,0.548 3.412,0.548 1.312,0 2.47,-0.183 3.465,-0.548 C -1.573,1.163 -0.708,0.658 0,0 m -3.596,-9.743 c 0.203,0.529 0.353,1.159 0.452,1.912 0.096,0.75 0.155,1.62 0.155,2.616 0,0.658 -0.049,1.405 -0.14,2.249 -0.102,0.845 -0.239,1.511 -0.427,1.995 -0.226,0.592 -0.539,1.056 -0.939,1.394 -0.397,0.343 -0.897,0.508 -1.508,0.508 -0.662,0 -1.199,-0.187 -1.6,-0.55 -0.391,-0.364 -0.698,-0.845 -0.916,-1.419 -0.196,-0.54 -0.335,-1.167 -0.412,-1.885 -0.07,-0.711 -0.105,-1.46 -0.105,-2.239 0,-1.022 0.032,-1.867 0.092,-2.541 0.072,-0.667 0.229,-1.339 0.483,-2.011 0.216,-0.586 0.524,-1.04 0.925,-1.378 0.405,-0.337 0.914,-0.504 1.533,-0.504 0.565,0 1.049,0.155 1.45,0.462 0.404,0.319 0.72,0.781 0.957,1.391"
         style="fill:#231f20;fill-opacity:1;fill-rule:nonzero;stroke:none"
         id="path286"
         inkscape:connector-curvature="0" /></g><g
       id="g288"
       transform="translate(702.48129,15.20894)"><path
         d="m 0,0 -8.814,0 0,1.025 c 0.242,0.02 0.472,0.041 0.703,0.074 0.232,0.024 0.439,0.072 0.619,0.139 0.301,0.112 0.5,0.27 0.601,0.479 0.114,0.214 0.17,0.5 0.17,0.843 l 0,15.575 c 0,0.355 -0.076,0.685 -0.227,0.986 -0.138,0.31 -0.327,0.547 -0.572,0.704 -0.193,0.126 -0.478,0.237 -0.859,0.352 -0.377,0.111 -0.709,0.177 -1,0.2 l 0,1.023 7.073,0.367 0.212,-0.225 0,-18.8 c 0,-0.346 0.061,-0.628 0.18,-0.84 C -1.791,1.686 -1.592,1.516 -1.318,1.394 -1.139,1.31 -0.934,1.236 -0.732,1.167 -0.525,1.106 -0.278,1.055 0,1.025"
         style="fill:#231f20;fill-opacity:1;fill-rule:nonzero;stroke:none"
         id="path290"
         inkscape:connector-curvature="0" /></g><g
       id="g292"
       transform="translate(718.20329,15.50594)"><path
         d="m 0,0 c -0.413,-0.176 -0.899,-0.346 -1.461,-0.495 -0.561,-0.147 -1.151,-0.223 -1.786,-0.223 -1.149,0 -1.997,0.168 -2.543,0.506 -0.541,0.349 -0.916,0.84 -1.108,1.472 l -0.083,0 C -7.308,0.945 -7.61,0.674 -7.915,0.446 -8.2,0.226 -8.521,0.029 -8.856,-0.127 c -0.438,-0.201 -0.87,-0.36 -1.275,-0.452 -0.409,-0.104 -0.972,-0.151 -1.704,-0.151 -1.084,0 -2.018,0.314 -2.783,0.956 -0.772,0.644 -1.158,1.496 -1.158,2.559 0,0.608 0.089,1.119 0.257,1.549 0.168,0.427 0.405,0.808 0.72,1.136 0.277,0.296 0.601,0.548 0.964,0.745 0.374,0.198 0.788,0.38 1.225,0.55 0.849,0.303 1.861,0.626 3.037,0.956 1.183,0.337 2.043,0.638 2.592,0.896 l 0,1.354 c 0,0.234 -0.023,0.544 -0.057,0.921 -0.038,0.388 -0.119,0.71 -0.245,0.974 -0.128,0.301 -0.333,0.548 -0.616,0.756 -0.286,0.206 -0.657,0.312 -1.111,0.312 -0.41,0 -0.761,-0.063 -1.037,-0.177 -0.274,-0.116 -0.497,-0.233 -0.664,-0.359 0.026,-0.184 0.104,-0.471 0.239,-0.857 0.134,-0.381 0.194,-0.753 0.194,-1.104 0,-0.165 -0.04,-0.367 -0.125,-0.609 -0.086,-0.237 -0.204,-0.422 -0.367,-0.565 -0.211,-0.186 -0.459,-0.333 -0.725,-0.434 -0.266,-0.105 -0.673,-0.156 -1.225,-0.156 -0.788,0 -1.386,0.187 -1.784,0.56 -0.401,0.383 -0.61,0.884 -0.61,1.493 0,0.527 0.209,0.992 0.618,1.411 0.425,0.417 0.934,0.77 1.536,1.036 0.592,0.281 1.27,0.494 2.036,0.648 0.775,0.158 1.478,0.24 2.14,0.24 0.91,0 1.746,-0.06 2.502,-0.176 0.76,-0.102 1.442,-0.318 2.051,-0.654 0.584,-0.324 1.039,-0.804 1.382,-1.434 0.345,-0.62 0.517,-1.432 0.517,-2.431 0,-1.061 -0.026,-2.322 -0.069,-3.773 -0.037,-1.449 -0.055,-2.405 -0.055,-2.864 0,-0.424 0.059,-0.756 0.181,-1.003 0.129,-0.24 0.325,-0.429 0.59,-0.55 0.157,-0.067 0.407,-0.118 0.75,-0.137 C -0.59,1.028 -0.282,1.028 0,1.028 L 0,0 z M -6.981,7.325 C -7.513,7.146 -8.032,6.94 -8.549,6.711 -9.062,6.479 -9.485,6.242 -9.812,5.99 c -0.349,-0.261 -0.623,-0.602 -0.815,-1.01 -0.196,-0.409 -0.297,-0.881 -0.297,-1.435 0,-0.737 0.167,-1.263 0.489,-1.593 0.345,-0.326 0.756,-0.488 1.243,-0.488 0.513,0 0.94,0.099 1.263,0.307 0.343,0.214 0.635,0.477 0.891,0.788"
         style="fill:#231f20;fill-opacity:1;fill-rule:nonzero;stroke:none"
         id="path294"
         inkscape:connector-curvature="0" /></g><g
       id="g296"
       transform="translate(778.10229,15.20894)"><path
         d="m 0,0 -10.396,0 0,1.05 c 0.308,0.032 0.679,0.073 1.123,0.139 0.447,0.066 0.755,0.13 0.919,0.205 0.333,0.133 0.573,0.318 0.719,0.556 0.139,0.229 0.205,0.528 0.214,0.889 l 0,14.326 -6.599,-16.852 -1.703,0 c -0.08,0.296 -0.283,0.887 -0.609,1.766 -0.318,0.889 -0.57,1.59 -0.767,2.122 l -4.853,13.18 0,-11.662 c 0,-1.122 0.071,-1.973 0.216,-2.554 0.154,-0.58 0.396,-1.005 0.726,-1.274 0.226,-0.19 0.628,-0.366 1.201,-0.541 0.587,-0.168 1,-0.268 1.235,-0.3 l 0,-1.05 -8.24,0 0,1.05 c 0.222,0.032 0.584,0.093 1.086,0.181 0.521,0.098 0.934,0.267 1.259,0.496 0.362,0.255 0.606,0.676 0.733,1.273 0.125,0.604 0.187,1.457 0.187,2.569 l 0,9.504 c 0,0.58 -0.074,1.052 -0.215,1.43 -0.148,0.392 -0.359,0.694 -0.652,0.919 -0.359,0.282 -0.727,0.458 -1.105,0.54 -0.383,0.086 -0.76,0.133 -1.147,0.162 l 0,1.06 8.83,0 4.723,-12.67 3.99,10.291 c 0.135,0.374 0.266,0.832 0.391,1.346 0.125,0.523 0.193,0.866 0.201,1.033 l 8.504,0 0,-1.06 C -0.316,18.105 -0.621,18.069 -0.935,18.018 -1.25,17.962 -1.557,17.888 -1.842,17.8 -2.192,17.685 -2.427,17.498 -2.545,17.248 -2.65,16.994 -2.707,16.715 -2.707,16.409 l 0,-13.581 c 0,-0.327 0.057,-0.602 0.162,-0.831 C -2.427,1.783 -2.192,1.594 -1.842,1.43 -1.664,1.35 -1.365,1.278 -0.966,1.2 -0.549,1.137 -0.235,1.082 0,1.05"
         style="fill:#231f20;fill-opacity:1;fill-rule:nonzero;stroke:none"
         id="path298"
         inkscape:connector-curvature="0" /></g><g
       id="g300"
       transform="translate(787.08129,14.69494)"><path
         d="M 0,0 C -1.17,0 -2.27,0.143 -3.285,0.432 -4.297,0.72 -5.152,1.064 -5.857,1.46 l -0.93,-0.942 -1.147,0 -0.177,6.929 1.162,0 c 0.265,-0.659 0.592,-1.348 0.998,-2.083 0.403,-0.728 0.873,-1.384 1.404,-1.96 0.554,-0.604 1.164,-1.092 1.84,-1.465 0.684,-0.382 1.486,-0.573 2.395,-0.573 1.228,0 2.16,0.296 2.812,0.889 0.658,0.603 0.984,1.361 0.984,2.271 0,0.752 -0.279,1.373 -0.837,1.883 -0.546,0.508 -1.405,0.958 -2.569,1.322 -0.758,0.244 -1.456,0.47 -2.088,0.672 -0.637,0.208 -1.234,0.419 -1.787,0.641 -1.293,0.509 -2.25,1.251 -2.885,2.203 -0.621,0.946 -0.927,2.025 -0.927,3.201 0,0.747 0.16,1.467 0.486,2.155 0.322,0.688 0.791,1.308 1.418,1.86 0.594,0.515 1.353,0.936 2.283,1.258 0.928,0.326 1.937,0.486 3.031,0.486 1.061,0 2.053,-0.147 2.983,-0.443 0.929,-0.288 1.664,-0.582 2.191,-0.882 l 0.826,0.813 1.176,0 0.11,-6.545 -1.164,0 c -0.272,0.705 -0.59,1.418 -0.961,2.145 -0.36,0.743 -0.745,1.359 -1.147,1.84 -0.447,0.527 -0.951,0.941 -1.529,1.251 -0.577,0.315 -1.252,0.468 -2.03,0.468 -0.974,0 -1.769,-0.275 -2.392,-0.82 -0.617,-0.551 -0.916,-1.229 -0.916,-2.04 0,-0.772 0.265,-1.4 0.797,-1.881 0.542,-0.487 1.377,-0.916 2.511,-1.289 0.666,-0.22 1.35,-0.443 2.037,-0.674 0.697,-0.226 1.317,-0.446 1.86,-0.649 C 5.263,10.997 6.258,10.306 6.932,9.405 7.619,8.522 7.962,7.429 7.962,6.109 7.962,5.282 7.766,4.478 7.377,3.704 6.99,2.928 6.468,2.28 5.814,1.774 5.09,1.201 4.258,0.767 3.309,0.461 2.361,0.15 1.262,0 0,0"
         style="fill:#231f20;fill-opacity:1;fill-rule:nonzero;stroke:none"
         id="path302"
         inkscape:connector-curvature="0" /></g><g
       id="g304"
       transform="translate(612.68229,24.97394)"><path
         d="m 0,0 c -1.831,0.75 -3.134,1.764 -2.841,4.334 0.391,3.442 5.809,7.385 7.545,9.346 1.226,1.379 1.507,4.759 1.507,4.759 0,0 1.813,-3.762 -0.292,-6.89 C 5.065,10.278 0.726,6.058 -0.175,3.441 -0.513,2.434 -0.694,1.14 0,0"
         style="fill:#eb2227;fill-opacity:1;fill-rule:nonzero;stroke:none"
         id="path306"
         inkscape:connector-curvature="0" /></g><g
       id="g308"
       transform="translate(609.59829,28.22094)"><path
         d="m 0,0 c -1.817,0.776 -3.276,2.051 -2.935,4.603 0.456,3.443 5.938,7.293 7.704,9.217 1.252,1.359 1.586,4.684 1.586,4.684 0,0 1.753,-3.79 -0.412,-6.889 C 5.068,10.364 0.657,6.224 -0.289,3.621 -0.647,2.627 -0.884,1.33 0,0"
         style="fill:#eb2227;fill-opacity:1;fill-rule:nonzero;stroke:none"
         id="path310"
         inkscape:connector-curvature="0" /></g><g
       id="g312"
       transform="translate(621.55729,27.77794)"><path
         d="m 0,0 c 1.831,-0.745 3.133,-1.758 2.839,-4.321 -0.393,-3.45 -5.811,-7.396 -7.542,-9.351 -1.232,-1.381 -1.511,-4.766 -1.511,-4.766 0,0 -1.812,3.762 0.297,6.899 0.85,1.262 5.191,5.488 6.084,8.102 C 0.517,-2.429 0.692,-1.135 0,0"
         style="fill:#eb2227;fill-opacity:1;fill-rule:nonzero;stroke:none"
         id="path314"
         inkscape:connector-curvature="0" /></g><g
       id="g316"
       transform="translate(624.64029,24.53694)"><path
         d="m 0,0 c 1.814,-0.778 3.272,-2.046 2.934,-4.608 -0.454,-3.434 -5.936,-7.291 -7.705,-9.215 -1.252,-1.357 -1.59,-4.679 -1.59,-4.679 0,0 -1.744,3.793 0.416,6.89 0.879,1.245 5.293,5.388 6.238,7.993 C 0.648,-2.622 0.883,-1.328 0,0"
         style="fill:#eb2227;fill-opacity:1;fill-rule:nonzero;stroke:none"
         id="path318"
         inkscape:connector-curvature="0" /></g><g
       id="g320"
       transform="translate(618.52129,21.94294)"><path
         d="m 0,0 c -0.748,-1.834 -1.76,-3.134 -4.33,-2.844 -3.441,0.393 -7.389,5.813 -9.346,7.544 -1.383,1.233 -4.765,1.512 -4.765,1.512 0,0 3.765,1.809 6.896,-0.301 1.264,-0.845 5.491,-5.188 8.107,-6.087 1,-0.342 2.299,-0.521 3.438,0.176"
         style="fill:#1e4384;fill-opacity:1;fill-rule:nonzero;stroke:none"
         id="path322"
         inkscape:connector-curvature="0" /></g><g
       id="g324"
       transform="translate(615.27329,18.85894)"><path
         d="m 0,0 c -0.773,-1.822 -2.035,-3.271 -4.602,-2.939 -3.441,0.456 -7.289,5.938 -9.212,7.708 -1.366,1.251 -4.688,1.588 -4.688,1.588 0,0 3.795,1.746 6.887,-0.413 1.25,-0.877 5.394,-5.289 7.995,-6.231 C -2.617,-0.65 -1.326,-0.881 0,0"
         style="fill:#1e4384;fill-opacity:1;fill-rule:nonzero;stroke:none"
         id="path326"
         inkscape:connector-curvature="0" /></g><g
       id="g328"
       transform="translate(615.71829,30.81294)"><path
         d="m 0,0 c 0.75,1.836 1.76,3.138 4.322,2.849 3.452,-0.404 7.395,-5.817 9.354,-7.549 1.377,-1.229 4.76,-1.51 4.76,-1.51 0,0 -3.764,-1.811 -6.897,0.296 C 10.277,-5.062 6.055,-0.723 3.44,0.18 2.436,0.517 1.133,0.696 0,0"
         style="fill:#1e4384;fill-opacity:1;fill-rule:nonzero;stroke:none"
         id="path330"
         inkscape:connector-curvature="0" /></g><g
       id="g332"
       transform="translate(618.96129,33.89894)"><path
         d="m 0,0 c 0.778,1.824 2.043,3.276 4.605,2.933 3.442,-0.452 7.29,-5.939 9.214,-7.707 1.361,-1.249 4.683,-1.582 4.683,-1.582 0,0 -3.791,-1.753 -6.887,0.411 C 10.364,-5.074 6.219,-0.657 3.619,0.281 2.622,0.648 1.328,0.882 0,0"
         style="fill:#1e4384;fill-opacity:1;fill-rule:nonzero;stroke:none"
         id="path334"
         inkscape:connector-curvature="0" /></g><g
       id="g336"
       transform="translate(643.55929,3.6469401)"><path
         d="m 0,0 2.521,0 0,-0.214 c -0.277,0 -0.47,-0.026 -0.572,-0.09 C 1.855,-0.346 1.79,-0.443 1.758,-0.573 1.727,-0.705 1.707,-1.024 1.707,-1.523 l 0,-0.623 -0.182,0.024 c -0.218,0 -0.509,-0.069 -0.871,-0.207 -0.486,-0.184 -0.939,-0.272 -1.351,-0.272 -0.84,0 -1.532,0.272 -2.086,0.822 -0.552,0.548 -0.828,1.246 -0.828,2.09 0,0.835 0.262,1.561 0.789,2.195 0.525,0.625 1.244,0.942 2.152,0.942 0.779,0 1.424,-0.288 1.94,-0.86 0.093,0.197 0.154,0.418 0.178,0.649 l 0.2,0 0,-1.95 -0.2,0 C 1.371,1.892 1.135,2.364 0.762,2.714 0.393,3.064 -0.061,3.237 -0.59,3.237 c -0.547,0 -1.023,-0.206 -1.43,-0.61 -0.408,-0.41 -0.609,-1.132 -0.609,-2.17 0,-1.036 0.19,-1.768 0.592,-2.205 0.389,-0.431 0.876,-0.643 1.459,-0.643 0.297,0 0.568,0.062 0.81,0.18 0.243,0.131 0.416,0.27 0.506,0.446 0.083,0.176 0.132,0.4 0.132,0.662 0,0.315 -0.024,0.524 -0.069,0.627 -0.039,0.108 -0.102,0.172 -0.186,0.21 -0.091,0.036 -0.246,0.052 -0.474,0.052 l -0.141,0"
         style="fill:#231f20;fill-opacity:1;fill-rule:nonzero;stroke:none"
         id="path338"
         inkscape:connector-curvature="0" /></g><g
       id="g340"
       transform="translate(652.28929,2.9649401)"><path
         d="m 0,0 0.207,0 -0.126,-1.814 -4.829,0 0,0.197 0.116,0 c 0.289,0 0.478,0.04 0.564,0.121 0.082,0.075 0.141,0.171 0.16,0.29 0.027,0.12 0.037,0.424 0.037,0.913 l 0,2.861 c 0,0.448 -0.011,0.736 -0.041,0.879 -0.027,0.14 -0.08,0.235 -0.17,0.294 -0.088,0.055 -0.266,0.082 -0.55,0.082 l 0,0.201 4.171,0 0.137,-1.456 -0.197,0 C -0.615,2.979 -0.732,3.263 -0.865,3.431 -0.992,3.605 -1.154,3.714 -1.341,3.758 -1.527,3.8 -1.813,3.823 -2.227,3.823 l -0.806,0 0,-2.451 0.619,0 c 0.282,0 0.485,0.025 0.59,0.077 0.115,0.048 0.193,0.125 0.226,0.219 0.034,0.098 0.057,0.302 0.057,0.582 l 0.2,0 0,-1.999 -0.2,0 c 0,0.323 -0.025,0.545 -0.08,0.651 -0.054,0.108 -0.136,0.187 -0.239,0.213 -0.107,0.032 -0.285,0.056 -0.538,0.056 l -0.635,0 0,-1.381 c 0,-0.696 0.043,-1.099 0.133,-1.223 0.089,-0.126 0.324,-0.184 0.716,-0.184 l 0.438,0 c 0.305,0 0.557,0.04 0.754,0.121 0.202,0.079 0.39,0.237 0.57,0.484 C -0.246,-0.769 -0.1,-0.428 0,0"
         style="fill:#231f20;fill-opacity:1;fill-rule:nonzero;stroke:none"
         id="path342"
         inkscape:connector-curvature="0" /></g><g
       id="g344"
       transform="translate(659.16429,1.0199401)"><path
         d="m 0,0 -4.129,5.468 0,-4.046 c 0,-0.338 0.011,-0.559 0.047,-0.664 0.034,-0.111 0.129,-0.205 0.285,-0.294 0.153,-0.089 0.389,-0.136 0.699,-0.136 l 0,-0.197 -2.182,0 0,0.197 c 0.283,0.019 0.495,0.076 0.644,0.152 0.146,0.082 0.228,0.176 0.255,0.269 0.031,0.094 0.045,0.318 0.045,0.673 l 0,3.092 c 0,0.449 -0.025,0.748 -0.066,0.899 -0.045,0.152 -0.104,0.248 -0.2,0.292 -0.084,0.04 -0.293,0.064 -0.598,0.064 l 0,0.201 1.718,0 3.453,-4.568 0,3.487 c 0,0.262 -0.025,0.445 -0.078,0.545 -0.051,0.109 -0.161,0.188 -0.328,0.247 -0.153,0.058 -0.352,0.088 -0.589,0.088 l 0,0.201 2.125,0 0,-0.201 C 0.852,5.745 0.652,5.703 0.512,5.627 0.37,5.556 0.282,5.468 0.243,5.355 0.205,5.255 0.18,5.079 0.18,4.827 L 0.18,0"
         style="fill:#231f20;fill-opacity:1;fill-rule:nonzero;stroke:none"
         id="path346"
         inkscape:connector-curvature="0" /></g><g
       id="g348"
       transform="translate(666.35129,2.9649401)"><path
         d="m 0,0 0.202,0 -0.123,-1.814 -4.833,0 0,0.197 0.125,0 c 0.283,0 0.471,0.04 0.554,0.121 0.091,0.075 0.138,0.171 0.167,0.29 0.016,0.12 0.033,0.424 0.033,0.913 l 0,2.861 c 0,0.448 -0.017,0.736 -0.039,0.879 -0.023,0.14 -0.08,0.235 -0.168,0.294 -0.091,0.055 -0.272,0.082 -0.547,0.082 l 0,0.201 4.171,0 0.133,-1.456 -0.206,0 C -0.621,2.979 -0.733,3.263 -0.869,3.431 -1.002,3.605 -1.156,3.714 -1.34,3.758 -1.525,3.8 -1.825,3.823 -2.228,3.823 l -0.81,0 0,-2.451 0.622,0 c 0.282,0 0.479,0.025 0.591,0.077 0.11,0.048 0.19,0.125 0.229,0.219 0.037,0.098 0.053,0.302 0.053,0.582 l 0.203,0 0,-1.999 -0.203,0 c 0,0.323 -0.032,0.545 -0.081,0.651 -0.057,0.108 -0.138,0.187 -0.243,0.213 -0.101,0.032 -0.276,0.056 -0.528,0.056 l -0.643,0 0,-1.381 c 0,-0.696 0.044,-1.099 0.132,-1.223 0.092,-0.126 0.334,-0.184 0.719,-0.184 l 0.438,0 c 0.31,0 0.56,0.04 0.753,0.121 0.2,0.079 0.388,0.237 0.57,0.484 C -0.252,-0.769 -0.103,-0.428 0,0"
         style="fill:#231f20;fill-opacity:1;fill-rule:nonzero;stroke:none"
         id="path350"
         inkscape:connector-curvature="0" /></g><g
       id="g352"
       transform="translate(674.20329,1.1499401)"><path
         d="m 0,0 -1.573,0 c -0.279,0.189 -0.702,0.708 -1.275,1.534 -0.185,0.265 -0.379,0.52 -0.57,0.755 -0.206,0.246 -0.334,0.394 -0.416,0.441 -0.07,0.056 -0.187,0.086 -0.344,0.086 l -0.232,0 0,-1.295 c 0,-0.463 0.014,-0.756 0.032,-0.9 0.015,-0.144 0.073,-0.246 0.167,-0.315 0.094,-0.073 0.273,-0.109 0.542,-0.109 l 0.274,0 0,-0.197 -2.791,0 0,0.197 0.195,0 c 0.249,0 0.417,0.034 0.511,0.096 0.093,0.064 0.161,0.162 0.185,0.29 0.027,0.142 0.04,0.449 0.04,0.938 l 0,2.862 c 0,0.471 -0.013,0.766 -0.04,0.899 -0.024,0.138 -0.086,0.23 -0.169,0.281 -0.092,0.047 -0.28,0.075 -0.581,0.075 l -0.094,0 0,0.201 0.828,0.043 c 0.559,0.025 1.003,0.033 1.331,0.033 0.555,0 1.009,-0.049 1.357,-0.156 0.348,-0.098 0.631,-0.268 0.846,-0.501 0.211,-0.237 0.32,-0.521 0.32,-0.847 0,-0.379 -0.136,-0.705 -0.421,-0.978 C -2.154,3.169 -2.576,3 -3.123,2.93 -2.871,2.816 -2.479,2.391 -1.934,1.657 -1.49,1.066 -1.15,0.677 -0.896,0.495 -0.641,0.31 -0.348,0.212 0,0.197 L 0,0 z m -4.41,3.017 c 0.219,0.004 0.431,0.011 0.67,0.024 0.221,0.01 0.429,0.04 0.594,0.097 0.169,0.049 0.3,0.126 0.407,0.217 0.108,0.104 0.191,0.233 0.257,0.398 0.05,0.157 0.084,0.351 0.084,0.591 0,0.41 -0.105,0.741 -0.308,0.985 -0.204,0.245 -0.648,0.372 -1.34,0.372 -0.105,0 -0.227,-0.011 -0.364,-0.016"
         style="fill:#231f20;fill-opacity:1;fill-rule:nonzero;stroke:none"
         id="path354"
         inkscape:connector-curvature="0" /></g><g
       id="g356"
       transform="translate(678.99229,3.3079401)"><path
         d="m 0,0 -2.214,0 -0.157,-0.371 c -0.214,-0.541 -0.325,-0.889 -0.325,-1.054 0,-0.177 0.052,-0.307 0.173,-0.399 0.119,-0.089 0.272,-0.136 0.462,-0.136 l 0,-0.197 -1.737,0 0,0.197 c 0.257,0.04 0.452,0.13 0.578,0.273 0.128,0.142 0.277,0.446 0.454,0.901 0.013,0.04 0.082,0.21 0.203,0.493 l 1.7,4.06 0.165,0 1.952,-4.635 0.27,-0.614 c 0.059,-0.14 0.141,-0.25 0.242,-0.328 0.098,-0.078 0.254,-0.131 0.455,-0.15 l 0,-0.197 -2.291,0 0,0.197 c 0.279,0 0.472,0.019 0.57,0.061 0.1,0.047 0.147,0.126 0.147,0.25 0,0.062 -0.063,0.256 -0.198,0.562 L 0,0 z M -0.07,0.193 -1.101,2.679 -2.135,0.193"
         style="fill:#231f20;fill-opacity:1;fill-rule:nonzero;stroke:none"
         id="path358"
         inkscape:connector-curvature="0" /></g><g
       id="g360"
       transform="translate(687.38429,2.8679401)"><path
         d="m 0,0 -0.048,-1.718 -4.956,0 0,0.197 0.173,0 c 0.248,0 0.417,0.035 0.515,0.096 0.093,0.065 0.158,0.158 0.183,0.29 0.028,0.142 0.045,0.449 0.045,0.939 l 0,2.861 c 0,0.471 -0.017,0.767 -0.045,0.899 -0.025,0.138 -0.079,0.23 -0.172,0.282 -0.084,0.047 -0.278,0.074 -0.572,0.074 l -0.127,0 0,0.201 2.805,0 0,-0.201 -0.264,0 C -2.747,3.92 -2.935,3.893 -3.025,3.851 -3.113,3.806 -3.178,3.715 -3.203,3.585 -3.234,3.461 -3.254,3.148 -3.254,2.665 l 0,-3.057 c 0,-0.421 0.018,-0.682 0.041,-0.791 0.023,-0.104 0.08,-0.187 0.18,-0.249 0.105,-0.054 0.334,-0.089 0.664,-0.089 l 0.44,0 c 0.359,0 0.621,0.035 0.8,0.096 0.17,0.065 0.336,0.202 0.492,0.415 0.156,0.21 0.306,0.549 0.428,1.01"
         style="fill:#231f20;fill-opacity:1;fill-rule:nonzero;stroke:none"
         id="path362"
         inkscape:connector-curvature="0" /></g><g
       id="g364"
       transform="translate(691.82129,6.7879401)"><path
         d="m 0,0 0,0.201 2.668,0 0,-0.201 -0.12,0 C 2.259,0 2.068,-0.023 1.982,-0.069 1.892,-0.114 1.834,-0.207 1.8,-0.331 1.771,-0.465 1.757,-0.776 1.757,-1.255 l 0,-2.861 c 0,-0.464 0.014,-0.757 0.03,-0.904 C 1.812,-5.161 1.864,-5.263 1.962,-5.332 2.05,-5.404 2.234,-5.44 2.496,-5.44 l 0.172,0 0,-0.198 -2.668,0 0,0.198 0.178,0 c 0.245,0 0.415,0.034 0.517,0.095 0.094,0.065 0.152,0.162 0.178,0.29 0.023,0.142 0.041,0.45 0.041,0.939 l 0,2.861 c 0,0.471 -0.018,0.767 -0.041,0.9 C 0.847,-0.224 0.792,-0.126 0.701,-0.074 0.612,-0.023 0.423,0 0.121,0"
         style="fill:#231f20;fill-opacity:1;fill-rule:nonzero;stroke:none"
         id="path366"
         inkscape:connector-curvature="0" /></g><g
       id="g368"
       transform="translate(701.11529,1.0199401)"><path
         d="m 0,0 -4.128,5.468 0,-4.046 c 0,-0.338 0.016,-0.559 0.044,-0.664 0.037,-0.111 0.128,-0.205 0.285,-0.294 0.158,-0.089 0.388,-0.136 0.695,-0.136 l 0,-0.197 -2.176,0 0,0.197 c 0.276,0.019 0.492,0.076 0.635,0.152 0.147,0.082 0.234,0.176 0.26,0.269 0.029,0.094 0.043,0.318 0.043,0.673 l 0,3.092 c 0,0.449 -0.022,0.748 -0.063,0.899 -0.039,0.152 -0.108,0.248 -0.197,0.292 -0.092,0.04 -0.287,0.064 -0.607,0.064 l 0,0.201 1.726,0 3.453,-4.568 0,3.487 c 0,0.262 -0.023,0.445 -0.078,0.545 -0.056,0.109 -0.161,0.188 -0.326,0.247 -0.166,0.058 -0.358,0.088 -0.588,0.088 l 0,0.201 2.12,0 0,-0.201 C 0.847,5.745 0.654,5.703 0.505,5.627 0.373,5.556 0.275,5.468 0.236,5.355 0.199,5.255 0.179,5.079 0.179,4.827 L 0.179,0"
         style="fill:#231f20;fill-opacity:1;fill-rule:nonzero;stroke:none"
         id="path370"
         inkscape:connector-curvature="0" /></g><g
       id="g372"
       transform="translate(703.77629,1.2149401)"><path
         d="m 0,0 0,1.874 0.209,0 C 0.459,0.653 1.029,0.04 1.945,0.04 c 0.41,0 0.727,0.121 0.951,0.351 0.229,0.235 0.338,0.492 0.338,0.79 0,0.289 -0.095,0.537 -0.295,0.733 C 2.742,2.106 2.379,2.316 1.854,2.54 1.387,2.741 1.029,2.912 0.795,3.069 0.559,3.217 0.37,3.416 0.236,3.659 0.105,3.893 0.043,4.152 0.043,4.428 c 0,0.418 0.141,0.762 0.426,1.036 0.288,0.279 0.662,0.417 1.095,0.417 0.245,0 0.485,-0.04 0.699,-0.121 C 2.48,5.682 2.706,5.516 2.934,5.265 3.066,5.427 3.145,5.591 3.156,5.774 l 0.192,0 0,-1.527 -0.192,0 C 3.047,4.689 2.857,5.035 2.576,5.294 2.299,5.55 1.979,5.682 1.619,5.682 1.271,5.682 1.016,5.581 0.853,5.394 0.691,5.208 0.613,5.003 0.613,4.779 0.613,4.511 0.715,4.279 0.918,4.093 1.119,3.907 1.48,3.693 2.008,3.46 2.508,3.236 2.871,3.052 3.095,2.912 3.326,2.781 3.516,2.594 3.65,2.351 3.789,2.113 3.861,1.829 3.861,1.519 3.861,1.02 3.693,0.619 3.357,0.3 3.024,-0.011 2.576,-0.168 2.021,-0.168 1.383,-0.168 0.853,0.075 0.417,0.563 0.328,0.431 0.256,0.241 0.209,0"
         style="fill:#231f20;fill-opacity:1;fill-rule:nonzero;stroke:none"
         id="path374"
         inkscape:connector-curvature="0" /></g><g
       id="g376"
       transform="translate(713.66329,6.9889401)"><path
         d="m 0,0 1.952,0 0,-0.201 C 1.688,-0.218 1.502,-0.275 1.37,-0.377 1.241,-0.475 1.166,-0.584 1.136,-0.706 1.113,-0.833 1.09,-1.068 1.09,-1.426 l 0,-1.94 c 0,-0.499 -0.017,-0.868 -0.058,-1.11 -0.037,-0.239 -0.145,-0.474 -0.334,-0.71 -0.18,-0.231 -0.448,-0.418 -0.78,-0.55 -0.338,-0.14 -0.727,-0.206 -1.162,-0.206 -0.52,0 -0.961,0.085 -1.319,0.255 -0.363,0.183 -0.618,0.405 -0.771,0.689 -0.158,0.283 -0.23,0.655 -0.23,1.127 l 0.007,0.599 0,1.816 c 0,0.461 -0.017,0.767 -0.044,0.899 -0.026,0.132 -0.083,0.23 -0.17,0.282 -0.092,0.05 -0.284,0.074 -0.574,0.074 l -0.135,0 0,0.201 2.664,0 0,-0.201 -0.118,0 c -0.282,0 -0.473,-0.024 -0.564,-0.07 -0.088,-0.044 -0.151,-0.137 -0.175,-0.265 -0.032,-0.13 -0.043,-0.442 -0.043,-0.92 l 0,-1.837 c 0,-0.638 0.023,-1.088 0.079,-1.354 0.065,-0.271 0.23,-0.501 0.5,-0.708 0.276,-0.198 0.637,-0.294 1.089,-0.294 0.36,0 0.683,0.066 0.97,0.204 0.297,0.132 0.51,0.299 0.647,0.495 0.148,0.202 0.236,0.402 0.267,0.616 0.027,0.21 0.047,0.543 0.047,0.999 l 0,1.988 c 0,0.329 -0.02,0.564 -0.059,0.689 -0.036,0.136 -0.115,0.233 -0.24,0.315 C 0.463,-0.265 0.269,-0.218 0,-0.201"
         style="fill:#231f20;fill-opacity:1;fill-rule:nonzero;stroke:none"
         id="path378"
         inkscape:connector-curvature="0" /></g><g
       id="g380"
       transform="translate(723.18029,1.1499401)"><path
         d="M 0,0 -1.571,0 C -1.847,0.189 -2.276,0.708 -2.847,1.534 -3.03,1.799 -3.228,2.054 -3.423,2.289 -3.62,2.535 -3.757,2.683 -3.832,2.73 -3.905,2.786 -4.019,2.816 -4.181,2.816 l -0.23,0 0,-1.295 c 0,-0.463 0.008,-0.756 0.031,-0.9 0.018,-0.144 0.08,-0.246 0.17,-0.315 0.098,-0.073 0.272,-0.109 0.543,-0.109 l 0.278,0 0,-0.197 -2.796,0 0,0.197 0.192,0 c 0.244,0 0.42,0.034 0.516,0.096 0.098,0.064 0.156,0.162 0.181,0.29 0.027,0.142 0.037,0.449 0.037,0.938 l 0,2.862 c 0,0.471 -0.01,0.766 -0.037,0.899 -0.025,0.138 -0.078,0.23 -0.17,0.281 -0.084,0.047 -0.283,0.075 -0.577,0.075 l -0.098,0 0,0.201 0.839,0.043 c 0.551,0.025 0.993,0.033 1.321,0.033 0.554,0 1.011,-0.049 1.353,-0.156 0.352,-0.098 0.631,-0.268 0.852,-0.501 0.216,-0.237 0.318,-0.521 0.318,-0.847 0,-0.379 -0.138,-0.705 -0.416,-0.978 C -2.155,3.169 -2.569,3 -3.114,2.93 -2.87,2.816 -2.485,2.391 -1.938,1.657 -1.501,1.066 -1.146,0.677 -0.894,0.495 -0.644,0.31 -0.343,0.212 0,0.197 L 0,0 z m -4.411,3.017 c 0.219,0.004 0.437,0.011 0.668,0.024 0.234,0.01 0.428,0.04 0.597,0.097 0.172,0.049 0.303,0.126 0.409,0.217 0.103,0.104 0.189,0.233 0.252,0.398 0.058,0.157 0.088,0.351 0.088,0.591 0,0.41 -0.1,0.741 -0.307,0.985 -0.207,0.245 -0.654,0.372 -1.34,0.372 -0.109,0 -0.23,-0.011 -0.367,-0.016"
         style="fill:#231f20;fill-opacity:1;fill-rule:nonzero;stroke:none"
         id="path382"
         inkscape:connector-curvature="0" /></g><g
       id="g384"
       transform="translate(727.97029,3.3079401)"><path
         d="m 0,0 -2.213,0 -0.15,-0.371 c -0.225,-0.541 -0.338,-0.889 -0.338,-1.054 0,-0.177 0.058,-0.307 0.177,-0.399 0.122,-0.089 0.272,-0.136 0.457,-0.136 l 0,-0.197 -1.73,0 0,0.197 c 0.256,0.04 0.449,0.13 0.576,0.273 0.122,0.142 0.28,0.446 0.457,0.901 0.016,0.04 0.077,0.21 0.202,0.493 l 1.697,4.06 0.166,0 1.954,-4.635 0.265,-0.614 c 0.062,-0.14 0.139,-0.25 0.236,-0.328 0.111,-0.078 0.262,-0.131 0.465,-0.15 l 0,-0.197 -2.291,0 0,0.197 c 0.28,0 0.467,0.019 0.563,0.061 0.104,0.047 0.152,0.126 0.152,0.25 0,0.062 -0.065,0.256 -0.195,0.562 L 0,0 z M -0.07,0.193 -1.103,2.679 -2.139,0.193"
         style="fill:#231f20;fill-opacity:1;fill-rule:nonzero;stroke:none"
         id="path386"
         inkscape:connector-curvature="0" /></g><g
       id="g388"
       transform="translate(736.53429,1.0199401)"><path
         d="m 0,0 -4.128,5.468 0,-4.046 c 0,-0.338 0.017,-0.559 0.048,-0.664 0.032,-0.111 0.127,-0.205 0.283,-0.294 0.152,-0.089 0.385,-0.136 0.695,-0.136 l 0,-0.197 -2.175,0 0,0.197 c 0.277,0.019 0.486,0.076 0.634,0.152 0.148,0.082 0.238,0.176 0.263,0.269 0.026,0.094 0.045,0.318 0.045,0.673 l 0,3.092 c 0,0.449 -0.026,0.748 -0.07,0.899 -0.04,0.152 -0.105,0.248 -0.2,0.292 -0.089,0.04 -0.286,0.064 -0.6,0.064 l 0,0.201 1.721,0 3.455,-4.568 0,3.487 c 0,0.262 -0.026,0.445 -0.08,0.545 -0.053,0.109 -0.159,0.188 -0.325,0.247 -0.164,0.058 -0.358,0.088 -0.591,0.088 l 0,0.201 2.125,0 0,-0.201 C 0.854,5.745 0.648,5.703 0.506,5.627 0.367,5.556 0.281,5.468 0.236,5.355 0.197,5.255 0.182,5.079 0.182,4.827 L 0.182,0"
         style="fill:#231f20;fill-opacity:1;fill-rule:nonzero;stroke:none"
         id="path390"
         inkscape:connector-curvature="0" /></g><g
       id="g392"
       transform="translate(744.25529,3.3419401)"><path
         d="m 0,0 0.184,0 0,-2.041 -0.184,0 c -0.051,0.231 -0.148,0.433 -0.281,0.618 -0.516,-0.585 -1.168,-0.872 -1.965,-0.872 -0.844,0 -1.536,0.267 -2.07,0.796 -0.536,0.535 -0.805,1.241 -0.805,2.117 0,0.579 0.125,1.123 0.371,1.629 0.248,0.51 0.596,0.891 1.037,1.136 0.444,0.25 0.924,0.371 1.45,0.371 0.439,0 0.834,-0.088 1.187,-0.27 0.352,-0.184 0.623,-0.373 0.795,-0.592 0.127,0.246 0.199,0.491 0.227,0.755 l 0.187,0 0.051,-2.212 -0.184,0 c -0.131,0.787 -0.392,1.334 -0.791,1.64 -0.394,0.306 -0.842,0.46 -1.341,0.46 -0.616,0 -1.104,-0.252 -1.464,-0.744 -0.355,-0.497 -0.535,-1.206 -0.535,-2.131 0,-0.878 0.192,-1.548 0.586,-2.015 0.396,-0.461 0.885,-0.697 1.471,-0.697 0.311,0 0.629,0.073 0.957,0.225 0.33,0.152 0.586,0.41 0.777,0.771 C -0.148,-0.687 -0.033,-0.34 0,0"
         style="fill:#231f20;fill-opacity:1;fill-rule:nonzero;stroke:none"
         id="path394"
         inkscape:connector-curvature="0" /></g><g
       id="g396"
       transform="translate(751.02229,2.9649401)"><path
         d="m 0,0 0.207,0 -0.129,-1.814 -4.834,0 0,0.197 0.119,0 c 0.293,0 0.483,0.04 0.566,0.121 0.081,0.075 0.132,0.171 0.163,0.29 0.021,0.12 0.032,0.424 0.032,0.913 l 0,2.861 c 0,0.448 -0.013,0.736 -0.034,0.879 -0.029,0.14 -0.084,0.235 -0.178,0.294 -0.08,0.055 -0.259,0.082 -0.549,0.082 l 0,0.201 4.174,0 0.145,-1.456 -0.213,0 C -0.617,2.979 -0.732,3.263 -0.867,3.431 -0.998,3.605 -1.156,3.714 -1.342,3.758 -1.521,3.8 -1.82,3.823 -2.23,3.823 l -0.801,0 0,-2.451 0.614,0 c 0.284,0 0.482,0.025 0.595,0.077 0.113,0.048 0.188,0.125 0.228,0.219 0.035,0.098 0.049,0.302 0.049,0.582 l 0.203,0 0,-1.999 -0.203,0 c 0,0.323 -0.027,0.545 -0.078,0.651 -0.057,0.108 -0.141,0.187 -0.242,0.213 -0.106,0.032 -0.28,0.056 -0.53,0.056 l -0.636,0 0,-1.381 c 0,-0.696 0.037,-1.099 0.131,-1.223 0.085,-0.126 0.326,-0.184 0.716,-0.184 l 0.435,0 c 0.311,0 0.558,0.04 0.755,0.121 0.197,0.079 0.387,0.237 0.564,0.484 C -0.248,-0.769 -0.105,-0.428 0,0"
         style="fill:#231f20;fill-opacity:1;fill-rule:nonzero;stroke:none"
         id="path398"
         inkscape:connector-curvature="0" /></g></g></svg>