<?xml version="1.0" encoding="UTF-8"?>
<svg xmlns="http://www.w3.org/2000/svg" xmlns:xlink="http://www.w3.org/1999/xlink" width="793pt" height="208pt" viewBox="0 0 793 208" version="1.1">
<g id="surface1">
<path style=" stroke:none;fill-rule:evenodd;fill:rgb(5.099487%,40.79895%,70.199585%);fill-opacity:1;" d="M 118.75 41.964844 C 153.007813 41.964844 180.789063 69.746094 180.789063 104 C 180.789063 137.957031 153.484375 165.546875 119.640625 166.023438 L 148.28125 114.3125 L 167.777344 114.3125 L 178.335938 95.242188 L 129.320313 95.242188 L 118.765625 114.3125 L 137.0625 114.3125 L 108.855469 165.246094 C 79.300781 160.503906 56.714844 134.886719 56.714844 104 C 56.714844 75.988281 75.292969 52.308594 100.796875 44.605469 L 72.753906 95.242188 L 72.75 95.242188 L 62.195313 114.3125 L 111.207031 114.3125 L 121.765625 95.242188 L 83.972656 95.242188 L 113.347656 42.199219 C 115.128906 42.046875 116.929688 41.964844 118.75 41.964844 Z M 118.75 32.921875 C 158 32.921875 189.832031 64.75 189.832031 104 C 189.832031 143.25 158 175.082031 118.75 175.082031 C 79.5 175.082031 47.671875 143.25 47.671875 104 C 47.671875 64.75 79.5 32.921875 118.75 32.921875 "/>
<path style=" stroke:none;fill-rule:nonzero;fill:rgb(13.699341%,12.199402%,12.5%);fill-opacity:1;" d="M 220.316406 123.035156 L 246.972656 123.035156 L 248.5625 115.914063 L 231.429688 115.914063 L 238.308594 84.957031 L 228.785156 84.957031 Z M 277.472656 113.148438 L 278.398438 123.035156 L 288.386719 123.035156 L 283.160156 84.957031 L 270.925781 84.957031 L 249.21875 123.035156 L 259.351563 123.035156 L 264.640625 113.148438 Z M 267.421875 106.933594 L 271.851563 98.742188 C 273.042969 96.539063 274.296875 93.601563 275.421875 91.285156 L 275.554688 91.285156 C 275.753906 93.601563 276.019531 96.652344 276.21875 98.742188 L 277.078125 106.933594 Z M 292.03125 123.035156 L 301.492188 123.035156 L 304.796875 108.007813 L 307.710938 108.007813 C 311.480469 108.007813 313.332031 109.417969 313.726563 114.050781 C 314.191406 118.738281 314.652344 122.015625 315.050781 123.035156 L 324.839844 123.035156 C 324.046875 121.453125 323.648438 116.480469 323.121094 112.242188 C 322.65625 108.796875 321.53125 106.257813 318.886719 105.296875 L 318.886719 105.070313 C 324.574219 103.488281 329.007813 99.984375 329.007813 94.335938 C 329.007813 90.777344 326.957031 88.347656 324.046875 86.878906 C 320.9375 85.238281 316.570313 84.675781 312.339844 84.675781 C 307.90625 84.675781 303.410156 85.070313 300.433594 85.691406 Z M 308.570313 91.398438 C 309.363281 91.230469 310.488281 91.113281 312.273438 91.113281 C 316.042969 91.113281 319.085938 92.472656 319.085938 95.519531 C 319.085938 99.25 315.316406 101.90625 310.15625 101.90625 L 306.1875 101.90625 Z M 328.152344 120.886719 C 330.269531 122.242188 334.699219 123.550781 340.917969 123.664063 C 350.839844 123.664063 359.042969 119.25 359.042969 110.773438 C 359.042969 106.257813 355.605469 103.148438 350.179688 100.71875 C 346.410156 98.910156 343.695313 97.554688 343.695313 95.351563 C 343.695313 93.261719 346.011719 91.339844 350.445313 91.339844 C 354.148438 91.285156 357.324219 92.359375 358.777344 93.035156 L 361.757813 86.3125 C 359.835938 85.351563 356.660156 84.335938 351.238281 84.335938 C 341.515625 84.335938 333.644531 89.023438 333.644531 96.707031 C 333.644531 101.679688 338.140625 104.617188 342.902344 106.820313 C 347.003906 108.628906 348.921875 110.039063 348.921875 112.1875 C 348.921875 115.179688 345.550781 116.648438 341.847656 116.648438 C 337.746094 116.648438 333.976563 115.578125 331.328125 114.21875 Z M 392.453125 100.039063 L 376.578125 100.039063 L 378.429688 91.90625 L 395.230469 91.90625 L 396.820313 84.957031 L 370.425781 84.957031 L 361.960938 123.035156 L 389.277344 123.035156 L 390.800781 116.085938 L 373.003906 116.085938 L 375.054688 106.878906 L 390.929688 106.878906 Z M 403.835938 123.035156 L 406.746094 109.703125 C 408.070313 103.714844 409.128906 98.347656 409.65625 94.617188 L 409.855469 94.5625 C 411.046875 99.25 412.234375 102.695313 414.222656 107.835938 L 420.4375 123.035156 L 430.292969 123.035156 L 438.695313 84.957031 L 429.832031 84.957031 L 426.789063 98.800781 C 425.53125 104.390625 424.9375 108.570313 424.738281 112.46875 L 424.539063 112.46875 C 423.480469 108.289063 422.289063 104.335938 420.503906 99.476563 L 414.617188 84.957031 L 403.4375 84.957031 L 394.972656 123.035156 Z M 489.105469 123.035156 C 486.589844 120.546875 484.339844 118.0625 482.621094 115.914063 C 487.714844 111.847656 490.757813 106.933594 493.140625 101.113281 L 484.40625 101.113281 C 483.019531 104.503906 481.101563 108.007813 478.257813 110.773438 C 476.46875 108.683594 474.023438 105.859375 472.300781 103.488281 L 472.300781 103.316406 C 479.445313 100.492188 483.347656 97.21875 483.347656 92.808594 C 483.347656 87.726563 478.71875 84.335938 472.039063 84.335938 C 463.835938 84.335938 458.082031 89.082031 458.082031 95.238281 C 458.082031 97.554688 459.140625 99.757813 460.527344 101.679688 L 460.464844 101.847656 C 454.710938 104.109375 449.746094 107.78125 449.746094 113.597656 C 449.746094 119.757813 455.238281 123.664063 463.507813 123.664063 C 468.863281 123.664063 472.632813 122.242188 475.410156 120.433594 C 476.269531 121.339844 476.933594 122.1875 477.859375 123.035156 Z M 466.152344 117.554688 C 461.71875 117.554688 459.402344 115.125 459.402344 112.1875 C 459.402344 109.304688 461.785156 107.441406 463.769531 106.199219 C 466.351563 109.644531 469.394531 113.203125 471.640625 115.746094 C 470.320313 116.761719 468.597656 117.554688 466.21875 117.554688 Z M 471.246094 89.589844 C 473.757813 89.589844 474.882813 91.113281 474.882813 92.867188 C 474.882813 95.691406 472.039063 97.78125 468.597656 99.136719 C 467.410156 97.726563 466.613281 96.199219 466.613281 94.449219 C 466.613281 91.679688 468.664063 89.589844 471.179688 89.589844 Z M 513.1875 123.035156 L 522.714844 123.035156 L 529.527344 92.074219 L 541.433594 92.074219 L 543.019531 84.957031 L 509.878906 84.957031 L 508.226563 92.074219 L 520 92.074219 Z M 564.058594 84.335938 C 557.644531 84.335938 551.957031 86.371094 547.789063 89.761719 C 542.5625 94.054688 539.585938 100.886719 539.585938 107.78125 C 539.585938 116.648438 546.066406 123.664063 557.644531 123.664063 C 564.324219 123.664063 569.945313 121.621094 574.113281 118.175781 C 579.207031 113.882813 582.050781 107.160156 582.050781 100.210938 C 582.050781 91.113281 575.835938 84.335938 564.058594 84.335938 Z M 562.9375 91.113281 C 569.945313 91.113281 571.933594 95.691406 571.933594 100.4375 C 571.933594 104.84375 570.011719 111.113281 566.507813 114.109375 C 564.457031 115.800781 561.8125 116.875 559.03125 116.875 C 552.550781 116.875 549.707031 112.863281 549.707031 107.496094 C 549.707031 102.921875 551.691406 97.046875 555.261719 93.996094 C 557.3125 92.246094 559.960938 91.113281 562.9375 91.113281 Z M 591.382813 84.957031 L 586.6875 106.199219 C 586.289063 108.007813 586.027344 109.871094 586.027344 111.507813 C 586.027344 119.644531 591.648438 123.722656 600.84375 123.664063 C 612.945313 123.664063 618.898438 118.117188 621.480469 106.59375 L 626.308594 84.957031 L 616.785156 84.957031 L 611.886719 106.933594 C 610.300781 113.996094 606.996094 116.820313 602.035156 116.820313 C 597.734375 116.820313 595.550781 114.445313 595.550781 111.394531 C 595.550781 109.703125 595.683594 108.175781 596.015625 106.878906 L 600.910156 84.957031 Z M 625.320313 122.582031 C 627.503906 122.976563 631.539063 123.324219 636.566406 123.324219 C 643.976563 123.324219 649.597656 122.355469 653.367188 120.210938 C 656.875 118.230469 659.453125 115.238281 659.453125 111.167969 C 659.453125 106.988281 656.742188 103.996094 652.441406 102.863281 L 652.441406 102.695313 C 657.269531 101.511719 661.4375 98.460938 661.4375 93.65625 C 661.4375 90.4375 659.253906 88.007813 656.277344 86.710938 C 653.300781 85.183594 649.863281 84.675781 645.230469 84.675781 C 640.800781 84.675781 636.699219 85.070313 633.523438 85.578125 Z M 641.726563 91.285156 C 642.453125 91.113281 643.777344 91.003906 645.429688 91.003906 C 649.070313 91.003906 651.714844 92.1875 651.714844 94.957031 C 651.714844 98.175781 648.144531 100.097656 642.917969 100.097656 L 639.742188 100.097656 Z M 638.285156 106.027344 L 641.265625 106.027344 C 645.695313 106.027344 649.398438 107.160156 649.398438 110.945313 C 649.398438 115.179688 644.703125 116.933594 639.542969 116.933594 C 638.152344 116.933594 637.03125 116.875 635.90625 116.761719 Z M 662.566406 123.035156 L 672.027344 123.035156 L 675.335938 108.007813 L 678.246094 108.007813 C 682.015625 108.007813 683.867188 109.417969 684.265625 114.050781 C 684.726563 118.738281 685.191406 122.015625 685.585938 123.035156 L 695.378906 123.035156 C 694.582031 121.453125 694.1875 116.480469 693.65625 112.242188 C 693.191406 108.796875 692.070313 106.257813 689.421875 105.296875 L 689.421875 105.070313 C 695.113281 103.488281 699.546875 99.984375 699.546875 94.335938 C 699.546875 90.777344 697.492188 88.347656 694.582031 86.878906 C 691.472656 85.238281 687.109375 84.675781 682.875 84.675781 C 678.441406 84.675781 673.945313 85.070313 670.96875 85.691406 Z M 679.105469 91.398438 C 679.898438 91.230469 681.023438 91.113281 682.808594 91.113281 C 686.578125 91.113281 689.621094 92.472656 689.621094 95.519531 C 689.621094 99.25 685.851563 101.90625 680.691406 101.90625 L 676.722656 101.90625 Z M 726.339844 84.335938 C 719.921875 84.335938 714.234375 86.371094 710.066406 89.761719 C 704.839844 94.054688 701.863281 100.886719 701.863281 107.78125 C 701.863281 116.648438 708.347656 123.664063 719.921875 123.664063 C 726.601563 123.664063 732.226563 121.621094 736.390625 118.175781 C 741.484375 113.882813 744.328125 107.160156 744.328125 100.210938 C 744.328125 91.113281 738.113281 84.335938 726.339844 84.335938 Z M 725.214844 91.113281 C 732.226563 91.113281 734.210938 95.691406 734.210938 100.4375 C 734.210938 104.84375 732.292969 111.113281 728.785156 114.109375 C 726.734375 115.800781 724.089844 116.875 721.3125 116.875 C 714.828125 116.875 711.984375 112.863281 711.984375 107.496094 C 711.984375 102.921875 713.96875 97.046875 717.542969 93.996094 C 719.589844 92.246094 722.238281 91.113281 725.214844 91.113281 "/>
</g>
</svg>
