<?xml version="1.0" encoding="UTF-8" standalone="no"?>
<svg
   xmlns:dc="http://purl.org/dc/elements/1.1/"
   xmlns:cc="http://creativecommons.org/ns#"
   xmlns:rdf="http://www.w3.org/1999/02/22-rdf-syntax-ns#"
   xmlns:svg="http://www.w3.org/2000/svg"
   xmlns="http://www.w3.org/2000/svg"
   xmlns:sodipodi="http://sodipodi.sourceforge.net/DTD/sodipodi-0.dtd"
   xmlns:inkscape="http://www.inkscape.org/namespaces/inkscape"
   version="1.1"
   id="svg2"
   xml:space="preserve"
   width="101.33333"
   height="78.666664"
   viewBox="0 0 101.33333 78.666664"
   sodipodi:docname="murugappa-group-seeklogo.com.eps"><metadata
     id="metadata8"><rdf:RDF><cc:Work
         rdf:about=""><dc:format>image/svg+xml</dc:format><dc:type
           rdf:resource="http://purl.org/dc/dcmitype/StillImage" /></cc:Work></rdf:RDF></metadata><defs
     id="defs6" /><sodipodi:namedview
     pagecolor="#ffffff"
     bordercolor="#666666"
     borderopacity="1"
     objecttolerance="10"
     gridtolerance="10"
     guidetolerance="10"
     inkscape:pageopacity="0"
     inkscape:pageshadow="2"
     inkscape:window-width="640"
     inkscape:window-height="480"
     id="namedview4" /><g
     id="g10"
     inkscape:groupmode="layer"
     inkscape:label="ink_ext_XXXXXX"
     transform="matrix(1.3333333,0,0,-1.3333333,0,78.666667)"><g
       id="g12"
       transform="scale(0.1)"><path
         d="m 296.797,205.383 v 31.859 h 14.367 v -30.765 c -0.023,-3.493 0.664,-6.235 2.293,-8.219 2.051,-2.481 5.441,-3.582 8.734,-3.617 3.321,0.035 6.68,1.136 8.731,3.617 1.625,1.984 2.328,4.726 2.289,8.219 v 26.906 c 0,1.066 0.219,2.051 1.09,2.859 0.883,0.805 2.14,1.028 2.824,1 h 12.656 c -0.855,-0.34 -2.179,-1.328 -2.179,-3.82 v -28.039 c 0,-12.797 -8.649,-19.231 -20.133,-20.594 -3.489,-0.383 -7.043,-0.383 -10.563,0 -11.492,1.363 -20.109,7.797 -20.109,20.594"
         style="fill:#ed1b28;fill-opacity:1;fill-rule:evenodd;stroke:none"
         id="path14" /><path
         d="m 411.625,237.242 h 2.18 c -0.844,-0.34 -2.137,-1.297 -2.18,-3.687 v -42.774 c 0,-12.613 -4.801,-20.84 -14.035,-24.664 -8.078,-3.332 -18.332,-3.097 -26.828,-1.176 -2.481,0.559 -4.922,1.301 -7.285,2.176 l 1.195,11.399 c 2.547,-1.246 5.246,-2.286 7.82,-3.02 2.184,-0.629 4.547,-1.183 6.91,-1.324 5.793,-0.481 11.317,0.371 14.864,4.723 1.48,1.847 2.371,4.539 2.75,6.847 l 0.183,1.942 c -4.879,-1.621 -11.449,-2.36 -16.711,-1.801 -8.812,0.89 -16.379,5.086 -20.125,12.66 -4.515,9.055 -3.629,21.363 0.848,28.66 2.789,4.945 7.551,8.695 13.836,10.356 11.355,2.961 25.738,-0.317 36.578,-0.317 z m -14.422,-38.379 v 29.285 c -3.547,0.504 -8.84,0.938 -13.055,0.114 -5.136,-1.02 -8.906,-4.199 -10.613,-8.86 -1.75,-4.734 -1.726,-10.601 0.274,-15.406 1.898,-4.598 6.144,-8.109 11.546,-8.699 3.715,-0.414 9.02,0.547 11.848,3.566 z m 0,0 v 0 0"
         style="fill:#ed1b28;fill-opacity:1;fill-rule:evenodd;stroke:none"
         id="path16" /><path
         d="m 250.977,185.793 v 51.449 h 13.457 l -0.02,-9.172 c 3.309,6.664 10.074,10.532 19.879,10.348 0.691,-0.031 1.457,-0.055 2.176,-0.133 2.558,-0.258 2.523,-1.383 2.523,-2.613 v -11.117 c -2.332,1.34 -5.344,2.168 -8.523,2.238 -4.828,0.109 -9.676,-1.473 -12.602,-5.926 -2.429,-3.476 -2.512,-8.519 -2.512,-12.785 v -22.289 z m 0,0 v 0 0"
         style="fill:#ed1b28;fill-opacity:1;fill-rule:evenodd;stroke:none"
         id="path18" /><path
         d="m 459.875,200.352 v 28.164 c -0.559,0.312 -1.41,0.652 -2.516,0.937 -2.254,0.598 -4.855,0.777 -7.25,0.625 -7.199,-0.488 -12.074,-4.168 -13.851,-11.133 -1.238,-4.929 -0.735,-10.472 0.621,-14.14 1.129,-3.075 3.098,-5.633 5.742,-7.348 2.902,-1.812 7.988,-2.422 11.836,-1.117 2.481,0.816 4.59,2.5 5.418,4.012 z m 14.391,35.437 v -40.926 c 0,-3.152 -0.032,-7.461 2.843,-9.05 h -13.086 c -3.742,0.07 -3.539,3.546 -3.816,5.664 -2.152,-2.598 -8.766,-6.575 -16.652,-6.258 -5.121,0.191 -9.547,1.808 -12.992,4.449 -2.969,2.289 -5.215,5.148 -6.79,8.43 -2.621,5.527 -3.582,12.543 -2.562,19.031 1.269,8.453 5.945,15.566 14.305,19.367 2.73,1.211 5.757,2.059 9.011,2.543 10.707,1.484 23.036,-0.695 29.739,-3.25 z m 0,0 v 0 0"
         style="fill:#ed1b28;fill-opacity:1;fill-rule:evenodd;stroke:none"
         id="path20" /><path
         d="m 648.621,200.352 v 28.164 c -0.504,0.312 -1.379,0.652 -2.48,0.937 -2.258,0.598 -4.856,0.777 -7.25,0.625 -7.18,-0.488 -12.071,-4.168 -13.868,-11.133 -1.222,-4.929 -0.746,-10.472 0.637,-14.14 1.125,-3.075 3.125,-5.633 5.758,-7.348 2.867,-1.812 7.957,-2.422 11.82,-1.117 2.461,0.816 4.602,2.5 5.383,4.012 z m 14.402,35.437 v -40.926 c 0,-3.152 -0.007,-7.461 2.879,-9.05 h -13.101 c -3.754,0.07 -3.551,3.546 -3.828,5.664 -2.145,-2.598 -8.739,-6.575 -16.633,-6.258 -5.141,0.191 -9.531,1.808 -12.996,4.449 -2.961,2.289 -5.223,5.148 -6.762,8.43 -2.652,5.527 -3.582,12.543 -2.594,19.031 1.262,8.453 5.969,15.566 14.289,19.367 2.746,1.211 5.77,2.059 9.012,2.543 10.746,1.484 23.051,-0.695 29.734,-3.25 z m 0,0 v 0 0"
         style="fill:#ed1b28;fill-opacity:1;fill-rule:evenodd;stroke:none"
         id="path22" /><path
         d="m 486.652,237.242 h -2.164 c 0.832,-0.34 2.125,-1.297 2.164,-3.687 v -68.731 h 14.414 v 22.86 c 3.133,-1.09 6.426,-1.621 9.633,-1.688 16.375,-0.285 28.457,8.852 29.821,23.692 0.585,6.039 -0.508,12.32 -3.461,17.515 -2.774,4.945 -7.528,8.695 -13.805,10.356 -11.352,2.961 -25.762,-0.317 -36.602,-0.317 z m 14.414,-38.379 v 29.285 c 3.43,0.422 8.317,0.809 12.567,0.223 7.172,-1.047 11.316,-6.324 12.031,-12.699 0.512,-4.602 -0.152,-8.891 -1.684,-12.402 -2.515,-5.391 -7.46,-8.36 -13.55,-8.235 -3.512,0.07 -7.672,1.512 -9.364,3.828"
         style="fill:#ed1b28;fill-opacity:1;fill-rule:evenodd;stroke:none"
         id="path24" /><path
         d="m 548.98,237.242 h -2.179 c 0.828,-0.34 2.109,-1.297 2.179,-3.687 v -68.731 h 14.383 v 22.86 c 3.137,-1.09 6.418,-1.621 9.614,-1.688 16.406,-0.285 28.472,8.852 29.851,23.692 0.555,6.039 -0.512,12.32 -3.449,17.515 -2.758,4.945 -7.551,8.695 -13.82,10.356 -11.356,2.961 -25.77,-0.317 -36.579,-0.317 z m 14.383,-38.379 v 29.285 c 3.457,0.422 8.317,0.809 12.535,0.223 7.211,-1.047 11.348,-6.324 12.071,-12.699 0.5,-4.602 -0.199,-8.891 -1.68,-12.402 -2.519,-5.391 -7.453,-8.36 -13.543,-8.235 -3.508,0.07 -7.723,1.512 -9.383,3.828"
         style="fill:#ed1b28;fill-opacity:1;fill-rule:evenodd;stroke:none"
         id="path26" /><path
         d="m 187.988,205.383 v 31.859 h 14.395 v -30.765 c -0.047,-3.493 0.64,-6.235 2.301,-8.219 2.015,-2.481 5.433,-3.582 8.714,-3.617 3.309,0.035 6.731,1.136 8.735,3.617 1.64,1.984 2.324,4.726 2.281,8.219 v 26.906 c 0,1.066 0.246,2.051 1.086,2.859 0.891,0.805 2.129,1.028 2.828,1 h 12.68 c -0.86,-0.34 -2.172,-1.328 -2.188,-3.82 v -28.039 c 0,-12.797 -8.648,-19.231 -20.14,-20.594 -3.485,-0.383 -7.063,-0.383 -10.567,0 -11.496,1.363 -20.125,7.797 -20.125,20.594"
         style="fill:#ed1b28;fill-opacity:1;fill-rule:evenodd;stroke:none"
         id="path28" /><path
         d="m 96.5664,185.793 v 34.422 c 0.1641,11.32 9.2696,18.976 22.7736,18.668 8.43,-0.199 15.027,-3.379 18.039,-9.653 3.883,6.973 11.668,10.129 20.332,9.52 10.785,-0.695 18.91,-7.574 18.762,-19.273 v -29.731 c -0.047,-2.59 1.289,-3.574 2.164,-3.953 h -12.649 c -1.371,0.051 -3.785,0.637 -3.925,3.43 v 28.683 c -0.047,2.871 -0.711,5.371 -3.153,7.36 -1.512,1.289 -3.519,2.136 -5.711,2.269 h -1.168 c -2.25,-0.105 -4.289,-0.933 -5.879,-2.269 -2.488,-2.102 -3.121,-4.657 -3.121,-7.649 v -31.824 h -14.402 c 0,10.781 0.031,21.43 0.031,32.195 0,1.242 -0.105,2.43 -0.387,3.567 -0.585,2.14 -2.015,3.945 -4.109,5 -2.656,1.347 -6.078,1.347 -8.703,0 -2.106,-1.055 -3.566,-2.86 -4.121,-5 -0.289,-1.137 -0.363,-2.325 -0.363,-3.567 v -32.195 z m 0,0 v 0 0"
         style="fill:#ed1b28;fill-opacity:1;fill-rule:evenodd;stroke:none"
         id="path30" /><path
         d="m 381.238,375.504 c -2.793,0 -5.035,-2.066 -5.035,-4.664 0,-2.578 2.242,-4.664 5.035,-4.664 2.778,0 5.02,2.086 5.02,4.664 0,2.598 -2.242,4.664 -5.02,4.664 z m -10.715,16.805 c 1.813,0.429 3.676,0.41 5.465,0.007 1.407,-0.3 3.051,-1.023 4.082,-1.742 -1.316,-0.469 -2.16,-2.898 -2.492,-3.992 -0.691,-2.367 -1.027,-4.988 -0.941,-7.449 3.039,1.301 6.797,1.074 10.023,-0.344 l 18.633,-7.906 c -4.379,-1.043 -7.227,-1.531 -10.34,-3.594 -3.781,-2.445 -4.394,-6.516 -4.25,-10.613 0.235,-9.399 1.969,-19.047 4.371,-27.633 l 0.324,-1.066 c 4.387,-15.61 12.461,-29.821 23.317,-41.825 l 0.414,-0.285 2.441,17.11 -21.25,41.351 32.965,-34.117 17.969,-4.422 -4.797,16.684 -36.652,30.656 44.5,-19.742 18.41,2.242 -11.285,13.711 -46.52,15.273 49.266,-2.425 16.062,8.652 -16.062,8.66 -49.266,-2.414 46.52,15.262 11.285,13.695 -18.41,2.293 -44.5,-19.773 36.652,30.64 4.797,16.703 -17.969,-4.468 -32.965,-34.059 21.25,41.363 -2.441,17.094 -14.746,-10.484 -16.426,-43.211 2.602,45.777 -9.321,14.918 -9.3,-14.918 2.593,-45.777 -16.461,43.211 -14.726,10.484 -2.453,-17.094 21.269,-41.363 -32.972,34.059 -17.969,4.468 4.785,-16.703 36.68,-30.64 -44.516,19.773 -18.422,-2.293 11.277,-13.695 46.54,-15.262 -49.266,2.414 -16.082,-8.66 16.082,-8.652 49.266,2.425 -46.54,-15.273 -11.277,-13.711 18.422,-2.242 44.516,19.742 -36.68,-30.656 -4.785,-16.684 17.969,4.422 32.972,34.117 -21.269,-41.371 2.453,-17.09 0.414,0.285 c 15.664,17.313 25.586,39.34 26.969,63.477 0.105,2.355 0.128,4.629 0.128,6.996 v 12.246 c 0,2.211 0.415,4.582 1.586,6.508 0.61,1.055 1.348,1.902 2.192,2.59 -2.395,0.992 -5.106,1.679 -7.684,1.988 -1.234,0.152 -3.953,0.309 -4.906,-0.598 -0.355,1.145 -0.402,2.829 -0.195,4.153 0.304,1.703 1.047,3.379 2.187,4.812 1.59,1.953 3.93,3.379 6.488,3.977 z m 10.715,93.519 18.328,-29.402 29.047,20.644 4.797,-33.679 35.336,8.761 -9.43,-32.808 36.27,-4.492 -22.227,-26.989 31.649,-17.023 -31.649,-17.024 22.227,-26.972 -36.27,-4.481 9.43,-32.808 -35.336,8.726 -3.289,-23.054 -1.879,-13.309 c -4.976,4.156 -9.73,8.504 -14.238,13.086 l -0.18,0.137 -0.019,0.039 -0.774,0.804 c -1.871,1.895 -3.718,3.832 -5.511,5.778 l -0.012,0.031 -0.016,0.035 c -3.316,3.621 -6.543,7.363 -9.554,11.235 l -0.09,0.105 -0.594,0.734 c -2.328,2.938 -4.559,5.969 -6.695,9.055 l -0.266,0.309 -0.324,0.476 c -3.09,4.488 -6.024,9.078 -8.731,13.742 -2.73,-4.664 -5.644,-9.254 -8.746,-13.742 l -0.328,-0.476 c -6.285,-9.008 -13.344,-17.551 -21.047,-25.586 l -0.035,-0.016 c -0.848,-0.906 -1.699,-1.789 -2.609,-2.66 -4.485,-4.551 -9.231,-8.871 -14.145,-13.031 l -0.078,-0.055 -0.391,2.699 -4.796,33.664 -35.325,-8.726 9.383,32.808 -36.234,4.481 22.23,26.972 -31.629,17.024 31.629,17.023 -22.23,26.989 36.234,4.492 -9.383,32.808 35.325,-8.761 4.796,33.679 29.047,-20.652 z m 0,0 v 0 0"
         style="fill:#ed1b28;fill-opacity:1;fill-rule:evenodd;stroke:none"
         id="path32" /></g></g></svg>
