<svg xmlns:svg="http://www.w3.org/2000/svg" xmlns="http://www.w3.org/2000/svg" version="1.0" width="500" height="329.19" id="svg2">
  <defs id="defs4"/>
  <g transform="translate(-332.41426,226.80567)" id="layer1">
    <g transform="matrix(7.2072072,0,0,7.2072072,-2053.3644,-501.37183)" id="g2832">
      <path d="M 380.48933,42.78363 L 380.48933,42.858618 L 380.41429,43.008618 L 380.26429,43.233605 L 380.11434,43.533593 L 379.9643,43.98358 L 379.73931,44.433555 L 379.66431,44.65863 L 379.51429,44.958543 L 379.43929,45.258605 L 379.28929,45.558593 L 379.2143,45.933568 L 379.0643,46.233568 L 378.91431,46.608618 L 378.83931,46.983605 L 378.68931,47.358593 L 378.53929,47.73358 L 378.46429,48.108568 L 378.3143,48.558618 L 378.1643,49.008605 L 378.0893,49.38358 L 377.93931,49.833568 L 377.86431,50.28363 L 377.78931,50.733605 L 377.63929,51.183593 L 377.56429,51.633568 L 377.48933,52.083555 L 377.3393,52.833518 L 377.2643,53.433568 L 377.1893,54.108618 L 377.1143,54.708518 L 377.03931,55.308568 L 377.03931,56.433605 L 376.96431,56.95858 L 376.96431,57.483568 L 377.03931,57.933618 L 377.03931,58.83358 L 377.1143,59.208568 L 377.1143,59.65863 L 377.1893,59.958543 L 377.2643,60.333518 L 377.3393,60.63358 L 377.3393,60.933568 L 377.41429,61.233568 L 377.48933,61.458555 L 377.56429,61.683618 L 377.63929,61.908605 L 377.71428,62.133605 L 377.78931,62.283593 L 377.78931,62.433593 L 377.86431,62.58358 L 377.93931,62.65858 L 377.93931,62.73358 L 378.01431,62.883568 L 378.0893,62.73358 L 378.23934,62.133605 L 378.3143,61.683618 L 378.46429,61.158568 L 378.61433,60.558593 L 378.83931,59.958543 L 378.9893,59.208568 L 379.2143,58.458518 L 379.43929,57.633556 L 379.73931,56.808593 L 379.9643,55.90863 L 380.26429,55.00858 L 380.41429,54.558605 L 380.56431,54.03363 L 380.71431,53.583568 L 380.8643,53.13358 L 381.0143,52.608605 L 381.23933,52.15863 L 381.38929,51.708568 L 381.53931,51.25858 L 381.68931,50.808605 L 381.8393,50.433618 L 381.98934,49.983568 L 382.43931,48.858605 L 382.7393,48.183555 L 382.9643,47.58358 L 383.18929,47.058605 L 383.41431,46.53363 L 383.56431,46.158568 L 383.7893,45.78358 L 383.86434,45.483593 L 384.01429,45.258605 L 384.16429,44.958543 L 384.46431,45.108605 L 384.6893,45.333518 L 384.98933,45.558593 L 385.28931,45.70858 L 385.51431,45.933568 L 385.8143,46.158568 L 386.11433,46.383556 L 386.33931,46.53363 L 386.6393,46.758618 L 386.86433,46.983605 L 387.16431,47.208518 L 387.38931,47.433593 L 387.6893,47.65858 L 387.91429,47.883568 L 388.21431,48.108568 L 388.4393,48.333555 L 388.3643,48.40863 L 388.28931,48.633618 L 388.13931,49.008605 L 387.91429,49.53358 L 387.61434,50.133556 L 387.31431,50.883605 L 387.16431,51.33358 L 386.93929,51.783568 L 386.78929,52.233618 L 386.5643,52.758605 L 386.41431,53.20858 L 386.18931,53.808555 L 385.96429,54.333543 L 385.73934,54.933593 L 385.51431,55.533568 L 385.28931,56.133618 L 385.13929,56.733593 L 384.91429,57.408568 L 384.6893,58.083543 L 384.46431,58.75858 L 384.01429,60.108605 L 383.7893,60.85858 L 383.63931,61.53363 L 383.41431,62.283593 L 383.18929,63.033568 L 383.03929,63.708543 L 382.8893,64.38358 L 382.7393,65.058555 L 382.58931,65.733605 L 382.28929,67.083555 L 382.21429,67.683605 L 382.13929,68.35858 L 381.98934,68.958555 L 381.9143,69.633605 L 381.8393,70.23358 L 381.76431,70.758556 L 381.68931,71.358605 L 381.68931,71.95858 L 381.53931,73.008618 L 381.53931,73.458518 L 381.46428,73.90858 L 381.46428,74.808618 L 381.38929,75.183605 L 381.38929,76.758618 L 381.31429,77.133605 L 381.31429,77.433593 L 398.9393,77.433593 L 398.9393,82.383618 L 332.48933,82.383618 L 332.48933,77.433593 L 375.98931,77.433593 L 375.98931,75.78358 L 376.06431,75.483593 L 376.06431,74.208568 L 376.13931,73.90858 L 376.13931,73.008618 L 376.2143,72.78363 L 376.2143,71.95858 L 376.2893,71.733593 L 376.2893,71.358605 L 376.36434,71.133618 L 376.36434,70.533568 L 376.2143,70.458568 L 375.68929,69.933593 L 375.4643,69.708518 L 375.3143,69.483605 L 375.08931,69.258618 L 374.93931,68.958555 L 374.71429,68.658568 L 374.26431,67.908593 L 374.03931,67.533605 L 373.81429,67.083555 L 373.66429,66.633568 L 373.4393,66.183593 L 373.21431,65.658605 L 373.06431,65.058555 L 372.83929,64.53358 L 372.6893,63.858605 L 372.38931,62.50858 L 372.23931,61.758618 L 372.08928,60.258605 L 372.01429,59.358568 L 372.01429,58.458518 L 371.93929,57.558555 L 372.01429,56.583518 L 372.01429,55.833555 L 372.08928,55.15858 L 372.16431,54.408605 L 372.31431,52.908593 L 372.4643,52.233618 L 372.5393,51.48358 L 372.6893,50.808605 L 372.98933,49.45858 L 373.13931,48.783605 L 373.3643,48.183555 L 373.5143,47.50858 L 373.66429,46.908605 L 373.81429,46.383556 L 374.03931,45.78358 L 374.18931,45.258605 L 374.3393,44.733618 L 374.5643,44.283568 L 374.86433,43.383605 L 375.01431,43.008618 L 375.16431,42.633556 L 375.3143,42.258568 L 375.53929,41.733593 L 375.68929,41.283605 L 375.83928,40.983618 L 375.83928,40.90863 L 376.13931,41.058618 L 376.4393,41.133618 L 376.73933,41.208543 L 377.03931,41.358605 L 377.3393,41.433605 L 377.63929,41.583518 L 377.93931,41.658593 L 378.23934,41.808593 L 378.53929,41.88358 L 378.76431,42.03358 L 379.0643,42.183568 L 379.36433,42.258568 L 379.66431,42.408568 L 379.9643,42.558555 L 380.1893,42.708555 L 380.48933,42.78363" id="path2414" style="fill:#0c6ab6;fill-opacity:1;fill-rule:evenodd;stroke:none"/>
      <path d="M 337.21429,76.53363 L 337.66431,76.233568 L 338.18929,76.008568 L 338.7143,75.70858 L 339.23933,75.408593 L 339.7643,75.108605 L 340.21431,74.808618 L 340.73934,74.508556 L 341.26431,74.208568 L 341.78929,73.83358 L 342.31431,73.458518 L 342.83929,73.083543 L 343.28931,72.708555 L 343.81429,72.333568 L 344.3393,71.88358 L 344.86433,71.508605 L 345.3143,71.058618 L 345.83931,70.608568 L 346.2893,70.15858 L 346.81431,69.708518 L 347.71431,68.808555 L 348.1643,68.28358 L 348.61433,67.833518 L 349.0643,67.308618 L 349.51429,66.858568 L 349.88931,66.33358 L 350.33929,65.808605 L 350.71431,65.28363 L 351.0893,64.758568 L 351.46428,64.158593 L 351.8393,63.633618 L 352.43931,62.58358 L 352.7393,62.058605 L 353.03929,61.53363 L 353.33928,61.008568 L 353.56431,60.483593 L 353.7893,59.958543 L 354.01429,59.433555 L 354.46431,58.383605 L 354.6893,57.933618 L 354.98933,56.88358 L 355.21428,56.358605 L 355.36431,55.833555 L 355.51431,55.308568 L 355.5893,54.858593 L 355.73934,54.333543 L 355.88929,53.808555 L 355.96429,53.35858 L 356.11433,52.833518 L 356.18931,52.383618 L 356.26431,51.858568 L 356.33931,51.40858 L 356.41431,50.883605 L 356.4893,50.433618 L 356.5643,49.983568 L 356.6393,49.53358 L 356.6393,49.083518 L 356.7143,48.633618 L 356.7143,48.183555 L 356.78929,47.73358 L 356.78929,46.908605 L 356.86433,46.53363 L 356.86433,45.183605 L 356.78929,44.733618 L 356.78929,43.383605 L 356.7143,43.008618 L 356.7143,42.558555 L 356.6393,42.10858 L 356.6393,41.733593 L 356.5643,41.358605 L 356.5643,40.983618 L 356.4893,40.683555 L 356.86433,40.608568 L 357.23931,40.458568 L 357.98933,40.308568 L 358.3643,40.15858 L 358.73933,40.08358 L 359.11431,40.00858 L 359.48934,39.933593 L 359.86433,39.858593 L 360.2393,39.783593 L 360.61433,39.783593 L 361.06431,39.708518 L 361.4393,39.633605 L 361.81431,39.558605 L 362.1893,39.558605 L 362.56429,39.483605 L 362.63929,39.558605 L 362.63929,40.00858 L 362.71428,40.23358 L 362.71428,40.533568 L 362.78931,40.90863 L 362.86431,41.358605 L 362.86431,41.808593 L 363.01431,42.858618 L 363.0893,43.533593 L 363.0893,44.133568 L 363.23934,45.63358 L 363.23934,46.383556 L 363.3143,47.208518 L 363.38929,47.958568 L 363.38929,48.708543 L 363.46429,49.45858 L 363.46429,50.808605 L 363.53929,51.40858 L 363.53929,53.808555 L 363.61433,54.03363 L 363.61433,54.408605 L 363.68931,54.258618 L 363.76431,54.03363 L 363.83931,53.658568 L 363.9893,53.28358 L 364.1393,52.833518 L 364.28929,52.308618 L 364.51429,51.708568 L 364.66431,51.108593 L 364.88931,50.433618 L 365.1893,49.758568 L 365.41429,49.008605 L 365.63931,48.183555 L 365.9393,47.433593 L 366.23933,46.608618 L 366.46428,45.85858 L 366.76431,45.033605 L 367.21429,43.683593 L 367.43931,43.083543 L 367.66431,42.483568 L 367.8893,41.95858 L 368.03929,41.508605 L 368.18929,41.058618 L 368.33928,40.683555 L 368.41431,40.383568 L 368.56431,40.08358 L 368.63931,39.858593 L 368.63931,39.708518 L 368.7143,39.558605 L 368.7143,39.483605 L 368.7893,39.483605 L 369.16429,39.558605 L 369.53931,39.558605 L 369.91429,39.633605 L 370.28931,39.633605 L 370.6643,39.708518 L 371.03929,39.783593 L 371.41431,39.858593 L 371.78929,39.858593 L 372.08928,39.933593 L 372.4643,40.00858 L 372.83929,40.08358 L 373.21431,40.15858 L 373.5893,40.308568 L 373.96428,40.383568 L 374.3393,40.458568 L 374.63929,40.533568 L 374.63929,40.608568 L 374.48934,40.90863 L 374.4143,41.058618 L 374.3393,41.283605 L 374.26431,41.508605 L 373.96428,42.10858 L 373.81429,42.483568 L 373.66429,42.858618 L 373.3643,43.75858 L 373.21431,44.208568 L 373.06431,44.733618 L 372.83929,45.258605 L 372.5393,46.458555 L 372.31431,47.058605 L 372.16431,47.73358 L 372.01429,48.40863 L 371.86433,49.083518 L 371.6393,49.758568 L 371.4893,50.508618 L 371.33931,51.25858 L 371.26431,52.083555 L 371.11433,52.833518 L 371.03929,53.658568 L 370.88929,54.483605 L 370.8143,55.308568 L 370.73934,56.208543 L 370.6643,57.03358 L 370.6643,59.958543 L 370.73934,60.85858 L 370.8143,61.833543 L 370.96429,63.633618 L 371.11433,64.53358 L 371.26431,65.358618 L 371.41431,66.183593 L 371.5643,67.008556 L 371.7143,67.758605 L 371.93929,68.583568 L 372.08928,69.333543 L 372.31431,70.00858 L 372.5393,70.683555 L 372.6893,71.358605 L 373.13931,72.558555 L 373.28931,73.083543 L 373.5143,73.608593 L 373.66429,74.058568 L 373.81429,74.508556 L 374.03931,74.883618 L 374.18931,75.258605 L 374.26431,75.558593 L 374.4143,75.85858 L 374.48934,76.083568 L 374.63929,76.383556 L 374.71429,76.458555 L 369.38931,76.458555 L 369.23933,76.158568 L 369.16429,75.933568 L 369.01429,75.558593 L 368.86434,75.258605 L 368.7143,74.808618 L 368.41431,73.75858 L 368.18929,73.233605 L 368.03929,72.633556 L 367.8143,71.95858 L 367.66431,71.583518 L 367.58931,71.283605 L 367.51431,70.90863 L 367.36433,70.533568 L 367.21429,69.783593 L 367.13929,69.408605 L 366.98934,69.03363 L 366.76431,67.908593 L 366.68931,67.533605 L 366.46428,66.40858 L 366.46428,66.033593 L 366.38929,65.658605 L 366.31429,65.208555 L 366.23933,64.833568 L 366.23933,64.45858 L 366.0893,63.708543 L 365.9393,62.358593 L 365.8643,61.758618 L 365.8643,61.233568 L 365.78931,60.70858 L 365.78931,60.333518 L 365.71431,60.108605 L 365.71431,59.808618 L 365.71431,59.883618 L 365.63931,60.033605 L 365.56431,60.258605 L 365.48933,60.558593 L 365.1893,61.458555 L 365.0393,61.983605 L 364.81431,62.58358 L 364.66431,63.183555 L 364.43929,63.858605 L 364.2143,64.60858 L 363.9893,65.358618 L 363.83931,66.108593 L 363.61433,66.933555 L 363.53929,67.383618 L 363.38929,67.758605 L 363.3143,68.13358 L 363.23934,68.583568 L 363.01431,69.408605 L 362.86431,70.15858 L 362.71428,70.90863 L 362.56429,71.658593 L 362.41429,72.333568 L 362.2643,73.008618 L 362.1143,73.608593 L 362.03931,74.208568 L 361.88931,74.65863 L 361.81431,75.108605 L 361.73933,75.558593 L 361.58929,76.158568 L 361.58929,76.458555 L 355.88929,76.458555 L 355.96429,76.308555 L 356.03929,76.083568 L 356.11433,75.78358 L 356.18931,75.408593 L 356.33931,75.033605 L 356.4893,74.508556 L 356.6393,73.98358 L 356.78929,73.458518 L 356.93929,72.858618 L 357.38931,71.058618 L 357.5393,70.458568 L 357.61434,70.15858 L 357.6893,69.858593 L 357.76429,69.558605 L 357.76429,69.258618 L 357.91429,68.658568 L 357.98933,67.983593 L 358.13931,67.308618 L 358.28931,66.558568 L 358.3643,65.733605 L 358.5143,64.983568 L 358.5893,64.233593 L 358.73933,63.483618 L 358.81429,62.808568 L 358.88929,62.133605 L 359.03931,61.53363 L 359.03931,61.008568 L 359.11431,60.63358 L 359.18931,60.258605 L 359.18931,60.033605 L 359.18931,60.183605 L 359.11431,60.408593 L 358.96428,60.70858 L 358.96428,60.933568 L 358.81429,61.083568 L 358.73933,61.308555 L 358.66429,61.53363 L 358.5143,61.833543 L 358.4393,62.133605 L 358.28931,62.433593 L 357.98933,63.033568 L 357.76429,63.40863 L 357.61434,63.708543 L 357.38931,64.083518 L 357.16431,64.53358 L 356.86433,64.908568 L 356.6393,65.358618 L 356.33931,65.808605 L 356.03929,66.25858 L 355.73934,66.708568 L 355.36431,67.15863 L 354.98933,67.683605 L 354.6143,68.13358 L 354.23933,68.658568 L 353.7893,69.183618 L 353.33928,69.708518 L 352.8893,70.23358 L 352.43931,70.758556 L 352.0643,71.208543 L 351.61431,71.658593 L 351.23933,72.10858 L 350.8643,72.483568 L 350.56431,72.858618 L 350.1893,73.233605 L 349.58931,73.83358 L 349.28929,74.133568 L 348.9893,74.358568 L 348.76431,74.65863 L 348.46429,74.883618 L 348.23934,75.033605 L 348.01431,75.258605 L 347.86431,75.408593 L 347.63929,75.558593 L 347.48933,75.70858 L 347.1893,76.008568 L 347.03931,76.083568 L 346.88931,76.158568 L 346.66429,76.383556 L 346.51429,76.458555 L 346.4393,76.458555 L 337.21429,76.53363" id="path2416" style="fill:#0c6ab6;fill-opacity:1;fill-rule:evenodd;stroke:none"/>
      <path d="M 388.73933,66.708568 L 388.73933,66.40858 L 388.81429,66.25858 L 388.81429,66.108593 L 388.88929,65.883605 L 388.88929,65.658605 L 388.96428,65.433618 L 388.96428,65.208555 L 389.11431,64.60858 L 389.18931,64.233593 L 389.26431,63.858605 L 389.3393,63.558618 L 389.4143,63.108568 L 389.48934,62.73358 L 389.63929,62.358593 L 389.71429,62.058605 L 389.78929,61.683618 L 389.86433,61.383556 L 390.01431,60.78358 L 390.16431,60.558593 L 390.2393,60.333518 L 390.2393,60.108605 L 390.3893,59.808618 L 390.3893,59.65863 L 390.4643,59.583555 L 390.4643,59.508556 L 390.61433,59.65863 L 390.61433,59.733618 L 390.76429,59.883618 L 390.83928,60.033605 L 390.91431,60.258605 L 391.06431,60.483593 L 391.2143,60.70858 L 391.51429,61.308555 L 391.66429,61.683618 L 391.73933,61.908605 L 391.88931,62.058605 L 391.96431,62.283593 L 392.03931,62.50858 L 392.1143,62.73358 L 392.2643,63.183555 L 392.41429,63.483618 L 392.48933,63.858605 L 392.63929,64.233593 L 392.71428,64.53358 L 392.86431,65.133556 L 392.93931,65.433618 L 393.01431,65.658605 L 393.01431,65.883605 L 393.0893,66.033593 L 393.0893,66.48358 L 393.1643,66.558568 L 393.1643,66.708568 L 388.73933,66.708568 z M 398.9393,76.458555 L 399.01429,72.633556 L 399.01429,71.733593 L 398.9393,70.90863 L 398.9393,70.08358 L 398.86434,69.183618 L 398.7143,68.35858 L 398.63931,67.533605 L 398.48931,66.708568 L 398.33928,65.883605 L 398.11433,65.058555 L 397.9643,64.308593 L 397.7393,63.483618 L 397.51431,62.73358 L 397.21429,61.908605 L 396.98934,61.158568 L 396.68931,60.408593 L 396.38929,59.65863 L 396.0143,58.90858 L 395.71431,58.158605 L 395.33929,57.408568 L 394.9643,56.733593 L 394.58928,56.058618 L 394.1393,55.383568 L 393.76431,54.633605 L 393.3143,54.03363 L 392.86431,53.35858 L 392.41429,52.683605 L 391.88931,52.083555 L 391.4393,51.48358 L 390.91431,50.883605 L 390.3893,50.28363 L 389.86433,49.758568 L 389.3393,49.158593 L 388.96428,49.983568 L 388.66429,50.808605 L 388.28931,51.633568 L 387.98933,52.458543 L 387.6893,53.20858 L 387.38931,54.03363 L 387.01429,54.858593 L 386.7143,55.683555 L 386.4893,56.583518 L 386.18931,57.408568 L 385.88929,58.233605 L 385.6643,59.058568 L 385.36431,59.883618 L 385.13929,60.70858 L 384.91429,61.608618 L 384.6893,62.433593 L 384.46431,63.258556 L 384.23933,64.158593 L 384.01429,64.983568 L 383.86434,65.883605 L 383.63931,66.708568 L 383.48931,67.608605 L 383.33928,68.508568 L 383.18929,69.333543 L 383.03929,70.23358 L 382.9643,71.133618 L 382.8143,72.03358 L 382.7393,72.858618 L 382.66431,73.75858 L 382.58931,74.65863 L 382.58931,75.558593 L 382.51431,76.458555 L 387.91429,76.458555 L 388.06431,71.658593 L 393.76431,71.658593 L 393.76431,76.458555 L 398.9393,76.458555" id="path2418" style="fill:#0c6ab6;fill-opacity:1;fill-rule:evenodd;stroke:none"/>
      <path d="M 349.81431,49.833568 L 349.81431,50.208555 L 349.73931,50.28363 L 349.73931,50.958518 L 349.66431,51.25858 L 349.58931,51.633568 L 349.51429,52.083555 L 349.43929,52.458543 L 349.36433,52.908593 L 349.2143,53.658568 L 349.0643,54.108618 L 348.9893,54.483605 L 348.83931,54.858593 L 348.83931,55.00858 L 348.76431,55.23358 L 348.61433,55.533568 L 348.46429,56.058618 L 348.23934,56.508605 L 348.0893,56.95858 L 347.63929,57.858618 L 347.41429,58.308605 L 346.96431,59.208568 L 346.66429,59.65863 L 346.4393,60.108605 L 346.13931,60.558593 L 345.91431,60.933568 L 345.61433,61.383556 L 345.3143,61.758618 L 345.01431,62.208518 L 344.71429,62.58358 L 344.3393,63.033568 L 344.03931,63.40863 L 343.66429,63.783605 L 343.28931,64.158593 L 342.98933,64.53358 L 342.16431,65.358618 L 341.78929,65.733605 L 341.41431,66.033593 L 340.51431,66.783568 L 340.06429,67.15863 L 339.6143,67.533605 L 339.16429,67.833518 L 338.7143,68.20858 L 338.18929,68.508568 L 338.18929,68.13358 L 338.26429,67.908593 L 338.26429,67.608605 L 338.33931,67.308618 L 338.41431,66.933555 L 338.41431,66.558568 L 338.56431,66.183593 L 338.56431,65.958518 L 338.63931,65.733605 L 338.63931,65.583543 L 338.7143,65.358618 L 338.86434,64.908568 L 338.9393,64.60858 L 339.01429,64.38358 L 339.08929,64.158593 L 339.16429,63.933605 L 339.23933,63.708543 L 339.31431,63.40863 L 339.46431,62.958568 L 339.6143,62.65858 L 339.6893,62.433593 L 339.8393,62.058605 L 340.06429,61.608618 L 340.21431,61.233568 L 340.43931,60.78358 L 340.6643,60.408593 L 340.96429,59.958543 L 341.18931,59.508556 L 341.4893,59.058568 L 341.78929,58.608593 L 342.08931,58.083543 L 342.38931,57.633556 L 342.6893,57.183568 L 342.98933,56.733593 L 343.3643,56.283605 L 343.66429,55.833555 L 344.03931,55.383568 L 344.3393,54.933593 L 344.71429,54.483605 L 345.08931,54.108618 L 345.4643,53.658568 L 345.83931,53.28358 L 346.13931,52.833518 L 346.51429,52.458543 L 346.88931,52.083555 L 347.2643,51.783568 L 347.63929,51.40858 L 348.01431,51.108593 L 348.38929,50.808605 L 348.68931,50.508618 L 349.43929,50.058555 L 349.81431,49.833568 z M 355.36431,41.058618 L 355.36431,41.283605 L 355.43931,41.583518 L 355.43931,42.183568 L 355.51431,42.483568 L 355.51431,42.78363 L 355.5893,43.083543 L 355.5893,44.208568 L 355.6643,44.508556 L 355.6643,45.70858 L 355.5893,47.058605 L 355.51431,48.40863 L 355.36431,49.758568 L 355.21428,51.108593 L 354.98933,52.383618 L 354.6893,53.658568 L 354.31431,54.933593 L 353.9393,56.208543 L 353.48931,57.408568 L 352.9643,58.608593 L 352.43931,59.733618 L 351.8393,60.933568 L 351.23933,61.983605 L 350.56431,63.108568 L 349.81431,64.158593 L 349.0643,65.208555 L 348.3143,66.183593 L 347.48933,67.15863 L 346.58929,68.058593 L 345.68929,68.958555 L 344.78929,69.858593 L 343.81429,70.683555 L 342.76429,71.433605 L 341.78929,72.183568 L 340.6643,72.933618 L 339.6143,73.608593 L 338.48931,74.283568 L 337.36433,74.883618 L 336.16429,75.408593 L 334.9643,75.933568 L 333.76431,76.383556 L 332.48933,76.833543 L 332.48933,76.308555 L 332.41429,76.083568 L 332.41429,72.633556 L 332.48933,71.208543 L 332.56429,69.858593 L 332.71431,68.508568 L 332.86431,67.233618 L 333.0893,65.883605 L 333.38929,64.60858 L 333.76431,63.333555 L 334.1393,62.058605 L 334.58931,60.85858 L 335.63931,58.458518 L 336.16429,57.333568 L 336.8393,56.208543 L 337.51431,55.08358 L 338.18929,53.958555 L 338.9393,52.908593 L 339.6893,51.933555 L 340.51431,50.958518 L 341.41431,49.983568 L 342.23931,49.083518 L 343.21431,48.183555 L 344.18931,47.358593 L 345.16431,46.53363 L 346.13931,45.70858 L 347.1893,45.033605 L 348.3143,44.283568 L 349.43929,43.683593 L 350.56431,43.008618 L 351.68931,42.483568 L 352.8893,41.95858 L 354.08929,41.433605 L 355.36431,41.058618" id="path2420" style="fill:#0c6ab6;fill-opacity:1;fill-rule:evenodd;stroke:none"/>
    </g>
  </g>
</svg>