<?xml version="1.0" encoding="utf-8"?>
<!-- Generator: Adobe Illustrator 16.0.0, SVG Export Plug-In . SVG Version: 6.00 Build 0)  -->
<!DOCTYPE svg PUBLIC "-//W3C//DTD SVG 1.1//EN" "http://www.w3.org/Graphics/SVG/1.1/DTD/svg11.dtd">
<svg version="1.1" id="Layer_1" xmlns="http://www.w3.org/2000/svg" xmlns:xlink="http://www.w3.org/1999/xlink" x="0px" y="0px"
	 width="339.99px" height="98px" viewBox="17.505 357.111 339.99 98" enable-background="new 17.505 357.111 339.99 98"
	 xml:space="preserve">
<g>
	<g>
		<g>
			<path fill="#151515" d="M177.118,394.356h-5.292l-6.189-8.68H153.9v8.68h-4.614v-23.621h19.098c2.509,0,4.504,0.678,5.987,2.032
				c1.483,1.355,2.234,3.168,2.234,5.457c0,3.918-1.959,6.317-5.878,7.178L177.118,394.356z M167.706,381.521
				c2.783,0,4.193-1.08,4.193-3.223c0-2.289-1.483-3.424-4.449-3.424h-13.532v6.646H167.706z"/>
			<path fill="#151515" d="M210.242,394.356h-25.434v-23.621h24.555v4.156h-19.941v5.109h13.861v4.138h-13.861v6.079h20.82V394.356
				L210.242,394.356z"/>
			<path fill="#151515" d="M244.939,370.735l-13.055,23.621h-5.311l-13.055-23.621h5.09l10.62,19.61l10.62-19.61H244.939z"/>
			<path fill="#151515" d="M275.445,394.356h-25.434v-23.621h24.555v4.156h-19.939v5.109h13.86v4.138h-13.86v6.079h20.818V394.356z"
				/>
			<path fill="#151515" d="M310.363,394.356h-5.291l-6.189-8.68h-11.736v8.68h-4.615v-23.621h19.099
				c2.509,0,4.504,0.678,5.987,2.032c1.483,1.355,2.234,3.168,2.234,5.457c0,3.918-1.96,6.317-5.878,7.178L310.363,394.356z
				 M300.952,381.521c2.783,0,4.193-1.08,4.193-3.223c0-2.289-1.483-3.424-4.45-3.424h-13.531v6.646H300.952z"/>
			<path fill="#151515" d="M322.668,394.356h-4.613v-23.621h4.613V394.356z"/>
			<path fill="#151515" d="M357.313,394.356h-25.434v-23.621h24.555v4.156h-19.94v5.109h13.86v4.138h-13.86v6.079h20.818
				L357.313,394.356L357.313,394.356z"/>
		</g>
		<g>
			<path fill="#151515" d="M156.061,422.06h-6.793v-12.103h1.978v10.363h4.815V422.06z"/>
			<path fill="#151515" d="M165.747,415.944v4.028c0.019,0.256,0.073,0.457,0.201,0.567c0.128,0.128,0.312,0.201,0.568,0.238
				l-0.055,1.465c-1.007,0-1.794-0.22-2.344-0.659c-0.934,0.439-1.886,0.659-2.838,0.659c-1.758,0-2.637-0.935-2.637-2.802
				c0-0.897,0.238-1.538,0.714-1.941c0.477-0.402,1.209-0.641,2.197-0.732l2.271-0.201v-0.641c0-0.477-0.109-0.806-0.311-0.988
				c-0.202-0.184-0.513-0.275-0.916-0.275c-0.751,0-1.703,0.055-2.82,0.146l-0.568,0.037l-0.073-1.355
				c1.282-0.311,2.472-0.457,3.553-0.457c1.08,0,1.849,0.237,2.325,0.695C165.509,414.205,165.747,414.938,165.747,415.944z
				 M161.792,418.142c-0.806,0.073-1.227,0.513-1.227,1.318s0.366,1.227,1.08,1.227c0.586,0,1.208-0.092,1.868-0.274l0.311-0.11
				v-2.344L161.792,418.142z"/>
			<path fill="#151515" d="M171.863,422.06h-1.922v-8.844h1.904v0.55c0.86-0.495,1.666-0.751,2.435-0.751
				c1.172,0,1.978,0.329,2.417,1.007c0.421,0.659,0.641,1.758,0.641,3.296v4.742h-1.904v-4.688c0-0.952-0.11-1.63-0.312-2.032
				s-0.623-0.604-1.264-0.604c-0.604,0-1.172,0.11-1.739,0.349l-0.256,0.109V422.06L171.863,422.06z"/>
			<path fill="#151515" d="M189.074,423.269c0,1.94-1.391,2.893-4.193,2.893c-1.336,0-2.343-0.183-2.984-0.549
				s-0.97-1.025-0.97-1.996c0-0.439,0.109-0.806,0.311-1.117c0.22-0.312,0.549-0.659,1.025-1.007
				c-0.384-0.256-0.586-0.695-0.586-1.281c0-0.238,0.165-0.623,0.476-1.154l0.165-0.256c-0.842-0.513-1.263-1.392-1.263-2.655
				c0-1.062,0.311-1.831,0.952-2.325c0.641-0.494,1.501-0.751,2.582-0.751c0.513,0,1.025,0.055,1.538,0.183l0.256,0.056l2.746-0.073
				v1.557l-1.464-0.092c0.312,0.421,0.476,0.896,0.476,1.446c0,1.153-0.293,1.959-0.879,2.398s-1.501,0.659-2.728,0.659
				c-0.312,0-0.568-0.018-0.769-0.073c-0.165,0.403-0.256,0.714-0.256,0.935c0,0.219,0.11,0.365,0.33,0.457s0.75,0.129,1.575,0.146
				c1.41,0.019,2.362,0.201,2.875,0.568C188.818,421.565,189.074,422.262,189.074,423.269z M182.813,423.451
				c0,0.422,0.165,0.715,0.494,0.879c0.33,0.184,0.897,0.257,1.703,0.257c1.428,0,2.143-0.403,2.143-1.228
				c0-0.457-0.128-0.75-0.385-0.879c-0.256-0.128-0.75-0.183-1.52-0.201l-1.74-0.109c-0.256,0.22-0.439,0.402-0.549,0.586
				C182.867,422.957,182.813,423.177,182.813,423.451z M183.344,417.317c0.256,0.257,0.677,0.385,1.263,0.385
				s0.989-0.128,1.245-0.385s0.384-0.659,0.384-1.19c0-0.549-0.128-0.934-0.384-1.189c-0.256-0.257-0.677-0.385-1.263-0.385
				c-1.081,0-1.63,0.531-1.63,1.574C182.959,416.677,183.087,417.061,183.344,417.317z"/>
			<path fill="#151515" d="M197.754,413.234h1.904v8.844h-1.904v-0.549c-0.86,0.494-1.648,0.75-2.381,0.75
				c-1.208,0-2.032-0.329-2.436-0.988c-0.42-0.659-0.622-1.795-0.622-3.442v-4.614h1.923v4.633c0,1.062,0.092,1.775,0.256,2.142
				c0.184,0.366,0.586,0.55,1.246,0.55c0.641,0,1.227-0.11,1.758-0.348l0.256-0.11V413.234z"/>
			<path fill="#151515" d="M210.297,415.944v4.028c0.018,0.256,0.073,0.457,0.201,0.567c0.128,0.128,0.311,0.201,0.567,0.238
				l-0.055,1.465c-1.007,0-1.794-0.22-2.344-0.659c-0.935,0.439-1.886,0.659-2.839,0.659c-1.758,0-2.637-0.935-2.637-2.802
				c0-0.897,0.238-1.538,0.715-1.941c0.477-0.402,1.209-0.641,2.197-0.732l2.271-0.201v-0.641c0-0.477-0.11-0.806-0.312-0.988
				c-0.201-0.184-0.513-0.275-0.916-0.275c-0.75,0-1.702,0.055-2.819,0.146l-0.567,0.037l-0.073-1.355
				c1.282-0.311,2.472-0.457,3.552-0.457s1.85,0.237,2.326,0.695C210.059,414.205,210.297,414.938,210.297,415.944z
				 M206.342,418.142c-0.806,0.073-1.227,0.513-1.227,1.318s0.365,1.227,1.08,1.227c0.586,0,1.209-0.092,1.867-0.274l0.312-0.11
				v-2.344L206.342,418.142z"/>
			<path fill="#151515" d="M222.198,423.269c0,1.94-1.392,2.893-4.192,2.893c-1.338,0-2.344-0.183-2.985-0.549
				c-0.641-0.366-0.97-1.025-0.97-1.996c0-0.439,0.109-0.806,0.311-1.117c0.22-0.312,0.549-0.659,1.025-1.007
				c-0.385-0.256-0.586-0.695-0.586-1.281c0-0.238,0.165-0.623,0.477-1.154l0.164-0.256c-0.842-0.513-1.264-1.392-1.264-2.655
				c0-1.062,0.313-1.831,0.953-2.325s1.501-0.751,2.582-0.751c0.512,0,1.025,0.055,1.537,0.183l0.257,0.056l2.747-0.073v1.557
				l-1.465-0.092c0.311,0.421,0.476,0.896,0.476,1.446c0,1.153-0.293,1.959-0.879,2.398s-1.501,0.659-2.729,0.659
				c-0.312,0-0.567-0.018-0.769-0.073c-0.165,0.403-0.257,0.714-0.257,0.935c0,0.219,0.11,0.365,0.329,0.457
				c0.221,0.092,0.752,0.129,1.575,0.146c1.41,0.019,2.362,0.201,2.875,0.568C221.942,421.565,222.198,422.262,222.198,423.269z
				 M215.955,423.451c0,0.422,0.164,0.715,0.494,0.879c0.329,0.184,0.896,0.257,1.703,0.257c1.428,0,2.142-0.403,2.142-1.228
				c0-0.457-0.128-0.75-0.384-0.879c-0.257-0.128-0.751-0.183-1.521-0.201l-1.739-0.109c-0.256,0.22-0.439,0.402-0.549,0.586
				C216.01,422.957,215.955,423.177,215.955,423.451z M216.486,417.317c0.256,0.257,0.677,0.385,1.263,0.385
				s0.989-0.128,1.245-0.385s0.385-0.659,0.385-1.19c0-0.549-0.129-0.934-0.385-1.189c-0.256-0.257-0.678-0.385-1.264-0.385
				c-1.08,0-1.629,0.531-1.629,1.574C216.083,416.677,216.229,417.061,216.486,417.317z"/>
			<path fill="#151515" d="M231.812,420.485l0.494-0.056l0.036,1.429c-1.336,0.274-2.526,0.403-3.57,0.403
				c-1.3,0-2.252-0.367-2.819-1.081s-0.86-1.867-0.86-3.442c0-3.131,1.281-4.705,3.826-4.705c2.473,0,3.718,1.354,3.718,4.046
				l-0.128,1.374h-5.457c0.019,0.732,0.165,1.263,0.477,1.611c0.311,0.348,0.879,0.512,1.721,0.512
				C230.072,420.576,230.933,420.54,231.812,420.485z M230.75,416.97c0-0.879-0.146-1.483-0.422-1.831
				c-0.274-0.348-0.75-0.513-1.41-0.513c-0.658,0-1.135,0.183-1.446,0.549c-0.293,0.366-0.458,0.971-0.476,1.795H230.75z"/>
			<path fill="#151515" d="M240.985,411.715v-1.758h8.844v1.758h-3.405v10.363h-1.979v-10.363H240.985z"/>
			<path fill="#151515" d="M257.886,420.485l0.494-0.056l0.037,1.429c-1.337,0.274-2.527,0.403-3.571,0.403
				c-1.3,0-2.252-0.367-2.819-1.081s-0.86-1.867-0.86-3.442c0-3.131,1.281-4.705,3.826-4.705c2.473,0,3.718,1.354,3.718,4.046
				l-0.128,1.374h-5.475c0.018,0.732,0.164,1.263,0.476,1.611c0.312,0.348,0.879,0.512,1.722,0.512
				C256.146,420.576,257.007,420.54,257.886,420.485z M256.824,416.97c0-0.879-0.146-1.483-0.422-1.831
				c-0.274-0.348-0.75-0.513-1.41-0.513c-0.658,0-1.135,0.183-1.446,0.549c-0.293,0.366-0.458,0.971-0.476,1.795H256.824z"/>
			<path fill="#151515" d="M265.649,413.033c0.622,0,1.354,0.091,2.216,0.256l0.439,0.092l-0.073,1.52
				c-0.935-0.092-1.611-0.146-2.069-0.146c-0.897,0-1.502,0.201-1.795,0.604c-0.311,0.402-0.457,1.153-0.457,2.271
				c0,1.099,0.146,1.867,0.439,2.289c0.293,0.421,0.915,0.641,1.831,0.641l2.069-0.146l0.055,1.538
				c-1.19,0.22-2.088,0.312-2.691,0.312c-1.337,0-2.289-0.367-2.838-1.081c-0.55-0.714-0.824-1.904-0.824-3.552
				c0-1.648,0.293-2.82,0.86-3.534C263.397,413.381,264.331,413.033,265.649,413.033z"/>
			<path fill="#151515" d="M273.834,422.06h-1.922v-12.506h1.922v4.138c0.879-0.439,1.685-0.658,2.417-0.658
				c1.172,0,1.978,0.329,2.417,1.007c0.422,0.659,0.641,1.758,0.641,3.296v4.742h-1.922v-4.688c0-0.952-0.092-1.63-0.293-2.032
				c-0.201-0.403-0.623-0.604-1.264-0.604c-0.567,0-1.135,0.092-1.703,0.274l-0.274,0.11v6.921H273.834z"/>
			<path fill="#151515" d="M285.26,422.06h-1.922v-8.844h1.904v0.55c0.86-0.495,1.666-0.751,2.436-0.751
				c1.172,0,1.977,0.329,2.416,1.007c0.422,0.659,0.641,1.758,0.641,3.296v4.742h-1.904v-4.688c0-0.952-0.109-1.63-0.311-2.032
				s-0.623-0.604-1.264-0.604c-0.604,0-1.172,0.11-1.739,0.349l-0.257,0.109V422.06z"/>
			<path fill="#151515" d="M295.239,414.187c0.604-0.77,1.611-1.153,3.04-1.153c1.409,0,2.416,0.384,3.039,1.153
				c0.604,0.769,0.916,1.923,0.916,3.442c0,1.538-0.293,2.691-0.879,3.461c-0.586,0.769-1.611,1.172-3.059,1.172
				c-1.446,0-2.472-0.385-3.058-1.172c-0.586-0.77-0.879-1.941-0.879-3.461C294.324,416.109,294.617,414.955,295.239,414.187z
				 M296.668,419.936c0.274,0.477,0.805,0.715,1.592,0.715c0.788,0,1.318-0.238,1.594-0.715c0.274-0.476,0.402-1.245,0.402-2.307
				c0-1.08-0.146-1.831-0.439-2.289c-0.293-0.439-0.805-0.678-1.557-0.678c-0.75,0-1.281,0.22-1.556,0.678
				c-0.293,0.439-0.439,1.209-0.439,2.289C296.265,418.69,296.393,419.46,296.668,419.936z"/>
			<path fill="#151515" d="M305.987,422.06v-12.506h1.923v12.506H305.987z"/>
			<path fill="#151515" d="M312.598,414.187c0.604-0.77,1.611-1.153,3.039-1.153c1.41,0,2.417,0.384,3.04,1.153
				c0.604,0.769,0.915,1.923,0.915,3.442c0,1.538-0.293,2.691-0.879,3.461c-0.586,0.769-1.611,1.172-3.058,1.172
				s-2.472-0.385-3.058-1.172c-0.586-0.77-0.879-1.941-0.879-3.461C311.7,416.109,311.993,414.955,312.598,414.187z
				 M314.044,419.936c0.274,0.477,0.806,0.715,1.593,0.715c0.788,0,1.318-0.238,1.594-0.715c0.274-0.476,0.402-1.245,0.402-2.307
				c0-1.08-0.146-1.831-0.439-2.289c-0.293-0.439-0.806-0.678-1.557-0.678c-0.75,0-1.281,0.22-1.556,0.678
				c-0.293,0.439-0.439,1.209-0.439,2.289C313.642,418.69,313.77,419.46,314.044,419.936z"/>
			<path fill="#151515" d="M330.963,423.269c0,1.94-1.392,2.893-4.193,2.893c-1.336,0-2.344-0.183-2.984-0.549
				s-0.971-1.025-0.971-1.996c0-0.439,0.11-0.806,0.312-1.117c0.22-0.312,0.55-0.659,1.025-1.007
				c-0.385-0.256-0.586-0.695-0.586-1.281c0-0.238,0.165-0.623,0.477-1.154l0.164-0.256c-0.842-0.513-1.263-1.392-1.263-2.655
				c0-1.062,0.311-1.831,0.952-2.325c0.641-0.494,1.501-0.751,2.581-0.751c0.513,0,1.025,0.055,1.538,0.183l0.257,0.056l2.746-0.073
				v1.557l-1.465-0.092c0.312,0.421,0.477,0.896,0.477,1.446c0,1.153-0.293,1.959-0.879,2.398s-1.502,0.659-2.729,0.659
				c-0.312,0-0.567-0.018-0.769-0.073c-0.165,0.403-0.257,0.714-0.257,0.935c0,0.219,0.11,0.365,0.33,0.457s0.75,0.129,1.574,0.146
				c1.41,0.019,2.362,0.201,2.875,0.568C330.707,421.565,330.963,422.262,330.963,423.269z M324.719,423.451
				c0,0.422,0.165,0.715,0.495,0.879c0.329,0.184,0.897,0.257,1.702,0.257c1.429,0,2.143-0.403,2.143-1.228
				c0-0.457-0.128-0.75-0.385-0.879c-0.256-0.128-0.75-0.183-1.52-0.201l-1.739-0.109c-0.257,0.22-0.439,0.402-0.55,0.586
				C324.774,422.957,324.719,423.177,324.719,423.451z M325.25,417.317c0.257,0.257,0.678,0.385,1.264,0.385
				s0.989-0.128,1.245-0.385c0.257-0.257,0.385-0.659,0.385-1.19c0-0.549-0.128-0.934-0.385-1.189
				c-0.256-0.257-0.678-0.385-1.264-0.385c-1.08,0-1.63,0.531-1.63,1.574C324.865,416.677,324.994,417.061,325.25,417.317z"/>
			<path fill="#151515" d="M334.296,411.732V409.7h1.923v2.032H334.296z M334.296,422.06v-8.844h1.923v8.844H334.296z"/>
			<path fill="#151515" d="M346.619,420.485l0.494-0.056l0.036,1.429c-1.337,0.274-2.526,0.403-3.57,0.403
				c-1.3,0-2.252-0.367-2.82-1.081c-0.567-0.714-0.86-1.867-0.86-3.442c0-3.131,1.282-4.705,3.827-4.705
				c2.472,0,3.717,1.354,3.717,4.046l-0.128,1.374h-5.475c0.018,0.732,0.164,1.263,0.476,1.611c0.312,0.348,0.879,0.512,1.722,0.512
				C344.861,420.576,345.722,420.54,346.619,420.485z M345.557,416.97c0-0.879-0.146-1.483-0.421-1.831
				c-0.275-0.348-0.751-0.513-1.41-0.513s-1.136,0.183-1.446,0.549c-0.293,0.366-0.458,0.971-0.477,1.795H345.557z"/>
			<path fill="#151515" d="M357.202,415.047c-1.392-0.184-2.398-0.274-3.021-0.274c-0.622,0-1.062,0.073-1.3,0.22
				s-0.366,0.385-0.366,0.695c0,0.312,0.128,0.55,0.403,0.678c0.256,0.128,0.896,0.274,1.867,0.458
				c0.988,0.165,1.685,0.439,2.088,0.806c0.421,0.366,0.622,1.007,0.622,1.94c0,0.935-0.293,1.611-0.897,2.051
				c-0.604,0.439-1.465,0.659-2.6,0.659c-0.715,0-1.63-0.092-2.729-0.293l-0.549-0.092l0.072-1.611
				c1.41,0.184,2.436,0.275,3.059,0.275c0.622,0,1.062-0.073,1.336-0.238c0.257-0.146,0.403-0.402,0.403-0.77
				c0-0.348-0.128-0.604-0.385-0.732c-0.256-0.128-0.86-0.274-1.813-0.439c-0.952-0.164-1.666-0.402-2.105-0.75
				s-0.678-0.971-0.678-1.868c0-0.915,0.312-1.593,0.934-2.032c0.623-0.439,1.41-0.678,2.381-0.678c0.751,0,1.685,0.092,2.783,0.275
				l0.549,0.109L357.202,415.047z"/>
		</g>
	</g>
	<path fill="#EE4037" d="M116.254,359.493c-3.754-1.465-7.837-2.271-12.104-2.271H50.903c-3.351,0-6.592,0.494-9.631,1.409
		c-13.751,4.139-23.767,16.883-23.767,31.989v8.679v8.679c0,15.088,10.016,27.851,23.767,31.989
		c3.058,0.915,6.281,1.409,9.631,1.409h34.771l-15.362-15.362l-0.165-0.165l0,0l-2.124-2.123l-1.849-1.85
		c-0.861-0.861-1.41-1.941-1.629-3.059c-0.146-0.75-0.146-1.52,0-2.27c0.146-0.751,0.439-1.483,0.86-2.125
		c0.22-0.329,0.476-0.641,0.751-0.934l0.091-0.092c0.879-0.86,1.941-1.409,3.058-1.629c0.091-0.019,0.201-0.019,0.293-0.037h1.685
		h5.914h0.037h8.478c6.83-0.018,12.378-5.566,12.378-12.414c0-0.019,0-0.019,0-0.037c0-0.018,0-0.036,0-0.036
		c0-6.849-5.53-12.396-12.378-12.415h-8.478h-0.037H56.433h-0.22l0,0h-5.622c-1.227,0-2.38-0.366-3.314-1.007
		c-0.623-0.421-1.172-0.971-1.593-1.611c-0.421-0.641-0.732-1.337-0.897-2.124c-0.073-0.385-0.128-0.787-0.128-1.19v-0.128
		c0-1.227,0.366-2.362,1.007-3.314c0.421-0.641,0.97-1.172,1.593-1.611c0.641-0.421,1.354-0.732,2.124-0.896
		c0.384-0.073,0.787-0.129,1.19-0.129h26.642h8.605c8.917,0,16.7,4.816,20.911,11.976c1.08,1.813,1.922,3.79,2.49,5.878
		c0,0.018,0.018,0.073,0.018,0.091c0.183,0.642,0.311,1.301,0.458,1.96c0.11,0.567,0.202,1.135,0.257,1.721
		c0.018,0.109,0.018,0.238,0.036,0.348c0.092,0.806,0.146,1.63,0.146,2.473c0,0.823-0.055,1.647-0.146,2.472
		c-0.018,0.109-0.018,0.237-0.036,0.348c-0.055,0.586-0.146,1.153-0.257,1.722c-0.128,0.658-0.274,1.318-0.458,1.959
		c-0.018,0.036-0.018,0.055-0.018,0.092c-0.568,2.087-1.41,4.046-2.49,5.877c-4.23,7.16-11.994,11.976-20.911,11.976h-0.842
		l17.651,17.651l10.84,10.84l2.801,2.801v-15.911c12.469-4.853,21.295-16.956,21.295-31.128v-8.68v-8.679
		C137.549,376.448,128.723,364.345,116.254,359.493"/>
</g>
</svg>
